M48
; DRILL file KiCad 10.0.0 date 2026-04-10T16:59:48
; FORMAT={-:-/ absolute / metric / decimal}
; #@! TF.CreationDate,2026-04-10T16:59:48+01:00
; #@! TF.GenerationSoftware,Kicad,Pcbnew,10.0.0
; #@! TF.FileFunction,Plated,1,2,PTH
FMAT,2
METRIC
; #@! TA.AperFunction,Plated,PTH,ViaDrill
T1C0.300
; #@! TA.AperFunction,Plated,PTH,ComponentDrill
T2C0.800
; #@! TA.AperFunction,Plated,PTH,ComponentDrill
T3C1.000
; #@! TA.AperFunction,Plated,PTH,ComponentDrill
T4C1.600
%
G90
G05
T1
X115.087Y-84.1
X116.587Y-100.1
X118.314Y-83.514
X119.587Y-87.1
X123.587Y-111.6
X124.397Y-85.814
X131.725Y-101.6
X131.725Y-104.224
X131.725Y-105.6
X132.588Y-99.1
X132.875Y-108.1
X133.088Y-103.1
X134.088Y-101.6
X134.487Y-100.225
X134.588Y-111.925
X135.137Y-91.14
X136.088Y-98.225
X137.088Y-99.622
X138.088Y-103.1
X138.9Y-108.1
X140.244Y-99.943
X140.588Y-101.1
X141.088Y-87.1
X141.203Y-100.525
X142.162Y-103.6
X158.588Y-108.5
X161.787Y-84.6
T2
X128.588Y-77.6
X128.588Y-81.1
X139.088Y-77.947
X139.088Y-81.447
T3
X109.882Y-100.895
X109.882Y-103.435
X109.882Y-105.975
X109.882Y-108.515
X109.882Y-111.055
X111.587Y-90.56
X111.587Y-93.1
X114.472Y-100.895
X114.472Y-103.435
X114.472Y-105.975
X114.472Y-108.515
X114.472Y-111.055
X119.062Y-100.895
X119.062Y-103.435
X119.062Y-105.975
X119.062Y-108.515
X119.062Y-111.055
X164.588Y-96.1
X164.588Y-98.64
T4
X146.588Y-81.48
X146.588Y-96.72
M30
