%TF.GenerationSoftware,KiCad,Pcbnew,10.0.0*%
%TF.CreationDate,2026-04-10T17:02:48+01:00*%
%TF.ProjectId,LTC1871_Based_Boost_Controller,4c544331-3837-4315-9f42-617365645f42,rev?*%
%TF.SameCoordinates,Original*%
%TF.FileFunction,Copper,L1,Top*%
%TF.FilePolarity,Positive*%
%FSLAX46Y46*%
G04 Gerber Fmt 4.6, Leading zero omitted, Abs format (unit mm)*
G04 Created by KiCad (PCBNEW 10.0.0) date 2026-04-10 17:02:48*
%MOMM*%
%LPD*%
G01*
G04 APERTURE LIST*
G04 Aperture macros list*
%AMRoundRect*
0 Rectangle with rounded corners*
0 $1 Rounding radius*
0 $2 $3 $4 $5 $6 $7 $8 $9 X,Y pos of 4 corners*
0 Add a 4 corners polygon primitive as box body*
4,1,4,$2,$3,$4,$5,$6,$7,$8,$9,$2,$3,0*
0 Add four circle primitives for the rounded corners*
1,1,$1+$1,$2,$3*
1,1,$1+$1,$4,$5*
1,1,$1+$1,$6,$7*
1,1,$1+$1,$8,$9*
0 Add four rect primitives between the rounded corners*
20,1,$1+$1,$2,$3,$4,$5,0*
20,1,$1+$1,$4,$5,$6,$7,0*
20,1,$1+$1,$6,$7,$8,$9,0*
20,1,$1+$1,$8,$9,$2,$3,0*%
G04 Aperture macros list end*
%TA.AperFunction,SMDPad,CuDef*%
%ADD10RoundRect,0.250000X-0.325000X-0.650000X0.325000X-0.650000X0.325000X0.650000X-0.325000X0.650000X0*%
%TD*%
%TA.AperFunction,SMDPad,CuDef*%
%ADD11RoundRect,0.250000X-0.650000X0.325000X-0.650000X-0.325000X0.650000X-0.325000X0.650000X0.325000X0*%
%TD*%
%TA.AperFunction,ComponentPad*%
%ADD12R,1.700000X1.700000*%
%TD*%
%TA.AperFunction,ComponentPad*%
%ADD13C,1.700000*%
%TD*%
%TA.AperFunction,ComponentPad*%
%ADD14RoundRect,0.250000X1.350000X-1.350000X1.350000X1.350000X-1.350000X1.350000X-1.350000X-1.350000X0*%
%TD*%
%TA.AperFunction,ComponentPad*%
%ADD15C,3.200000*%
%TD*%
%TA.AperFunction,SMDPad,CuDef*%
%ADD16RoundRect,0.250000X-0.250000X-0.475000X0.250000X-0.475000X0.250000X0.475000X-0.250000X0.475000X0*%
%TD*%
%TA.AperFunction,ComponentPad*%
%ADD17RoundRect,0.250000X-0.550000X0.550000X-0.550000X-0.550000X0.550000X-0.550000X0.550000X0.550000X0*%
%TD*%
%TA.AperFunction,ComponentPad*%
%ADD18C,1.600000*%
%TD*%
%TA.AperFunction,SMDPad,CuDef*%
%ADD19RoundRect,0.250000X-0.262500X-0.450000X0.262500X-0.450000X0.262500X0.450000X-0.262500X0.450000X0*%
%TD*%
%TA.AperFunction,SMDPad,CuDef*%
%ADD20RoundRect,0.250000X-0.475000X0.250000X-0.475000X-0.250000X0.475000X-0.250000X0.475000X0.250000X0*%
%TD*%
%TA.AperFunction,SMDPad,CuDef*%
%ADD21RoundRect,0.250000X-0.465000X-2.500000X0.465000X-2.500000X0.465000X2.500000X-0.465000X2.500000X0*%
%TD*%
%TA.AperFunction,SMDPad,CuDef*%
%ADD22RoundRect,0.250000X0.475000X-0.250000X0.475000X0.250000X-0.475000X0.250000X-0.475000X-0.250000X0*%
%TD*%
%TA.AperFunction,SMDPad,CuDef*%
%ADD23RoundRect,0.250000X-0.250000X-0.250000X0.250000X-0.250000X0.250000X0.250000X-0.250000X0.250000X0*%
%TD*%
%TA.AperFunction,SMDPad,CuDef*%
%ADD24RoundRect,0.087500X-0.662500X-0.087500X0.662500X-0.087500X0.662500X0.087500X-0.662500X0.087500X0*%
%TD*%
%TA.AperFunction,SMDPad,CuDef*%
%ADD25RoundRect,0.150000X-0.825000X-0.150000X0.825000X-0.150000X0.825000X0.150000X-0.825000X0.150000X0*%
%TD*%
%TA.AperFunction,SMDPad,CuDef*%
%ADD26RoundRect,0.250000X0.450000X-0.262500X0.450000X0.262500X-0.450000X0.262500X-0.450000X-0.262500X0*%
%TD*%
%TA.AperFunction,SMDPad,CuDef*%
%ADD27RoundRect,0.150000X-0.587500X-0.150000X0.587500X-0.150000X0.587500X0.150000X-0.587500X0.150000X0*%
%TD*%
%TA.AperFunction,ViaPad*%
%ADD28C,0.600000*%
%TD*%
%TA.AperFunction,Conductor*%
%ADD29C,1.000000*%
%TD*%
%TA.AperFunction,Conductor*%
%ADD30C,0.500000*%
%TD*%
%TA.AperFunction,Conductor*%
%ADD31C,0.250000*%
%TD*%
G04 APERTURE END LIST*
D10*
%TO.P,C1a7,1*%
%TO.N,Net-(D1-A)*%
X155637500Y-105150000D03*
%TO.P,C1a7,2*%
%TO.N,GND*%
X158587500Y-105150000D03*
%TD*%
D11*
%TO.P,C6,1*%
%TO.N,Net-(J4-Pin_2)*%
X109587500Y-80150000D03*
%TO.P,C6,2*%
%TO.N,GND*%
X109587500Y-83100000D03*
%TD*%
D10*
%TO.P,C1a8,1*%
%TO.N,Net-(D1-A)*%
X155637500Y-108500000D03*
%TO.P,C1a8,2*%
%TO.N,GND*%
X158587500Y-108500000D03*
%TD*%
%TO.P,C1a2,1*%
%TO.N,Net-(D1-A)*%
X155637500Y-88400000D03*
%TO.P,C1a2,2*%
%TO.N,GND*%
X158587500Y-88400000D03*
%TD*%
D12*
%TO.P,J5,1,Pin_1_1*%
%TO.N,GND*%
X119062500Y-100895000D03*
D13*
%TO.P,J5,2,Pin_2_2*%
%TO.N,Net-(D1-A)*%
X119062500Y-103435000D03*
%TO.P,J5,3,Pin_3_3*%
%TO.N,unconnected-(J5-Pin_3-Pad3)*%
X119062500Y-105975000D03*
%TO.P,J5,4,Pin_4_4*%
%TO.N,unconnected-(J5-Pin_4-Pad4)*%
X119062500Y-108515000D03*
%TO.P,J5,5,Pin_5_5*%
%TO.N,unconnected-(J5-Pin_5-Pad5)*%
X119062500Y-111055000D03*
%TD*%
D10*
%TO.P,C1a6,1*%
%TO.N,Net-(D1-A)*%
X155637500Y-101800000D03*
%TO.P,C1a6,2*%
%TO.N,GND*%
X158587500Y-101800000D03*
%TD*%
D14*
%TO.P,D1,1,K_1*%
%TO.N,Net-(D1-K)*%
X146587500Y-96720000D03*
D15*
%TO.P,D1,2,A_2*%
%TO.N,Net-(D1-A)*%
X146587500Y-81480000D03*
%TD*%
D16*
%TO.P,C1b2,1*%
%TO.N,Net-(D1-A)*%
X160637500Y-81110000D03*
%TO.P,C1b2,2*%
%TO.N,GND*%
X162537500Y-81110000D03*
%TD*%
D17*
%TO.P,Cin1,1*%
%TO.N,Net-(J4-Pin_2)*%
X128587500Y-77600000D03*
D18*
%TO.P,Cin1,2*%
%TO.N,GND*%
X128587500Y-81100000D03*
%TD*%
D19*
%TO.P,R6,1*%
%TO.N,Net-(U1-RUN)*%
X117262500Y-85100000D03*
%TO.P,R6,2*%
%TO.N,GND*%
X119087500Y-85100000D03*
%TD*%
D20*
%TO.P,C1,1*%
%TO.N,Net-(D2-K)*%
X130587500Y-105650000D03*
%TO.P,C1,2*%
%TO.N,GND*%
X130587500Y-107550000D03*
%TD*%
D12*
%TO.P,J2,1,Pin_1_1*%
%TO.N,Net-(D1-A)*%
X164587500Y-96100000D03*
D13*
%TO.P,J2,2,Pin_2_2*%
%TO.N,GND*%
X164587500Y-98640000D03*
%TD*%
D11*
%TO.P,C7,1*%
%TO.N,Net-(J4-Pin_2)*%
X113087500Y-77650000D03*
%TO.P,C7,2*%
%TO.N,GND*%
X113087500Y-80600000D03*
%TD*%
D10*
%TO.P,C1a3,1*%
%TO.N,Net-(D1-A)*%
X155637500Y-91750000D03*
%TO.P,C1a3,2*%
%TO.N,GND*%
X158587500Y-91750000D03*
%TD*%
D19*
%TO.P,R5,1*%
%TO.N,Net-(J4-Pin_2)*%
X117262500Y-82600000D03*
%TO.P,R5,2*%
%TO.N,Net-(U1-RUN)*%
X119087500Y-82600000D03*
%TD*%
D12*
%TO.P,J4,1,Pin_1_1*%
%TO.N,GND*%
X114472500Y-100895000D03*
D13*
%TO.P,J4,2,Pin_2_2*%
%TO.N,Net-(J4-Pin_2)*%
X114472500Y-103435000D03*
%TO.P,J4,3,Pin_3_3*%
%TO.N,unconnected-(J4-Pin_3-Pad3)*%
X114472500Y-105975000D03*
%TO.P,J4,4,Pin_4_4*%
%TO.N,unconnected-(J4-Pin_4-Pad4)*%
X114472500Y-108515000D03*
%TO.P,J4,5,Pin_5_5*%
%TO.N,unconnected-(J4-Pin_5-Pad5)*%
X114472500Y-111055000D03*
%TD*%
D10*
%TO.P,C1a5,1*%
%TO.N,Net-(D1-A)*%
X155637500Y-98450000D03*
%TO.P,C1a5,2*%
%TO.N,GND*%
X158587500Y-98450000D03*
%TD*%
D21*
%TO.P,L1,1,1_1*%
%TO.N,Net-(J4-Pin_2)*%
X125547500Y-91100000D03*
%TO.P,L1,2,2_2*%
%TO.N,Net-(D1-K)*%
X129587500Y-91100000D03*
%TD*%
D22*
%TO.P,C3,1*%
%TO.N,Net-(D2-K)*%
X129087500Y-112000000D03*
%TO.P,C3,2*%
%TO.N,GND*%
X129087500Y-110100000D03*
%TD*%
D20*
%TO.P,C2,1*%
%TO.N,Net-(C2-Pad1)*%
X123587500Y-109600000D03*
%TO.P,C2,2*%
%TO.N,GND*%
X123587500Y-111500000D03*
%TD*%
D12*
%TO.P,J3,1,Pin_1_1*%
%TO.N,GND*%
X109882500Y-100895000D03*
D13*
%TO.P,J3,2,Pin_2_2*%
%TO.N,unconnected-(J3-Pin_2-Pad2)*%
X109882500Y-103435000D03*
%TO.P,J3,3,Pin_3_3*%
%TO.N,unconnected-(J3-Pin_3-Pad3)*%
X109882500Y-105975000D03*
%TO.P,J3,4,Pin_4_4*%
%TO.N,unconnected-(J3-Pin_4-Pad4)*%
X109882500Y-108515000D03*
%TO.P,J3,5,Pin_5_5*%
%TO.N,unconnected-(J3-Pin_5-Pad5)*%
X109882500Y-111055000D03*
%TD*%
D23*
%TO.P,D2,1,K_1*%
%TO.N,Net-(D2-K)*%
X134587500Y-105600000D03*
%TO.P,D2,2,A_2*%
%TO.N,Net-(D2-A)*%
X137087500Y-105600000D03*
%TD*%
D19*
%TO.P,R2,1*%
%TO.N,Net-(U1-FB)*%
X139762500Y-105100000D03*
%TO.P,R2,2*%
%TO.N,GND*%
X141587500Y-105100000D03*
%TD*%
D16*
%TO.P,C1b1,1*%
%TO.N,Net-(D1-A)*%
X160637500Y-78100000D03*
%TO.P,C1b1,2*%
%TO.N,GND*%
X162537500Y-78100000D03*
%TD*%
D19*
%TO.P,R3,1*%
%TO.N,Net-(D1-A)*%
X140262500Y-110600000D03*
%TO.P,R3,2*%
%TO.N,Net-(U1-FB)*%
X142087500Y-110600000D03*
%TD*%
D10*
%TO.P,C1a1,1*%
%TO.N,Net-(D1-A)*%
X155637500Y-85050000D03*
%TO.P,C1a1,2*%
%TO.N,GND*%
X158587500Y-85050000D03*
%TD*%
D24*
%TO.P,U1,1,RUN_1*%
%TO.N,Net-(U1-RUN)*%
X134487500Y-98100000D03*
%TO.P,U1,2,ITH_2*%
%TO.N,Net-(D2-A)*%
X134487500Y-98600000D03*
%TO.P,U1,3,FB_3*%
%TO.N,Net-(U1-FB)*%
X134487500Y-99100000D03*
%TO.P,U1,4,FREQ_4*%
%TO.N,Net-(U1-FREQ)*%
X134487500Y-99600000D03*
%TO.P,U1,5,MODE/SYNC_5*%
%TO.N,GND*%
X134487500Y-100100000D03*
%TO.P,U1,6,GND_6*%
X138687500Y-100100000D03*
%TO.P,U1,7,GATE_7*%
%TO.N,Net-(Q1-G)*%
X138687500Y-99600000D03*
%TO.P,U1,8,INTVCC_8*%
%TO.N,Net-(U1-INTVCC)*%
X138687500Y-99100000D03*
%TO.P,U1,9,VIN_9*%
%TO.N,Net-(J4-Pin_2)*%
X138687500Y-98600000D03*
%TO.P,U1,10,SENSE_10*%
%TO.N,Net-(D1-K)*%
X138687500Y-98100000D03*
%TD*%
D19*
%TO.P,R4,1*%
%TO.N,Net-(C2-Pad1)*%
X131262500Y-103100000D03*
%TO.P,R4,2*%
%TO.N,Net-(D2-K)*%
X133087500Y-103100000D03*
%TD*%
D25*
%TO.P,Q1,1,G_1*%
%TO.N,Net-(Q1-G)*%
X135137500Y-88600000D03*
%TO.P,Q1,2,D_2*%
%TO.N,Net-(D1-K)*%
X135137500Y-89870000D03*
%TO.P,Q1,3,S_3*%
%TO.N,GND*%
X135137500Y-91140000D03*
%TO.P,Q1,4,Drain_4*%
%TO.N,Net-(D1-K)*%
X135137500Y-92410000D03*
%TO.P,Q1,5,Drain_5*%
X140087500Y-92410000D03*
%TO.P,Q1,6,Drain_6*%
X140087500Y-91140000D03*
%TO.P,Q1,7,Drain_7*%
X140087500Y-89870000D03*
%TO.P,Q1,8,Drain_8*%
X140087500Y-88600000D03*
%TD*%
D26*
%TO.P,R1,1*%
%TO.N,GND*%
X134587500Y-111925000D03*
%TO.P,R1,2*%
%TO.N,Net-(U1-FREQ)*%
X134587500Y-110100000D03*
%TD*%
D16*
%TO.P,C4,1*%
%TO.N,Net-(U1-INTVCC)*%
X141187500Y-99600000D03*
%TO.P,C4,2*%
%TO.N,GND*%
X143087500Y-99600000D03*
%TD*%
D27*
%TO.P,Q2,1,G_1*%
%TO.N,GND*%
X116587500Y-90600000D03*
%TO.P,Q2,2,S_2*%
%TO.N,Net-(J4-Pin_2)*%
X116587500Y-92500000D03*
%TO.P,Q2,3,D_3*%
X118462500Y-91550000D03*
%TD*%
D10*
%TO.P,C1a4,1*%
%TO.N,Net-(D1-A)*%
X155637500Y-95100000D03*
%TO.P,C1a4,2*%
%TO.N,GND*%
X158587500Y-95100000D03*
%TD*%
D17*
%TO.P,C5,1*%
%TO.N,Net-(D1-A)*%
X139087500Y-77947349D03*
D18*
%TO.P,C5,2*%
%TO.N,GND*%
X139087500Y-81447349D03*
%TD*%
D12*
%TO.P,J_VIN1,1,Pin_1_1*%
%TO.N,Net-(J4-Pin_2)*%
X111587500Y-90560000D03*
D13*
%TO.P,J_VIN1,2,Pin_2_2*%
%TO.N,GND*%
X111587500Y-93100000D03*
%TD*%
D28*
%TO.N,GND*%
X115087500Y-84100000D03*
X141087500Y-87100000D03*
X138900000Y-108100000D03*
X140587500Y-101100000D03*
X123587500Y-111600000D03*
X134487500Y-100225000D03*
X158587500Y-108500000D03*
X124397500Y-85813984D03*
X161787500Y-84600000D03*
X135137500Y-91140000D03*
X138087500Y-103100000D03*
X134587500Y-111925000D03*
X119587500Y-87100000D03*
%TO.N,Net-(D1-K)*%
X137087500Y-99621752D03*
%TO.N,Net-(U1-RUN)*%
X118314430Y-83513756D03*
X136087500Y-98225000D03*
%TO.N,Net-(D2-K)*%
X132587500Y-99100000D03*
X132875000Y-108100000D03*
X131725000Y-101600000D03*
X134087500Y-101600000D03*
X131725000Y-105600000D03*
X131725000Y-104223676D03*
X133087500Y-103100000D03*
%TO.N,Net-(U1-INTVCC)*%
X141202953Y-100525000D03*
X140244087Y-99943413D03*
X142162500Y-103600000D03*
%TO.N,Net-(J4-Pin_2)*%
X116587500Y-100100000D03*
%TD*%
%TO.N,Net-(D1-A)*%
D29*
X146587500Y-81480000D02*
X142620151Y-81480000D01*
D30*
X119062500Y-103435000D02*
X122462500Y-106835000D01*
X143000000Y-109873834D02*
X142626166Y-109500000D01*
X141362500Y-109500000D02*
X140262500Y-110600000D01*
D29*
X159577500Y-81110000D02*
X155637500Y-85050000D01*
X160637500Y-81110000D02*
X160637500Y-78100000D01*
D30*
X122836334Y-110500000D02*
X125017096Y-110500000D01*
D29*
X160637500Y-92150000D02*
X160637500Y-81110000D01*
X139087500Y-77947349D02*
X139163825Y-78023675D01*
X148534849Y-77947349D02*
X155637500Y-85050000D01*
D30*
X128092096Y-113575000D02*
X140751166Y-113575000D01*
D31*
X155637500Y-108500000D02*
X142362500Y-108500000D01*
D30*
X122462500Y-110126166D02*
X122836334Y-110500000D01*
X122462500Y-106835000D02*
X122462500Y-110126166D01*
D29*
X155637500Y-85050000D02*
X155637500Y-108500000D01*
X142620151Y-81480000D02*
X139087500Y-77947349D01*
X160637500Y-81110000D02*
X159577500Y-81110000D01*
D30*
X125017096Y-110500000D02*
X128092096Y-113575000D01*
D29*
X139087500Y-77947349D02*
X148534849Y-77947349D01*
D30*
X143000000Y-111326166D02*
X143000000Y-109873834D01*
D29*
X164587500Y-96100000D02*
X160637500Y-92150000D01*
D30*
X142626166Y-109500000D02*
X141362500Y-109500000D01*
D31*
X142362500Y-108500000D02*
X140262500Y-110600000D01*
D30*
X140751166Y-113575000D02*
X143000000Y-111326166D01*
%TO.N,GND*%
D29*
X128587500Y-81100000D02*
X138740151Y-81100000D01*
X121183516Y-80600000D02*
X124397500Y-83813984D01*
X158587500Y-85050000D02*
X158587500Y-108500000D01*
X114472500Y-100895000D02*
X114472500Y-95985000D01*
D31*
X119087500Y-85100000D02*
X119087500Y-86600000D01*
D30*
X127962500Y-110175000D02*
X127962500Y-112526166D01*
D31*
X143087500Y-99600000D02*
X139587500Y-103100000D01*
D29*
X109882500Y-94805000D02*
X111587500Y-93100000D01*
X109882500Y-100895000D02*
X109882500Y-94805000D01*
X124397500Y-83813984D02*
X124397500Y-85813984D01*
D30*
X134587500Y-111925000D02*
X135075000Y-111925000D01*
D29*
X111587500Y-93100000D02*
X110906484Y-93100000D01*
D31*
X138687500Y-100100000D02*
X139087500Y-100100000D01*
D30*
X127962500Y-112526166D02*
X128336334Y-112900000D01*
D29*
X119062500Y-100895000D02*
X119062500Y-100575000D01*
D31*
X139087500Y-100100000D02*
X140087500Y-101100000D01*
D29*
X162537500Y-78100000D02*
X162537500Y-83850000D01*
D31*
X139587500Y-103100000D02*
X138087500Y-103100000D01*
D29*
X139087500Y-81447349D02*
X139087500Y-85100000D01*
X158587500Y-104640000D02*
X158587500Y-108500000D01*
X138740151Y-81100000D02*
X139087500Y-81447349D01*
D30*
X128336334Y-112900000D02*
X133612500Y-112900000D01*
D31*
X119087500Y-86600000D02*
X119587500Y-87100000D01*
X141587500Y-101100000D02*
X143087500Y-99600000D01*
D29*
X114472500Y-95985000D02*
X111587500Y-93100000D01*
D31*
X119587500Y-87600000D02*
X119587500Y-87100000D01*
X116587500Y-90600000D02*
X119587500Y-87600000D01*
D30*
X135075000Y-111925000D02*
X138900000Y-108100000D01*
D29*
X162537500Y-83850000D02*
X161787500Y-84600000D01*
X113087500Y-80600000D02*
X121183516Y-80600000D01*
X119062500Y-100575000D02*
X111587500Y-93100000D01*
X139087500Y-85100000D02*
X141087500Y-87100000D01*
X109587500Y-91781016D02*
X109587500Y-83100000D01*
D30*
X133612500Y-112900000D02*
X134587500Y-111925000D01*
X130587500Y-107550000D02*
X127962500Y-110175000D01*
D29*
X109587500Y-83100000D02*
X110587500Y-84100000D01*
X164587500Y-98640000D02*
X158587500Y-104640000D01*
D31*
X140087500Y-101100000D02*
X140587500Y-101100000D01*
X141587500Y-105100000D02*
X141587500Y-101100000D01*
X141587500Y-101100000D02*
X140587500Y-101100000D01*
D29*
X110906484Y-93100000D02*
X109587500Y-91781016D01*
X110587500Y-84100000D02*
X115087500Y-84100000D01*
%TO.N,Net-(D1-K)*%
D30*
X140587500Y-93600000D02*
X140587500Y-92910000D01*
X136277500Y-92410000D02*
X135137500Y-92410000D01*
D31*
X137922424Y-98100000D02*
X137087500Y-98934924D01*
D30*
X135137500Y-92410000D02*
X134650526Y-92410000D01*
X140087500Y-88600000D02*
X136277500Y-92410000D01*
X133762500Y-90270001D02*
X134162501Y-89870000D01*
D31*
X137087500Y-98934924D02*
X137087500Y-99621752D01*
D30*
X134650526Y-92410000D02*
X133762500Y-91521974D01*
X140087500Y-92410000D02*
X140087500Y-88600000D01*
X133762500Y-91521974D02*
X133762500Y-90270001D01*
D31*
X138687500Y-98100000D02*
X137922424Y-98100000D01*
D30*
X135137500Y-89870000D02*
X130817500Y-89870000D01*
D29*
X146587500Y-96720000D02*
X143707500Y-96720000D01*
D30*
X134162501Y-89870000D02*
X135137500Y-89870000D01*
X130817500Y-89870000D02*
X129587500Y-91100000D01*
D29*
X143707500Y-96720000D02*
X140587500Y-93600000D01*
D30*
X140587500Y-92910000D02*
X140087500Y-92410000D01*
%TO.N,Net-(U1-RUN)*%
D31*
X114797500Y-85100000D02*
X110462500Y-89435000D01*
X110462500Y-91560000D02*
X110587500Y-91685000D01*
X117262500Y-85100000D02*
X114797500Y-85100000D01*
X134487500Y-98100000D02*
X135962500Y-98100000D01*
X110462500Y-89435000D02*
X110462500Y-91560000D01*
X119087500Y-82600000D02*
X119087500Y-82740686D01*
X119087500Y-82740686D02*
X118314430Y-83513756D01*
X135962500Y-98100000D02*
X136087500Y-98225000D01*
X110587500Y-91685000D02*
X112712500Y-91685000D01*
X134487500Y-98100000D02*
X119127500Y-98100000D01*
X119127500Y-98100000D02*
X112712500Y-91685000D01*
%TO.N,Net-(D2-K)*%
X134587500Y-105600000D02*
X134587500Y-106387500D01*
X133087500Y-104100000D02*
X134587500Y-105600000D01*
X131587500Y-106650000D02*
X130587500Y-105650000D01*
X133087500Y-103100000D02*
X133087500Y-102600000D01*
X131725000Y-101600000D02*
X131725000Y-99962500D01*
X131725000Y-104223676D02*
X131725000Y-105600000D01*
X129087500Y-112000000D02*
X131587500Y-109500000D01*
X131587500Y-109500000D02*
X131587500Y-106650000D01*
X133087500Y-102600000D02*
X134087500Y-101600000D01*
X130587500Y-105650000D02*
X130587500Y-105361176D01*
X130587500Y-105361176D02*
X131725000Y-104223676D01*
X134587500Y-106387500D02*
X132875000Y-108100000D01*
X133087500Y-103100000D02*
X133087500Y-104100000D01*
X131725000Y-99962500D02*
X132587500Y-99100000D01*
%TO.N,Net-(C2-Pad1)*%
D30*
X123587500Y-109600000D02*
X124762500Y-109600000D01*
X124762500Y-109600000D02*
X131262500Y-103100000D01*
%TO.N,Net-(D2-A)*%
D31*
X137087500Y-100434924D02*
X137087500Y-105600000D01*
X135252576Y-98600000D02*
X137087500Y-100434924D01*
X134487500Y-98600000D02*
X135252576Y-98600000D01*
%TO.N,Net-(U1-FB)*%
X139475000Y-111274390D02*
X139775610Y-111575000D01*
X139762500Y-106386890D02*
X139762500Y-105100000D01*
X139762500Y-105100000D02*
X139475000Y-105387500D01*
X139475000Y-105387500D02*
X139475000Y-111274390D01*
X133913110Y-110887500D02*
X135261890Y-110887500D01*
X135261890Y-110887500D02*
X139762500Y-106386890D01*
X133722424Y-99100000D02*
X132300000Y-100522424D01*
X141112500Y-111575000D02*
X142087500Y-110600000D01*
X132300000Y-100522424D02*
X132300000Y-109274390D01*
X139775610Y-111575000D02*
X141112500Y-111575000D01*
X132300000Y-109274390D02*
X133913110Y-110887500D01*
X134487500Y-99100000D02*
X133722424Y-99100000D01*
%TO.N,Net-(U1-FREQ)*%
X135252576Y-99600000D02*
X135512500Y-99859924D01*
X135512500Y-99859924D02*
X135512500Y-109175000D01*
X134487500Y-99600000D02*
X135252576Y-99600000D01*
X135512500Y-109175000D02*
X134587500Y-110100000D01*
%TO.N,Net-(Q1-G)*%
X141341890Y-88025000D02*
X148462500Y-95145610D01*
X148462500Y-95145610D02*
X148462500Y-98294390D01*
X148156890Y-98600000D02*
X140713110Y-98600000D01*
X135137500Y-88600000D02*
X135712500Y-88025000D01*
X139713110Y-99600000D02*
X138687500Y-99600000D01*
X140713110Y-98600000D02*
X139713110Y-99600000D01*
X148462500Y-98294390D02*
X148156890Y-98600000D01*
X135712500Y-88025000D02*
X141341890Y-88025000D01*
%TO.N,Net-(U1-INTVCC)*%
X137662500Y-100340076D02*
X137872424Y-100550000D01*
X140244087Y-99943413D02*
X140844087Y-99943413D01*
X140499390Y-104125000D02*
X140800000Y-104425610D01*
X142074390Y-106075000D02*
X142375000Y-105774390D01*
X141100610Y-106075000D02*
X142074390Y-106075000D01*
X137512500Y-100909924D02*
X137512500Y-103338173D01*
X138687500Y-99100000D02*
X137922424Y-99100000D01*
X142375000Y-105774390D02*
X142375000Y-103812500D01*
X137662500Y-99359924D02*
X137662500Y-100340076D01*
X137512500Y-103338173D02*
X138299327Y-104125000D01*
X140800000Y-104425610D02*
X140800000Y-105774390D01*
X140844087Y-99943413D02*
X141187500Y-99600000D01*
X142375000Y-103812500D02*
X142162500Y-103600000D01*
X140800000Y-105774390D02*
X141100610Y-106075000D01*
X137922424Y-99100000D02*
X137662500Y-99359924D01*
X138299327Y-104125000D02*
X140499390Y-104125000D01*
X137872424Y-100550000D02*
X137512500Y-100909924D01*
%TO.N,Net-(J4-Pin_2)*%
D29*
X125547500Y-91100000D02*
X125547500Y-80640000D01*
D31*
X123587500Y-87100000D02*
X124087500Y-86600000D01*
X118112500Y-84125000D02*
X123612500Y-84125000D01*
X139452576Y-98600000D02*
X138687500Y-98600000D01*
D29*
X125547500Y-80640000D02*
X128587500Y-77600000D01*
D30*
X116587500Y-101320000D02*
X116587500Y-100100000D01*
D31*
X139502576Y-97650000D02*
X139712500Y-97859924D01*
X123587500Y-87100000D02*
X123587500Y-90465076D01*
X123612500Y-86125000D02*
X123612500Y-84125000D01*
X139712500Y-97859924D02*
X139712500Y-98340076D01*
D29*
X116587500Y-82600000D02*
X117262500Y-82600000D01*
D31*
X123587500Y-90465076D02*
X130772424Y-97650000D01*
D29*
X109587500Y-80150000D02*
X112037500Y-82600000D01*
D31*
X116587500Y-82600000D02*
X118112500Y-84125000D01*
D29*
X113087500Y-77650000D02*
X112087500Y-77650000D01*
X112087500Y-77650000D02*
X109587500Y-80150000D01*
X125097500Y-91550000D02*
X125547500Y-91100000D01*
X118462500Y-91550000D02*
X125097500Y-91550000D01*
X111587500Y-90560000D02*
X114647500Y-90560000D01*
X128587500Y-77600000D02*
X113137500Y-77600000D01*
X112037500Y-82600000D02*
X116587500Y-82600000D01*
X116587500Y-92500000D02*
X117512500Y-92500000D01*
D31*
X139712500Y-98340076D02*
X139452576Y-98600000D01*
X130772424Y-97650000D02*
X139502576Y-97650000D01*
D29*
X117512500Y-92500000D02*
X118462500Y-91550000D01*
D30*
X114472500Y-103435000D02*
X116587500Y-101320000D01*
D29*
X113137500Y-77600000D02*
X113087500Y-77650000D01*
X114647500Y-90560000D02*
X116587500Y-92500000D01*
D31*
X124087500Y-86600000D02*
X123612500Y-86125000D01*
%TD*%
M02*
