%TF.GenerationSoftware,KiCad,Pcbnew,10.0.0*%
%TF.CreationDate,2026-04-10T17:02:48+01:00*%
%TF.ProjectId,LTC1871_Based_Boost_Controller,4c544331-3837-4315-9f42-617365645f42,rev?*%
%TF.SameCoordinates,Original*%
%TF.FileFunction,Copper,L2,Bot*%
%TF.FilePolarity,Positive*%
%FSLAX46Y46*%
G04 Gerber Fmt 4.6, Leading zero omitted, Abs format (unit mm)*
G04 Created by KiCad (PCBNEW 10.0.0) date 2026-04-10 17:02:48*
%MOMM*%
%LPD*%
G01*
G04 APERTURE LIST*
G04 Aperture macros list*
%AMRoundRect*
0 Rectangle with rounded corners*
0 $1 Rounding radius*
0 $2 $3 $4 $5 $6 $7 $8 $9 X,Y pos of 4 corners*
0 Add a 4 corners polygon primitive as box body*
4,1,4,$2,$3,$4,$5,$6,$7,$8,$9,$2,$3,0*
0 Add four circle primitives for the rounded corners*
1,1,$1+$1,$2,$3*
1,1,$1+$1,$4,$5*
1,1,$1+$1,$6,$7*
1,1,$1+$1,$8,$9*
0 Add four rect primitives between the rounded corners*
20,1,$1+$1,$2,$3,$4,$5,0*
20,1,$1+$1,$4,$5,$6,$7,0*
20,1,$1+$1,$6,$7,$8,$9,0*
20,1,$1+$1,$8,$9,$2,$3,0*%
G04 Aperture macros list end*
%TA.AperFunction,ComponentPad*%
%ADD10R,1.700000X1.700000*%
%TD*%
%TA.AperFunction,ComponentPad*%
%ADD11C,1.700000*%
%TD*%
%TA.AperFunction,ComponentPad*%
%ADD12RoundRect,0.250000X1.350000X-1.350000X1.350000X1.350000X-1.350000X1.350000X-1.350000X-1.350000X0*%
%TD*%
%TA.AperFunction,ComponentPad*%
%ADD13C,3.200000*%
%TD*%
%TA.AperFunction,ComponentPad*%
%ADD14RoundRect,0.250000X-0.550000X0.550000X-0.550000X-0.550000X0.550000X-0.550000X0.550000X0.550000X0*%
%TD*%
%TA.AperFunction,ComponentPad*%
%ADD15C,1.600000*%
%TD*%
%TA.AperFunction,ViaPad*%
%ADD16C,0.600000*%
%TD*%
%TA.AperFunction,Conductor*%
%ADD17C,0.500000*%
%TD*%
%TA.AperFunction,Conductor*%
%ADD18C,0.250000*%
%TD*%
%TA.AperFunction,Conductor*%
%ADD19C,1.000000*%
%TD*%
G04 APERTURE END LIST*
D10*
%TO.P,J5,1,Pin_1_1*%
%TO.N,GND*%
X119062500Y-100895000D03*
D11*
%TO.P,J5,2,Pin_2_2*%
%TO.N,Net-(D1-A)*%
X119062500Y-103435000D03*
%TO.P,J5,3,Pin_3_3*%
%TO.N,unconnected-(J5-Pin_3-Pad3)*%
X119062500Y-105975000D03*
%TO.P,J5,4,Pin_4_4*%
%TO.N,unconnected-(J5-Pin_4-Pad4)*%
X119062500Y-108515000D03*
%TO.P,J5,5,Pin_5_5*%
%TO.N,unconnected-(J5-Pin_5-Pad5)*%
X119062500Y-111055000D03*
%TD*%
D12*
%TO.P,D1,1,K_1*%
%TO.N,Net-(D1-K)*%
X146587500Y-96720000D03*
D13*
%TO.P,D1,2,A_2*%
%TO.N,Net-(D1-A)*%
X146587500Y-81480000D03*
%TD*%
D14*
%TO.P,Cin1,1*%
%TO.N,Net-(J4-Pin_2)*%
X128587500Y-77600000D03*
D15*
%TO.P,Cin1,2*%
%TO.N,GND*%
X128587500Y-81100000D03*
%TD*%
D10*
%TO.P,J2,1,Pin_1_1*%
%TO.N,Net-(D1-A)*%
X164587500Y-96100000D03*
D11*
%TO.P,J2,2,Pin_2_2*%
%TO.N,GND*%
X164587500Y-98640000D03*
%TD*%
D10*
%TO.P,J4,1,Pin_1_1*%
%TO.N,GND*%
X114472500Y-100895000D03*
D11*
%TO.P,J4,2,Pin_2_2*%
%TO.N,Net-(J4-Pin_2)*%
X114472500Y-103435000D03*
%TO.P,J4,3,Pin_3_3*%
%TO.N,unconnected-(J4-Pin_3-Pad3)*%
X114472500Y-105975000D03*
%TO.P,J4,4,Pin_4_4*%
%TO.N,unconnected-(J4-Pin_4-Pad4)*%
X114472500Y-108515000D03*
%TO.P,J4,5,Pin_5_5*%
%TO.N,unconnected-(J4-Pin_5-Pad5)*%
X114472500Y-111055000D03*
%TD*%
D10*
%TO.P,J3,1,Pin_1_1*%
%TO.N,GND*%
X109882500Y-100895000D03*
D11*
%TO.P,J3,2,Pin_2_2*%
%TO.N,unconnected-(J3-Pin_2-Pad2)*%
X109882500Y-103435000D03*
%TO.P,J3,3,Pin_3_3*%
%TO.N,unconnected-(J3-Pin_3-Pad3)*%
X109882500Y-105975000D03*
%TO.P,J3,4,Pin_4_4*%
%TO.N,unconnected-(J3-Pin_4-Pad4)*%
X109882500Y-108515000D03*
%TO.P,J3,5,Pin_5_5*%
%TO.N,unconnected-(J3-Pin_5-Pad5)*%
X109882500Y-111055000D03*
%TD*%
D14*
%TO.P,C5,1*%
%TO.N,Net-(D1-A)*%
X139087500Y-77947349D03*
D15*
%TO.P,C5,2*%
%TO.N,GND*%
X139087500Y-81447349D03*
%TD*%
D10*
%TO.P,J_VIN1,1,Pin_1_1*%
%TO.N,Net-(J4-Pin_2)*%
X111587500Y-90560000D03*
D11*
%TO.P,J_VIN1,2,Pin_2_2*%
%TO.N,GND*%
X111587500Y-93100000D03*
%TD*%
D16*
%TO.N,GND*%
X115087500Y-84100000D03*
X141087500Y-87100000D03*
X138900000Y-108100000D03*
X140587500Y-101100000D03*
X123587500Y-111600000D03*
X134487500Y-100225000D03*
X158587500Y-108500000D03*
X124397500Y-85813984D03*
X161787500Y-84600000D03*
X135137500Y-91140000D03*
X138087500Y-103100000D03*
X134587500Y-111925000D03*
X119587500Y-87100000D03*
%TO.N,Net-(D1-K)*%
X137087500Y-99621752D03*
%TO.N,Net-(U1-RUN)*%
X118314430Y-83513756D03*
X136087500Y-98225000D03*
%TO.N,Net-(D2-K)*%
X132587500Y-99100000D03*
X132875000Y-108100000D03*
X131725000Y-101600000D03*
X134087500Y-101600000D03*
X131725000Y-105600000D03*
X131725000Y-104223676D03*
X133087500Y-103100000D03*
%TO.N,Net-(U1-INTVCC)*%
X141202953Y-100525000D03*
X140244087Y-99943413D03*
X142162500Y-103600000D03*
%TO.N,Net-(J4-Pin_2)*%
X116587500Y-100100000D03*
%TD*%
%TO.N,GND*%
D17*
X136714708Y-98721752D02*
X135456955Y-99979505D01*
D18*
X135849327Y-98800000D02*
X135137500Y-98088173D01*
X135137500Y-98088173D02*
X135137500Y-91140000D01*
X135865749Y-98846751D02*
X134487500Y-100225000D01*
D17*
X129087500Y-110100000D02*
X125087500Y-110100000D01*
X125000589Y-110186911D02*
X125143992Y-110186911D01*
X130587500Y-107600000D02*
X129087500Y-109100000D01*
D18*
X138087500Y-103100000D02*
X136312499Y-101324999D01*
X125087500Y-110100000D02*
X123587500Y-111600000D01*
D17*
X142209252Y-98721752D02*
X143087500Y-99600000D01*
D19*
X116087500Y-85100000D02*
X115087500Y-84100000D01*
X119801484Y-85813984D02*
X119587500Y-85600000D01*
D18*
X139087500Y-100100000D02*
X137834251Y-98846751D01*
X134487500Y-100225000D02*
X134487500Y-98100000D01*
X137434251Y-98846751D02*
X138687500Y-100100000D01*
X136312499Y-105512499D02*
X138900000Y-108100000D01*
X136312499Y-99300737D02*
X136312499Y-105512499D01*
X141087500Y-87100000D02*
X141087500Y-94038173D01*
D19*
X115087500Y-84100000D02*
X113087500Y-82100000D01*
D17*
X123587500Y-111600000D02*
X125000589Y-110186911D01*
D18*
X135400000Y-111600000D02*
X138900000Y-108100000D01*
X123587500Y-111600000D02*
X127587500Y-111600000D01*
D17*
X138900000Y-108100000D02*
X138900000Y-107787500D01*
X135456955Y-99979505D02*
X135456955Y-106507995D01*
D18*
X134487500Y-98100000D02*
X134487500Y-91790000D01*
D19*
X119587500Y-85600000D02*
X119087500Y-85100000D01*
X159087500Y-84600000D02*
X158587500Y-85100000D01*
X114087500Y-81100000D02*
X128587500Y-81100000D01*
D18*
X138624632Y-100062868D02*
X137408515Y-98846751D01*
D17*
X129087500Y-109100000D02*
X129087500Y-110100000D01*
D18*
X138661764Y-100100000D02*
X138624632Y-100062868D01*
X137834251Y-98846751D02*
X135865749Y-98846751D01*
X136766485Y-98846751D02*
X136312499Y-99300737D01*
D17*
X141292956Y-105100000D02*
X136187500Y-99994544D01*
D19*
X158587500Y-85100000D02*
X158587500Y-104640000D01*
D18*
X136325673Y-98800000D02*
X135849327Y-98800000D01*
X141087500Y-94038173D02*
X136325673Y-98800000D01*
D19*
X158587500Y-104640000D02*
X164587500Y-98640000D01*
D18*
X137408515Y-98846751D02*
X136766485Y-98846751D01*
D17*
X138900000Y-107787500D02*
X141587500Y-105100000D01*
D18*
X140587500Y-101100000D02*
X139587500Y-100100000D01*
X136766485Y-98846751D02*
X137434251Y-98846751D01*
D19*
X113587500Y-80600000D02*
X114087500Y-81100000D01*
D17*
X133164950Y-108800000D02*
X131787500Y-108800000D01*
X131787500Y-108800000D02*
X130587500Y-107600000D01*
D19*
X113087500Y-82100000D02*
X113087500Y-80600000D01*
X113087500Y-80600000D02*
X113587500Y-80600000D01*
D17*
X135456955Y-106507995D02*
X133164950Y-108800000D01*
X136187500Y-99994544D02*
X136187500Y-99248960D01*
D19*
X161787500Y-84600000D02*
X159087500Y-84600000D01*
D18*
X127912500Y-111925000D02*
X134587500Y-111925000D01*
X119587500Y-87100000D02*
X119587500Y-85600000D01*
D19*
X119087500Y-85100000D02*
X116087500Y-85100000D01*
D18*
X139587500Y-100100000D02*
X139087500Y-100100000D01*
D17*
X136187500Y-99248960D02*
X136714708Y-98721752D01*
D18*
X136312499Y-101324999D02*
X136312499Y-99300737D01*
D19*
X124397500Y-85813984D02*
X119801484Y-85813984D01*
D18*
X134487500Y-91790000D02*
X135137500Y-91140000D01*
X138687500Y-100100000D02*
X138661764Y-100100000D01*
D19*
X158587500Y-108500000D02*
X158587500Y-85100000D01*
D17*
X141587500Y-105100000D02*
X141292956Y-105100000D01*
D18*
X123587500Y-111600000D02*
X135400000Y-111600000D01*
X127587500Y-111600000D02*
X127912500Y-111925000D01*
D17*
X136714708Y-98721752D02*
X142209252Y-98721752D01*
%TO.N,Net-(D1-K)*%
D19*
X146587500Y-99600000D02*
X146587500Y-96720000D01*
X138076624Y-100610876D02*
X139565748Y-102100000D01*
X148087500Y-102100000D02*
X148087500Y-101100000D01*
X139565748Y-102100000D02*
X148087500Y-102100000D01*
X137087500Y-99621752D02*
X138076624Y-100610876D01*
X148087500Y-101100000D02*
X146587500Y-99600000D01*
%TO.N,Net-(U1-RUN)*%
D18*
X118314430Y-83513756D02*
X128324429Y-83513756D01*
X136087500Y-97650000D02*
X136087500Y-98225000D01*
X135712500Y-97275000D02*
X136087500Y-97650000D01*
X128324429Y-83513756D02*
X135712500Y-90901827D01*
X135712500Y-90901827D02*
X135712500Y-97275000D01*
%TO.N,Net-(D2-K)*%
X129087500Y-107100000D02*
X129087500Y-104237500D01*
X133087500Y-104237500D02*
X133087500Y-103100000D01*
X134087500Y-101600000D02*
X132587500Y-100100000D01*
X132875000Y-107887500D02*
X130587500Y-105600000D01*
X132587500Y-99100000D02*
X133087500Y-99600000D01*
X133087500Y-99600000D02*
X133087500Y-103100000D01*
X132875000Y-108100000D02*
X132875000Y-107887500D01*
X130587500Y-105600000D02*
X129087500Y-107100000D01*
X131725000Y-104223676D02*
X131725000Y-101600000D01*
X129087500Y-104237500D02*
X131725000Y-101600000D01*
X132587500Y-100100000D02*
X132587500Y-99100000D01*
X131725000Y-105600000D02*
X133087500Y-104237500D01*
%TO.N,Net-(U1-INTVCC)*%
X143612500Y-96245610D02*
X143612500Y-99817462D01*
X148161890Y-94845000D02*
X145013110Y-94845000D01*
X141202953Y-100525000D02*
X140825674Y-100525000D01*
X140825674Y-100525000D02*
X140244087Y-99943413D01*
X142904962Y-100525000D02*
X141202953Y-100525000D01*
X145013110Y-94845000D02*
X143612500Y-96245610D01*
X142162500Y-103600000D02*
X147683516Y-103600000D01*
X148862500Y-102421016D02*
X148862500Y-95545610D01*
X143612500Y-99817462D02*
X142904962Y-100525000D01*
X148862500Y-95545610D02*
X148161890Y-94845000D01*
X147683516Y-103600000D02*
X148862500Y-102421016D01*
%TO.N,Net-(J4-Pin_2)*%
D17*
X116587500Y-100100000D02*
X116587500Y-95560000D01*
X116587500Y-95560000D02*
X111587500Y-90560000D01*
%TD*%
%TA.AperFunction,Conductor*%
%TO.N,GND*%
G36*
X139875053Y-100657010D02*
G01*
X139939387Y-100683657D01*
X140010590Y-100713150D01*
X140122463Y-100735402D01*
X140122902Y-100735494D01*
X140153239Y-100751715D01*
X140183710Y-100767654D01*
X140184499Y-100768429D01*
X140184517Y-100768439D01*
X140184526Y-100768456D01*
X140185290Y-100769206D01*
X140303903Y-100887819D01*
X140337388Y-100949142D01*
X140332404Y-101018834D01*
X140290532Y-101074767D01*
X140225068Y-101099184D01*
X140216222Y-101099500D01*
X140031531Y-101099500D01*
X139964492Y-101079815D01*
X139943850Y-101063181D01*
X139851977Y-100971308D01*
X139739919Y-100859250D01*
X139706435Y-100797929D01*
X139711419Y-100728238D01*
X139753290Y-100672304D01*
X139818755Y-100647887D01*
X139875053Y-100657010D01*
G37*
%TD.AperFunction*%
%TA.AperFunction,Conductor*%
G36*
X166280039Y-74845185D02*
G01*
X166325794Y-74897989D01*
X166337000Y-74949500D01*
X166337000Y-113700500D01*
X166317315Y-113767539D01*
X166264511Y-113813294D01*
X166213000Y-113824500D01*
X107962000Y-113824500D01*
X107894961Y-113804815D01*
X107849206Y-113752011D01*
X107838000Y-113700500D01*
X107838000Y-103328713D01*
X108532000Y-103328713D01*
X108532000Y-103541286D01*
X108560137Y-103718940D01*
X108565254Y-103751243D01*
X108626979Y-103941213D01*
X108630944Y-103953414D01*
X108727451Y-104142820D01*
X108852390Y-104314786D01*
X109002713Y-104465109D01*
X109174682Y-104590050D01*
X109183446Y-104594516D01*
X109234242Y-104642491D01*
X109251036Y-104710312D01*
X109228498Y-104776447D01*
X109183446Y-104815484D01*
X109174682Y-104819949D01*
X109002713Y-104944890D01*
X108852390Y-105095213D01*
X108727451Y-105267179D01*
X108630944Y-105456585D01*
X108565253Y-105658760D01*
X108537578Y-105833495D01*
X108532000Y-105868713D01*
X108532000Y-106081287D01*
X108536594Y-106110292D01*
X108565253Y-106291239D01*
X108630944Y-106493414D01*
X108727451Y-106682820D01*
X108852390Y-106854786D01*
X109002713Y-107005109D01*
X109174682Y-107130050D01*
X109183446Y-107134516D01*
X109234242Y-107182491D01*
X109251036Y-107250312D01*
X109228498Y-107316447D01*
X109183446Y-107355484D01*
X109174682Y-107359949D01*
X109002713Y-107484890D01*
X108852390Y-107635213D01*
X108727451Y-107807179D01*
X108630944Y-107996585D01*
X108565253Y-108198760D01*
X108532000Y-108408713D01*
X108532000Y-108621286D01*
X108565253Y-108831239D01*
X108630944Y-109033414D01*
X108727451Y-109222820D01*
X108852390Y-109394786D01*
X109002713Y-109545109D01*
X109174682Y-109670050D01*
X109183446Y-109674516D01*
X109234242Y-109722491D01*
X109251036Y-109790312D01*
X109228498Y-109856447D01*
X109183446Y-109895484D01*
X109174682Y-109899949D01*
X109002713Y-110024890D01*
X108852390Y-110175213D01*
X108727451Y-110347179D01*
X108630944Y-110536585D01*
X108565253Y-110738760D01*
X108532000Y-110948713D01*
X108532000Y-111161286D01*
X108565253Y-111371239D01*
X108630944Y-111573414D01*
X108727451Y-111762820D01*
X108852390Y-111934786D01*
X109002713Y-112085109D01*
X109174679Y-112210048D01*
X109174681Y-112210049D01*
X109174684Y-112210051D01*
X109364088Y-112306557D01*
X109566257Y-112372246D01*
X109776213Y-112405500D01*
X109776214Y-112405500D01*
X109988786Y-112405500D01*
X109988787Y-112405500D01*
X110198743Y-112372246D01*
X110400912Y-112306557D01*
X110590316Y-112210051D01*
X110612289Y-112194086D01*
X110762286Y-112085109D01*
X110762288Y-112085106D01*
X110762292Y-112085104D01*
X110912604Y-111934792D01*
X110912606Y-111934788D01*
X110912609Y-111934786D01*
X111037548Y-111762820D01*
X111037547Y-111762820D01*
X111037551Y-111762816D01*
X111134057Y-111573412D01*
X111199746Y-111371243D01*
X111233000Y-111161287D01*
X111233000Y-110948713D01*
X111199746Y-110738757D01*
X111134057Y-110536588D01*
X111037551Y-110347184D01*
X111037549Y-110347181D01*
X111037548Y-110347179D01*
X110912609Y-110175213D01*
X110762286Y-110024890D01*
X110590320Y-109899951D01*
X110589615Y-109899591D01*
X110581554Y-109895485D01*
X110530759Y-109847512D01*
X110513963Y-109779692D01*
X110536499Y-109713556D01*
X110581554Y-109674515D01*
X110590316Y-109670051D01*
X110612289Y-109654086D01*
X110762286Y-109545109D01*
X110762288Y-109545106D01*
X110762292Y-109545104D01*
X110912604Y-109394792D01*
X110912606Y-109394788D01*
X110912609Y-109394786D01*
X111037548Y-109222820D01*
X111037547Y-109222820D01*
X111037551Y-109222816D01*
X111134057Y-109033412D01*
X111199746Y-108831243D01*
X111233000Y-108621287D01*
X111233000Y-108408713D01*
X111199746Y-108198757D01*
X111134057Y-107996588D01*
X111037551Y-107807184D01*
X111037549Y-107807181D01*
X111037548Y-107807179D01*
X110912609Y-107635213D01*
X110762286Y-107484890D01*
X110590320Y-107359951D01*
X110589615Y-107359591D01*
X110581554Y-107355485D01*
X110530759Y-107307512D01*
X110513963Y-107239692D01*
X110536499Y-107173556D01*
X110581554Y-107134515D01*
X110590316Y-107130051D01*
X110612289Y-107114086D01*
X110762286Y-107005109D01*
X110762288Y-107005106D01*
X110762292Y-107005104D01*
X110912604Y-106854792D01*
X110912606Y-106854788D01*
X110912609Y-106854786D01*
X111037548Y-106682820D01*
X111037547Y-106682820D01*
X111037551Y-106682816D01*
X111134057Y-106493412D01*
X111199746Y-106291243D01*
X111233000Y-106081287D01*
X111233000Y-105868713D01*
X111199746Y-105658757D01*
X111134057Y-105456588D01*
X111037551Y-105267184D01*
X111037549Y-105267181D01*
X111037548Y-105267179D01*
X110912609Y-105095213D01*
X110762286Y-104944890D01*
X110590320Y-104819951D01*
X110589615Y-104819591D01*
X110581554Y-104815485D01*
X110530759Y-104767512D01*
X110513963Y-104699692D01*
X110536499Y-104633556D01*
X110581554Y-104594515D01*
X110590316Y-104590051D01*
X110667766Y-104533781D01*
X110762286Y-104465109D01*
X110762288Y-104465106D01*
X110762292Y-104465104D01*
X110912604Y-104314792D01*
X110912606Y-104314788D01*
X110912609Y-104314786D01*
X111037548Y-104142820D01*
X111037550Y-104142817D01*
X111037551Y-104142816D01*
X111134057Y-103953412D01*
X111199746Y-103751243D01*
X111233000Y-103541287D01*
X111233000Y-103328713D01*
X111199746Y-103118757D01*
X111134057Y-102916588D01*
X111037551Y-102727184D01*
X111037549Y-102727181D01*
X111037548Y-102727179D01*
X110912609Y-102555213D01*
X110798681Y-102441285D01*
X110765196Y-102379962D01*
X110770180Y-102310270D01*
X110812052Y-102254337D01*
X110843029Y-102237422D01*
X110974586Y-102188354D01*
X110974593Y-102188350D01*
X111089687Y-102102190D01*
X111089690Y-102102187D01*
X111175850Y-101987093D01*
X111175854Y-101987086D01*
X111226096Y-101852379D01*
X111226098Y-101852372D01*
X111232499Y-101792844D01*
X111232500Y-101792827D01*
X111232500Y-101145000D01*
X110315512Y-101145000D01*
X110348425Y-101087993D01*
X110382500Y-100960826D01*
X110382500Y-100829174D01*
X110348425Y-100702007D01*
X110315512Y-100645000D01*
X111232500Y-100645000D01*
X111232500Y-99997172D01*
X111232499Y-99997155D01*
X111226098Y-99937627D01*
X111226096Y-99937620D01*
X111175854Y-99802913D01*
X111175850Y-99802906D01*
X111089690Y-99687812D01*
X111089687Y-99687809D01*
X110974593Y-99601649D01*
X110974586Y-99601645D01*
X110839879Y-99551403D01*
X110839872Y-99551401D01*
X110780344Y-99545000D01*
X110132500Y-99545000D01*
X110132500Y-100461988D01*
X110075493Y-100429075D01*
X109948326Y-100395000D01*
X109816674Y-100395000D01*
X109689507Y-100429075D01*
X109632500Y-100461988D01*
X109632500Y-99545000D01*
X108984655Y-99545000D01*
X108925127Y-99551401D01*
X108925120Y-99551403D01*
X108790413Y-99601645D01*
X108790406Y-99601649D01*
X108675312Y-99687809D01*
X108675309Y-99687812D01*
X108589149Y-99802906D01*
X108589145Y-99802913D01*
X108538903Y-99937620D01*
X108538901Y-99937627D01*
X108532500Y-99997155D01*
X108532500Y-100645000D01*
X109449488Y-100645000D01*
X109416575Y-100702007D01*
X109382500Y-100829174D01*
X109382500Y-100960826D01*
X109416575Y-101087993D01*
X109449488Y-101145000D01*
X108532500Y-101145000D01*
X108532500Y-101792844D01*
X108538901Y-101852372D01*
X108538903Y-101852379D01*
X108589145Y-101987086D01*
X108589149Y-101987093D01*
X108675309Y-102102187D01*
X108675312Y-102102190D01*
X108790406Y-102188350D01*
X108790413Y-102188354D01*
X108921970Y-102237422D01*
X108977904Y-102279293D01*
X109002321Y-102344758D01*
X108987469Y-102413031D01*
X108966319Y-102441285D01*
X108852389Y-102555215D01*
X108727451Y-102727179D01*
X108630944Y-102916585D01*
X108565253Y-103118760D01*
X108532000Y-103328713D01*
X107838000Y-103328713D01*
X107838000Y-89662135D01*
X110237000Y-89662135D01*
X110237000Y-91457870D01*
X110237001Y-91457876D01*
X110243408Y-91517483D01*
X110293702Y-91652328D01*
X110293706Y-91652335D01*
X110379952Y-91767544D01*
X110379955Y-91767547D01*
X110495164Y-91853793D01*
X110495171Y-91853797D01*
X110540118Y-91870561D01*
X110630017Y-91904091D01*
X110689627Y-91910500D01*
X110700185Y-91910499D01*
X110767223Y-91930179D01*
X110787872Y-91946818D01*
X111458091Y-92617037D01*
X111394507Y-92634075D01*
X111280493Y-92699901D01*
X111187401Y-92792993D01*
X111121575Y-92907007D01*
X111104537Y-92970591D01*
X110472228Y-92338282D01*
X110472227Y-92338282D01*
X110432880Y-92392439D01*
X110336404Y-92581782D01*
X110270742Y-92783869D01*
X110270742Y-92783872D01*
X110237500Y-92993753D01*
X110237500Y-93206246D01*
X110270742Y-93416127D01*
X110270742Y-93416130D01*
X110336404Y-93618217D01*
X110432875Y-93807550D01*
X110472228Y-93861716D01*
X111104537Y-93229408D01*
X111121575Y-93292993D01*
X111187401Y-93407007D01*
X111280493Y-93500099D01*
X111394507Y-93565925D01*
X111458090Y-93582962D01*
X110825782Y-94215269D01*
X110825782Y-94215270D01*
X110879949Y-94254624D01*
X111069282Y-94351095D01*
X111271370Y-94416757D01*
X111481254Y-94450000D01*
X111693746Y-94450000D01*
X111903627Y-94416757D01*
X111903630Y-94416757D01*
X112105717Y-94351095D01*
X112295054Y-94254622D01*
X112349216Y-94215270D01*
X112349217Y-94215270D01*
X111716908Y-93582962D01*
X111780493Y-93565925D01*
X111894507Y-93500099D01*
X111987599Y-93407007D01*
X112053425Y-93292993D01*
X112070462Y-93229408D01*
X112702770Y-93861717D01*
X112702770Y-93861716D01*
X112742122Y-93807554D01*
X112838595Y-93618217D01*
X112904257Y-93416130D01*
X112904257Y-93416127D01*
X112931544Y-93243849D01*
X112961473Y-93180714D01*
X113020785Y-93143783D01*
X113090647Y-93144781D01*
X113141698Y-93175566D01*
X115800681Y-95834549D01*
X115834166Y-95895872D01*
X115837000Y-95922230D01*
X115837000Y-99557851D01*
X115817315Y-99624890D01*
X115764511Y-99670645D01*
X115695353Y-99680589D01*
X115638689Y-99657118D01*
X115564589Y-99601647D01*
X115564586Y-99601645D01*
X115429879Y-99551403D01*
X115429872Y-99551401D01*
X115370344Y-99545000D01*
X114722500Y-99545000D01*
X114722500Y-100461988D01*
X114665493Y-100429075D01*
X114538326Y-100395000D01*
X114406674Y-100395000D01*
X114279507Y-100429075D01*
X114222500Y-100461988D01*
X114222500Y-99545000D01*
X113574655Y-99545000D01*
X113515127Y-99551401D01*
X113515120Y-99551403D01*
X113380413Y-99601645D01*
X113380406Y-99601649D01*
X113265312Y-99687809D01*
X113265309Y-99687812D01*
X113179149Y-99802906D01*
X113179145Y-99802913D01*
X113128903Y-99937620D01*
X113128901Y-99937627D01*
X113122500Y-99997155D01*
X113122500Y-100645000D01*
X114039488Y-100645000D01*
X114006575Y-100702007D01*
X113972500Y-100829174D01*
X113972500Y-100960826D01*
X114006575Y-101087993D01*
X114039488Y-101145000D01*
X113122500Y-101145000D01*
X113122500Y-101792844D01*
X113128901Y-101852372D01*
X113128903Y-101852379D01*
X113179145Y-101987086D01*
X113179149Y-101987093D01*
X113265309Y-102102187D01*
X113265312Y-102102190D01*
X113380406Y-102188350D01*
X113380413Y-102188354D01*
X113511970Y-102237422D01*
X113567904Y-102279293D01*
X113592321Y-102344758D01*
X113577469Y-102413031D01*
X113556319Y-102441285D01*
X113442389Y-102555215D01*
X113317451Y-102727179D01*
X113220944Y-102916585D01*
X113155253Y-103118760D01*
X113122000Y-103328713D01*
X113122000Y-103541286D01*
X113150137Y-103718940D01*
X113155254Y-103751243D01*
X113216979Y-103941213D01*
X113220944Y-103953414D01*
X113317451Y-104142820D01*
X113442390Y-104314786D01*
X113592713Y-104465109D01*
X113764682Y-104590050D01*
X113773446Y-104594516D01*
X113824242Y-104642491D01*
X113841036Y-104710312D01*
X113818498Y-104776447D01*
X113773446Y-104815484D01*
X113764682Y-104819949D01*
X113592713Y-104944890D01*
X113442390Y-105095213D01*
X113317451Y-105267179D01*
X113220944Y-105456585D01*
X113155253Y-105658760D01*
X113127578Y-105833495D01*
X113122000Y-105868713D01*
X113122000Y-106081287D01*
X113126594Y-106110292D01*
X113155253Y-106291239D01*
X113220944Y-106493414D01*
X113317451Y-106682820D01*
X113442390Y-106854786D01*
X113592713Y-107005109D01*
X113764682Y-107130050D01*
X113773446Y-107134516D01*
X113824242Y-107182491D01*
X113841036Y-107250312D01*
X113818498Y-107316447D01*
X113773446Y-107355484D01*
X113764682Y-107359949D01*
X113592713Y-107484890D01*
X113442390Y-107635213D01*
X113317451Y-107807179D01*
X113220944Y-107996585D01*
X113155253Y-108198760D01*
X113122000Y-108408713D01*
X113122000Y-108621286D01*
X113155253Y-108831239D01*
X113220944Y-109033414D01*
X113317451Y-109222820D01*
X113442390Y-109394786D01*
X113592713Y-109545109D01*
X113764682Y-109670050D01*
X113773446Y-109674516D01*
X113824242Y-109722491D01*
X113841036Y-109790312D01*
X113818498Y-109856447D01*
X113773446Y-109895484D01*
X113764682Y-109899949D01*
X113592713Y-110024890D01*
X113442390Y-110175213D01*
X113317451Y-110347179D01*
X113220944Y-110536585D01*
X113155253Y-110738760D01*
X113122000Y-110948713D01*
X113122000Y-111161286D01*
X113155253Y-111371239D01*
X113220944Y-111573414D01*
X113317451Y-111762820D01*
X113442390Y-111934786D01*
X113592713Y-112085109D01*
X113764679Y-112210048D01*
X113764681Y-112210049D01*
X113764684Y-112210051D01*
X113954088Y-112306557D01*
X114156257Y-112372246D01*
X114366213Y-112405500D01*
X114366214Y-112405500D01*
X114578786Y-112405500D01*
X114578787Y-112405500D01*
X114788743Y-112372246D01*
X114990912Y-112306557D01*
X115180316Y-112210051D01*
X115202289Y-112194086D01*
X115352286Y-112085109D01*
X115352288Y-112085106D01*
X115352292Y-112085104D01*
X115502604Y-111934792D01*
X115502606Y-111934788D01*
X115502609Y-111934786D01*
X115627548Y-111762820D01*
X115627547Y-111762820D01*
X115627551Y-111762816D01*
X115724057Y-111573412D01*
X115789746Y-111371243D01*
X115823000Y-111161287D01*
X115823000Y-110948713D01*
X115789746Y-110738757D01*
X115724057Y-110536588D01*
X115627551Y-110347184D01*
X115627549Y-110347181D01*
X115627548Y-110347179D01*
X115502609Y-110175213D01*
X115352286Y-110024890D01*
X115180320Y-109899951D01*
X115179615Y-109899591D01*
X115171554Y-109895485D01*
X115120759Y-109847512D01*
X115103963Y-109779692D01*
X115126499Y-109713556D01*
X115171554Y-109674515D01*
X115180316Y-109670051D01*
X115202289Y-109654086D01*
X115352286Y-109545109D01*
X115352288Y-109545106D01*
X115352292Y-109545104D01*
X115502604Y-109394792D01*
X115502606Y-109394788D01*
X115502609Y-109394786D01*
X115627548Y-109222820D01*
X115627547Y-109222820D01*
X115627551Y-109222816D01*
X115724057Y-109033412D01*
X115789746Y-108831243D01*
X115823000Y-108621287D01*
X115823000Y-108408713D01*
X115789746Y-108198757D01*
X115724057Y-107996588D01*
X115627551Y-107807184D01*
X115627549Y-107807181D01*
X115627548Y-107807179D01*
X115502609Y-107635213D01*
X115352286Y-107484890D01*
X115180320Y-107359951D01*
X115179615Y-107359591D01*
X115171554Y-107355485D01*
X115120759Y-107307512D01*
X115103963Y-107239692D01*
X115126499Y-107173556D01*
X115171554Y-107134515D01*
X115180316Y-107130051D01*
X115202289Y-107114086D01*
X115352286Y-107005109D01*
X115352288Y-107005106D01*
X115352292Y-107005104D01*
X115502604Y-106854792D01*
X115502606Y-106854788D01*
X115502609Y-106854786D01*
X115627548Y-106682820D01*
X115627547Y-106682820D01*
X115627551Y-106682816D01*
X115724057Y-106493412D01*
X115789746Y-106291243D01*
X115823000Y-106081287D01*
X115823000Y-105868713D01*
X115789746Y-105658757D01*
X115724057Y-105456588D01*
X115627551Y-105267184D01*
X115627549Y-105267181D01*
X115627548Y-105267179D01*
X115502609Y-105095213D01*
X115352286Y-104944890D01*
X115180320Y-104819951D01*
X115179615Y-104819591D01*
X115171554Y-104815485D01*
X115120759Y-104767512D01*
X115103963Y-104699692D01*
X115126499Y-104633556D01*
X115171554Y-104594515D01*
X115180316Y-104590051D01*
X115257766Y-104533781D01*
X115352286Y-104465109D01*
X115352288Y-104465106D01*
X115352292Y-104465104D01*
X115502604Y-104314792D01*
X115502606Y-104314788D01*
X115502609Y-104314786D01*
X115627548Y-104142820D01*
X115627550Y-104142817D01*
X115627551Y-104142816D01*
X115724057Y-103953412D01*
X115789746Y-103751243D01*
X115823000Y-103541287D01*
X115823000Y-103328713D01*
X117712000Y-103328713D01*
X117712000Y-103541286D01*
X117740137Y-103718940D01*
X117745254Y-103751243D01*
X117806979Y-103941213D01*
X117810944Y-103953414D01*
X117907451Y-104142820D01*
X118032390Y-104314786D01*
X118182713Y-104465109D01*
X118354682Y-104590050D01*
X118363446Y-104594516D01*
X118414242Y-104642491D01*
X118431036Y-104710312D01*
X118408498Y-104776447D01*
X118363446Y-104815484D01*
X118354682Y-104819949D01*
X118182713Y-104944890D01*
X118032390Y-105095213D01*
X117907451Y-105267179D01*
X117810944Y-105456585D01*
X117745253Y-105658760D01*
X117717578Y-105833495D01*
X117712000Y-105868713D01*
X117712000Y-106081287D01*
X117716594Y-106110292D01*
X117745253Y-106291239D01*
X117810944Y-106493414D01*
X117907451Y-106682820D01*
X118032390Y-106854786D01*
X118182713Y-107005109D01*
X118354682Y-107130050D01*
X118363446Y-107134516D01*
X118414242Y-107182491D01*
X118431036Y-107250312D01*
X118408498Y-107316447D01*
X118363446Y-107355484D01*
X118354682Y-107359949D01*
X118182713Y-107484890D01*
X118032390Y-107635213D01*
X117907451Y-107807179D01*
X117810944Y-107996585D01*
X117745253Y-108198760D01*
X117712000Y-108408713D01*
X117712000Y-108621286D01*
X117745253Y-108831239D01*
X117810944Y-109033414D01*
X117907451Y-109222820D01*
X118032390Y-109394786D01*
X118182713Y-109545109D01*
X118354682Y-109670050D01*
X118363446Y-109674516D01*
X118414242Y-109722491D01*
X118431036Y-109790312D01*
X118408498Y-109856447D01*
X118363446Y-109895484D01*
X118354682Y-109899949D01*
X118182713Y-110024890D01*
X118032390Y-110175213D01*
X117907451Y-110347179D01*
X117810944Y-110536585D01*
X117745253Y-110738760D01*
X117712000Y-110948713D01*
X117712000Y-111161286D01*
X117745253Y-111371239D01*
X117810944Y-111573414D01*
X117907451Y-111762820D01*
X118032390Y-111934786D01*
X118182713Y-112085109D01*
X118354679Y-112210048D01*
X118354681Y-112210049D01*
X118354684Y-112210051D01*
X118544088Y-112306557D01*
X118746257Y-112372246D01*
X118956213Y-112405500D01*
X118956214Y-112405500D01*
X119168786Y-112405500D01*
X119168787Y-112405500D01*
X119378743Y-112372246D01*
X119580912Y-112306557D01*
X119770316Y-112210051D01*
X119792289Y-112194086D01*
X119942286Y-112085109D01*
X119942288Y-112085106D01*
X119942292Y-112085104D01*
X120092604Y-111934792D01*
X120092606Y-111934788D01*
X120092609Y-111934786D01*
X120217548Y-111762820D01*
X120217547Y-111762820D01*
X120217551Y-111762816D01*
X120314057Y-111573412D01*
X120379746Y-111371243D01*
X120413000Y-111161287D01*
X120413000Y-110948713D01*
X120379746Y-110738757D01*
X120314057Y-110536588D01*
X120217551Y-110347184D01*
X120217549Y-110347181D01*
X120217548Y-110347179D01*
X120092609Y-110175213D01*
X119942286Y-110024890D01*
X119770320Y-109899951D01*
X119769615Y-109899591D01*
X119761554Y-109895485D01*
X119710759Y-109847512D01*
X119693963Y-109779692D01*
X119716499Y-109713556D01*
X119761554Y-109674515D01*
X119770316Y-109670051D01*
X119792289Y-109654086D01*
X119942286Y-109545109D01*
X119942288Y-109545106D01*
X119942292Y-109545104D01*
X120092604Y-109394792D01*
X120092606Y-109394788D01*
X120092609Y-109394786D01*
X120217548Y-109222820D01*
X120217547Y-109222820D01*
X120217551Y-109222816D01*
X120314057Y-109033412D01*
X120379746Y-108831243D01*
X120413000Y-108621287D01*
X120413000Y-108408713D01*
X120379746Y-108198757D01*
X120314057Y-107996588D01*
X120217551Y-107807184D01*
X120217549Y-107807181D01*
X120217548Y-107807179D01*
X120092609Y-107635213D01*
X119942286Y-107484890D01*
X119770320Y-107359951D01*
X119769615Y-107359591D01*
X119761554Y-107355485D01*
X119710759Y-107307512D01*
X119693963Y-107239692D01*
X119716499Y-107173556D01*
X119761554Y-107134515D01*
X119770316Y-107130051D01*
X119792289Y-107114086D01*
X119942286Y-107005109D01*
X119942288Y-107005106D01*
X119942292Y-107005104D01*
X120092604Y-106854792D01*
X120092606Y-106854788D01*
X120092609Y-106854786D01*
X120217548Y-106682820D01*
X120217547Y-106682820D01*
X120217551Y-106682816D01*
X120314057Y-106493412D01*
X120379746Y-106291243D01*
X120413000Y-106081287D01*
X120413000Y-105868713D01*
X120379746Y-105658757D01*
X120314057Y-105456588D01*
X120217551Y-105267184D01*
X120217549Y-105267181D01*
X120217548Y-105267179D01*
X120092609Y-105095213D01*
X119942286Y-104944890D01*
X119770320Y-104819951D01*
X119769615Y-104819591D01*
X119761554Y-104815485D01*
X119710759Y-104767512D01*
X119693963Y-104699692D01*
X119716499Y-104633556D01*
X119761554Y-104594515D01*
X119770316Y-104590051D01*
X119847766Y-104533781D01*
X119942286Y-104465109D01*
X119942288Y-104465106D01*
X119942292Y-104465104D01*
X120092604Y-104314792D01*
X120092606Y-104314788D01*
X120092609Y-104314786D01*
X120184976Y-104187652D01*
X120193519Y-104175894D01*
X128462000Y-104175894D01*
X128462000Y-107038393D01*
X128462000Y-107161607D01*
X128462011Y-107161662D01*
X128462011Y-107161667D01*
X128486035Y-107282444D01*
X128486040Y-107282461D01*
X128533185Y-107396280D01*
X128533190Y-107396289D01*
X128567414Y-107447507D01*
X128567415Y-107447509D01*
X128601641Y-107498733D01*
X128688764Y-107585856D01*
X128688767Y-107585858D01*
X128739990Y-107620084D01*
X128791214Y-107654312D01*
X128866102Y-107685331D01*
X128905048Y-107701463D01*
X128905052Y-107701463D01*
X128905053Y-107701464D01*
X128923045Y-107705043D01*
X128923058Y-107705045D01*
X128923072Y-107705048D01*
X129025891Y-107725499D01*
X129025892Y-107725500D01*
X129025893Y-107725500D01*
X129149108Y-107725500D01*
X129149108Y-107725499D01*
X129251928Y-107705048D01*
X129269952Y-107701463D01*
X129308898Y-107685331D01*
X129383786Y-107654312D01*
X129435009Y-107620084D01*
X129440664Y-107616306D01*
X129447771Y-107611556D01*
X129486233Y-107585858D01*
X129573358Y-107498733D01*
X129573358Y-107498731D01*
X129583566Y-107488524D01*
X129583567Y-107488521D01*
X130499822Y-106572267D01*
X130561141Y-106538785D01*
X130630833Y-106543769D01*
X130675179Y-106572269D01*
X132038182Y-107935273D01*
X132071666Y-107996594D01*
X132074500Y-108022952D01*
X132074500Y-108178846D01*
X132105261Y-108333489D01*
X132105264Y-108333501D01*
X132165602Y-108479172D01*
X132165609Y-108479185D01*
X132253210Y-108610288D01*
X132253213Y-108610292D01*
X132364707Y-108721786D01*
X132364711Y-108721789D01*
X132495814Y-108809390D01*
X132495827Y-108809397D01*
X132641498Y-108869735D01*
X132641503Y-108869737D01*
X132796153Y-108900499D01*
X132796156Y-108900500D01*
X132796158Y-108900500D01*
X132953844Y-108900500D01*
X132953845Y-108900499D01*
X133108497Y-108869737D01*
X133254179Y-108809394D01*
X133385289Y-108721789D01*
X133496789Y-108610289D01*
X133584394Y-108479179D01*
X133644737Y-108333497D01*
X133675500Y-108178842D01*
X133675500Y-108021158D01*
X133675500Y-108021155D01*
X133675499Y-108021153D01*
X133644738Y-107866510D01*
X133644737Y-107866503D01*
X133644735Y-107866498D01*
X133584397Y-107720827D01*
X133584390Y-107720814D01*
X133496789Y-107589711D01*
X133496786Y-107589707D01*
X133385292Y-107478213D01*
X133385288Y-107478210D01*
X133290002Y-107414542D01*
X133271212Y-107399121D01*
X132252266Y-106380175D01*
X132218781Y-106318852D01*
X132223765Y-106249160D01*
X132252266Y-106204813D01*
X132346786Y-106110292D01*
X132346789Y-106110289D01*
X132434394Y-105979179D01*
X132494737Y-105833497D01*
X132516858Y-105722282D01*
X132549240Y-105660375D01*
X132550735Y-105658853D01*
X133486229Y-104723360D01*
X133486233Y-104723358D01*
X133573358Y-104636233D01*
X133607584Y-104585009D01*
X133641812Y-104533786D01*
X133673544Y-104457177D01*
X133688959Y-104419961D01*
X133688959Y-104419959D01*
X133688963Y-104419951D01*
X133713000Y-104299107D01*
X133713000Y-104175893D01*
X133713000Y-103642350D01*
X133732685Y-103575311D01*
X133733898Y-103573459D01*
X133734309Y-103572843D01*
X133796894Y-103479179D01*
X133857237Y-103333497D01*
X133888000Y-103178842D01*
X133888000Y-103021158D01*
X133888000Y-103021155D01*
X133887999Y-103021153D01*
X133881132Y-102986630D01*
X133857237Y-102866503D01*
X133824500Y-102787468D01*
X133796897Y-102720828D01*
X133796896Y-102720827D01*
X133796894Y-102720821D01*
X133733897Y-102626539D01*
X133713020Y-102559863D01*
X133713000Y-102557650D01*
X133713000Y-102492784D01*
X133732685Y-102425745D01*
X133785489Y-102379990D01*
X133854647Y-102370046D01*
X133861192Y-102371167D01*
X134008655Y-102400500D01*
X134008658Y-102400500D01*
X134166344Y-102400500D01*
X134166345Y-102400499D01*
X134320997Y-102369737D01*
X134466679Y-102309394D01*
X134597789Y-102221789D01*
X134709289Y-102110289D01*
X134796894Y-101979179D01*
X134857237Y-101833497D01*
X134888000Y-101678842D01*
X134888000Y-101521158D01*
X134888000Y-101521155D01*
X134887999Y-101521153D01*
X134879358Y-101477714D01*
X134857237Y-101366503D01*
X134824500Y-101287468D01*
X134796897Y-101220827D01*
X134796890Y-101220814D01*
X134709289Y-101089711D01*
X134709286Y-101089707D01*
X134597792Y-100978213D01*
X134597788Y-100978210D01*
X134466685Y-100890609D01*
X134466672Y-100890602D01*
X134321001Y-100830264D01*
X134320989Y-100830261D01*
X134209786Y-100808141D01*
X134147875Y-100775756D01*
X134146296Y-100774205D01*
X133749319Y-100377228D01*
X133715834Y-100315905D01*
X133713000Y-100289547D01*
X133713000Y-99538389D01*
X133710421Y-99525430D01*
X133710420Y-99525429D01*
X133710044Y-99523535D01*
X133688963Y-99417549D01*
X133685060Y-99408127D01*
X133652808Y-99330263D01*
X133641812Y-99303715D01*
X133641811Y-99303712D01*
X133641810Y-99303710D01*
X133614708Y-99263151D01*
X133614707Y-99263149D01*
X133573361Y-99201271D01*
X133573355Y-99201263D01*
X133483137Y-99111045D01*
X133483106Y-99111016D01*
X133413293Y-99041203D01*
X133379808Y-98979880D01*
X133379387Y-98977864D01*
X133357237Y-98866503D01*
X133333099Y-98808230D01*
X133296897Y-98720827D01*
X133296890Y-98720814D01*
X133209289Y-98589711D01*
X133209286Y-98589707D01*
X133097792Y-98478213D01*
X133097788Y-98478210D01*
X132966685Y-98390609D01*
X132966672Y-98390602D01*
X132821001Y-98330264D01*
X132820989Y-98330261D01*
X132666345Y-98299500D01*
X132666342Y-98299500D01*
X132508658Y-98299500D01*
X132508655Y-98299500D01*
X132354010Y-98330261D01*
X132353998Y-98330264D01*
X132208327Y-98390602D01*
X132208314Y-98390609D01*
X132077211Y-98478210D01*
X132077207Y-98478213D01*
X131965713Y-98589707D01*
X131965710Y-98589711D01*
X131878109Y-98720814D01*
X131878102Y-98720827D01*
X131817764Y-98866498D01*
X131817761Y-98866510D01*
X131787000Y-99021153D01*
X131787000Y-99178846D01*
X131817761Y-99333489D01*
X131817764Y-99333501D01*
X131878102Y-99479172D01*
X131878109Y-99479184D01*
X131941102Y-99573459D01*
X131961980Y-99640136D01*
X131962000Y-99642350D01*
X131962000Y-100161610D01*
X131981478Y-100259532D01*
X131986037Y-100282452D01*
X131989786Y-100291503D01*
X131989786Y-100291504D01*
X132033185Y-100396281D01*
X132033188Y-100396286D01*
X132064377Y-100442962D01*
X132101642Y-100498733D01*
X132188767Y-100585858D01*
X132188769Y-100585859D01*
X132198877Y-100595967D01*
X132387270Y-100784360D01*
X132420755Y-100845683D01*
X132415771Y-100915375D01*
X132373899Y-100971308D01*
X132308435Y-100995725D01*
X132240162Y-100980873D01*
X132230698Y-100975143D01*
X132104185Y-100890609D01*
X132104172Y-100890602D01*
X131958501Y-100830264D01*
X131958489Y-100830261D01*
X131803845Y-100799500D01*
X131803842Y-100799500D01*
X131646158Y-100799500D01*
X131646155Y-100799500D01*
X131491510Y-100830261D01*
X131491498Y-100830264D01*
X131345827Y-100890602D01*
X131345814Y-100890609D01*
X131214711Y-100978210D01*
X131214707Y-100978213D01*
X131103213Y-101089707D01*
X131103210Y-101089711D01*
X131015609Y-101220814D01*
X131015602Y-101220827D01*
X130955264Y-101366498D01*
X130955261Y-101366508D01*
X130933141Y-101477714D01*
X130900756Y-101539625D01*
X130899205Y-101541203D01*
X128688770Y-103751639D01*
X128601644Y-103838764D01*
X128601638Y-103838772D01*
X128533190Y-103941208D01*
X128533188Y-103941213D01*
X128486040Y-104055038D01*
X128486037Y-104055046D01*
X128468579Y-104142820D01*
X128465240Y-104159607D01*
X128462000Y-104175894D01*
X120193519Y-104175894D01*
X120217551Y-104142816D01*
X120223082Y-104131959D01*
X120232486Y-104113506D01*
X120269957Y-104039961D01*
X120314057Y-103953412D01*
X120379746Y-103751243D01*
X120413000Y-103541287D01*
X120413000Y-103328713D01*
X120379746Y-103118757D01*
X120314057Y-102916588D01*
X120217551Y-102727184D01*
X120217549Y-102727181D01*
X120217548Y-102727179D01*
X120092609Y-102555213D01*
X119978681Y-102441285D01*
X119945196Y-102379962D01*
X119950180Y-102310270D01*
X119992052Y-102254337D01*
X120023029Y-102237422D01*
X120154586Y-102188354D01*
X120154593Y-102188350D01*
X120269687Y-102102190D01*
X120269690Y-102102187D01*
X120355850Y-101987093D01*
X120355854Y-101987086D01*
X120406096Y-101852379D01*
X120406098Y-101852372D01*
X120412499Y-101792844D01*
X120412500Y-101792827D01*
X120412500Y-101145000D01*
X119495512Y-101145000D01*
X119528425Y-101087993D01*
X119562500Y-100960826D01*
X119562500Y-100829174D01*
X119528425Y-100702007D01*
X119495512Y-100645000D01*
X120412500Y-100645000D01*
X120412500Y-99997172D01*
X120412499Y-99997155D01*
X120406098Y-99937627D01*
X120406096Y-99937620D01*
X120355854Y-99802913D01*
X120355850Y-99802906D01*
X120269690Y-99687812D01*
X120269687Y-99687809D01*
X120154593Y-99601649D01*
X120154586Y-99601645D01*
X120019879Y-99551403D01*
X120019872Y-99551401D01*
X119960344Y-99545000D01*
X119312500Y-99545000D01*
X119312500Y-100461988D01*
X119255493Y-100429075D01*
X119128326Y-100395000D01*
X118996674Y-100395000D01*
X118869507Y-100429075D01*
X118812500Y-100461988D01*
X118812500Y-99545000D01*
X118164655Y-99545000D01*
X118105127Y-99551401D01*
X118105120Y-99551403D01*
X117970413Y-99601645D01*
X117970406Y-99601649D01*
X117855312Y-99687809D01*
X117855309Y-99687812D01*
X117769149Y-99802906D01*
X117769145Y-99802913D01*
X117718903Y-99937620D01*
X117718901Y-99937627D01*
X117712500Y-99997155D01*
X117712500Y-100645000D01*
X118629488Y-100645000D01*
X118596575Y-100702007D01*
X118562500Y-100829174D01*
X118562500Y-100960826D01*
X118596575Y-101087993D01*
X118629488Y-101145000D01*
X117712500Y-101145000D01*
X117712500Y-101792844D01*
X117718901Y-101852372D01*
X117718903Y-101852379D01*
X117769145Y-101987086D01*
X117769149Y-101987093D01*
X117855309Y-102102187D01*
X117855312Y-102102190D01*
X117970406Y-102188350D01*
X117970413Y-102188354D01*
X118101970Y-102237422D01*
X118157904Y-102279293D01*
X118182321Y-102344758D01*
X118167469Y-102413031D01*
X118146319Y-102441285D01*
X118032389Y-102555215D01*
X117907451Y-102727179D01*
X117810944Y-102916585D01*
X117745253Y-103118760D01*
X117712000Y-103328713D01*
X115823000Y-103328713D01*
X115789746Y-103118757D01*
X115724057Y-102916588D01*
X115627551Y-102727184D01*
X115627549Y-102727181D01*
X115627548Y-102727179D01*
X115502609Y-102555213D01*
X115388681Y-102441285D01*
X115355196Y-102379962D01*
X115360180Y-102310270D01*
X115402052Y-102254337D01*
X115433029Y-102237422D01*
X115564586Y-102188354D01*
X115564593Y-102188350D01*
X115679687Y-102102190D01*
X115679690Y-102102187D01*
X115765850Y-101987093D01*
X115765854Y-101987086D01*
X115816096Y-101852379D01*
X115816098Y-101852372D01*
X115822499Y-101792844D01*
X115822500Y-101792827D01*
X115822500Y-101145000D01*
X114905512Y-101145000D01*
X114938425Y-101087993D01*
X114972500Y-100960826D01*
X114972500Y-100829174D01*
X114938425Y-100702007D01*
X114905512Y-100645000D01*
X115822499Y-100645000D01*
X115823778Y-100643721D01*
X115885100Y-100610235D01*
X115954792Y-100615219D01*
X115999141Y-100643720D01*
X116077207Y-100721786D01*
X116077211Y-100721789D01*
X116208314Y-100809390D01*
X116208327Y-100809397D01*
X116353998Y-100869735D01*
X116354003Y-100869737D01*
X116477474Y-100894297D01*
X116508653Y-100900499D01*
X116508656Y-100900500D01*
X116508658Y-100900500D01*
X116666344Y-100900500D01*
X116666345Y-100900499D01*
X116820997Y-100869737D01*
X116966679Y-100809394D01*
X117097789Y-100721789D01*
X117209289Y-100610289D01*
X117296894Y-100479179D01*
X117357237Y-100333497D01*
X117388000Y-100178842D01*
X117388000Y-100021158D01*
X117387380Y-100018041D01*
X117387380Y-100018038D01*
X117359885Y-99879815D01*
X117357237Y-99866503D01*
X117347437Y-99842844D01*
X117338000Y-99795396D01*
X117338000Y-95486079D01*
X117309159Y-95341092D01*
X117309158Y-95341091D01*
X117309158Y-95341087D01*
X117252584Y-95204505D01*
X117208113Y-95137949D01*
X117208112Y-95137947D01*
X117208111Y-95137945D01*
X117170455Y-95081589D01*
X117170452Y-95081584D01*
X112974318Y-90885450D01*
X112940833Y-90824127D01*
X112937999Y-90797769D01*
X112937999Y-89662129D01*
X112937998Y-89662123D01*
X112937997Y-89662116D01*
X112931591Y-89602517D01*
X112881296Y-89467669D01*
X112881295Y-89467668D01*
X112881293Y-89467664D01*
X112795047Y-89352455D01*
X112795044Y-89352452D01*
X112679835Y-89266206D01*
X112679828Y-89266202D01*
X112544982Y-89215908D01*
X112544983Y-89215908D01*
X112485383Y-89209501D01*
X112485381Y-89209500D01*
X112485373Y-89209500D01*
X112485364Y-89209500D01*
X110689629Y-89209500D01*
X110689623Y-89209501D01*
X110630016Y-89215908D01*
X110495171Y-89266202D01*
X110495164Y-89266206D01*
X110379955Y-89352452D01*
X110379952Y-89352455D01*
X110293706Y-89467664D01*
X110293702Y-89467671D01*
X110243408Y-89602517D01*
X110237001Y-89662116D01*
X110237001Y-89662123D01*
X110237000Y-89662135D01*
X107838000Y-89662135D01*
X107838000Y-83434909D01*
X117513930Y-83434909D01*
X117513930Y-83592602D01*
X117544691Y-83747245D01*
X117544694Y-83747257D01*
X117605032Y-83892928D01*
X117605039Y-83892941D01*
X117692640Y-84024044D01*
X117692643Y-84024048D01*
X117804137Y-84135542D01*
X117804141Y-84135545D01*
X117935244Y-84223146D01*
X117935257Y-84223153D01*
X118080928Y-84283491D01*
X118080933Y-84283493D01*
X118235583Y-84314255D01*
X118235586Y-84314256D01*
X118235588Y-84314256D01*
X118393274Y-84314256D01*
X118393275Y-84314255D01*
X118547927Y-84283493D01*
X118693609Y-84223150D01*
X118787889Y-84160154D01*
X118854566Y-84139276D01*
X118856780Y-84139256D01*
X128013977Y-84139256D01*
X128081016Y-84158941D01*
X128101658Y-84175575D01*
X135050681Y-91124598D01*
X135084166Y-91185921D01*
X135087000Y-91212279D01*
X135087000Y-97336610D01*
X135111035Y-97457444D01*
X135111036Y-97457448D01*
X135111037Y-97457452D01*
X135124847Y-97490792D01*
X135158188Y-97571286D01*
X135192415Y-97622509D01*
X135196302Y-97628326D01*
X135196303Y-97628328D01*
X135226641Y-97673733D01*
X135318086Y-97765178D01*
X135318108Y-97765198D01*
X135325560Y-97772650D01*
X135359045Y-97833973D01*
X135354061Y-97903665D01*
X135352440Y-97907783D01*
X135317764Y-97991498D01*
X135317761Y-97991510D01*
X135287000Y-98146153D01*
X135287000Y-98303846D01*
X135317761Y-98458489D01*
X135317764Y-98458501D01*
X135378102Y-98604172D01*
X135378109Y-98604185D01*
X135465710Y-98735288D01*
X135465713Y-98735292D01*
X135577207Y-98846786D01*
X135577211Y-98846789D01*
X135708314Y-98934390D01*
X135708327Y-98934397D01*
X135851147Y-98993554D01*
X135854003Y-98994737D01*
X136008653Y-99025499D01*
X136008656Y-99025500D01*
X136065964Y-99025500D01*
X136133003Y-99045185D01*
X136178758Y-99097989D01*
X136188702Y-99167147D01*
X136180525Y-99196950D01*
X136178738Y-99201267D01*
X136125449Y-99329915D01*
X136125447Y-99329923D01*
X136087000Y-99523207D01*
X136087000Y-99720296D01*
X136125447Y-99913580D01*
X136125449Y-99913588D01*
X136200867Y-100095662D01*
X136200872Y-100095672D01*
X136310360Y-100259532D01*
X136310363Y-100259536D01*
X137445908Y-101395081D01*
X137445913Y-101395085D01*
X138788608Y-102737781D01*
X138788609Y-102737782D01*
X138870574Y-102819747D01*
X138927967Y-102877140D01*
X139091828Y-102986628D01*
X139091834Y-102986632D01*
X139198493Y-103030811D01*
X139273912Y-103062051D01*
X139467202Y-103100499D01*
X139467205Y-103100500D01*
X139467207Y-103100500D01*
X141317366Y-103100500D01*
X141384405Y-103120185D01*
X141430160Y-103172989D01*
X141440104Y-103242147D01*
X141431927Y-103271950D01*
X141423097Y-103293270D01*
X141392763Y-103366502D01*
X141392761Y-103366510D01*
X141362000Y-103521153D01*
X141362000Y-103678846D01*
X141392761Y-103833489D01*
X141392764Y-103833501D01*
X141453102Y-103979172D01*
X141453109Y-103979185D01*
X141540710Y-104110288D01*
X141540713Y-104110292D01*
X141652207Y-104221786D01*
X141652211Y-104221789D01*
X141783314Y-104309390D01*
X141783327Y-104309397D01*
X141928998Y-104369735D01*
X141929003Y-104369737D01*
X142083653Y-104400499D01*
X142083656Y-104400500D01*
X142083658Y-104400500D01*
X142241344Y-104400500D01*
X142241345Y-104400499D01*
X142395997Y-104369737D01*
X142528647Y-104314792D01*
X142541672Y-104309397D01*
X142541672Y-104309396D01*
X142541679Y-104309394D01*
X142635959Y-104246398D01*
X142702636Y-104225520D01*
X142704850Y-104225500D01*
X147745124Y-104225500D01*
X147745124Y-104225499D01*
X147812294Y-104212139D01*
X147865968Y-104201463D01*
X147899308Y-104187652D01*
X147979802Y-104154312D01*
X148045685Y-104110289D01*
X148082249Y-104085858D01*
X148169374Y-103998733D01*
X148169375Y-103998731D01*
X148176441Y-103991665D01*
X148176444Y-103991661D01*
X149261229Y-102906876D01*
X149261233Y-102906874D01*
X149348358Y-102819749D01*
X149416811Y-102717302D01*
X149463963Y-102603468D01*
X149473562Y-102555208D01*
X149479862Y-102523538D01*
X149479862Y-102523535D01*
X149488000Y-102482623D01*
X149488000Y-102359409D01*
X149488000Y-95484004D01*
X149463963Y-95363158D01*
X149416811Y-95249324D01*
X149416809Y-95249321D01*
X149416807Y-95249317D01*
X149385281Y-95202135D01*
X163237000Y-95202135D01*
X163237000Y-96997870D01*
X163237001Y-96997876D01*
X163243408Y-97057483D01*
X163293702Y-97192328D01*
X163293706Y-97192335D01*
X163379952Y-97307544D01*
X163379955Y-97307547D01*
X163495164Y-97393793D01*
X163495171Y-97393797D01*
X163540118Y-97410561D01*
X163630017Y-97444091D01*
X163689627Y-97450500D01*
X163700185Y-97450499D01*
X163767223Y-97470179D01*
X163787872Y-97486818D01*
X164458091Y-98157037D01*
X164394507Y-98174075D01*
X164280493Y-98239901D01*
X164187401Y-98332993D01*
X164121575Y-98447007D01*
X164104537Y-98510591D01*
X163472228Y-97878282D01*
X163472227Y-97878282D01*
X163432880Y-97932439D01*
X163336404Y-98121782D01*
X163270742Y-98323869D01*
X163270742Y-98323872D01*
X163237500Y-98533753D01*
X163237500Y-98746246D01*
X163270742Y-98956127D01*
X163270742Y-98956130D01*
X163336404Y-99158217D01*
X163432875Y-99347550D01*
X163472228Y-99401716D01*
X164104537Y-98769408D01*
X164121575Y-98832993D01*
X164187401Y-98947007D01*
X164280493Y-99040099D01*
X164394507Y-99105925D01*
X164458090Y-99122962D01*
X163825782Y-99755269D01*
X163825782Y-99755270D01*
X163879949Y-99794624D01*
X164069282Y-99891095D01*
X164271370Y-99956757D01*
X164481254Y-99990000D01*
X164693746Y-99990000D01*
X164903627Y-99956757D01*
X164903630Y-99956757D01*
X165105717Y-99891095D01*
X165295054Y-99794622D01*
X165349216Y-99755270D01*
X165349217Y-99755270D01*
X164716908Y-99122962D01*
X164780493Y-99105925D01*
X164894507Y-99040099D01*
X164987599Y-98947007D01*
X165053425Y-98832993D01*
X165070462Y-98769409D01*
X165702770Y-99401717D01*
X165702770Y-99401716D01*
X165742122Y-99347554D01*
X165838595Y-99158217D01*
X165904257Y-98956130D01*
X165904257Y-98956127D01*
X165937500Y-98746246D01*
X165937500Y-98533753D01*
X165904257Y-98323872D01*
X165904257Y-98323869D01*
X165838595Y-98121782D01*
X165742124Y-97932449D01*
X165702770Y-97878282D01*
X165702769Y-97878282D01*
X165070462Y-98510590D01*
X165053425Y-98447007D01*
X164987599Y-98332993D01*
X164894507Y-98239901D01*
X164780493Y-98174075D01*
X164716909Y-98157037D01*
X165387127Y-97486818D01*
X165448450Y-97453333D01*
X165474807Y-97450499D01*
X165485372Y-97450499D01*
X165544983Y-97444091D01*
X165679831Y-97393796D01*
X165795046Y-97307546D01*
X165881296Y-97192331D01*
X165931591Y-97057483D01*
X165938000Y-96997873D01*
X165937999Y-95202128D01*
X165931591Y-95142517D01*
X165929887Y-95137949D01*
X165881297Y-95007671D01*
X165881293Y-95007664D01*
X165795047Y-94892455D01*
X165795044Y-94892452D01*
X165679835Y-94806206D01*
X165679828Y-94806202D01*
X165544982Y-94755908D01*
X165544983Y-94755908D01*
X165485383Y-94749501D01*
X165485381Y-94749500D01*
X165485373Y-94749500D01*
X165485364Y-94749500D01*
X163689629Y-94749500D01*
X163689623Y-94749501D01*
X163630016Y-94755908D01*
X163495171Y-94806202D01*
X163495164Y-94806206D01*
X163379955Y-94892452D01*
X163379952Y-94892455D01*
X163293706Y-95007664D01*
X163293702Y-95007671D01*
X163243408Y-95142517D01*
X163237001Y-95202116D01*
X163237001Y-95202123D01*
X163237000Y-95202135D01*
X149385281Y-95202135D01*
X149348358Y-95146877D01*
X149348355Y-95146873D01*
X149258137Y-95056655D01*
X149258106Y-95056626D01*
X148655040Y-94453560D01*
X148647750Y-94446270D01*
X148647748Y-94446267D01*
X148560623Y-94359142D01*
X148509399Y-94324915D01*
X148458176Y-94290688D01*
X148458173Y-94290686D01*
X148458170Y-94290685D01*
X148384493Y-94260168D01*
X148384491Y-94260167D01*
X148377682Y-94257347D01*
X148344342Y-94243537D01*
X148283919Y-94231518D01*
X148279196Y-94230578D01*
X148279194Y-94230578D01*
X148223500Y-94219500D01*
X148223497Y-94219500D01*
X148223496Y-94219500D01*
X145080851Y-94219500D01*
X145080831Y-94219499D01*
X145074717Y-94219499D01*
X144951504Y-94219499D01*
X144850707Y-94239548D01*
X144850702Y-94239548D01*
X144830659Y-94243536D01*
X144830657Y-94243536D01*
X144783507Y-94263067D01*
X144716829Y-94290685D01*
X144716827Y-94290686D01*
X144614376Y-94359141D01*
X144614373Y-94359144D01*
X143213769Y-95759750D01*
X143126644Y-95846874D01*
X143126638Y-95846882D01*
X143058192Y-95949315D01*
X143058184Y-95949329D01*
X143024847Y-96029817D01*
X143019323Y-96043153D01*
X143011037Y-96063155D01*
X143011035Y-96063163D01*
X142987000Y-96183999D01*
X142987000Y-99507010D01*
X142967315Y-99574049D01*
X142950681Y-99594691D01*
X142682191Y-99863181D01*
X142620868Y-99896666D01*
X142594510Y-99899500D01*
X141745303Y-99899500D01*
X141678264Y-99879815D01*
X141676412Y-99878602D01*
X141582137Y-99815609D01*
X141582125Y-99815602D01*
X141436454Y-99755264D01*
X141436442Y-99755261D01*
X141281798Y-99724500D01*
X141281795Y-99724500D01*
X141124111Y-99724500D01*
X141124110Y-99724500D01*
X141118048Y-99725097D01*
X141117835Y-99722937D01*
X141057976Y-99717560D01*
X141002814Y-99674677D01*
X140988859Y-99649646D01*
X140953481Y-99564234D01*
X140953479Y-99564231D01*
X140953477Y-99564227D01*
X140865876Y-99433124D01*
X140865873Y-99433120D01*
X140754379Y-99321626D01*
X140754375Y-99321623D01*
X140623272Y-99234022D01*
X140623259Y-99234015D01*
X140477588Y-99173677D01*
X140477576Y-99173674D01*
X140322932Y-99142913D01*
X140322929Y-99142913D01*
X140165245Y-99142913D01*
X140165242Y-99142913D01*
X140010597Y-99173674D01*
X140010585Y-99173677D01*
X139864914Y-99234015D01*
X139864901Y-99234022D01*
X139733798Y-99321623D01*
X139733794Y-99321626D01*
X139622300Y-99433120D01*
X139622297Y-99433124D01*
X139534696Y-99564227D01*
X139534689Y-99564240D01*
X139474351Y-99709911D01*
X139474348Y-99709923D01*
X139443587Y-99864566D01*
X139443587Y-100022259D01*
X139474348Y-100176902D01*
X139474351Y-100176914D01*
X139530490Y-100312446D01*
X139537959Y-100381915D01*
X139506684Y-100444394D01*
X139446595Y-100480046D01*
X139376769Y-100477552D01*
X139328248Y-100447579D01*
X138860834Y-99980166D01*
X138860832Y-99980163D01*
X137725284Y-98844615D01*
X137725280Y-98844612D01*
X137561420Y-98735124D01*
X137561410Y-98735119D01*
X137379336Y-98659701D01*
X137379328Y-98659699D01*
X137186043Y-98621252D01*
X137186040Y-98621252D01*
X136988960Y-98621252D01*
X136988954Y-98621252D01*
X136986962Y-98621448D01*
X136985929Y-98621252D01*
X136982868Y-98621252D01*
X136982868Y-98620671D01*
X136918317Y-98608423D01*
X136867611Y-98560353D01*
X136850943Y-98492501D01*
X136856163Y-98462034D01*
X136857232Y-98458509D01*
X136857237Y-98458497D01*
X136888000Y-98303842D01*
X136888000Y-98146158D01*
X136888000Y-98146155D01*
X136887999Y-98146153D01*
X136857238Y-97991510D01*
X136857237Y-97991503D01*
X136796894Y-97845821D01*
X136733897Y-97751539D01*
X136713094Y-97687469D01*
X136713000Y-97685052D01*
X136713000Y-97588394D01*
X136710236Y-97574500D01*
X136688963Y-97467549D01*
X136688961Y-97467545D01*
X136688960Y-97467540D01*
X136684782Y-97457455D01*
X136684778Y-97457445D01*
X136671133Y-97424501D01*
X136641814Y-97353718D01*
X136641812Y-97353715D01*
X136641812Y-97353714D01*
X136607584Y-97302490D01*
X136573358Y-97251267D01*
X136573356Y-97251264D01*
X136483137Y-97161045D01*
X136483106Y-97161016D01*
X136374319Y-97052229D01*
X136340834Y-96990906D01*
X136338000Y-96964548D01*
X136338000Y-90840220D01*
X136337999Y-90840216D01*
X136313964Y-90719382D01*
X136313963Y-90719375D01*
X136266811Y-90605541D01*
X136266810Y-90605540D01*
X136266807Y-90605534D01*
X136198358Y-90503094D01*
X136198355Y-90503090D01*
X136108137Y-90412872D01*
X136108106Y-90412843D01*
X128817579Y-83122316D01*
X128810289Y-83115026D01*
X128810287Y-83115023D01*
X128723162Y-83027898D01*
X128671938Y-82993671D01*
X128620715Y-82959444D01*
X128620712Y-82959442D01*
X128620709Y-82959441D01*
X128547032Y-82928924D01*
X128547030Y-82928923D01*
X128540221Y-82926103D01*
X128506881Y-82912293D01*
X128446458Y-82900274D01*
X128441735Y-82899334D01*
X128441733Y-82899334D01*
X128386039Y-82888256D01*
X128386036Y-82888256D01*
X128386035Y-82888256D01*
X118856780Y-82888256D01*
X118789741Y-82868571D01*
X118787889Y-82867358D01*
X118693614Y-82804365D01*
X118693602Y-82804358D01*
X118547931Y-82744020D01*
X118547919Y-82744017D01*
X118393275Y-82713256D01*
X118393272Y-82713256D01*
X118235588Y-82713256D01*
X118235585Y-82713256D01*
X118080940Y-82744017D01*
X118080928Y-82744020D01*
X117935257Y-82804358D01*
X117935244Y-82804365D01*
X117804141Y-82891966D01*
X117804137Y-82891969D01*
X117692643Y-83003463D01*
X117692640Y-83003467D01*
X117605039Y-83134570D01*
X117605032Y-83134583D01*
X117544694Y-83280254D01*
X117544691Y-83280266D01*
X117513930Y-83434909D01*
X107838000Y-83434909D01*
X107838000Y-80997682D01*
X127287500Y-80997682D01*
X127287500Y-81202317D01*
X127319509Y-81404417D01*
X127382744Y-81599031D01*
X127475641Y-81781350D01*
X127475647Y-81781359D01*
X127508023Y-81825921D01*
X127508024Y-81825922D01*
X128187500Y-81146446D01*
X128187500Y-81152661D01*
X128214759Y-81254394D01*
X128267420Y-81345606D01*
X128341894Y-81420080D01*
X128433106Y-81472741D01*
X128534839Y-81500000D01*
X128541053Y-81500000D01*
X127861576Y-82179474D01*
X127906150Y-82211859D01*
X128088468Y-82304755D01*
X128283082Y-82367990D01*
X128485183Y-82400000D01*
X128689817Y-82400000D01*
X128891917Y-82367990D01*
X128911482Y-82361633D01*
X129086531Y-82304755D01*
X129268849Y-82211859D01*
X129313421Y-82179474D01*
X128633947Y-81500000D01*
X128640161Y-81500000D01*
X128741894Y-81472741D01*
X128833106Y-81420080D01*
X128907580Y-81345606D01*
X128960241Y-81254394D01*
X128987500Y-81152661D01*
X128987500Y-81146447D01*
X129666974Y-81825921D01*
X129699359Y-81781349D01*
X129792255Y-81599031D01*
X129855490Y-81404417D01*
X129864896Y-81345031D01*
X137787500Y-81345031D01*
X137787500Y-81549666D01*
X137819509Y-81751766D01*
X137882744Y-81946380D01*
X137975641Y-82128699D01*
X137975647Y-82128708D01*
X138008023Y-82173270D01*
X138008024Y-82173271D01*
X138687500Y-81493795D01*
X138687500Y-81500010D01*
X138714759Y-81601743D01*
X138767420Y-81692955D01*
X138841894Y-81767429D01*
X138933106Y-81820090D01*
X139034839Y-81847349D01*
X139041053Y-81847349D01*
X138361576Y-82526823D01*
X138406150Y-82559208D01*
X138588468Y-82652104D01*
X138783082Y-82715339D01*
X138985183Y-82747349D01*
X139189817Y-82747349D01*
X139391917Y-82715339D01*
X139586531Y-82652104D01*
X139768849Y-82559208D01*
X139813421Y-82526823D01*
X139133947Y-81847349D01*
X139140161Y-81847349D01*
X139241894Y-81820090D01*
X139333106Y-81767429D01*
X139407580Y-81692955D01*
X139460241Y-81601743D01*
X139487500Y-81500010D01*
X139487500Y-81493797D01*
X140166974Y-82173271D01*
X140166974Y-82173270D01*
X140199359Y-82128698D01*
X140292255Y-81946380D01*
X140355490Y-81751766D01*
X140387500Y-81549666D01*
X140387500Y-81345032D01*
X140387499Y-81345030D01*
X140387072Y-81342332D01*
X144487000Y-81342332D01*
X144487000Y-81617667D01*
X144487001Y-81617684D01*
X144522938Y-81890655D01*
X144522939Y-81890660D01*
X144522940Y-81890666D01*
X144558572Y-82023649D01*
X144594204Y-82156630D01*
X144699575Y-82411017D01*
X144699580Y-82411028D01*
X144766435Y-82526823D01*
X144837251Y-82649479D01*
X144837253Y-82649482D01*
X144837254Y-82649483D01*
X145004870Y-82867926D01*
X145004876Y-82867933D01*
X145199566Y-83062623D01*
X145199572Y-83062628D01*
X145418021Y-83230249D01*
X145571278Y-83318732D01*
X145656471Y-83367919D01*
X145656476Y-83367921D01*
X145656479Y-83367923D01*
X145910868Y-83473295D01*
X146176834Y-83544560D01*
X146449826Y-83580500D01*
X146449833Y-83580500D01*
X146725167Y-83580500D01*
X146725174Y-83580500D01*
X146998166Y-83544560D01*
X147264132Y-83473295D01*
X147518521Y-83367923D01*
X147756979Y-83230249D01*
X147975428Y-83062628D01*
X148170128Y-82867928D01*
X148337749Y-82649479D01*
X148475423Y-82411021D01*
X148580795Y-82156632D01*
X148652060Y-81890666D01*
X148688000Y-81617674D01*
X148688000Y-81342326D01*
X148652060Y-81069334D01*
X148580795Y-80803368D01*
X148475423Y-80548979D01*
X148475421Y-80548976D01*
X148475419Y-80548971D01*
X148426232Y-80463778D01*
X148337749Y-80310521D01*
X148170128Y-80092072D01*
X148170123Y-80092066D01*
X147975433Y-79897376D01*
X147975426Y-79897370D01*
X147756983Y-79729754D01*
X147756982Y-79729753D01*
X147756979Y-79729751D01*
X147661907Y-79674861D01*
X147518528Y-79592080D01*
X147518517Y-79592075D01*
X147264130Y-79486704D01*
X147131149Y-79451072D01*
X146998166Y-79415440D01*
X146998160Y-79415439D01*
X146998155Y-79415438D01*
X146725184Y-79379501D01*
X146725179Y-79379500D01*
X146725174Y-79379500D01*
X146449826Y-79379500D01*
X146449820Y-79379500D01*
X146449815Y-79379501D01*
X146176844Y-79415438D01*
X146176837Y-79415439D01*
X146176834Y-79415440D01*
X146120625Y-79430500D01*
X145910869Y-79486704D01*
X145656482Y-79592075D01*
X145656471Y-79592080D01*
X145418016Y-79729754D01*
X145199573Y-79897370D01*
X145199566Y-79897376D01*
X145004876Y-80092066D01*
X145004870Y-80092073D01*
X144837254Y-80310516D01*
X144699580Y-80548971D01*
X144699575Y-80548982D01*
X144594204Y-80803369D01*
X144522941Y-81069331D01*
X144522938Y-81069344D01*
X144487001Y-81342315D01*
X144487000Y-81342332D01*
X140387072Y-81342332D01*
X140355490Y-81142931D01*
X140292255Y-80948317D01*
X140199359Y-80765999D01*
X140166974Y-80721426D01*
X140166974Y-80721425D01*
X139487500Y-81400900D01*
X139487500Y-81394688D01*
X139460241Y-81292955D01*
X139407580Y-81201743D01*
X139333106Y-81127269D01*
X139241894Y-81074608D01*
X139140161Y-81047349D01*
X139133946Y-81047349D01*
X139813422Y-80367873D01*
X139813421Y-80367872D01*
X139768859Y-80335496D01*
X139768850Y-80335490D01*
X139586531Y-80242593D01*
X139391917Y-80179358D01*
X139189817Y-80147349D01*
X138985183Y-80147349D01*
X138783082Y-80179358D01*
X138588468Y-80242593D01*
X138406144Y-80335492D01*
X138361577Y-80367872D01*
X138361577Y-80367873D01*
X139041054Y-81047349D01*
X139034839Y-81047349D01*
X138933106Y-81074608D01*
X138841894Y-81127269D01*
X138767420Y-81201743D01*
X138714759Y-81292955D01*
X138687500Y-81394688D01*
X138687500Y-81400902D01*
X138008024Y-80721426D01*
X138008023Y-80721426D01*
X137975643Y-80765993D01*
X137882744Y-80948317D01*
X137819509Y-81142931D01*
X137787500Y-81345031D01*
X129864896Y-81345031D01*
X129868739Y-81320767D01*
X129887500Y-81202317D01*
X129887500Y-80997682D01*
X129855490Y-80795582D01*
X129792255Y-80600968D01*
X129726250Y-80471427D01*
X129726249Y-80471425D01*
X129699361Y-80418652D01*
X129666974Y-80374077D01*
X129666974Y-80374076D01*
X128987500Y-81053551D01*
X128987500Y-81047339D01*
X128960241Y-80945606D01*
X128907580Y-80854394D01*
X128833106Y-80779920D01*
X128741894Y-80727259D01*
X128640161Y-80700000D01*
X128633946Y-80700000D01*
X129313422Y-80020524D01*
X129313421Y-80020523D01*
X129268859Y-79988147D01*
X129268850Y-79988141D01*
X129086531Y-79895244D01*
X128891917Y-79832009D01*
X128689817Y-79800000D01*
X128485183Y-79800000D01*
X128283082Y-79832009D01*
X128088468Y-79895244D01*
X127906144Y-79988143D01*
X127861577Y-80020523D01*
X127861577Y-80020524D01*
X128541054Y-80700000D01*
X128534839Y-80700000D01*
X128433106Y-80727259D01*
X128341894Y-80779920D01*
X128267420Y-80854394D01*
X128214759Y-80945606D01*
X128187500Y-81047339D01*
X128187500Y-81053553D01*
X127508024Y-80374077D01*
X127508023Y-80374077D01*
X127475643Y-80418644D01*
X127382744Y-80600968D01*
X127319509Y-80795582D01*
X127287500Y-80997682D01*
X107838000Y-80997682D01*
X107838000Y-76999983D01*
X127287000Y-76999983D01*
X127287000Y-78200001D01*
X127287001Y-78200018D01*
X127297500Y-78302796D01*
X127297501Y-78302799D01*
X127352685Y-78469331D01*
X127352686Y-78469334D01*
X127444788Y-78618656D01*
X127568844Y-78742712D01*
X127718166Y-78834814D01*
X127884703Y-78889999D01*
X127987491Y-78900500D01*
X129187508Y-78900499D01*
X129290297Y-78889999D01*
X129456834Y-78834814D01*
X129606156Y-78742712D01*
X129730212Y-78618656D01*
X129822314Y-78469334D01*
X129877499Y-78302797D01*
X129888000Y-78200009D01*
X129887999Y-77347332D01*
X137787000Y-77347332D01*
X137787000Y-78547350D01*
X137787001Y-78547367D01*
X137797500Y-78650145D01*
X137797501Y-78650148D01*
X137828174Y-78742712D01*
X137852686Y-78816683D01*
X137944788Y-78966005D01*
X138068844Y-79090061D01*
X138218166Y-79182163D01*
X138384703Y-79237348D01*
X138487491Y-79247849D01*
X139687508Y-79247848D01*
X139790297Y-79237348D01*
X139956834Y-79182163D01*
X140106156Y-79090061D01*
X140230212Y-78966005D01*
X140322314Y-78816683D01*
X140377499Y-78650146D01*
X140388000Y-78547358D01*
X140387999Y-77347341D01*
X140377499Y-77244552D01*
X140322314Y-77078015D01*
X140230212Y-76928693D01*
X140106156Y-76804637D01*
X140013388Y-76747418D01*
X139956836Y-76712536D01*
X139956831Y-76712534D01*
X139955362Y-76712047D01*
X139790297Y-76657350D01*
X139790295Y-76657349D01*
X139687510Y-76646849D01*
X138487498Y-76646849D01*
X138487481Y-76646850D01*
X138384703Y-76657349D01*
X138384700Y-76657350D01*
X138218168Y-76712534D01*
X138218163Y-76712536D01*
X138068842Y-76804638D01*
X137944789Y-76928691D01*
X137852687Y-77078012D01*
X137852686Y-77078015D01*
X137797501Y-77244552D01*
X137797501Y-77244553D01*
X137797500Y-77244553D01*
X137787000Y-77347332D01*
X129887999Y-77347332D01*
X129887999Y-76999992D01*
X129877499Y-76897203D01*
X129822314Y-76730666D01*
X129730212Y-76581344D01*
X129606156Y-76457288D01*
X129456834Y-76365186D01*
X129290297Y-76310001D01*
X129290295Y-76310000D01*
X129187510Y-76299500D01*
X127987498Y-76299500D01*
X127987481Y-76299501D01*
X127884703Y-76310000D01*
X127884700Y-76310001D01*
X127718168Y-76365185D01*
X127718163Y-76365187D01*
X127568842Y-76457289D01*
X127444789Y-76581342D01*
X127352687Y-76730663D01*
X127352686Y-76730666D01*
X127297501Y-76897203D01*
X127297501Y-76897204D01*
X127297500Y-76897204D01*
X127287000Y-76999983D01*
X107838000Y-76999983D01*
X107838000Y-74949500D01*
X107857685Y-74882461D01*
X107910489Y-74836706D01*
X107962000Y-74825500D01*
X166213000Y-74825500D01*
X166280039Y-74845185D01*
G37*
%TD.AperFunction*%
%TD*%
M02*
