%TF.GenerationSoftware,KiCad,Pcbnew,10.0.0*%
%TF.CreationDate,2026-04-10T17:02:48+01:00*%
%TF.ProjectId,LTC1871_Based_Boost_Controller,4c544331-3837-4315-9f42-617365645f42,rev?*%
%TF.SameCoordinates,Original*%
%TF.FileFunction,Paste,Top*%
%TF.FilePolarity,Positive*%
%FSLAX46Y46*%
G04 Gerber Fmt 4.6, Leading zero omitted, Abs format (unit mm)*
G04 Created by KiCad (PCBNEW 10.0.0) date 2026-04-10 17:02:48*
%MOMM*%
%LPD*%
G01*
G04 APERTURE LIST*
G04 Aperture macros list*
%AMRoundRect*
0 Rectangle with rounded corners*
0 $1 Rounding radius*
0 $2 $3 $4 $5 $6 $7 $8 $9 X,Y pos of 4 corners*
0 Add a 4 corners polygon primitive as box body*
4,1,4,$2,$3,$4,$5,$6,$7,$8,$9,$2,$3,0*
0 Add four circle primitives for the rounded corners*
1,1,$1+$1,$2,$3*
1,1,$1+$1,$4,$5*
1,1,$1+$1,$6,$7*
1,1,$1+$1,$8,$9*
0 Add four rect primitives between the rounded corners*
20,1,$1+$1,$2,$3,$4,$5,0*
20,1,$1+$1,$4,$5,$6,$7,0*
20,1,$1+$1,$6,$7,$8,$9,0*
20,1,$1+$1,$8,$9,$2,$3,0*%
G04 Aperture macros list end*
%ADD10RoundRect,0.250000X-0.325000X-0.650000X0.325000X-0.650000X0.325000X0.650000X-0.325000X0.650000X0*%
%ADD11RoundRect,0.250000X-0.650000X0.325000X-0.650000X-0.325000X0.650000X-0.325000X0.650000X0.325000X0*%
%ADD12RoundRect,0.250000X-0.250000X-0.475000X0.250000X-0.475000X0.250000X0.475000X-0.250000X0.475000X0*%
%ADD13RoundRect,0.250000X-0.262500X-0.450000X0.262500X-0.450000X0.262500X0.450000X-0.262500X0.450000X0*%
%ADD14RoundRect,0.250000X-0.475000X0.250000X-0.475000X-0.250000X0.475000X-0.250000X0.475000X0.250000X0*%
%ADD15RoundRect,0.250000X-0.465000X-2.500000X0.465000X-2.500000X0.465000X2.500000X-0.465000X2.500000X0*%
%ADD16RoundRect,0.250000X0.475000X-0.250000X0.475000X0.250000X-0.475000X0.250000X-0.475000X-0.250000X0*%
%ADD17RoundRect,0.250000X-0.250000X-0.250000X0.250000X-0.250000X0.250000X0.250000X-0.250000X0.250000X0*%
%ADD18RoundRect,0.087500X-0.662500X-0.087500X0.662500X-0.087500X0.662500X0.087500X-0.662500X0.087500X0*%
%ADD19RoundRect,0.150000X-0.825000X-0.150000X0.825000X-0.150000X0.825000X0.150000X-0.825000X0.150000X0*%
%ADD20RoundRect,0.250000X0.450000X-0.262500X0.450000X0.262500X-0.450000X0.262500X-0.450000X-0.262500X0*%
%ADD21RoundRect,0.150000X-0.587500X-0.150000X0.587500X-0.150000X0.587500X0.150000X-0.587500X0.150000X0*%
G04 APERTURE END LIST*
D10*
%TO.C,C1a7*%
X155637500Y-105150000D03*
X158587500Y-105150000D03*
%TD*%
D11*
%TO.C,C6*%
X109587500Y-80150000D03*
X109587500Y-83100000D03*
%TD*%
D10*
%TO.C,C1a8*%
X155637500Y-108500000D03*
X158587500Y-108500000D03*
%TD*%
%TO.C,C1a2*%
X155637500Y-88400000D03*
X158587500Y-88400000D03*
%TD*%
%TO.C,C1a6*%
X155637500Y-101800000D03*
X158587500Y-101800000D03*
%TD*%
D12*
%TO.C,C1b2*%
X160637500Y-81110000D03*
X162537500Y-81110000D03*
%TD*%
D13*
%TO.C,R6*%
X117262500Y-85100000D03*
X119087500Y-85100000D03*
%TD*%
D14*
%TO.C,C1*%
X130587500Y-105650000D03*
X130587500Y-107550000D03*
%TD*%
D11*
%TO.C,C7*%
X113087500Y-77650000D03*
X113087500Y-80600000D03*
%TD*%
D10*
%TO.C,C1a3*%
X155637500Y-91750000D03*
X158587500Y-91750000D03*
%TD*%
D13*
%TO.C,R5*%
X117262500Y-82600000D03*
X119087500Y-82600000D03*
%TD*%
D10*
%TO.C,C1a5*%
X155637500Y-98450000D03*
X158587500Y-98450000D03*
%TD*%
D15*
%TO.C,L1*%
X125547500Y-91100000D03*
X129587500Y-91100000D03*
%TD*%
D16*
%TO.C,C3*%
X129087500Y-112000000D03*
X129087500Y-110100000D03*
%TD*%
D14*
%TO.C,C2*%
X123587500Y-109600000D03*
X123587500Y-111500000D03*
%TD*%
D17*
%TO.C,D2*%
X134587500Y-105600000D03*
X137087500Y-105600000D03*
%TD*%
D13*
%TO.C,R2*%
X139762500Y-105100000D03*
X141587500Y-105100000D03*
%TD*%
D12*
%TO.C,C1b1*%
X160637500Y-78100000D03*
X162537500Y-78100000D03*
%TD*%
D13*
%TO.C,R3*%
X140262500Y-110600000D03*
X142087500Y-110600000D03*
%TD*%
D10*
%TO.C,C1a1*%
X155637500Y-85050000D03*
X158587500Y-85050000D03*
%TD*%
D18*
%TO.C,U1*%
X134487500Y-98100000D03*
X134487500Y-98600000D03*
X134487500Y-99100000D03*
X134487500Y-99600000D03*
X134487500Y-100100000D03*
X138687500Y-100100000D03*
X138687500Y-99600000D03*
X138687500Y-99100000D03*
X138687500Y-98600000D03*
X138687500Y-98100000D03*
%TD*%
D13*
%TO.C,R4*%
X131262500Y-103100000D03*
X133087500Y-103100000D03*
%TD*%
D19*
%TO.C,Q1*%
X135137500Y-88600000D03*
X135137500Y-89870000D03*
X135137500Y-91140000D03*
X135137500Y-92410000D03*
X140087500Y-92410000D03*
X140087500Y-91140000D03*
X140087500Y-89870000D03*
X140087500Y-88600000D03*
%TD*%
D20*
%TO.C,R1*%
X134587500Y-111925000D03*
X134587500Y-110100000D03*
%TD*%
D12*
%TO.C,C4*%
X141187500Y-99600000D03*
X143087500Y-99600000D03*
%TD*%
D21*
%TO.C,Q2*%
X116587500Y-90600000D03*
X116587500Y-92500000D03*
X118462500Y-91550000D03*
%TD*%
D10*
%TO.C,C1a4*%
X155637500Y-95100000D03*
X158587500Y-95100000D03*
%TD*%
M02*
