%TF.GenerationSoftware,KiCad,Pcbnew,10.0.0*%
%TF.CreationDate,2026-04-10T17:02:49+01:00*%
%TF.ProjectId,LTC1871_Based_Boost_Controller,4c544331-3837-4315-9f42-617365645f42,rev?*%
%TF.SameCoordinates,Original*%
%TF.FileFunction,Legend,Top*%
%TF.FilePolarity,Positive*%
%FSLAX46Y46*%
G04 Gerber Fmt 4.6, Leading zero omitted, Abs format (unit mm)*
G04 Created by KiCad (PCBNEW 10.0.0) date 2026-04-10 17:02:49*
%MOMM*%
%LPD*%
G01*
G04 APERTURE LIST*
G04 Aperture macros list*
%AMRoundRect*
0 Rectangle with rounded corners*
0 $1 Rounding radius*
0 $2 $3 $4 $5 $6 $7 $8 $9 X,Y pos of 4 corners*
0 Add a 4 corners polygon primitive as box body*
4,1,4,$2,$3,$4,$5,$6,$7,$8,$9,$2,$3,0*
0 Add four circle primitives for the rounded corners*
1,1,$1+$1,$2,$3*
1,1,$1+$1,$4,$5*
1,1,$1+$1,$6,$7*
1,1,$1+$1,$8,$9*
0 Add four rect primitives between the rounded corners*
20,1,$1+$1,$2,$3,$4,$5,0*
20,1,$1+$1,$4,$5,$6,$7,0*
20,1,$1+$1,$6,$7,$8,$9,0*
20,1,$1+$1,$8,$9,$2,$3,0*%
G04 Aperture macros list end*
%ADD10C,0.150000*%
%ADD11C,0.120000*%
%ADD12RoundRect,0.250000X-0.325000X-0.650000X0.325000X-0.650000X0.325000X0.650000X-0.325000X0.650000X0*%
%ADD13RoundRect,0.250000X-0.650000X0.325000X-0.650000X-0.325000X0.650000X-0.325000X0.650000X0.325000X0*%
%ADD14R,1.700000X1.700000*%
%ADD15C,1.700000*%
%ADD16RoundRect,0.250000X1.350000X-1.350000X1.350000X1.350000X-1.350000X1.350000X-1.350000X-1.350000X0*%
%ADD17C,3.200000*%
%ADD18RoundRect,0.250000X-0.250000X-0.475000X0.250000X-0.475000X0.250000X0.475000X-0.250000X0.475000X0*%
%ADD19RoundRect,0.250000X-0.550000X0.550000X-0.550000X-0.550000X0.550000X-0.550000X0.550000X0.550000X0*%
%ADD20C,1.600000*%
%ADD21RoundRect,0.250000X-0.262500X-0.450000X0.262500X-0.450000X0.262500X0.450000X-0.262500X0.450000X0*%
%ADD22RoundRect,0.250000X-0.475000X0.250000X-0.475000X-0.250000X0.475000X-0.250000X0.475000X0.250000X0*%
%ADD23RoundRect,0.250000X-0.465000X-2.500000X0.465000X-2.500000X0.465000X2.500000X-0.465000X2.500000X0*%
%ADD24RoundRect,0.250000X0.475000X-0.250000X0.475000X0.250000X-0.475000X0.250000X-0.475000X-0.250000X0*%
%ADD25RoundRect,0.250000X-0.250000X-0.250000X0.250000X-0.250000X0.250000X0.250000X-0.250000X0.250000X0*%
%ADD26RoundRect,0.087500X-0.662500X-0.087500X0.662500X-0.087500X0.662500X0.087500X-0.662500X0.087500X0*%
%ADD27RoundRect,0.150000X-0.825000X-0.150000X0.825000X-0.150000X0.825000X0.150000X-0.825000X0.150000X0*%
%ADD28RoundRect,0.250000X0.450000X-0.262500X0.450000X0.262500X-0.450000X0.262500X-0.450000X-0.262500X0*%
%ADD29RoundRect,0.150000X-0.587500X-0.150000X0.587500X-0.150000X0.587500X0.150000X-0.587500X0.150000X0*%
G04 APERTURE END LIST*
D10*
X151492261Y-105259580D02*
X151444642Y-105307200D01*
X151444642Y-105307200D02*
X151301785Y-105354819D01*
X151301785Y-105354819D02*
X151206547Y-105354819D01*
X151206547Y-105354819D02*
X151063690Y-105307200D01*
X151063690Y-105307200D02*
X150968452Y-105211961D01*
X150968452Y-105211961D02*
X150920833Y-105116723D01*
X150920833Y-105116723D02*
X150873214Y-104926247D01*
X150873214Y-104926247D02*
X150873214Y-104783390D01*
X150873214Y-104783390D02*
X150920833Y-104592914D01*
X150920833Y-104592914D02*
X150968452Y-104497676D01*
X150968452Y-104497676D02*
X151063690Y-104402438D01*
X151063690Y-104402438D02*
X151206547Y-104354819D01*
X151206547Y-104354819D02*
X151301785Y-104354819D01*
X151301785Y-104354819D02*
X151444642Y-104402438D01*
X151444642Y-104402438D02*
X151492261Y-104450057D01*
X152444642Y-105354819D02*
X151873214Y-105354819D01*
X152158928Y-105354819D02*
X152158928Y-104354819D01*
X152158928Y-104354819D02*
X152063690Y-104497676D01*
X152063690Y-104497676D02*
X151968452Y-104592914D01*
X151968452Y-104592914D02*
X151873214Y-104640533D01*
X153301785Y-105354819D02*
X153301785Y-104831009D01*
X153301785Y-104831009D02*
X153254166Y-104735771D01*
X153254166Y-104735771D02*
X153158928Y-104688152D01*
X153158928Y-104688152D02*
X152968452Y-104688152D01*
X152968452Y-104688152D02*
X152873214Y-104735771D01*
X153301785Y-105307200D02*
X153206547Y-105354819D01*
X153206547Y-105354819D02*
X152968452Y-105354819D01*
X152968452Y-105354819D02*
X152873214Y-105307200D01*
X152873214Y-105307200D02*
X152825595Y-105211961D01*
X152825595Y-105211961D02*
X152825595Y-105116723D01*
X152825595Y-105116723D02*
X152873214Y-105021485D01*
X152873214Y-105021485D02*
X152968452Y-104973866D01*
X152968452Y-104973866D02*
X153206547Y-104973866D01*
X153206547Y-104973866D02*
X153301785Y-104926247D01*
X153682738Y-104354819D02*
X154349404Y-104354819D01*
X154349404Y-104354819D02*
X153920833Y-105354819D01*
X109947080Y-78291666D02*
X109994700Y-78339285D01*
X109994700Y-78339285D02*
X110042319Y-78482142D01*
X110042319Y-78482142D02*
X110042319Y-78577380D01*
X110042319Y-78577380D02*
X109994700Y-78720237D01*
X109994700Y-78720237D02*
X109899461Y-78815475D01*
X109899461Y-78815475D02*
X109804223Y-78863094D01*
X109804223Y-78863094D02*
X109613747Y-78910713D01*
X109613747Y-78910713D02*
X109470890Y-78910713D01*
X109470890Y-78910713D02*
X109280414Y-78863094D01*
X109280414Y-78863094D02*
X109185176Y-78815475D01*
X109185176Y-78815475D02*
X109089938Y-78720237D01*
X109089938Y-78720237D02*
X109042319Y-78577380D01*
X109042319Y-78577380D02*
X109042319Y-78482142D01*
X109042319Y-78482142D02*
X109089938Y-78339285D01*
X109089938Y-78339285D02*
X109137557Y-78291666D01*
X109042319Y-77434523D02*
X109042319Y-77624999D01*
X109042319Y-77624999D02*
X109089938Y-77720237D01*
X109089938Y-77720237D02*
X109137557Y-77767856D01*
X109137557Y-77767856D02*
X109280414Y-77863094D01*
X109280414Y-77863094D02*
X109470890Y-77910713D01*
X109470890Y-77910713D02*
X109851842Y-77910713D01*
X109851842Y-77910713D02*
X109947080Y-77863094D01*
X109947080Y-77863094D02*
X109994700Y-77815475D01*
X109994700Y-77815475D02*
X110042319Y-77720237D01*
X110042319Y-77720237D02*
X110042319Y-77529761D01*
X110042319Y-77529761D02*
X109994700Y-77434523D01*
X109994700Y-77434523D02*
X109947080Y-77386904D01*
X109947080Y-77386904D02*
X109851842Y-77339285D01*
X109851842Y-77339285D02*
X109613747Y-77339285D01*
X109613747Y-77339285D02*
X109518509Y-77386904D01*
X109518509Y-77386904D02*
X109470890Y-77434523D01*
X109470890Y-77434523D02*
X109423271Y-77529761D01*
X109423271Y-77529761D02*
X109423271Y-77720237D01*
X109423271Y-77720237D02*
X109470890Y-77815475D01*
X109470890Y-77815475D02*
X109518509Y-77863094D01*
X109518509Y-77863094D02*
X109613747Y-77910713D01*
X151492261Y-108759580D02*
X151444642Y-108807200D01*
X151444642Y-108807200D02*
X151301785Y-108854819D01*
X151301785Y-108854819D02*
X151206547Y-108854819D01*
X151206547Y-108854819D02*
X151063690Y-108807200D01*
X151063690Y-108807200D02*
X150968452Y-108711961D01*
X150968452Y-108711961D02*
X150920833Y-108616723D01*
X150920833Y-108616723D02*
X150873214Y-108426247D01*
X150873214Y-108426247D02*
X150873214Y-108283390D01*
X150873214Y-108283390D02*
X150920833Y-108092914D01*
X150920833Y-108092914D02*
X150968452Y-107997676D01*
X150968452Y-107997676D02*
X151063690Y-107902438D01*
X151063690Y-107902438D02*
X151206547Y-107854819D01*
X151206547Y-107854819D02*
X151301785Y-107854819D01*
X151301785Y-107854819D02*
X151444642Y-107902438D01*
X151444642Y-107902438D02*
X151492261Y-107950057D01*
X152444642Y-108854819D02*
X151873214Y-108854819D01*
X152158928Y-108854819D02*
X152158928Y-107854819D01*
X152158928Y-107854819D02*
X152063690Y-107997676D01*
X152063690Y-107997676D02*
X151968452Y-108092914D01*
X151968452Y-108092914D02*
X151873214Y-108140533D01*
X153301785Y-108854819D02*
X153301785Y-108331009D01*
X153301785Y-108331009D02*
X153254166Y-108235771D01*
X153254166Y-108235771D02*
X153158928Y-108188152D01*
X153158928Y-108188152D02*
X152968452Y-108188152D01*
X152968452Y-108188152D02*
X152873214Y-108235771D01*
X153301785Y-108807200D02*
X153206547Y-108854819D01*
X153206547Y-108854819D02*
X152968452Y-108854819D01*
X152968452Y-108854819D02*
X152873214Y-108807200D01*
X152873214Y-108807200D02*
X152825595Y-108711961D01*
X152825595Y-108711961D02*
X152825595Y-108616723D01*
X152825595Y-108616723D02*
X152873214Y-108521485D01*
X152873214Y-108521485D02*
X152968452Y-108473866D01*
X152968452Y-108473866D02*
X153206547Y-108473866D01*
X153206547Y-108473866D02*
X153301785Y-108426247D01*
X153920833Y-108283390D02*
X153825595Y-108235771D01*
X153825595Y-108235771D02*
X153777976Y-108188152D01*
X153777976Y-108188152D02*
X153730357Y-108092914D01*
X153730357Y-108092914D02*
X153730357Y-108045295D01*
X153730357Y-108045295D02*
X153777976Y-107950057D01*
X153777976Y-107950057D02*
X153825595Y-107902438D01*
X153825595Y-107902438D02*
X153920833Y-107854819D01*
X153920833Y-107854819D02*
X154111309Y-107854819D01*
X154111309Y-107854819D02*
X154206547Y-107902438D01*
X154206547Y-107902438D02*
X154254166Y-107950057D01*
X154254166Y-107950057D02*
X154301785Y-108045295D01*
X154301785Y-108045295D02*
X154301785Y-108092914D01*
X154301785Y-108092914D02*
X154254166Y-108188152D01*
X154254166Y-108188152D02*
X154206547Y-108235771D01*
X154206547Y-108235771D02*
X154111309Y-108283390D01*
X154111309Y-108283390D02*
X153920833Y-108283390D01*
X153920833Y-108283390D02*
X153825595Y-108331009D01*
X153825595Y-108331009D02*
X153777976Y-108378628D01*
X153777976Y-108378628D02*
X153730357Y-108473866D01*
X153730357Y-108473866D02*
X153730357Y-108664342D01*
X153730357Y-108664342D02*
X153777976Y-108759580D01*
X153777976Y-108759580D02*
X153825595Y-108807200D01*
X153825595Y-108807200D02*
X153920833Y-108854819D01*
X153920833Y-108854819D02*
X154111309Y-108854819D01*
X154111309Y-108854819D02*
X154206547Y-108807200D01*
X154206547Y-108807200D02*
X154254166Y-108759580D01*
X154254166Y-108759580D02*
X154301785Y-108664342D01*
X154301785Y-108664342D02*
X154301785Y-108473866D01*
X154301785Y-108473866D02*
X154254166Y-108378628D01*
X154254166Y-108378628D02*
X154206547Y-108331009D01*
X154206547Y-108331009D02*
X154111309Y-108283390D01*
X151492261Y-88759580D02*
X151444642Y-88807200D01*
X151444642Y-88807200D02*
X151301785Y-88854819D01*
X151301785Y-88854819D02*
X151206547Y-88854819D01*
X151206547Y-88854819D02*
X151063690Y-88807200D01*
X151063690Y-88807200D02*
X150968452Y-88711961D01*
X150968452Y-88711961D02*
X150920833Y-88616723D01*
X150920833Y-88616723D02*
X150873214Y-88426247D01*
X150873214Y-88426247D02*
X150873214Y-88283390D01*
X150873214Y-88283390D02*
X150920833Y-88092914D01*
X150920833Y-88092914D02*
X150968452Y-87997676D01*
X150968452Y-87997676D02*
X151063690Y-87902438D01*
X151063690Y-87902438D02*
X151206547Y-87854819D01*
X151206547Y-87854819D02*
X151301785Y-87854819D01*
X151301785Y-87854819D02*
X151444642Y-87902438D01*
X151444642Y-87902438D02*
X151492261Y-87950057D01*
X152444642Y-88854819D02*
X151873214Y-88854819D01*
X152158928Y-88854819D02*
X152158928Y-87854819D01*
X152158928Y-87854819D02*
X152063690Y-87997676D01*
X152063690Y-87997676D02*
X151968452Y-88092914D01*
X151968452Y-88092914D02*
X151873214Y-88140533D01*
X153301785Y-88854819D02*
X153301785Y-88331009D01*
X153301785Y-88331009D02*
X153254166Y-88235771D01*
X153254166Y-88235771D02*
X153158928Y-88188152D01*
X153158928Y-88188152D02*
X152968452Y-88188152D01*
X152968452Y-88188152D02*
X152873214Y-88235771D01*
X153301785Y-88807200D02*
X153206547Y-88854819D01*
X153206547Y-88854819D02*
X152968452Y-88854819D01*
X152968452Y-88854819D02*
X152873214Y-88807200D01*
X152873214Y-88807200D02*
X152825595Y-88711961D01*
X152825595Y-88711961D02*
X152825595Y-88616723D01*
X152825595Y-88616723D02*
X152873214Y-88521485D01*
X152873214Y-88521485D02*
X152968452Y-88473866D01*
X152968452Y-88473866D02*
X153206547Y-88473866D01*
X153206547Y-88473866D02*
X153301785Y-88426247D01*
X153730357Y-87950057D02*
X153777976Y-87902438D01*
X153777976Y-87902438D02*
X153873214Y-87854819D01*
X153873214Y-87854819D02*
X154111309Y-87854819D01*
X154111309Y-87854819D02*
X154206547Y-87902438D01*
X154206547Y-87902438D02*
X154254166Y-87950057D01*
X154254166Y-87950057D02*
X154301785Y-88045295D01*
X154301785Y-88045295D02*
X154301785Y-88140533D01*
X154301785Y-88140533D02*
X154254166Y-88283390D01*
X154254166Y-88283390D02*
X153682738Y-88854819D01*
X153682738Y-88854819D02*
X154301785Y-88854819D01*
X118729166Y-97969819D02*
X118729166Y-98684104D01*
X118729166Y-98684104D02*
X118681547Y-98826961D01*
X118681547Y-98826961D02*
X118586309Y-98922200D01*
X118586309Y-98922200D02*
X118443452Y-98969819D01*
X118443452Y-98969819D02*
X118348214Y-98969819D01*
X119681547Y-97969819D02*
X119205357Y-97969819D01*
X119205357Y-97969819D02*
X119157738Y-98446009D01*
X119157738Y-98446009D02*
X119205357Y-98398390D01*
X119205357Y-98398390D02*
X119300595Y-98350771D01*
X119300595Y-98350771D02*
X119538690Y-98350771D01*
X119538690Y-98350771D02*
X119633928Y-98398390D01*
X119633928Y-98398390D02*
X119681547Y-98446009D01*
X119681547Y-98446009D02*
X119729166Y-98541247D01*
X119729166Y-98541247D02*
X119729166Y-98779342D01*
X119729166Y-98779342D02*
X119681547Y-98874580D01*
X119681547Y-98874580D02*
X119633928Y-98922200D01*
X119633928Y-98922200D02*
X119538690Y-98969819D01*
X119538690Y-98969819D02*
X119300595Y-98969819D01*
X119300595Y-98969819D02*
X119205357Y-98922200D01*
X119205357Y-98922200D02*
X119157738Y-98874580D01*
X150992261Y-101759580D02*
X150944642Y-101807200D01*
X150944642Y-101807200D02*
X150801785Y-101854819D01*
X150801785Y-101854819D02*
X150706547Y-101854819D01*
X150706547Y-101854819D02*
X150563690Y-101807200D01*
X150563690Y-101807200D02*
X150468452Y-101711961D01*
X150468452Y-101711961D02*
X150420833Y-101616723D01*
X150420833Y-101616723D02*
X150373214Y-101426247D01*
X150373214Y-101426247D02*
X150373214Y-101283390D01*
X150373214Y-101283390D02*
X150420833Y-101092914D01*
X150420833Y-101092914D02*
X150468452Y-100997676D01*
X150468452Y-100997676D02*
X150563690Y-100902438D01*
X150563690Y-100902438D02*
X150706547Y-100854819D01*
X150706547Y-100854819D02*
X150801785Y-100854819D01*
X150801785Y-100854819D02*
X150944642Y-100902438D01*
X150944642Y-100902438D02*
X150992261Y-100950057D01*
X151944642Y-101854819D02*
X151373214Y-101854819D01*
X151658928Y-101854819D02*
X151658928Y-100854819D01*
X151658928Y-100854819D02*
X151563690Y-100997676D01*
X151563690Y-100997676D02*
X151468452Y-101092914D01*
X151468452Y-101092914D02*
X151373214Y-101140533D01*
X152801785Y-101854819D02*
X152801785Y-101331009D01*
X152801785Y-101331009D02*
X152754166Y-101235771D01*
X152754166Y-101235771D02*
X152658928Y-101188152D01*
X152658928Y-101188152D02*
X152468452Y-101188152D01*
X152468452Y-101188152D02*
X152373214Y-101235771D01*
X152801785Y-101807200D02*
X152706547Y-101854819D01*
X152706547Y-101854819D02*
X152468452Y-101854819D01*
X152468452Y-101854819D02*
X152373214Y-101807200D01*
X152373214Y-101807200D02*
X152325595Y-101711961D01*
X152325595Y-101711961D02*
X152325595Y-101616723D01*
X152325595Y-101616723D02*
X152373214Y-101521485D01*
X152373214Y-101521485D02*
X152468452Y-101473866D01*
X152468452Y-101473866D02*
X152706547Y-101473866D01*
X152706547Y-101473866D02*
X152801785Y-101426247D01*
X153706547Y-100854819D02*
X153516071Y-100854819D01*
X153516071Y-100854819D02*
X153420833Y-100902438D01*
X153420833Y-100902438D02*
X153373214Y-100950057D01*
X153373214Y-100950057D02*
X153277976Y-101092914D01*
X153277976Y-101092914D02*
X153230357Y-101283390D01*
X153230357Y-101283390D02*
X153230357Y-101664342D01*
X153230357Y-101664342D02*
X153277976Y-101759580D01*
X153277976Y-101759580D02*
X153325595Y-101807200D01*
X153325595Y-101807200D02*
X153420833Y-101854819D01*
X153420833Y-101854819D02*
X153611309Y-101854819D01*
X153611309Y-101854819D02*
X153706547Y-101807200D01*
X153706547Y-101807200D02*
X153754166Y-101759580D01*
X153754166Y-101759580D02*
X153801785Y-101664342D01*
X153801785Y-101664342D02*
X153801785Y-101426247D01*
X153801785Y-101426247D02*
X153754166Y-101331009D01*
X153754166Y-101331009D02*
X153706547Y-101283390D01*
X153706547Y-101283390D02*
X153611309Y-101235771D01*
X153611309Y-101235771D02*
X153420833Y-101235771D01*
X153420833Y-101235771D02*
X153325595Y-101283390D01*
X153325595Y-101283390D02*
X153277976Y-101331009D01*
X153277976Y-101331009D02*
X153230357Y-101426247D01*
X143322319Y-89838094D02*
X142322319Y-89838094D01*
X142322319Y-89838094D02*
X142322319Y-89599999D01*
X142322319Y-89599999D02*
X142369938Y-89457142D01*
X142369938Y-89457142D02*
X142465176Y-89361904D01*
X142465176Y-89361904D02*
X142560414Y-89314285D01*
X142560414Y-89314285D02*
X142750890Y-89266666D01*
X142750890Y-89266666D02*
X142893747Y-89266666D01*
X142893747Y-89266666D02*
X143084223Y-89314285D01*
X143084223Y-89314285D02*
X143179461Y-89361904D01*
X143179461Y-89361904D02*
X143274700Y-89457142D01*
X143274700Y-89457142D02*
X143322319Y-89599999D01*
X143322319Y-89599999D02*
X143322319Y-89838094D01*
X143322319Y-88314285D02*
X143322319Y-88885713D01*
X143322319Y-88599999D02*
X142322319Y-88599999D01*
X142322319Y-88599999D02*
X142465176Y-88695237D01*
X142465176Y-88695237D02*
X142560414Y-88790475D01*
X142560414Y-88790475D02*
X142608033Y-88885713D01*
X144442319Y-96981904D02*
X143442319Y-96981904D01*
X144442319Y-96410476D02*
X143870890Y-96839047D01*
X143442319Y-96410476D02*
X144013747Y-96981904D01*
X156377261Y-81664580D02*
X156329642Y-81712200D01*
X156329642Y-81712200D02*
X156186785Y-81759819D01*
X156186785Y-81759819D02*
X156091547Y-81759819D01*
X156091547Y-81759819D02*
X155948690Y-81712200D01*
X155948690Y-81712200D02*
X155853452Y-81616961D01*
X155853452Y-81616961D02*
X155805833Y-81521723D01*
X155805833Y-81521723D02*
X155758214Y-81331247D01*
X155758214Y-81331247D02*
X155758214Y-81188390D01*
X155758214Y-81188390D02*
X155805833Y-80997914D01*
X155805833Y-80997914D02*
X155853452Y-80902676D01*
X155853452Y-80902676D02*
X155948690Y-80807438D01*
X155948690Y-80807438D02*
X156091547Y-80759819D01*
X156091547Y-80759819D02*
X156186785Y-80759819D01*
X156186785Y-80759819D02*
X156329642Y-80807438D01*
X156329642Y-80807438D02*
X156377261Y-80855057D01*
X157329642Y-81759819D02*
X156758214Y-81759819D01*
X157043928Y-81759819D02*
X157043928Y-80759819D01*
X157043928Y-80759819D02*
X156948690Y-80902676D01*
X156948690Y-80902676D02*
X156853452Y-80997914D01*
X156853452Y-80997914D02*
X156758214Y-81045533D01*
X157758214Y-81759819D02*
X157758214Y-80759819D01*
X157758214Y-81140771D02*
X157853452Y-81093152D01*
X157853452Y-81093152D02*
X158043928Y-81093152D01*
X158043928Y-81093152D02*
X158139166Y-81140771D01*
X158139166Y-81140771D02*
X158186785Y-81188390D01*
X158186785Y-81188390D02*
X158234404Y-81283628D01*
X158234404Y-81283628D02*
X158234404Y-81569342D01*
X158234404Y-81569342D02*
X158186785Y-81664580D01*
X158186785Y-81664580D02*
X158139166Y-81712200D01*
X158139166Y-81712200D02*
X158043928Y-81759819D01*
X158043928Y-81759819D02*
X157853452Y-81759819D01*
X157853452Y-81759819D02*
X157758214Y-81712200D01*
X158615357Y-80855057D02*
X158662976Y-80807438D01*
X158662976Y-80807438D02*
X158758214Y-80759819D01*
X158758214Y-80759819D02*
X158996309Y-80759819D01*
X158996309Y-80759819D02*
X159091547Y-80807438D01*
X159091547Y-80807438D02*
X159139166Y-80855057D01*
X159139166Y-80855057D02*
X159186785Y-80950295D01*
X159186785Y-80950295D02*
X159186785Y-81045533D01*
X159186785Y-81045533D02*
X159139166Y-81188390D01*
X159139166Y-81188390D02*
X158567738Y-81759819D01*
X158567738Y-81759819D02*
X159186785Y-81759819D01*
X123730357Y-75459580D02*
X123682738Y-75507200D01*
X123682738Y-75507200D02*
X123539881Y-75554819D01*
X123539881Y-75554819D02*
X123444643Y-75554819D01*
X123444643Y-75554819D02*
X123301786Y-75507200D01*
X123301786Y-75507200D02*
X123206548Y-75411961D01*
X123206548Y-75411961D02*
X123158929Y-75316723D01*
X123158929Y-75316723D02*
X123111310Y-75126247D01*
X123111310Y-75126247D02*
X123111310Y-74983390D01*
X123111310Y-74983390D02*
X123158929Y-74792914D01*
X123158929Y-74792914D02*
X123206548Y-74697676D01*
X123206548Y-74697676D02*
X123301786Y-74602438D01*
X123301786Y-74602438D02*
X123444643Y-74554819D01*
X123444643Y-74554819D02*
X123539881Y-74554819D01*
X123539881Y-74554819D02*
X123682738Y-74602438D01*
X123682738Y-74602438D02*
X123730357Y-74650057D01*
X124158929Y-75554819D02*
X124158929Y-74888152D01*
X124158929Y-74554819D02*
X124111310Y-74602438D01*
X124111310Y-74602438D02*
X124158929Y-74650057D01*
X124158929Y-74650057D02*
X124206548Y-74602438D01*
X124206548Y-74602438D02*
X124158929Y-74554819D01*
X124158929Y-74554819D02*
X124158929Y-74650057D01*
X124635119Y-74888152D02*
X124635119Y-75554819D01*
X124635119Y-74983390D02*
X124682738Y-74935771D01*
X124682738Y-74935771D02*
X124777976Y-74888152D01*
X124777976Y-74888152D02*
X124920833Y-74888152D01*
X124920833Y-74888152D02*
X125016071Y-74935771D01*
X125016071Y-74935771D02*
X125063690Y-75031009D01*
X125063690Y-75031009D02*
X125063690Y-75554819D01*
X126063690Y-75554819D02*
X125492262Y-75554819D01*
X125777976Y-75554819D02*
X125777976Y-74554819D01*
X125777976Y-74554819D02*
X125682738Y-74697676D01*
X125682738Y-74697676D02*
X125587500Y-74792914D01*
X125587500Y-74792914D02*
X125492262Y-74840533D01*
X114920833Y-85554819D02*
X114587500Y-85078628D01*
X114349405Y-85554819D02*
X114349405Y-84554819D01*
X114349405Y-84554819D02*
X114730357Y-84554819D01*
X114730357Y-84554819D02*
X114825595Y-84602438D01*
X114825595Y-84602438D02*
X114873214Y-84650057D01*
X114873214Y-84650057D02*
X114920833Y-84745295D01*
X114920833Y-84745295D02*
X114920833Y-84888152D01*
X114920833Y-84888152D02*
X114873214Y-84983390D01*
X114873214Y-84983390D02*
X114825595Y-85031009D01*
X114825595Y-85031009D02*
X114730357Y-85078628D01*
X114730357Y-85078628D02*
X114349405Y-85078628D01*
X115777976Y-84554819D02*
X115587500Y-84554819D01*
X115587500Y-84554819D02*
X115492262Y-84602438D01*
X115492262Y-84602438D02*
X115444643Y-84650057D01*
X115444643Y-84650057D02*
X115349405Y-84792914D01*
X115349405Y-84792914D02*
X115301786Y-84983390D01*
X115301786Y-84983390D02*
X115301786Y-85364342D01*
X115301786Y-85364342D02*
X115349405Y-85459580D01*
X115349405Y-85459580D02*
X115397024Y-85507200D01*
X115397024Y-85507200D02*
X115492262Y-85554819D01*
X115492262Y-85554819D02*
X115682738Y-85554819D01*
X115682738Y-85554819D02*
X115777976Y-85507200D01*
X115777976Y-85507200D02*
X115825595Y-85459580D01*
X115825595Y-85459580D02*
X115873214Y-85364342D01*
X115873214Y-85364342D02*
X115873214Y-85126247D01*
X115873214Y-85126247D02*
X115825595Y-85031009D01*
X115825595Y-85031009D02*
X115777976Y-84983390D01*
X115777976Y-84983390D02*
X115682738Y-84935771D01*
X115682738Y-84935771D02*
X115492262Y-84935771D01*
X115492262Y-84935771D02*
X115397024Y-84983390D01*
X115397024Y-84983390D02*
X115349405Y-85031009D01*
X115349405Y-85031009D02*
X115301786Y-85126247D01*
X128947080Y-106766666D02*
X128994700Y-106814285D01*
X128994700Y-106814285D02*
X129042319Y-106957142D01*
X129042319Y-106957142D02*
X129042319Y-107052380D01*
X129042319Y-107052380D02*
X128994700Y-107195237D01*
X128994700Y-107195237D02*
X128899461Y-107290475D01*
X128899461Y-107290475D02*
X128804223Y-107338094D01*
X128804223Y-107338094D02*
X128613747Y-107385713D01*
X128613747Y-107385713D02*
X128470890Y-107385713D01*
X128470890Y-107385713D02*
X128280414Y-107338094D01*
X128280414Y-107338094D02*
X128185176Y-107290475D01*
X128185176Y-107290475D02*
X128089938Y-107195237D01*
X128089938Y-107195237D02*
X128042319Y-107052380D01*
X128042319Y-107052380D02*
X128042319Y-106957142D01*
X128042319Y-106957142D02*
X128089938Y-106814285D01*
X128089938Y-106814285D02*
X128137557Y-106766666D01*
X129042319Y-105814285D02*
X129042319Y-106385713D01*
X129042319Y-106099999D02*
X128042319Y-106099999D01*
X128042319Y-106099999D02*
X128185176Y-106195237D01*
X128185176Y-106195237D02*
X128280414Y-106290475D01*
X128280414Y-106290475D02*
X128328033Y-106385713D01*
X164754166Y-92554819D02*
X164754166Y-93269104D01*
X164754166Y-93269104D02*
X164706547Y-93411961D01*
X164706547Y-93411961D02*
X164611309Y-93507200D01*
X164611309Y-93507200D02*
X164468452Y-93554819D01*
X164468452Y-93554819D02*
X164373214Y-93554819D01*
X165182738Y-92650057D02*
X165230357Y-92602438D01*
X165230357Y-92602438D02*
X165325595Y-92554819D01*
X165325595Y-92554819D02*
X165563690Y-92554819D01*
X165563690Y-92554819D02*
X165658928Y-92602438D01*
X165658928Y-92602438D02*
X165706547Y-92650057D01*
X165706547Y-92650057D02*
X165754166Y-92745295D01*
X165754166Y-92745295D02*
X165754166Y-92840533D01*
X165754166Y-92840533D02*
X165706547Y-92983390D01*
X165706547Y-92983390D02*
X165135119Y-93554819D01*
X165135119Y-93554819D02*
X165754166Y-93554819D01*
X113297080Y-75791666D02*
X113344700Y-75839285D01*
X113344700Y-75839285D02*
X113392319Y-75982142D01*
X113392319Y-75982142D02*
X113392319Y-76077380D01*
X113392319Y-76077380D02*
X113344700Y-76220237D01*
X113344700Y-76220237D02*
X113249461Y-76315475D01*
X113249461Y-76315475D02*
X113154223Y-76363094D01*
X113154223Y-76363094D02*
X112963747Y-76410713D01*
X112963747Y-76410713D02*
X112820890Y-76410713D01*
X112820890Y-76410713D02*
X112630414Y-76363094D01*
X112630414Y-76363094D02*
X112535176Y-76315475D01*
X112535176Y-76315475D02*
X112439938Y-76220237D01*
X112439938Y-76220237D02*
X112392319Y-76077380D01*
X112392319Y-76077380D02*
X112392319Y-75982142D01*
X112392319Y-75982142D02*
X112439938Y-75839285D01*
X112439938Y-75839285D02*
X112487557Y-75791666D01*
X112392319Y-75458332D02*
X112392319Y-74791666D01*
X112392319Y-74791666D02*
X113392319Y-75220237D01*
X151492261Y-91759580D02*
X151444642Y-91807200D01*
X151444642Y-91807200D02*
X151301785Y-91854819D01*
X151301785Y-91854819D02*
X151206547Y-91854819D01*
X151206547Y-91854819D02*
X151063690Y-91807200D01*
X151063690Y-91807200D02*
X150968452Y-91711961D01*
X150968452Y-91711961D02*
X150920833Y-91616723D01*
X150920833Y-91616723D02*
X150873214Y-91426247D01*
X150873214Y-91426247D02*
X150873214Y-91283390D01*
X150873214Y-91283390D02*
X150920833Y-91092914D01*
X150920833Y-91092914D02*
X150968452Y-90997676D01*
X150968452Y-90997676D02*
X151063690Y-90902438D01*
X151063690Y-90902438D02*
X151206547Y-90854819D01*
X151206547Y-90854819D02*
X151301785Y-90854819D01*
X151301785Y-90854819D02*
X151444642Y-90902438D01*
X151444642Y-90902438D02*
X151492261Y-90950057D01*
X152444642Y-91854819D02*
X151873214Y-91854819D01*
X152158928Y-91854819D02*
X152158928Y-90854819D01*
X152158928Y-90854819D02*
X152063690Y-90997676D01*
X152063690Y-90997676D02*
X151968452Y-91092914D01*
X151968452Y-91092914D02*
X151873214Y-91140533D01*
X153301785Y-91854819D02*
X153301785Y-91331009D01*
X153301785Y-91331009D02*
X153254166Y-91235771D01*
X153254166Y-91235771D02*
X153158928Y-91188152D01*
X153158928Y-91188152D02*
X152968452Y-91188152D01*
X152968452Y-91188152D02*
X152873214Y-91235771D01*
X153301785Y-91807200D02*
X153206547Y-91854819D01*
X153206547Y-91854819D02*
X152968452Y-91854819D01*
X152968452Y-91854819D02*
X152873214Y-91807200D01*
X152873214Y-91807200D02*
X152825595Y-91711961D01*
X152825595Y-91711961D02*
X152825595Y-91616723D01*
X152825595Y-91616723D02*
X152873214Y-91521485D01*
X152873214Y-91521485D02*
X152968452Y-91473866D01*
X152968452Y-91473866D02*
X153206547Y-91473866D01*
X153206547Y-91473866D02*
X153301785Y-91426247D01*
X153682738Y-90854819D02*
X154301785Y-90854819D01*
X154301785Y-90854819D02*
X153968452Y-91235771D01*
X153968452Y-91235771D02*
X154111309Y-91235771D01*
X154111309Y-91235771D02*
X154206547Y-91283390D01*
X154206547Y-91283390D02*
X154254166Y-91331009D01*
X154254166Y-91331009D02*
X154301785Y-91426247D01*
X154301785Y-91426247D02*
X154301785Y-91664342D01*
X154301785Y-91664342D02*
X154254166Y-91759580D01*
X154254166Y-91759580D02*
X154206547Y-91807200D01*
X154206547Y-91807200D02*
X154111309Y-91854819D01*
X154111309Y-91854819D02*
X153825595Y-91854819D01*
X153825595Y-91854819D02*
X153730357Y-91807200D01*
X153730357Y-91807200D02*
X153682738Y-91759580D01*
X114920833Y-83079819D02*
X114587500Y-82603628D01*
X114349405Y-83079819D02*
X114349405Y-82079819D01*
X114349405Y-82079819D02*
X114730357Y-82079819D01*
X114730357Y-82079819D02*
X114825595Y-82127438D01*
X114825595Y-82127438D02*
X114873214Y-82175057D01*
X114873214Y-82175057D02*
X114920833Y-82270295D01*
X114920833Y-82270295D02*
X114920833Y-82413152D01*
X114920833Y-82413152D02*
X114873214Y-82508390D01*
X114873214Y-82508390D02*
X114825595Y-82556009D01*
X114825595Y-82556009D02*
X114730357Y-82603628D01*
X114730357Y-82603628D02*
X114349405Y-82603628D01*
X115825595Y-82079819D02*
X115349405Y-82079819D01*
X115349405Y-82079819D02*
X115301786Y-82556009D01*
X115301786Y-82556009D02*
X115349405Y-82508390D01*
X115349405Y-82508390D02*
X115444643Y-82460771D01*
X115444643Y-82460771D02*
X115682738Y-82460771D01*
X115682738Y-82460771D02*
X115777976Y-82508390D01*
X115777976Y-82508390D02*
X115825595Y-82556009D01*
X115825595Y-82556009D02*
X115873214Y-82651247D01*
X115873214Y-82651247D02*
X115873214Y-82889342D01*
X115873214Y-82889342D02*
X115825595Y-82984580D01*
X115825595Y-82984580D02*
X115777976Y-83032200D01*
X115777976Y-83032200D02*
X115682738Y-83079819D01*
X115682738Y-83079819D02*
X115444643Y-83079819D01*
X115444643Y-83079819D02*
X115349405Y-83032200D01*
X115349405Y-83032200D02*
X115301786Y-82984580D01*
X114139166Y-97969819D02*
X114139166Y-98684104D01*
X114139166Y-98684104D02*
X114091547Y-98826961D01*
X114091547Y-98826961D02*
X113996309Y-98922200D01*
X113996309Y-98922200D02*
X113853452Y-98969819D01*
X113853452Y-98969819D02*
X113758214Y-98969819D01*
X115043928Y-98303152D02*
X115043928Y-98969819D01*
X114805833Y-97922200D02*
X114567738Y-98636485D01*
X114567738Y-98636485D02*
X115186785Y-98636485D01*
X150992261Y-98759580D02*
X150944642Y-98807200D01*
X150944642Y-98807200D02*
X150801785Y-98854819D01*
X150801785Y-98854819D02*
X150706547Y-98854819D01*
X150706547Y-98854819D02*
X150563690Y-98807200D01*
X150563690Y-98807200D02*
X150468452Y-98711961D01*
X150468452Y-98711961D02*
X150420833Y-98616723D01*
X150420833Y-98616723D02*
X150373214Y-98426247D01*
X150373214Y-98426247D02*
X150373214Y-98283390D01*
X150373214Y-98283390D02*
X150420833Y-98092914D01*
X150420833Y-98092914D02*
X150468452Y-97997676D01*
X150468452Y-97997676D02*
X150563690Y-97902438D01*
X150563690Y-97902438D02*
X150706547Y-97854819D01*
X150706547Y-97854819D02*
X150801785Y-97854819D01*
X150801785Y-97854819D02*
X150944642Y-97902438D01*
X150944642Y-97902438D02*
X150992261Y-97950057D01*
X151944642Y-98854819D02*
X151373214Y-98854819D01*
X151658928Y-98854819D02*
X151658928Y-97854819D01*
X151658928Y-97854819D02*
X151563690Y-97997676D01*
X151563690Y-97997676D02*
X151468452Y-98092914D01*
X151468452Y-98092914D02*
X151373214Y-98140533D01*
X152801785Y-98854819D02*
X152801785Y-98331009D01*
X152801785Y-98331009D02*
X152754166Y-98235771D01*
X152754166Y-98235771D02*
X152658928Y-98188152D01*
X152658928Y-98188152D02*
X152468452Y-98188152D01*
X152468452Y-98188152D02*
X152373214Y-98235771D01*
X152801785Y-98807200D02*
X152706547Y-98854819D01*
X152706547Y-98854819D02*
X152468452Y-98854819D01*
X152468452Y-98854819D02*
X152373214Y-98807200D01*
X152373214Y-98807200D02*
X152325595Y-98711961D01*
X152325595Y-98711961D02*
X152325595Y-98616723D01*
X152325595Y-98616723D02*
X152373214Y-98521485D01*
X152373214Y-98521485D02*
X152468452Y-98473866D01*
X152468452Y-98473866D02*
X152706547Y-98473866D01*
X152706547Y-98473866D02*
X152801785Y-98426247D01*
X153754166Y-97854819D02*
X153277976Y-97854819D01*
X153277976Y-97854819D02*
X153230357Y-98331009D01*
X153230357Y-98331009D02*
X153277976Y-98283390D01*
X153277976Y-98283390D02*
X153373214Y-98235771D01*
X153373214Y-98235771D02*
X153611309Y-98235771D01*
X153611309Y-98235771D02*
X153706547Y-98283390D01*
X153706547Y-98283390D02*
X153754166Y-98331009D01*
X153754166Y-98331009D02*
X153801785Y-98426247D01*
X153801785Y-98426247D02*
X153801785Y-98664342D01*
X153801785Y-98664342D02*
X153754166Y-98759580D01*
X153754166Y-98759580D02*
X153706547Y-98807200D01*
X153706547Y-98807200D02*
X153611309Y-98854819D01*
X153611309Y-98854819D02*
X153373214Y-98854819D01*
X153373214Y-98854819D02*
X153277976Y-98807200D01*
X153277976Y-98807200D02*
X153230357Y-98759580D01*
X127400833Y-87224819D02*
X126924643Y-87224819D01*
X126924643Y-87224819D02*
X126924643Y-86224819D01*
X128257976Y-87224819D02*
X127686548Y-87224819D01*
X127972262Y-87224819D02*
X127972262Y-86224819D01*
X127972262Y-86224819D02*
X127877024Y-86367676D01*
X127877024Y-86367676D02*
X127781786Y-86462914D01*
X127781786Y-86462914D02*
X127686548Y-86510533D01*
X127447080Y-111206666D02*
X127494700Y-111254285D01*
X127494700Y-111254285D02*
X127542319Y-111397142D01*
X127542319Y-111397142D02*
X127542319Y-111492380D01*
X127542319Y-111492380D02*
X127494700Y-111635237D01*
X127494700Y-111635237D02*
X127399461Y-111730475D01*
X127399461Y-111730475D02*
X127304223Y-111778094D01*
X127304223Y-111778094D02*
X127113747Y-111825713D01*
X127113747Y-111825713D02*
X126970890Y-111825713D01*
X126970890Y-111825713D02*
X126780414Y-111778094D01*
X126780414Y-111778094D02*
X126685176Y-111730475D01*
X126685176Y-111730475D02*
X126589938Y-111635237D01*
X126589938Y-111635237D02*
X126542319Y-111492380D01*
X126542319Y-111492380D02*
X126542319Y-111397142D01*
X126542319Y-111397142D02*
X126589938Y-111254285D01*
X126589938Y-111254285D02*
X126637557Y-111206666D01*
X126542319Y-110873332D02*
X126542319Y-110254285D01*
X126542319Y-110254285D02*
X126923271Y-110587618D01*
X126923271Y-110587618D02*
X126923271Y-110444761D01*
X126923271Y-110444761D02*
X126970890Y-110349523D01*
X126970890Y-110349523D02*
X127018509Y-110301904D01*
X127018509Y-110301904D02*
X127113747Y-110254285D01*
X127113747Y-110254285D02*
X127351842Y-110254285D01*
X127351842Y-110254285D02*
X127447080Y-110301904D01*
X127447080Y-110301904D02*
X127494700Y-110349523D01*
X127494700Y-110349523D02*
X127542319Y-110444761D01*
X127542319Y-110444761D02*
X127542319Y-110730475D01*
X127542319Y-110730475D02*
X127494700Y-110825713D01*
X127494700Y-110825713D02*
X127447080Y-110873332D01*
X121947080Y-110216666D02*
X121994700Y-110264285D01*
X121994700Y-110264285D02*
X122042319Y-110407142D01*
X122042319Y-110407142D02*
X122042319Y-110502380D01*
X122042319Y-110502380D02*
X121994700Y-110645237D01*
X121994700Y-110645237D02*
X121899461Y-110740475D01*
X121899461Y-110740475D02*
X121804223Y-110788094D01*
X121804223Y-110788094D02*
X121613747Y-110835713D01*
X121613747Y-110835713D02*
X121470890Y-110835713D01*
X121470890Y-110835713D02*
X121280414Y-110788094D01*
X121280414Y-110788094D02*
X121185176Y-110740475D01*
X121185176Y-110740475D02*
X121089938Y-110645237D01*
X121089938Y-110645237D02*
X121042319Y-110502380D01*
X121042319Y-110502380D02*
X121042319Y-110407142D01*
X121042319Y-110407142D02*
X121089938Y-110264285D01*
X121089938Y-110264285D02*
X121137557Y-110216666D01*
X121137557Y-109835713D02*
X121089938Y-109788094D01*
X121089938Y-109788094D02*
X121042319Y-109692856D01*
X121042319Y-109692856D02*
X121042319Y-109454761D01*
X121042319Y-109454761D02*
X121089938Y-109359523D01*
X121089938Y-109359523D02*
X121137557Y-109311904D01*
X121137557Y-109311904D02*
X121232795Y-109264285D01*
X121232795Y-109264285D02*
X121328033Y-109264285D01*
X121328033Y-109264285D02*
X121470890Y-109311904D01*
X121470890Y-109311904D02*
X122042319Y-109883332D01*
X122042319Y-109883332D02*
X122042319Y-109264285D01*
X109549166Y-97969819D02*
X109549166Y-98684104D01*
X109549166Y-98684104D02*
X109501547Y-98826961D01*
X109501547Y-98826961D02*
X109406309Y-98922200D01*
X109406309Y-98922200D02*
X109263452Y-98969819D01*
X109263452Y-98969819D02*
X109168214Y-98969819D01*
X109930119Y-97969819D02*
X110549166Y-97969819D01*
X110549166Y-97969819D02*
X110215833Y-98350771D01*
X110215833Y-98350771D02*
X110358690Y-98350771D01*
X110358690Y-98350771D02*
X110453928Y-98398390D01*
X110453928Y-98398390D02*
X110501547Y-98446009D01*
X110501547Y-98446009D02*
X110549166Y-98541247D01*
X110549166Y-98541247D02*
X110549166Y-98779342D01*
X110549166Y-98779342D02*
X110501547Y-98874580D01*
X110501547Y-98874580D02*
X110453928Y-98922200D01*
X110453928Y-98922200D02*
X110358690Y-98969819D01*
X110358690Y-98969819D02*
X110072976Y-98969819D01*
X110072976Y-98969819D02*
X109977738Y-98922200D01*
X109977738Y-98922200D02*
X109930119Y-98874580D01*
X135099405Y-104204819D02*
X135099405Y-103204819D01*
X135099405Y-103204819D02*
X135337500Y-103204819D01*
X135337500Y-103204819D02*
X135480357Y-103252438D01*
X135480357Y-103252438D02*
X135575595Y-103347676D01*
X135575595Y-103347676D02*
X135623214Y-103442914D01*
X135623214Y-103442914D02*
X135670833Y-103633390D01*
X135670833Y-103633390D02*
X135670833Y-103776247D01*
X135670833Y-103776247D02*
X135623214Y-103966723D01*
X135623214Y-103966723D02*
X135575595Y-104061961D01*
X135575595Y-104061961D02*
X135480357Y-104157200D01*
X135480357Y-104157200D02*
X135337500Y-104204819D01*
X135337500Y-104204819D02*
X135099405Y-104204819D01*
X136051786Y-103300057D02*
X136099405Y-103252438D01*
X136099405Y-103252438D02*
X136194643Y-103204819D01*
X136194643Y-103204819D02*
X136432738Y-103204819D01*
X136432738Y-103204819D02*
X136527976Y-103252438D01*
X136527976Y-103252438D02*
X136575595Y-103300057D01*
X136575595Y-103300057D02*
X136623214Y-103395295D01*
X136623214Y-103395295D02*
X136623214Y-103490533D01*
X136623214Y-103490533D02*
X136575595Y-103633390D01*
X136575595Y-103633390D02*
X136004167Y-104204819D01*
X136004167Y-104204819D02*
X136623214Y-104204819D01*
X140420833Y-104054819D02*
X140087500Y-103578628D01*
X139849405Y-104054819D02*
X139849405Y-103054819D01*
X139849405Y-103054819D02*
X140230357Y-103054819D01*
X140230357Y-103054819D02*
X140325595Y-103102438D01*
X140325595Y-103102438D02*
X140373214Y-103150057D01*
X140373214Y-103150057D02*
X140420833Y-103245295D01*
X140420833Y-103245295D02*
X140420833Y-103388152D01*
X140420833Y-103388152D02*
X140373214Y-103483390D01*
X140373214Y-103483390D02*
X140325595Y-103531009D01*
X140325595Y-103531009D02*
X140230357Y-103578628D01*
X140230357Y-103578628D02*
X139849405Y-103578628D01*
X140801786Y-103150057D02*
X140849405Y-103102438D01*
X140849405Y-103102438D02*
X140944643Y-103054819D01*
X140944643Y-103054819D02*
X141182738Y-103054819D01*
X141182738Y-103054819D02*
X141277976Y-103102438D01*
X141277976Y-103102438D02*
X141325595Y-103150057D01*
X141325595Y-103150057D02*
X141373214Y-103245295D01*
X141373214Y-103245295D02*
X141373214Y-103340533D01*
X141373214Y-103340533D02*
X141325595Y-103483390D01*
X141325595Y-103483390D02*
X140754167Y-104054819D01*
X140754167Y-104054819D02*
X141373214Y-104054819D01*
X156877261Y-78664580D02*
X156829642Y-78712200D01*
X156829642Y-78712200D02*
X156686785Y-78759819D01*
X156686785Y-78759819D02*
X156591547Y-78759819D01*
X156591547Y-78759819D02*
X156448690Y-78712200D01*
X156448690Y-78712200D02*
X156353452Y-78616961D01*
X156353452Y-78616961D02*
X156305833Y-78521723D01*
X156305833Y-78521723D02*
X156258214Y-78331247D01*
X156258214Y-78331247D02*
X156258214Y-78188390D01*
X156258214Y-78188390D02*
X156305833Y-77997914D01*
X156305833Y-77997914D02*
X156353452Y-77902676D01*
X156353452Y-77902676D02*
X156448690Y-77807438D01*
X156448690Y-77807438D02*
X156591547Y-77759819D01*
X156591547Y-77759819D02*
X156686785Y-77759819D01*
X156686785Y-77759819D02*
X156829642Y-77807438D01*
X156829642Y-77807438D02*
X156877261Y-77855057D01*
X157829642Y-78759819D02*
X157258214Y-78759819D01*
X157543928Y-78759819D02*
X157543928Y-77759819D01*
X157543928Y-77759819D02*
X157448690Y-77902676D01*
X157448690Y-77902676D02*
X157353452Y-77997914D01*
X157353452Y-77997914D02*
X157258214Y-78045533D01*
X158258214Y-78759819D02*
X158258214Y-77759819D01*
X158258214Y-78140771D02*
X158353452Y-78093152D01*
X158353452Y-78093152D02*
X158543928Y-78093152D01*
X158543928Y-78093152D02*
X158639166Y-78140771D01*
X158639166Y-78140771D02*
X158686785Y-78188390D01*
X158686785Y-78188390D02*
X158734404Y-78283628D01*
X158734404Y-78283628D02*
X158734404Y-78569342D01*
X158734404Y-78569342D02*
X158686785Y-78664580D01*
X158686785Y-78664580D02*
X158639166Y-78712200D01*
X158639166Y-78712200D02*
X158543928Y-78759819D01*
X158543928Y-78759819D02*
X158353452Y-78759819D01*
X158353452Y-78759819D02*
X158258214Y-78712200D01*
X159686785Y-78759819D02*
X159115357Y-78759819D01*
X159401071Y-78759819D02*
X159401071Y-77759819D01*
X159401071Y-77759819D02*
X159305833Y-77902676D01*
X159305833Y-77902676D02*
X159210595Y-77997914D01*
X159210595Y-77997914D02*
X159115357Y-78045533D01*
X140920833Y-109054819D02*
X140587500Y-108578628D01*
X140349405Y-109054819D02*
X140349405Y-108054819D01*
X140349405Y-108054819D02*
X140730357Y-108054819D01*
X140730357Y-108054819D02*
X140825595Y-108102438D01*
X140825595Y-108102438D02*
X140873214Y-108150057D01*
X140873214Y-108150057D02*
X140920833Y-108245295D01*
X140920833Y-108245295D02*
X140920833Y-108388152D01*
X140920833Y-108388152D02*
X140873214Y-108483390D01*
X140873214Y-108483390D02*
X140825595Y-108531009D01*
X140825595Y-108531009D02*
X140730357Y-108578628D01*
X140730357Y-108578628D02*
X140349405Y-108578628D01*
X141254167Y-108054819D02*
X141873214Y-108054819D01*
X141873214Y-108054819D02*
X141539881Y-108435771D01*
X141539881Y-108435771D02*
X141682738Y-108435771D01*
X141682738Y-108435771D02*
X141777976Y-108483390D01*
X141777976Y-108483390D02*
X141825595Y-108531009D01*
X141825595Y-108531009D02*
X141873214Y-108626247D01*
X141873214Y-108626247D02*
X141873214Y-108864342D01*
X141873214Y-108864342D02*
X141825595Y-108959580D01*
X141825595Y-108959580D02*
X141777976Y-109007200D01*
X141777976Y-109007200D02*
X141682738Y-109054819D01*
X141682738Y-109054819D02*
X141397024Y-109054819D01*
X141397024Y-109054819D02*
X141301786Y-109007200D01*
X141301786Y-109007200D02*
X141254167Y-108959580D01*
X151492261Y-85259580D02*
X151444642Y-85307200D01*
X151444642Y-85307200D02*
X151301785Y-85354819D01*
X151301785Y-85354819D02*
X151206547Y-85354819D01*
X151206547Y-85354819D02*
X151063690Y-85307200D01*
X151063690Y-85307200D02*
X150968452Y-85211961D01*
X150968452Y-85211961D02*
X150920833Y-85116723D01*
X150920833Y-85116723D02*
X150873214Y-84926247D01*
X150873214Y-84926247D02*
X150873214Y-84783390D01*
X150873214Y-84783390D02*
X150920833Y-84592914D01*
X150920833Y-84592914D02*
X150968452Y-84497676D01*
X150968452Y-84497676D02*
X151063690Y-84402438D01*
X151063690Y-84402438D02*
X151206547Y-84354819D01*
X151206547Y-84354819D02*
X151301785Y-84354819D01*
X151301785Y-84354819D02*
X151444642Y-84402438D01*
X151444642Y-84402438D02*
X151492261Y-84450057D01*
X152444642Y-85354819D02*
X151873214Y-85354819D01*
X152158928Y-85354819D02*
X152158928Y-84354819D01*
X152158928Y-84354819D02*
X152063690Y-84497676D01*
X152063690Y-84497676D02*
X151968452Y-84592914D01*
X151968452Y-84592914D02*
X151873214Y-84640533D01*
X153301785Y-85354819D02*
X153301785Y-84831009D01*
X153301785Y-84831009D02*
X153254166Y-84735771D01*
X153254166Y-84735771D02*
X153158928Y-84688152D01*
X153158928Y-84688152D02*
X152968452Y-84688152D01*
X152968452Y-84688152D02*
X152873214Y-84735771D01*
X153301785Y-85307200D02*
X153206547Y-85354819D01*
X153206547Y-85354819D02*
X152968452Y-85354819D01*
X152968452Y-85354819D02*
X152873214Y-85307200D01*
X152873214Y-85307200D02*
X152825595Y-85211961D01*
X152825595Y-85211961D02*
X152825595Y-85116723D01*
X152825595Y-85116723D02*
X152873214Y-85021485D01*
X152873214Y-85021485D02*
X152968452Y-84973866D01*
X152968452Y-84973866D02*
X153206547Y-84973866D01*
X153206547Y-84973866D02*
X153301785Y-84926247D01*
X154301785Y-85354819D02*
X153730357Y-85354819D01*
X154016071Y-85354819D02*
X154016071Y-84354819D01*
X154016071Y-84354819D02*
X153920833Y-84497676D01*
X153920833Y-84497676D02*
X153825595Y-84592914D01*
X153825595Y-84592914D02*
X153730357Y-84640533D01*
X135825595Y-96104819D02*
X135825595Y-96914342D01*
X135825595Y-96914342D02*
X135873214Y-97009580D01*
X135873214Y-97009580D02*
X135920833Y-97057200D01*
X135920833Y-97057200D02*
X136016071Y-97104819D01*
X136016071Y-97104819D02*
X136206547Y-97104819D01*
X136206547Y-97104819D02*
X136301785Y-97057200D01*
X136301785Y-97057200D02*
X136349404Y-97009580D01*
X136349404Y-97009580D02*
X136397023Y-96914342D01*
X136397023Y-96914342D02*
X136397023Y-96104819D01*
X137397023Y-97104819D02*
X136825595Y-97104819D01*
X137111309Y-97104819D02*
X137111309Y-96104819D01*
X137111309Y-96104819D02*
X137016071Y-96247676D01*
X137016071Y-96247676D02*
X136920833Y-96342914D01*
X136920833Y-96342914D02*
X136825595Y-96390533D01*
X128920833Y-103554819D02*
X128587500Y-103078628D01*
X128349405Y-103554819D02*
X128349405Y-102554819D01*
X128349405Y-102554819D02*
X128730357Y-102554819D01*
X128730357Y-102554819D02*
X128825595Y-102602438D01*
X128825595Y-102602438D02*
X128873214Y-102650057D01*
X128873214Y-102650057D02*
X128920833Y-102745295D01*
X128920833Y-102745295D02*
X128920833Y-102888152D01*
X128920833Y-102888152D02*
X128873214Y-102983390D01*
X128873214Y-102983390D02*
X128825595Y-103031009D01*
X128825595Y-103031009D02*
X128730357Y-103078628D01*
X128730357Y-103078628D02*
X128349405Y-103078628D01*
X129777976Y-102888152D02*
X129777976Y-103554819D01*
X129539881Y-102507200D02*
X129301786Y-103221485D01*
X129301786Y-103221485D02*
X129920833Y-103221485D01*
X137517261Y-87655057D02*
X137422023Y-87607438D01*
X137422023Y-87607438D02*
X137326785Y-87512200D01*
X137326785Y-87512200D02*
X137183928Y-87369342D01*
X137183928Y-87369342D02*
X137088690Y-87321723D01*
X137088690Y-87321723D02*
X136993452Y-87321723D01*
X137041071Y-87559819D02*
X136945833Y-87512200D01*
X136945833Y-87512200D02*
X136850595Y-87416961D01*
X136850595Y-87416961D02*
X136802976Y-87226485D01*
X136802976Y-87226485D02*
X136802976Y-86893152D01*
X136802976Y-86893152D02*
X136850595Y-86702676D01*
X136850595Y-86702676D02*
X136945833Y-86607438D01*
X136945833Y-86607438D02*
X137041071Y-86559819D01*
X137041071Y-86559819D02*
X137231547Y-86559819D01*
X137231547Y-86559819D02*
X137326785Y-86607438D01*
X137326785Y-86607438D02*
X137422023Y-86702676D01*
X137422023Y-86702676D02*
X137469642Y-86893152D01*
X137469642Y-86893152D02*
X137469642Y-87226485D01*
X137469642Y-87226485D02*
X137422023Y-87416961D01*
X137422023Y-87416961D02*
X137326785Y-87512200D01*
X137326785Y-87512200D02*
X137231547Y-87559819D01*
X137231547Y-87559819D02*
X137041071Y-87559819D01*
X138422023Y-87559819D02*
X137850595Y-87559819D01*
X138136309Y-87559819D02*
X138136309Y-86559819D01*
X138136309Y-86559819D02*
X138041071Y-86702676D01*
X138041071Y-86702676D02*
X137945833Y-86797914D01*
X137945833Y-86797914D02*
X137850595Y-86845533D01*
X133042319Y-111266666D02*
X132566128Y-111599999D01*
X133042319Y-111838094D02*
X132042319Y-111838094D01*
X132042319Y-111838094D02*
X132042319Y-111457142D01*
X132042319Y-111457142D02*
X132089938Y-111361904D01*
X132089938Y-111361904D02*
X132137557Y-111314285D01*
X132137557Y-111314285D02*
X132232795Y-111266666D01*
X132232795Y-111266666D02*
X132375652Y-111266666D01*
X132375652Y-111266666D02*
X132470890Y-111314285D01*
X132470890Y-111314285D02*
X132518509Y-111361904D01*
X132518509Y-111361904D02*
X132566128Y-111457142D01*
X132566128Y-111457142D02*
X132566128Y-111838094D01*
X133042319Y-110314285D02*
X133042319Y-110885713D01*
X133042319Y-110599999D02*
X132042319Y-110599999D01*
X132042319Y-110599999D02*
X132185176Y-110695237D01*
X132185176Y-110695237D02*
X132280414Y-110790475D01*
X132280414Y-110790475D02*
X132328033Y-110885713D01*
X141920833Y-97959580D02*
X141873214Y-98007200D01*
X141873214Y-98007200D02*
X141730357Y-98054819D01*
X141730357Y-98054819D02*
X141635119Y-98054819D01*
X141635119Y-98054819D02*
X141492262Y-98007200D01*
X141492262Y-98007200D02*
X141397024Y-97911961D01*
X141397024Y-97911961D02*
X141349405Y-97816723D01*
X141349405Y-97816723D02*
X141301786Y-97626247D01*
X141301786Y-97626247D02*
X141301786Y-97483390D01*
X141301786Y-97483390D02*
X141349405Y-97292914D01*
X141349405Y-97292914D02*
X141397024Y-97197676D01*
X141397024Y-97197676D02*
X141492262Y-97102438D01*
X141492262Y-97102438D02*
X141635119Y-97054819D01*
X141635119Y-97054819D02*
X141730357Y-97054819D01*
X141730357Y-97054819D02*
X141873214Y-97102438D01*
X141873214Y-97102438D02*
X141920833Y-97150057D01*
X142777976Y-97388152D02*
X142777976Y-98054819D01*
X142539881Y-97007200D02*
X142301786Y-97721485D01*
X142301786Y-97721485D02*
X142920833Y-97721485D01*
X117429761Y-89700057D02*
X117334523Y-89652438D01*
X117334523Y-89652438D02*
X117239285Y-89557200D01*
X117239285Y-89557200D02*
X117096428Y-89414342D01*
X117096428Y-89414342D02*
X117001190Y-89366723D01*
X117001190Y-89366723D02*
X116905952Y-89366723D01*
X116953571Y-89604819D02*
X116858333Y-89557200D01*
X116858333Y-89557200D02*
X116763095Y-89461961D01*
X116763095Y-89461961D02*
X116715476Y-89271485D01*
X116715476Y-89271485D02*
X116715476Y-88938152D01*
X116715476Y-88938152D02*
X116763095Y-88747676D01*
X116763095Y-88747676D02*
X116858333Y-88652438D01*
X116858333Y-88652438D02*
X116953571Y-88604819D01*
X116953571Y-88604819D02*
X117144047Y-88604819D01*
X117144047Y-88604819D02*
X117239285Y-88652438D01*
X117239285Y-88652438D02*
X117334523Y-88747676D01*
X117334523Y-88747676D02*
X117382142Y-88938152D01*
X117382142Y-88938152D02*
X117382142Y-89271485D01*
X117382142Y-89271485D02*
X117334523Y-89461961D01*
X117334523Y-89461961D02*
X117239285Y-89557200D01*
X117239285Y-89557200D02*
X117144047Y-89604819D01*
X117144047Y-89604819D02*
X116953571Y-89604819D01*
X117763095Y-88700057D02*
X117810714Y-88652438D01*
X117810714Y-88652438D02*
X117905952Y-88604819D01*
X117905952Y-88604819D02*
X118144047Y-88604819D01*
X118144047Y-88604819D02*
X118239285Y-88652438D01*
X118239285Y-88652438D02*
X118286904Y-88700057D01*
X118286904Y-88700057D02*
X118334523Y-88795295D01*
X118334523Y-88795295D02*
X118334523Y-88890533D01*
X118334523Y-88890533D02*
X118286904Y-89033390D01*
X118286904Y-89033390D02*
X117715476Y-89604819D01*
X117715476Y-89604819D02*
X118334523Y-89604819D01*
X151492261Y-95259580D02*
X151444642Y-95307200D01*
X151444642Y-95307200D02*
X151301785Y-95354819D01*
X151301785Y-95354819D02*
X151206547Y-95354819D01*
X151206547Y-95354819D02*
X151063690Y-95307200D01*
X151063690Y-95307200D02*
X150968452Y-95211961D01*
X150968452Y-95211961D02*
X150920833Y-95116723D01*
X150920833Y-95116723D02*
X150873214Y-94926247D01*
X150873214Y-94926247D02*
X150873214Y-94783390D01*
X150873214Y-94783390D02*
X150920833Y-94592914D01*
X150920833Y-94592914D02*
X150968452Y-94497676D01*
X150968452Y-94497676D02*
X151063690Y-94402438D01*
X151063690Y-94402438D02*
X151206547Y-94354819D01*
X151206547Y-94354819D02*
X151301785Y-94354819D01*
X151301785Y-94354819D02*
X151444642Y-94402438D01*
X151444642Y-94402438D02*
X151492261Y-94450057D01*
X152444642Y-95354819D02*
X151873214Y-95354819D01*
X152158928Y-95354819D02*
X152158928Y-94354819D01*
X152158928Y-94354819D02*
X152063690Y-94497676D01*
X152063690Y-94497676D02*
X151968452Y-94592914D01*
X151968452Y-94592914D02*
X151873214Y-94640533D01*
X153301785Y-95354819D02*
X153301785Y-94831009D01*
X153301785Y-94831009D02*
X153254166Y-94735771D01*
X153254166Y-94735771D02*
X153158928Y-94688152D01*
X153158928Y-94688152D02*
X152968452Y-94688152D01*
X152968452Y-94688152D02*
X152873214Y-94735771D01*
X153301785Y-95307200D02*
X153206547Y-95354819D01*
X153206547Y-95354819D02*
X152968452Y-95354819D01*
X152968452Y-95354819D02*
X152873214Y-95307200D01*
X152873214Y-95307200D02*
X152825595Y-95211961D01*
X152825595Y-95211961D02*
X152825595Y-95116723D01*
X152825595Y-95116723D02*
X152873214Y-95021485D01*
X152873214Y-95021485D02*
X152968452Y-94973866D01*
X152968452Y-94973866D02*
X153206547Y-94973866D01*
X153206547Y-94973866D02*
X153301785Y-94926247D01*
X154206547Y-94688152D02*
X154206547Y-95354819D01*
X153968452Y-94307200D02*
X153730357Y-95021485D01*
X153730357Y-95021485D02*
X154349404Y-95021485D01*
X142920833Y-75459580D02*
X142873214Y-75507200D01*
X142873214Y-75507200D02*
X142730357Y-75554819D01*
X142730357Y-75554819D02*
X142635119Y-75554819D01*
X142635119Y-75554819D02*
X142492262Y-75507200D01*
X142492262Y-75507200D02*
X142397024Y-75411961D01*
X142397024Y-75411961D02*
X142349405Y-75316723D01*
X142349405Y-75316723D02*
X142301786Y-75126247D01*
X142301786Y-75126247D02*
X142301786Y-74983390D01*
X142301786Y-74983390D02*
X142349405Y-74792914D01*
X142349405Y-74792914D02*
X142397024Y-74697676D01*
X142397024Y-74697676D02*
X142492262Y-74602438D01*
X142492262Y-74602438D02*
X142635119Y-74554819D01*
X142635119Y-74554819D02*
X142730357Y-74554819D01*
X142730357Y-74554819D02*
X142873214Y-74602438D01*
X142873214Y-74602438D02*
X142920833Y-74650057D01*
X143825595Y-74554819D02*
X143349405Y-74554819D01*
X143349405Y-74554819D02*
X143301786Y-75031009D01*
X143301786Y-75031009D02*
X143349405Y-74983390D01*
X143349405Y-74983390D02*
X143444643Y-74935771D01*
X143444643Y-74935771D02*
X143682738Y-74935771D01*
X143682738Y-74935771D02*
X143777976Y-74983390D01*
X143777976Y-74983390D02*
X143825595Y-75031009D01*
X143825595Y-75031009D02*
X143873214Y-75126247D01*
X143873214Y-75126247D02*
X143873214Y-75364342D01*
X143873214Y-75364342D02*
X143825595Y-75459580D01*
X143825595Y-75459580D02*
X143777976Y-75507200D01*
X143777976Y-75507200D02*
X143682738Y-75554819D01*
X143682738Y-75554819D02*
X143444643Y-75554819D01*
X143444643Y-75554819D02*
X143349405Y-75507200D01*
X143349405Y-75507200D02*
X143301786Y-75459580D01*
X109682738Y-87634819D02*
X109682738Y-88349104D01*
X109682738Y-88349104D02*
X109635119Y-88491961D01*
X109635119Y-88491961D02*
X109539881Y-88587200D01*
X109539881Y-88587200D02*
X109397024Y-88634819D01*
X109397024Y-88634819D02*
X109301786Y-88634819D01*
X109920834Y-88730057D02*
X110682738Y-88730057D01*
X110777977Y-87634819D02*
X111111310Y-88634819D01*
X111111310Y-88634819D02*
X111444643Y-87634819D01*
X111777977Y-88634819D02*
X111777977Y-87634819D01*
X112254167Y-88634819D02*
X112254167Y-87634819D01*
X112254167Y-87634819D02*
X112825595Y-88634819D01*
X112825595Y-88634819D02*
X112825595Y-87634819D01*
X113825595Y-88634819D02*
X113254167Y-88634819D01*
X113539881Y-88634819D02*
X113539881Y-87634819D01*
X113539881Y-87634819D02*
X113444643Y-87777676D01*
X113444643Y-87777676D02*
X113349405Y-87872914D01*
X113349405Y-87872914D02*
X113254167Y-87920533D01*
%TO.C,C1a7*%
D11*
X156401248Y-104240000D02*
X157823752Y-104240000D01*
X156401248Y-106060000D02*
X157823752Y-106060000D01*
%TO.C,C6*%
X108677500Y-80913748D02*
X108677500Y-82336252D01*
X110497500Y-80913748D02*
X110497500Y-82336252D01*
%TO.C,C1a8*%
X156401248Y-107590000D02*
X157823752Y-107590000D01*
X156401248Y-109410000D02*
X157823752Y-109410000D01*
%TO.C,C1a2*%
X156401248Y-87490000D02*
X157823752Y-87490000D01*
X156401248Y-89310000D02*
X157823752Y-89310000D01*
%TO.C,J5*%
X117682500Y-99515000D02*
X119062500Y-99515000D01*
X117682500Y-100895000D02*
X117682500Y-99515000D01*
X117682500Y-102165000D02*
X117682500Y-112435000D01*
X117682500Y-102165000D02*
X120442500Y-102165000D01*
X117682500Y-112435000D02*
X120442500Y-112435000D01*
X120442500Y-102165000D02*
X120442500Y-112435000D01*
%TO.C,C1a6*%
X156401248Y-100890000D02*
X157823752Y-100890000D01*
X156401248Y-102710000D02*
X157823752Y-102710000D01*
%TO.C,D1*%
X143867500Y-92305000D02*
X149307500Y-92305000D01*
X143867500Y-92425000D02*
X149307500Y-92425000D01*
X143867500Y-92545000D02*
X149307500Y-92545000D01*
X146587500Y-83320000D02*
X146587500Y-84230000D01*
X146587500Y-94880000D02*
X146587500Y-93970000D01*
X143867500Y-84230000D02*
X149307500Y-84230000D01*
X149307500Y-93970000D01*
X143867500Y-93970000D01*
X143867500Y-84230000D01*
%TO.C,C1b2*%
X161326248Y-80375000D02*
X161848752Y-80375000D01*
X161326248Y-81845000D02*
X161848752Y-81845000D01*
%TO.C,Cin1*%
X127547500Y-80070000D02*
X124570500Y-80070000D01*
X127547500Y-80110000D02*
X124578500Y-80110000D01*
X127547500Y-80150000D02*
X124585500Y-80150000D01*
X127547500Y-80190000D02*
X124594500Y-80190000D01*
X127547500Y-80230000D02*
X124602500Y-80230000D01*
X127547500Y-80270000D02*
X124611500Y-80270000D01*
X127547500Y-80310000D02*
X124620500Y-80310000D01*
X127547500Y-80350000D02*
X124630500Y-80350000D01*
X127547500Y-80390000D02*
X124640500Y-80390000D01*
X127547500Y-80430000D02*
X124651500Y-80430000D01*
X127547500Y-80470000D02*
X124662500Y-80470000D01*
X127547500Y-80510000D02*
X124674500Y-80510000D01*
X127547500Y-80550000D02*
X124686500Y-80550000D01*
X127547500Y-80590000D02*
X124698500Y-80590000D01*
X127547500Y-80630000D02*
X124711500Y-80630000D01*
X127547500Y-80670000D02*
X124724500Y-80670000D01*
X127547500Y-80710000D02*
X124738500Y-80710000D01*
X127547500Y-80750000D02*
X124752500Y-80750000D01*
X127547500Y-80790000D02*
X124767500Y-80790000D01*
X127547500Y-80830000D02*
X124782500Y-80830000D01*
X127547500Y-80870000D02*
X124798500Y-80870000D01*
X127547500Y-80910000D02*
X124814500Y-80910000D01*
X127547500Y-80950000D02*
X124830500Y-80950000D01*
X127547500Y-80990000D02*
X124847500Y-80990000D01*
X127547500Y-81030000D02*
X124865500Y-81030000D01*
X127547500Y-81070000D02*
X124883500Y-81070000D01*
X127547500Y-81110000D02*
X124902500Y-81110000D01*
X127547500Y-81150000D02*
X124921500Y-81150000D01*
X127547500Y-81190000D02*
X124941500Y-81190000D01*
X127547500Y-81230000D02*
X124961500Y-81230000D01*
X127547500Y-81270000D02*
X124982500Y-81270000D01*
X127547500Y-81310000D02*
X125003500Y-81310000D01*
X127547500Y-81350000D02*
X125025500Y-81350000D01*
X127547500Y-81390000D02*
X125048500Y-81390000D01*
X127547500Y-81430000D02*
X125071500Y-81430000D01*
X127547500Y-81470000D02*
X125094500Y-81470000D01*
X127547500Y-81510000D02*
X125119500Y-81510000D01*
X127547500Y-81550000D02*
X125144500Y-81550000D01*
X127547500Y-81590000D02*
X125169500Y-81590000D01*
X127547500Y-81630000D02*
X125195500Y-81630000D01*
X127547500Y-81670000D02*
X125222500Y-81670000D01*
X127547500Y-81710000D02*
X125250500Y-81710000D01*
X127547500Y-81750000D02*
X125278500Y-81750000D01*
X127547500Y-81790000D02*
X125307500Y-81790000D01*
X127547500Y-81830000D02*
X125337500Y-81830000D01*
X127547500Y-81870000D02*
X125368500Y-81870000D01*
X127547500Y-81910000D02*
X125399500Y-81910000D01*
X127547500Y-81950000D02*
X125431500Y-81950000D01*
X127547500Y-81990000D02*
X125464500Y-81990000D01*
X127547500Y-82030000D02*
X125498500Y-82030000D01*
X127547500Y-82070000D02*
X125532500Y-82070000D01*
X127547500Y-82110000D02*
X125568500Y-82110000D01*
X129120500Y-83430000D02*
X128054500Y-83430000D01*
X129355500Y-83390000D02*
X127819500Y-83390000D01*
X129534500Y-83350000D02*
X127640500Y-83350000D01*
X129684500Y-83310000D02*
X127490500Y-83310000D01*
X129815500Y-83270000D02*
X127359500Y-83270000D01*
X129933500Y-83230000D02*
X127241500Y-83230000D01*
X130040500Y-83190000D02*
X127134500Y-83190000D01*
X130139500Y-83150000D02*
X127035500Y-83150000D01*
X130231500Y-83110000D02*
X126943500Y-83110000D01*
X130318500Y-83070000D02*
X126856500Y-83070000D01*
X130400500Y-83030000D02*
X126774500Y-83030000D01*
X130477500Y-82990000D02*
X126697500Y-82990000D01*
X130551500Y-82950000D02*
X126623500Y-82950000D01*
X130621500Y-82910000D02*
X126553500Y-82910000D01*
X130688500Y-82870000D02*
X126486500Y-82870000D01*
X130752500Y-82830000D02*
X126422500Y-82830000D01*
X130814500Y-82790000D02*
X126360500Y-82790000D01*
X130874500Y-82750000D02*
X126300500Y-82750000D01*
X130902500Y-74940302D02*
X130902500Y-75740302D01*
X130931500Y-82710000D02*
X126243500Y-82710000D01*
X130987500Y-82670000D02*
X126187500Y-82670000D01*
X131040500Y-82630000D02*
X126134500Y-82630000D01*
X131092500Y-82590000D02*
X126082500Y-82590000D01*
X131142500Y-82550000D02*
X126032500Y-82550000D01*
X131191500Y-82510000D02*
X125983500Y-82510000D01*
X131238500Y-82470000D02*
X125936500Y-82470000D01*
X131283500Y-82430000D02*
X125891500Y-82430000D01*
X131302500Y-75340302D02*
X130502500Y-75340302D01*
X131328500Y-82390000D02*
X125846500Y-82390000D01*
X131371500Y-82350000D02*
X125803500Y-82350000D01*
X131413500Y-82310000D02*
X125761500Y-82310000D01*
X131454500Y-82270000D02*
X125720500Y-82270000D01*
X131493500Y-82230000D02*
X125681500Y-82230000D01*
X131532500Y-82190000D02*
X125642500Y-82190000D01*
X131569500Y-82150000D02*
X125605500Y-82150000D01*
X131606500Y-82110000D02*
X129627500Y-82110000D01*
X131642500Y-82070000D02*
X129627500Y-82070000D01*
X131676500Y-82030000D02*
X129627500Y-82030000D01*
X131710500Y-81990000D02*
X129627500Y-81990000D01*
X131743500Y-81950000D02*
X129627500Y-81950000D01*
X131775500Y-81910000D02*
X129627500Y-81910000D01*
X131806500Y-81870000D02*
X129627500Y-81870000D01*
X131837500Y-81830000D02*
X129627500Y-81830000D01*
X131867500Y-81790000D02*
X129627500Y-81790000D01*
X131896500Y-81750000D02*
X129627500Y-81750000D01*
X131924500Y-81710000D02*
X129627500Y-81710000D01*
X131952500Y-81670000D02*
X129627500Y-81670000D01*
X131979500Y-81630000D02*
X129627500Y-81630000D01*
X132005500Y-81590000D02*
X129627500Y-81590000D01*
X132030500Y-81550000D02*
X129627500Y-81550000D01*
X132055500Y-81510000D02*
X129627500Y-81510000D01*
X132080500Y-81470000D02*
X129627500Y-81470000D01*
X132103500Y-81430000D02*
X129627500Y-81430000D01*
X132126500Y-81390000D02*
X129627500Y-81390000D01*
X132149500Y-81350000D02*
X129627500Y-81350000D01*
X132171500Y-81310000D02*
X129627500Y-81310000D01*
X132192500Y-81270000D02*
X129627500Y-81270000D01*
X132213500Y-81230000D02*
X129627500Y-81230000D01*
X132233500Y-81190000D02*
X129627500Y-81190000D01*
X132253500Y-81150000D02*
X129627500Y-81150000D01*
X132272500Y-81110000D02*
X129627500Y-81110000D01*
X132291500Y-81070000D02*
X129627500Y-81070000D01*
X132309500Y-81030000D02*
X129627500Y-81030000D01*
X132327500Y-80990000D02*
X129627500Y-80990000D01*
X132344500Y-80950000D02*
X129627500Y-80950000D01*
X132360500Y-80910000D02*
X129627500Y-80910000D01*
X132376500Y-80870000D02*
X129627500Y-80870000D01*
X132392500Y-80830000D02*
X129627500Y-80830000D01*
X132407500Y-80790000D02*
X129627500Y-80790000D01*
X132422500Y-80750000D02*
X129627500Y-80750000D01*
X132436500Y-80710000D02*
X129627500Y-80710000D01*
X132450500Y-80670000D02*
X129627500Y-80670000D01*
X132463500Y-80630000D02*
X129627500Y-80630000D01*
X132476500Y-80590000D02*
X129627500Y-80590000D01*
X132488500Y-80550000D02*
X129627500Y-80550000D01*
X132500500Y-80510000D02*
X129627500Y-80510000D01*
X132512500Y-80470000D02*
X129627500Y-80470000D01*
X132523500Y-80430000D02*
X129627500Y-80430000D01*
X132534500Y-80390000D02*
X129627500Y-80390000D01*
X132544500Y-80350000D02*
X129627500Y-80350000D01*
X132554500Y-80310000D02*
X129627500Y-80310000D01*
X132563500Y-80270000D02*
X129627500Y-80270000D01*
X132572500Y-80230000D02*
X129627500Y-80230000D01*
X132580500Y-80190000D02*
X129627500Y-80190000D01*
X132589500Y-80150000D02*
X129627500Y-80150000D01*
X132596500Y-80110000D02*
X129627500Y-80110000D01*
X132604500Y-80070000D02*
X129627500Y-80070000D01*
X132610500Y-80030000D02*
X124564500Y-80030000D01*
X132617500Y-79990000D02*
X124557500Y-79990000D01*
X132623500Y-79950000D02*
X124551500Y-79950000D01*
X132629500Y-79910000D02*
X124545500Y-79910000D01*
X132634500Y-79870000D02*
X124540500Y-79870000D01*
X132639500Y-79830000D02*
X124535500Y-79830000D01*
X132643500Y-79790000D02*
X124531500Y-79790000D01*
X132648500Y-79750000D02*
X124526500Y-79750000D01*
X132651500Y-79710000D02*
X124523500Y-79710000D01*
X132655500Y-79670000D02*
X124519500Y-79670000D01*
X132657500Y-79630000D02*
X124517500Y-79630000D01*
X132660500Y-79590000D02*
X124514500Y-79590000D01*
X132662500Y-79550000D02*
X124512500Y-79550000D01*
X132664500Y-79510000D02*
X124510500Y-79510000D01*
X132665500Y-79470000D02*
X124509500Y-79470000D01*
X132666500Y-79430000D02*
X124508500Y-79430000D01*
X132667500Y-79350000D02*
X124507500Y-79350000D01*
X132667500Y-79390000D02*
X124507500Y-79390000D01*
X132707500Y-79350000D02*
G75*
G02*
X124467500Y-79350000I-4120000J0D01*
G01*
X124467500Y-79350000D02*
G75*
G02*
X132707500Y-79350000I4120000J0D01*
G01*
%TO.C,R6*%
X117947936Y-84365000D02*
X118402064Y-84365000D01*
X117947936Y-85835000D02*
X118402064Y-85835000D01*
%TO.C,C1*%
X129852500Y-106338748D02*
X129852500Y-106861252D01*
X131322500Y-106338748D02*
X131322500Y-106861252D01*
%TO.C,J2*%
X163207500Y-94720000D02*
X164587500Y-94720000D01*
X163207500Y-96100000D02*
X163207500Y-94720000D01*
X163207500Y-97370000D02*
X163207500Y-100020000D01*
X163207500Y-97370000D02*
X165967500Y-97370000D01*
X163207500Y-100020000D02*
X165967500Y-100020000D01*
X165967500Y-97370000D02*
X165967500Y-100020000D01*
%TO.C,C7*%
X112177500Y-78413748D02*
X112177500Y-79836252D01*
X113997500Y-78413748D02*
X113997500Y-79836252D01*
%TO.C,C1a3*%
X156401248Y-90840000D02*
X157823752Y-90840000D01*
X156401248Y-92660000D02*
X157823752Y-92660000D01*
%TO.C,R5*%
X117947936Y-81865000D02*
X118402064Y-81865000D01*
X117947936Y-83335000D02*
X118402064Y-83335000D01*
%TO.C,J4*%
X113092500Y-99515000D02*
X114472500Y-99515000D01*
X113092500Y-100895000D02*
X113092500Y-99515000D01*
X113092500Y-102165000D02*
X113092500Y-112435000D01*
X113092500Y-102165000D02*
X115852500Y-102165000D01*
X113092500Y-112435000D02*
X115852500Y-112435000D01*
X115852500Y-102165000D02*
X115852500Y-112435000D01*
%TO.C,C1a5*%
X156401248Y-97540000D02*
X157823752Y-97540000D01*
X156401248Y-99360000D02*
X157823752Y-99360000D01*
%TO.C,L1*%
X124177500Y-87610000D02*
X130957500Y-87610000D01*
X124177500Y-94590000D02*
X124177500Y-87610000D01*
X130957500Y-87610000D02*
X130957500Y-94590000D01*
X130957500Y-94590000D02*
X124177500Y-94590000D01*
%TO.C,C3*%
X128352500Y-111311252D02*
X128352500Y-110788748D01*
X129822500Y-111311252D02*
X129822500Y-110788748D01*
%TO.C,C2*%
X122852500Y-110288748D02*
X122852500Y-110811252D01*
X124322500Y-110288748D02*
X124322500Y-110811252D01*
%TO.C,J3*%
X108502500Y-99515000D02*
X109882500Y-99515000D01*
X108502500Y-100895000D02*
X108502500Y-99515000D01*
X108502500Y-102165000D02*
X108502500Y-112435000D01*
X108502500Y-102165000D02*
X111262500Y-102165000D01*
X108502500Y-112435000D02*
X111262500Y-112435000D01*
X111262500Y-102165000D02*
X111262500Y-112435000D01*
%TO.C,D2*%
X133827500Y-104750000D02*
X133827500Y-106450000D01*
X133827500Y-104750000D02*
X137087500Y-104750000D01*
X133827500Y-106450000D02*
X137087500Y-106450000D01*
%TO.C,R2*%
X140447936Y-104365000D02*
X140902064Y-104365000D01*
X140447936Y-105835000D02*
X140902064Y-105835000D01*
%TO.C,C1b1*%
X161326248Y-77365000D02*
X161848752Y-77365000D01*
X161326248Y-78835000D02*
X161848752Y-78835000D01*
%TO.C,R3*%
X140947936Y-109865000D02*
X141402064Y-109865000D01*
X140947936Y-111335000D02*
X141402064Y-111335000D01*
%TO.C,C1a1*%
X156401248Y-84140000D02*
X157823752Y-84140000D01*
X156401248Y-85960000D02*
X157823752Y-85960000D01*
%TO.C,U1*%
X134977500Y-97490000D02*
X138197500Y-97490000D01*
X134977500Y-97665000D02*
X134977500Y-97490000D01*
X134977500Y-100710000D02*
X134977500Y-100535000D01*
X138197500Y-97490000D02*
X138197500Y-97665000D01*
X138197500Y-100535000D02*
X138197500Y-100710000D01*
X138197500Y-100710000D02*
X134977500Y-100710000D01*
X134427500Y-97660000D02*
X134187500Y-97330000D01*
X134667500Y-97330000D01*
X134427500Y-97660000D01*
G36*
X134427500Y-97660000D02*
G01*
X134187500Y-97330000D01*
X134667500Y-97330000D01*
X134427500Y-97660000D01*
G37*
%TO.C,R4*%
X131947936Y-102365000D02*
X132402064Y-102365000D01*
X131947936Y-103835000D02*
X132402064Y-103835000D01*
%TO.C,Q1*%
X135552500Y-87945000D02*
X139672500Y-87945000D01*
X135552500Y-88040000D02*
X135552500Y-87945000D01*
X135552500Y-93065000D02*
X135552500Y-92970000D01*
X139672500Y-87945000D02*
X139672500Y-88040000D01*
X139672500Y-92970000D02*
X139672500Y-93065000D01*
X139672500Y-93065000D02*
X135552500Y-93065000D01*
X135012500Y-88035000D02*
X134772500Y-87705000D01*
X135252500Y-87705000D01*
X135012500Y-88035000D01*
G36*
X135012500Y-88035000D02*
G01*
X134772500Y-87705000D01*
X135252500Y-87705000D01*
X135012500Y-88035000D01*
G37*
%TO.C,R1*%
X133852500Y-111239564D02*
X133852500Y-110785436D01*
X135322500Y-111239564D02*
X135322500Y-110785436D01*
%TO.C,C4*%
X141876248Y-98865000D02*
X142398752Y-98865000D01*
X141876248Y-100335000D02*
X142398752Y-100335000D01*
%TO.C,Q2*%
X116765000Y-89990000D02*
X118285000Y-89990000D01*
X116765000Y-90040000D02*
X116765000Y-89990000D01*
X116765000Y-91940000D02*
X116765000Y-91160000D01*
X116765000Y-93110000D02*
X116765000Y-93060000D01*
X118285000Y-89990000D02*
X118285000Y-90990000D01*
X118285000Y-92110000D02*
X118285000Y-93110000D01*
X118285000Y-93110000D02*
X116765000Y-93110000D01*
X116465000Y-91500000D02*
X115985000Y-91500000D01*
X116225000Y-91170000D01*
X116465000Y-91500000D01*
G36*
X116465000Y-91500000D02*
G01*
X115985000Y-91500000D01*
X116225000Y-91170000D01*
X116465000Y-91500000D01*
G37*
%TO.C,C1a4*%
X156401248Y-94190000D02*
X157823752Y-94190000D01*
X156401248Y-96010000D02*
X157823752Y-96010000D01*
%TO.C,C5*%
X138047500Y-80417349D02*
X135070500Y-80417349D01*
X138047500Y-80457349D02*
X135078500Y-80457349D01*
X138047500Y-80497349D02*
X135085500Y-80497349D01*
X138047500Y-80537349D02*
X135094500Y-80537349D01*
X138047500Y-80577349D02*
X135102500Y-80577349D01*
X138047500Y-80617349D02*
X135111500Y-80617349D01*
X138047500Y-80657349D02*
X135120500Y-80657349D01*
X138047500Y-80697349D02*
X135130500Y-80697349D01*
X138047500Y-80737349D02*
X135140500Y-80737349D01*
X138047500Y-80777349D02*
X135151500Y-80777349D01*
X138047500Y-80817349D02*
X135162500Y-80817349D01*
X138047500Y-80857349D02*
X135174500Y-80857349D01*
X138047500Y-80897349D02*
X135186500Y-80897349D01*
X138047500Y-80937349D02*
X135198500Y-80937349D01*
X138047500Y-80977349D02*
X135211500Y-80977349D01*
X138047500Y-81017349D02*
X135224500Y-81017349D01*
X138047500Y-81057349D02*
X135238500Y-81057349D01*
X138047500Y-81097349D02*
X135252500Y-81097349D01*
X138047500Y-81137349D02*
X135267500Y-81137349D01*
X138047500Y-81177349D02*
X135282500Y-81177349D01*
X138047500Y-81217349D02*
X135298500Y-81217349D01*
X138047500Y-81257349D02*
X135314500Y-81257349D01*
X138047500Y-81297349D02*
X135330500Y-81297349D01*
X138047500Y-81337349D02*
X135347500Y-81337349D01*
X138047500Y-81377349D02*
X135365500Y-81377349D01*
X138047500Y-81417349D02*
X135383500Y-81417349D01*
X138047500Y-81457349D02*
X135402500Y-81457349D01*
X138047500Y-81497349D02*
X135421500Y-81497349D01*
X138047500Y-81537349D02*
X135441500Y-81537349D01*
X138047500Y-81577349D02*
X135461500Y-81577349D01*
X138047500Y-81617349D02*
X135482500Y-81617349D01*
X138047500Y-81657349D02*
X135503500Y-81657349D01*
X138047500Y-81697349D02*
X135525500Y-81697349D01*
X138047500Y-81737349D02*
X135548500Y-81737349D01*
X138047500Y-81777349D02*
X135571500Y-81777349D01*
X138047500Y-81817349D02*
X135594500Y-81817349D01*
X138047500Y-81857349D02*
X135619500Y-81857349D01*
X138047500Y-81897349D02*
X135644500Y-81897349D01*
X138047500Y-81937349D02*
X135669500Y-81937349D01*
X138047500Y-81977349D02*
X135695500Y-81977349D01*
X138047500Y-82017349D02*
X135722500Y-82017349D01*
X138047500Y-82057349D02*
X135750500Y-82057349D01*
X138047500Y-82097349D02*
X135778500Y-82097349D01*
X138047500Y-82137349D02*
X135807500Y-82137349D01*
X138047500Y-82177349D02*
X135837500Y-82177349D01*
X138047500Y-82217349D02*
X135868500Y-82217349D01*
X138047500Y-82257349D02*
X135899500Y-82257349D01*
X138047500Y-82297349D02*
X135931500Y-82297349D01*
X138047500Y-82337349D02*
X135964500Y-82337349D01*
X138047500Y-82377349D02*
X135998500Y-82377349D01*
X138047500Y-82417349D02*
X136032500Y-82417349D01*
X138047500Y-82457349D02*
X136068500Y-82457349D01*
X139620500Y-83777349D02*
X138554500Y-83777349D01*
X139855500Y-83737349D02*
X138319500Y-83737349D01*
X140034500Y-83697349D02*
X138140500Y-83697349D01*
X140184500Y-83657349D02*
X137990500Y-83657349D01*
X140315500Y-83617349D02*
X137859500Y-83617349D01*
X140433500Y-83577349D02*
X137741500Y-83577349D01*
X140540500Y-83537349D02*
X137634500Y-83537349D01*
X140639500Y-83497349D02*
X137535500Y-83497349D01*
X140731500Y-83457349D02*
X137443500Y-83457349D01*
X140818500Y-83417349D02*
X137356500Y-83417349D01*
X140900500Y-83377349D02*
X137274500Y-83377349D01*
X140977500Y-83337349D02*
X137197500Y-83337349D01*
X141051500Y-83297349D02*
X137123500Y-83297349D01*
X141121500Y-83257349D02*
X137053500Y-83257349D01*
X141188500Y-83217349D02*
X136986500Y-83217349D01*
X141252500Y-83177349D02*
X136922500Y-83177349D01*
X141314500Y-83137349D02*
X136860500Y-83137349D01*
X141374500Y-83097349D02*
X136800500Y-83097349D01*
X141402500Y-75287651D02*
X141402500Y-76087651D01*
X141431500Y-83057349D02*
X136743500Y-83057349D01*
X141487500Y-83017349D02*
X136687500Y-83017349D01*
X141540500Y-82977349D02*
X136634500Y-82977349D01*
X141592500Y-82937349D02*
X136582500Y-82937349D01*
X141642500Y-82897349D02*
X136532500Y-82897349D01*
X141691500Y-82857349D02*
X136483500Y-82857349D01*
X141738500Y-82817349D02*
X136436500Y-82817349D01*
X141783500Y-82777349D02*
X136391500Y-82777349D01*
X141802500Y-75687651D02*
X141002500Y-75687651D01*
X141828500Y-82737349D02*
X136346500Y-82737349D01*
X141871500Y-82697349D02*
X136303500Y-82697349D01*
X141913500Y-82657349D02*
X136261500Y-82657349D01*
X141954500Y-82617349D02*
X136220500Y-82617349D01*
X141993500Y-82577349D02*
X136181500Y-82577349D01*
X142032500Y-82537349D02*
X136142500Y-82537349D01*
X142069500Y-82497349D02*
X136105500Y-82497349D01*
X142106500Y-82457349D02*
X140127500Y-82457349D01*
X142142500Y-82417349D02*
X140127500Y-82417349D01*
X142176500Y-82377349D02*
X140127500Y-82377349D01*
X142210500Y-82337349D02*
X140127500Y-82337349D01*
X142243500Y-82297349D02*
X140127500Y-82297349D01*
X142275500Y-82257349D02*
X140127500Y-82257349D01*
X142306500Y-82217349D02*
X140127500Y-82217349D01*
X142337500Y-82177349D02*
X140127500Y-82177349D01*
X142367500Y-82137349D02*
X140127500Y-82137349D01*
X142396500Y-82097349D02*
X140127500Y-82097349D01*
X142424500Y-82057349D02*
X140127500Y-82057349D01*
X142452500Y-82017349D02*
X140127500Y-82017349D01*
X142479500Y-81977349D02*
X140127500Y-81977349D01*
X142505500Y-81937349D02*
X140127500Y-81937349D01*
X142530500Y-81897349D02*
X140127500Y-81897349D01*
X142555500Y-81857349D02*
X140127500Y-81857349D01*
X142580500Y-81817349D02*
X140127500Y-81817349D01*
X142603500Y-81777349D02*
X140127500Y-81777349D01*
X142626500Y-81737349D02*
X140127500Y-81737349D01*
X142649500Y-81697349D02*
X140127500Y-81697349D01*
X142671500Y-81657349D02*
X140127500Y-81657349D01*
X142692500Y-81617349D02*
X140127500Y-81617349D01*
X142713500Y-81577349D02*
X140127500Y-81577349D01*
X142733500Y-81537349D02*
X140127500Y-81537349D01*
X142753500Y-81497349D02*
X140127500Y-81497349D01*
X142772500Y-81457349D02*
X140127500Y-81457349D01*
X142791500Y-81417349D02*
X140127500Y-81417349D01*
X142809500Y-81377349D02*
X140127500Y-81377349D01*
X142827500Y-81337349D02*
X140127500Y-81337349D01*
X142844500Y-81297349D02*
X140127500Y-81297349D01*
X142860500Y-81257349D02*
X140127500Y-81257349D01*
X142876500Y-81217349D02*
X140127500Y-81217349D01*
X142892500Y-81177349D02*
X140127500Y-81177349D01*
X142907500Y-81137349D02*
X140127500Y-81137349D01*
X142922500Y-81097349D02*
X140127500Y-81097349D01*
X142936500Y-81057349D02*
X140127500Y-81057349D01*
X142950500Y-81017349D02*
X140127500Y-81017349D01*
X142963500Y-80977349D02*
X140127500Y-80977349D01*
X142976500Y-80937349D02*
X140127500Y-80937349D01*
X142988500Y-80897349D02*
X140127500Y-80897349D01*
X143000500Y-80857349D02*
X140127500Y-80857349D01*
X143012500Y-80817349D02*
X140127500Y-80817349D01*
X143023500Y-80777349D02*
X140127500Y-80777349D01*
X143034500Y-80737349D02*
X140127500Y-80737349D01*
X143044500Y-80697349D02*
X140127500Y-80697349D01*
X143054500Y-80657349D02*
X140127500Y-80657349D01*
X143063500Y-80617349D02*
X140127500Y-80617349D01*
X143072500Y-80577349D02*
X140127500Y-80577349D01*
X143080500Y-80537349D02*
X140127500Y-80537349D01*
X143089500Y-80497349D02*
X140127500Y-80497349D01*
X143096500Y-80457349D02*
X140127500Y-80457349D01*
X143104500Y-80417349D02*
X140127500Y-80417349D01*
X143110500Y-80377349D02*
X135064500Y-80377349D01*
X143117500Y-80337349D02*
X135057500Y-80337349D01*
X143123500Y-80297349D02*
X135051500Y-80297349D01*
X143129500Y-80257349D02*
X135045500Y-80257349D01*
X143134500Y-80217349D02*
X135040500Y-80217349D01*
X143139500Y-80177349D02*
X135035500Y-80177349D01*
X143143500Y-80137349D02*
X135031500Y-80137349D01*
X143148500Y-80097349D02*
X135026500Y-80097349D01*
X143151500Y-80057349D02*
X135023500Y-80057349D01*
X143155500Y-80017349D02*
X135019500Y-80017349D01*
X143157500Y-79977349D02*
X135017500Y-79977349D01*
X143160500Y-79937349D02*
X135014500Y-79937349D01*
X143162500Y-79897349D02*
X135012500Y-79897349D01*
X143164500Y-79857349D02*
X135010500Y-79857349D01*
X143165500Y-79817349D02*
X135009500Y-79817349D01*
X143166500Y-79777349D02*
X135008500Y-79777349D01*
X143167500Y-79697349D02*
X135007500Y-79697349D01*
X143167500Y-79737349D02*
X135007500Y-79737349D01*
X143207500Y-79697349D02*
G75*
G02*
X134967500Y-79697349I-4120000J0D01*
G01*
X134967500Y-79697349D02*
G75*
G02*
X143207500Y-79697349I4120000J0D01*
G01*
%TO.C,J_VIN1*%
X110207500Y-89180000D02*
X111587500Y-89180000D01*
X110207500Y-90560000D02*
X110207500Y-89180000D01*
X110207500Y-91830000D02*
X110207500Y-94480000D01*
X110207500Y-91830000D02*
X112967500Y-91830000D01*
X110207500Y-94480000D02*
X112967500Y-94480000D01*
X112967500Y-91830000D02*
X112967500Y-94480000D01*
%TD*%
%LPC*%
D12*
%TO.C,C1a7*%
X155637500Y-105150000D03*
X158587500Y-105150000D03*
%TD*%
D13*
%TO.C,C6*%
X109587500Y-80150000D03*
X109587500Y-83100000D03*
%TD*%
D12*
%TO.C,C1a8*%
X155637500Y-108500000D03*
X158587500Y-108500000D03*
%TD*%
%TO.C,C1a2*%
X155637500Y-88400000D03*
X158587500Y-88400000D03*
%TD*%
D14*
%TO.C,J5*%
X119062500Y-100895000D03*
D15*
X119062500Y-103435000D03*
X119062500Y-105975000D03*
X119062500Y-108515000D03*
X119062500Y-111055000D03*
%TD*%
D12*
%TO.C,C1a6*%
X155637500Y-101800000D03*
X158587500Y-101800000D03*
%TD*%
D16*
%TO.C,D1*%
X146587500Y-96720000D03*
D17*
X146587500Y-81480000D03*
%TD*%
D18*
%TO.C,C1b2*%
X160637500Y-81110000D03*
X162537500Y-81110000D03*
%TD*%
D19*
%TO.C,Cin1*%
X128587500Y-77600000D03*
D20*
X128587500Y-81100000D03*
%TD*%
D21*
%TO.C,R6*%
X117262500Y-85100000D03*
X119087500Y-85100000D03*
%TD*%
D22*
%TO.C,C1*%
X130587500Y-105650000D03*
X130587500Y-107550000D03*
%TD*%
D14*
%TO.C,J2*%
X164587500Y-96100000D03*
D15*
X164587500Y-98640000D03*
%TD*%
D13*
%TO.C,C7*%
X113087500Y-77650000D03*
X113087500Y-80600000D03*
%TD*%
D12*
%TO.C,C1a3*%
X155637500Y-91750000D03*
X158587500Y-91750000D03*
%TD*%
D21*
%TO.C,R5*%
X117262500Y-82600000D03*
X119087500Y-82600000D03*
%TD*%
D14*
%TO.C,J4*%
X114472500Y-100895000D03*
D15*
X114472500Y-103435000D03*
X114472500Y-105975000D03*
X114472500Y-108515000D03*
X114472500Y-111055000D03*
%TD*%
D12*
%TO.C,C1a5*%
X155637500Y-98450000D03*
X158587500Y-98450000D03*
%TD*%
D23*
%TO.C,L1*%
X125547500Y-91100000D03*
X129587500Y-91100000D03*
%TD*%
D24*
%TO.C,C3*%
X129087500Y-112000000D03*
X129087500Y-110100000D03*
%TD*%
D22*
%TO.C,C2*%
X123587500Y-109600000D03*
X123587500Y-111500000D03*
%TD*%
D14*
%TO.C,J3*%
X109882500Y-100895000D03*
D15*
X109882500Y-103435000D03*
X109882500Y-105975000D03*
X109882500Y-108515000D03*
X109882500Y-111055000D03*
%TD*%
D25*
%TO.C,D2*%
X134587500Y-105600000D03*
X137087500Y-105600000D03*
%TD*%
D21*
%TO.C,R2*%
X139762500Y-105100000D03*
X141587500Y-105100000D03*
%TD*%
D18*
%TO.C,C1b1*%
X160637500Y-78100000D03*
X162537500Y-78100000D03*
%TD*%
D21*
%TO.C,R3*%
X140262500Y-110600000D03*
X142087500Y-110600000D03*
%TD*%
D12*
%TO.C,C1a1*%
X155637500Y-85050000D03*
X158587500Y-85050000D03*
%TD*%
D26*
%TO.C,U1*%
X134487500Y-98100000D03*
X134487500Y-98600000D03*
X134487500Y-99100000D03*
X134487500Y-99600000D03*
X134487500Y-100100000D03*
X138687500Y-100100000D03*
X138687500Y-99600000D03*
X138687500Y-99100000D03*
X138687500Y-98600000D03*
X138687500Y-98100000D03*
%TD*%
D21*
%TO.C,R4*%
X131262500Y-103100000D03*
X133087500Y-103100000D03*
%TD*%
D27*
%TO.C,Q1*%
X135137500Y-88600000D03*
X135137500Y-89870000D03*
X135137500Y-91140000D03*
X135137500Y-92410000D03*
X140087500Y-92410000D03*
X140087500Y-91140000D03*
X140087500Y-89870000D03*
X140087500Y-88600000D03*
%TD*%
D28*
%TO.C,R1*%
X134587500Y-111925000D03*
X134587500Y-110100000D03*
%TD*%
D18*
%TO.C,C4*%
X141187500Y-99600000D03*
X143087500Y-99600000D03*
%TD*%
D29*
%TO.C,Q2*%
X116587500Y-90600000D03*
X116587500Y-92500000D03*
X118462500Y-91550000D03*
%TD*%
D12*
%TO.C,C1a4*%
X155637500Y-95100000D03*
X158587500Y-95100000D03*
%TD*%
D19*
%TO.C,C5*%
X139087500Y-77947349D03*
D20*
X139087500Y-81447349D03*
%TD*%
D14*
%TO.C,J_VIN1*%
X111587500Y-90560000D03*
D15*
X111587500Y-93100000D03*
%TD*%
%LPD*%
M02*
