%TF.GenerationSoftware,KiCad,Pcbnew,10.0.0*%
%TF.CreationDate,2026-04-15T12:15:48+01:00*%
%TF.ProjectId,LTC1871_Based_Boost_Controller_V2,4c544331-3837-4315-9f42-617365645f42,rev?*%
%TF.SameCoordinates,Original*%
%TF.FileFunction,Paste,Top*%
%TF.FilePolarity,Positive*%
%FSLAX46Y46*%
G04 Gerber Fmt 4.6, Leading zero omitted, Abs format (unit mm)*
G04 Created by KiCad (PCBNEW 10.0.0) date 2026-04-15 12:15:48*
%MOMM*%
%LPD*%
G01*
G04 APERTURE LIST*
G04 Aperture macros list*
%AMRoundRect*
0 Rectangle with rounded corners*
0 $1 Rounding radius*
0 $2 $3 $4 $5 $6 $7 $8 $9 X,Y pos of 4 corners*
0 Add a 4 corners polygon primitive as box body*
4,1,4,$2,$3,$4,$5,$6,$7,$8,$9,$2,$3,0*
0 Add four circle primitives for the rounded corners*
1,1,$1+$1,$2,$3*
1,1,$1+$1,$4,$5*
1,1,$1+$1,$6,$7*
1,1,$1+$1,$8,$9*
0 Add four rect primitives between the rounded corners*
20,1,$1+$1,$2,$3,$4,$5,0*
20,1,$1+$1,$4,$5,$6,$7,0*
20,1,$1+$1,$6,$7,$8,$9,0*
20,1,$1+$1,$8,$9,$2,$3,0*%
G04 Aperture macros list end*
%ADD10RoundRect,0.250000X-0.262500X-0.450000X0.262500X-0.450000X0.262500X0.450000X-0.262500X0.450000X0*%
%ADD11RoundRect,0.250000X-0.475000X0.250000X-0.475000X-0.250000X0.475000X-0.250000X0.475000X0.250000X0*%
%ADD12RoundRect,0.250000X-0.450000X0.262500X-0.450000X-0.262500X0.450000X-0.262500X0.450000X0.262500X0*%
%ADD13RoundRect,0.250000X-0.650000X0.325000X-0.650000X-0.325000X0.650000X-0.325000X0.650000X0.325000X0*%
%ADD14RoundRect,0.250000X-0.250000X-0.475000X0.250000X-0.475000X0.250000X0.475000X-0.250000X0.475000X0*%
%ADD15RoundRect,0.250000X0.450000X-0.262500X0.450000X0.262500X-0.450000X0.262500X-0.450000X-0.262500X0*%
%ADD16RoundRect,0.150000X-0.825000X-0.150000X0.825000X-0.150000X0.825000X0.150000X-0.825000X0.150000X0*%
%ADD17RoundRect,0.087500X-0.662500X-0.087500X0.662500X-0.087500X0.662500X0.087500X-0.662500X0.087500X0*%
%ADD18RoundRect,0.250000X-0.465000X-2.500000X0.465000X-2.500000X0.465000X2.500000X-0.465000X2.500000X0*%
%ADD19RoundRect,0.150000X0.150000X-0.587500X0.150000X0.587500X-0.150000X0.587500X-0.150000X-0.587500X0*%
G04 APERTURE END LIST*
D10*
%TO.C,R4*%
X129675000Y-97000000D03*
X131500000Y-97000000D03*
%TD*%
D11*
%TO.C,C3*%
X134000000Y-97000000D03*
X134000000Y-98900000D03*
%TD*%
%TO.C,C1b2*%
X174000000Y-96500000D03*
X174000000Y-98400000D03*
%TD*%
D12*
%TO.C,R2*%
X167500000Y-103000000D03*
X167500000Y-104825000D03*
%TD*%
D13*
%TO.C,C1a4*%
X158000000Y-114000000D03*
X158000000Y-116950000D03*
%TD*%
D12*
%TO.C,R5*%
X147500000Y-90000000D03*
X147500000Y-91825000D03*
%TD*%
D13*
%TO.C,C1a7*%
X165500000Y-109000000D03*
X165500000Y-111950000D03*
%TD*%
%TO.C,C1a3*%
X155500000Y-109000000D03*
X155500000Y-111950000D03*
%TD*%
D14*
%TO.C,C4*%
X153100000Y-98500000D03*
X155000000Y-98500000D03*
%TD*%
D11*
%TO.C,C2*%
X127000000Y-99000000D03*
X127000000Y-100900000D03*
%TD*%
D13*
%TO.C,C1a1*%
X150500000Y-109000000D03*
X150500000Y-111950000D03*
%TD*%
D11*
%TO.C,C1b1*%
X170500000Y-96500000D03*
X170500000Y-98400000D03*
%TD*%
D15*
%TO.C,R3*%
X167500000Y-100325000D03*
X167500000Y-98500000D03*
%TD*%
D13*
%TO.C,C7*%
X132000000Y-86525000D03*
X132000000Y-89475000D03*
%TD*%
%TO.C,C1a6*%
X163000000Y-114000000D03*
X163000000Y-116950000D03*
%TD*%
D10*
%TO.C,R1*%
X138675000Y-103000000D03*
X140500000Y-103000000D03*
%TD*%
D16*
%TO.C,Q1*%
X157250000Y-101500000D03*
X157250000Y-102770000D03*
X157250000Y-104040000D03*
X157250000Y-105310000D03*
X162200000Y-105310000D03*
X162200000Y-104040000D03*
X162200000Y-102770000D03*
X162200000Y-101500000D03*
%TD*%
D17*
%TO.C,U1*%
X145900000Y-100000000D03*
X145900000Y-100500000D03*
X145900000Y-101000000D03*
X145900000Y-101500000D03*
X145900000Y-102000000D03*
X150100000Y-102000000D03*
X150100000Y-101500000D03*
X150100000Y-101000000D03*
X150100000Y-100500000D03*
X150100000Y-100000000D03*
%TD*%
D18*
%TO.C,L1*%
X152960000Y-83000000D03*
X157000000Y-83000000D03*
%TD*%
D13*
%TO.C,C1a5*%
X160500000Y-109000000D03*
X160500000Y-111950000D03*
%TD*%
D12*
%TO.C,R6*%
X147500000Y-94175000D03*
X147500000Y-96000000D03*
%TD*%
D13*
%TO.C,C6*%
X135350000Y-86525000D03*
X135350000Y-89475000D03*
%TD*%
%TO.C,C1a2*%
X153000000Y-114000000D03*
X153000000Y-116950000D03*
%TD*%
D19*
%TO.C,Q2*%
X150500000Y-93500000D03*
X152400000Y-93500000D03*
X151450000Y-91625000D03*
%TD*%
M02*
