%TF.GenerationSoftware,KiCad,Pcbnew,10.0.1*%
%TF.CreationDate,2026-04-19T16:32:20+01:00*%
%TF.ProjectId,LTC1871_Based_Boost_Controller_V2,4c544331-3837-4315-9f42-617365645f42,rev?*%
%TF.SameCoordinates,PX72ab714PY70e54a6*%
%TF.FileFunction,Copper,L2,Bot*%
%TF.FilePolarity,Positive*%
%FSLAX46Y46*%
G04 Gerber Fmt 4.6, Leading zero omitted, Abs format (unit mm)*
G04 Created by KiCad (PCBNEW 10.0.1) date 2026-04-19 16:32:20*
%MOMM*%
%LPD*%
G01*
G04 APERTURE LIST*
G04 Aperture macros list*
%AMRoundRect*
0 Rectangle with rounded corners*
0 $1 Rounding radius*
0 $2 $3 $4 $5 $6 $7 $8 $9 X,Y pos of 4 corners*
0 Add a 4 corners polygon primitive as box body*
4,1,4,$2,$3,$4,$5,$6,$7,$8,$9,$2,$3,0*
0 Add four circle primitives for the rounded corners*
1,1,$1+$1,$2,$3*
1,1,$1+$1,$4,$5*
1,1,$1+$1,$6,$7*
1,1,$1+$1,$8,$9*
0 Add four rect primitives between the rounded corners*
20,1,$1+$1,$2,$3,$4,$5,0*
20,1,$1+$1,$4,$5,$6,$7,0*
20,1,$1+$1,$6,$7,$8,$9,0*
20,1,$1+$1,$8,$9,$2,$3,0*%
G04 Aperture macros list end*
%TA.AperFunction,ComponentPad*%
%ADD10R,1.700000X1.700000*%
%TD*%
%TA.AperFunction,ComponentPad*%
%ADD11C,1.700000*%
%TD*%
%TA.AperFunction,ComponentPad*%
%ADD12RoundRect,0.250000X0.550000X0.550000X-0.550000X0.550000X-0.550000X-0.550000X0.550000X-0.550000X0*%
%TD*%
%TA.AperFunction,ComponentPad*%
%ADD13C,1.600000*%
%TD*%
%TA.AperFunction,ComponentPad*%
%ADD14RoundRect,0.249999X-0.850001X-0.850001X0.850001X-0.850001X0.850001X0.850001X-0.850001X0.850001X0*%
%TD*%
%TA.AperFunction,ComponentPad*%
%ADD15C,2.200000*%
%TD*%
%TA.AperFunction,ComponentPad*%
%ADD16RoundRect,0.250000X-0.550000X-0.550000X0.550000X-0.550000X0.550000X0.550000X-0.550000X0.550000X0*%
%TD*%
%TA.AperFunction,ComponentPad*%
%ADD17R,2.000000X2.000000*%
%TD*%
%TA.AperFunction,ComponentPad*%
%ADD18C,2.000000*%
%TD*%
%TA.AperFunction,ViaPad*%
%ADD19C,0.600000*%
%TD*%
%TA.AperFunction,Conductor*%
%ADD20C,0.250000*%
%TD*%
%TA.AperFunction,Conductor*%
%ADD21C,0.500000*%
%TD*%
%TA.AperFunction,Conductor*%
%ADD22C,1.000000*%
%TD*%
%TA.AperFunction,Conductor*%
%ADD23C,0.200000*%
%TD*%
G04 APERTURE END LIST*
D10*
%TO.P,J5,1,Pin_1_1*%
%TO.N,GND*%
X12760108Y2379686D03*
D11*
%TO.P,J5,2,Pin_2_2*%
%TO.N,Net-(D1-K)*%
X10220108Y2379686D03*
%TO.P,J5,3,Pin_3_3*%
%TO.N,unconnected-(J5-Pin_3-Pad3)*%
X7680108Y2379686D03*
%TO.P,J5,4,Pin_4_4*%
%TO.N,unconnected-(J5-Pin_4-Pad4)*%
X5140108Y2379686D03*
%TO.P,J5,5,Pin_5_5*%
%TO.N,unconnected-(J5-Pin_5-Pad5)*%
X2600108Y2379686D03*
%TD*%
D10*
%TO.P,J_VIN1,1,Pin_1_1*%
%TO.N,Net-(D2-A)*%
X21260108Y31379686D03*
D11*
%TO.P,J_VIN1,2,Pin_2_2*%
%TO.N,GND*%
X21260108Y28839686D03*
%TD*%
D10*
%TO.P,J2,1,Pin_1_1*%
%TO.N,Net-(D1-K)*%
X57760108Y18879686D03*
D11*
%TO.P,J2,2,Pin_2_2*%
%TO.N,GND*%
X57760108Y16339686D03*
%TD*%
D12*
%TO.P,C5,1*%
%TO.N,Net-(D1-K)*%
X48760108Y37379686D03*
D13*
%TO.P,C5,2*%
%TO.N,GND*%
X45260108Y37379686D03*
%TD*%
D10*
%TO.P,J4,1,Pin_1_1*%
%TO.N,GND*%
X12760108Y6879686D03*
D11*
%TO.P,J4,2,Pin_2_2*%
%TO.N,unconnected-(J4-Pin_2-Pad2)*%
X10220108Y6879686D03*
%TO.P,J4,3,Pin_3_3*%
%TO.N,unconnected-(J4-Pin_3-Pad3)*%
X7680108Y6879686D03*
%TO.P,J4,4,Pin_4_4*%
%TO.N,unconnected-(J4-Pin_4-Pad4)*%
X5140108Y6879686D03*
%TO.P,J4,5,Pin_5_5*%
%TO.N,unconnected-(J4-Pin_5-Pad5)*%
X2600108Y6879686D03*
%TD*%
D10*
%TO.P,J3,1,Pin_1_1*%
%TO.N,GND*%
X12760108Y11879686D03*
D11*
%TO.P,J3,2,Pin_2_2*%
%TO.N,Net-(D2-A)*%
X10220108Y11879686D03*
%TO.P,J3,3,Pin_3_3*%
%TO.N,unconnected-(J3-Pin_3-Pad3)*%
X7680108Y11879686D03*
%TO.P,J3,4,Pin_4_4*%
%TO.N,unconnected-(J3-Pin_4-Pad4)*%
X5140108Y11879686D03*
%TO.P,J3,5,Pin_5_5*%
%TO.N,unconnected-(J3-Pin_5-Pad5)*%
X2600108Y11879686D03*
%TD*%
D14*
%TO.P,D2,1,K_1*%
%TO.N,Net-(D2-K)*%
X13135108Y24754686D03*
D15*
%TO.P,D2,2,A_2*%
%TO.N,Net-(D2-A)*%
X23295108Y24754686D03*
%TD*%
D16*
%TO.P,C1,1*%
%TO.N,Net-(D2-A)*%
X3607457Y28379686D03*
D13*
%TO.P,C1,2*%
%TO.N,GND*%
X7107457Y28379686D03*
%TD*%
D17*
%TO.P,D1,1,K_1*%
%TO.N,Net-(D1-K)*%
X50760108Y26879686D03*
D18*
%TO.P,D1,2,A_2*%
%TO.N,Net-(D1-A)*%
X45680108Y26879686D03*
%TD*%
D19*
%TO.N,GND*%
X17260108Y28379686D03*
X27260108Y5379686D03*
X42260108Y5879686D03*
X40260108Y879686D03*
X47260108Y5879686D03*
X11760108Y18379686D03*
X46260108Y11879686D03*
X51760108Y19879686D03*
X16260108Y15879686D03*
X31760108Y15879686D03*
X23260108Y15879686D03*
X45260108Y30379686D03*
X36760108Y20879686D03*
X45260108Y879686D03*
X28760108Y1879686D03*
X8760108Y16879686D03*
X37760108Y5879686D03*
X27760108Y20879686D03*
%TO.N,Net-(Q2-G)*%
X28260108Y25379686D03*
X39260108Y26879686D03*
X30260108Y22379686D03*
X35760108Y26379686D03*
%TO.N,Net-(D1-A)*%
X29860108Y18504686D03*
X27760108Y14879686D03*
%TO.N,Net-(D2-A)*%
X32160108Y24879686D03*
X32760108Y28379686D03*
X30760108Y19379686D03*
%TO.N,Net-(D2-K)*%
X25760108Y24379686D03*
X31210108Y26754686D03*
%TD*%
%TO.N,Net-(Q2-G)*%
D20*
X30260108Y24879686D02*
X28760108Y24879686D01*
X28760108Y24879686D02*
X28260108Y25379686D01*
D21*
X36260108Y26879686D02*
X35760108Y26379686D01*
D20*
X30260108Y24879686D02*
X30260108Y22379686D01*
D21*
X39260108Y26879686D02*
X36260108Y26879686D01*
%TO.N,Net-(D1-A)*%
D20*
X33260108Y14879686D02*
X33260108Y18379686D01*
X33260108Y18379686D02*
X29985108Y18379686D01*
X27760108Y14879686D02*
X33260108Y14879686D01*
X29985108Y18379686D02*
X29860108Y18504686D01*
%TO.N,Net-(D2-A)*%
D22*
X40260108Y26465472D02*
X38674322Y24879686D01*
X39174322Y28379686D02*
X40260108Y27293900D01*
D21*
X32260108Y22379686D02*
X31260108Y21379686D01*
D22*
X40260108Y27293900D02*
X40260108Y26465472D01*
D23*
X31260108Y21379686D02*
X30760108Y20879686D01*
D22*
X38674322Y24879686D02*
X32160108Y24879686D01*
D23*
X30760108Y20879686D02*
X30760108Y19379686D01*
D21*
X32160108Y22479686D02*
X32160108Y24879686D01*
D22*
X32760108Y28379686D02*
X39174322Y28379686D01*
%TO.N,Net-(D2-K)*%
D21*
X25760108Y24379686D02*
X28135108Y26754686D01*
X28135108Y26754686D02*
X31210108Y26754686D01*
%TD*%
%TA.AperFunction,Conductor*%
%TO.N,GND*%
G36*
X59702647Y41859501D02*
G01*
X59748402Y41806697D01*
X59759608Y41755186D01*
X59759608Y504186D01*
X59739923Y437147D01*
X59687119Y391392D01*
X59635608Y380186D01*
X391998Y380186D01*
X324959Y399871D01*
X279204Y452675D01*
X268007Y505645D01*
X291306Y2485973D01*
X1249608Y2485973D01*
X1249608Y2273400D01*
X1282861Y2063447D01*
X1348552Y1861272D01*
X1445059Y1671866D01*
X1569998Y1499900D01*
X1720321Y1349577D01*
X1892287Y1224638D01*
X1892289Y1224637D01*
X1892292Y1224635D01*
X2081696Y1128129D01*
X2283865Y1062440D01*
X2493821Y1029186D01*
X2493822Y1029186D01*
X2706394Y1029186D01*
X2706395Y1029186D01*
X2916351Y1062440D01*
X3118520Y1128129D01*
X3307924Y1224635D01*
X3394586Y1287598D01*
X3479894Y1349577D01*
X3479896Y1349580D01*
X3479900Y1349582D01*
X3630212Y1499894D01*
X3630214Y1499898D01*
X3630217Y1499900D01*
X3755156Y1671866D01*
X3755155Y1671866D01*
X3755159Y1671870D01*
X3759622Y1680632D01*
X3807596Y1731427D01*
X3875416Y1748223D01*
X3941552Y1725687D01*
X3980594Y1680630D01*
X3985059Y1671866D01*
X4109998Y1499900D01*
X4260321Y1349577D01*
X4432287Y1224638D01*
X4432289Y1224637D01*
X4432292Y1224635D01*
X4621696Y1128129D01*
X4823865Y1062440D01*
X5033821Y1029186D01*
X5033822Y1029186D01*
X5246394Y1029186D01*
X5246395Y1029186D01*
X5456351Y1062440D01*
X5658520Y1128129D01*
X5847924Y1224635D01*
X5934586Y1287598D01*
X6019894Y1349577D01*
X6019896Y1349580D01*
X6019900Y1349582D01*
X6170212Y1499894D01*
X6170214Y1499898D01*
X6170217Y1499900D01*
X6295156Y1671866D01*
X6295155Y1671866D01*
X6295159Y1671870D01*
X6299622Y1680632D01*
X6347596Y1731427D01*
X6415416Y1748223D01*
X6481552Y1725687D01*
X6520594Y1680630D01*
X6525059Y1671866D01*
X6649998Y1499900D01*
X6800321Y1349577D01*
X6972287Y1224638D01*
X6972289Y1224637D01*
X6972292Y1224635D01*
X7161696Y1128129D01*
X7363865Y1062440D01*
X7573821Y1029186D01*
X7573822Y1029186D01*
X7786394Y1029186D01*
X7786395Y1029186D01*
X7996351Y1062440D01*
X8198520Y1128129D01*
X8387924Y1224635D01*
X8474586Y1287598D01*
X8559894Y1349577D01*
X8559896Y1349580D01*
X8559900Y1349582D01*
X8710212Y1499894D01*
X8710214Y1499898D01*
X8710217Y1499900D01*
X8835156Y1671866D01*
X8835155Y1671866D01*
X8835159Y1671870D01*
X8839622Y1680632D01*
X8887596Y1731427D01*
X8955416Y1748223D01*
X9021552Y1725687D01*
X9060594Y1680630D01*
X9065059Y1671866D01*
X9189998Y1499900D01*
X9340321Y1349577D01*
X9512287Y1224638D01*
X9512289Y1224637D01*
X9512292Y1224635D01*
X9701696Y1128129D01*
X9903865Y1062440D01*
X10113821Y1029186D01*
X10113822Y1029186D01*
X10326394Y1029186D01*
X10326395Y1029186D01*
X10536351Y1062440D01*
X10738520Y1128129D01*
X10927924Y1224635D01*
X11014586Y1287598D01*
X11099892Y1349576D01*
X11099892Y1349577D01*
X11099900Y1349582D01*
X11213825Y1463508D01*
X11275144Y1496990D01*
X11344836Y1492006D01*
X11400770Y1450135D01*
X11417685Y1419158D01*
X11466754Y1287598D01*
X11466757Y1287593D01*
X11552917Y1172499D01*
X11552920Y1172496D01*
X11668014Y1086336D01*
X11668021Y1086332D01*
X11802728Y1036090D01*
X11802735Y1036088D01*
X11862263Y1029687D01*
X11862280Y1029686D01*
X12510108Y1029686D01*
X12510108Y1946674D01*
X12567115Y1913761D01*
X12694282Y1879686D01*
X12825934Y1879686D01*
X12953101Y1913761D01*
X13010108Y1946674D01*
X13010108Y1029686D01*
X13657936Y1029686D01*
X13657952Y1029687D01*
X13717480Y1036088D01*
X13717487Y1036090D01*
X13852194Y1086332D01*
X13852201Y1086336D01*
X13967295Y1172496D01*
X13967298Y1172499D01*
X14053458Y1287593D01*
X14053462Y1287600D01*
X14103704Y1422307D01*
X14103706Y1422314D01*
X14110107Y1481842D01*
X14110108Y1481859D01*
X14110108Y2129686D01*
X13193120Y2129686D01*
X13226033Y2186693D01*
X13260108Y2313860D01*
X13260108Y2445512D01*
X13226033Y2572679D01*
X13193120Y2629686D01*
X14110108Y2629686D01*
X14110108Y3277514D01*
X14110107Y3277531D01*
X14103706Y3337059D01*
X14103704Y3337066D01*
X14053462Y3471773D01*
X14053458Y3471780D01*
X13967298Y3586874D01*
X13967295Y3586877D01*
X13852201Y3673037D01*
X13852194Y3673041D01*
X13717487Y3723283D01*
X13717480Y3723285D01*
X13657952Y3729686D01*
X13010108Y3729686D01*
X13010108Y2812698D01*
X12953101Y2845611D01*
X12825934Y2879686D01*
X12694282Y2879686D01*
X12567115Y2845611D01*
X12510108Y2812698D01*
X12510108Y3729686D01*
X11862263Y3729686D01*
X11802735Y3723285D01*
X11802728Y3723283D01*
X11668021Y3673041D01*
X11668014Y3673037D01*
X11552920Y3586877D01*
X11552917Y3586874D01*
X11466757Y3471780D01*
X11466754Y3471774D01*
X11417685Y3340215D01*
X11375813Y3284282D01*
X11310349Y3259865D01*
X11242076Y3274717D01*
X11213822Y3295868D01*
X11099894Y3409796D01*
X10927928Y3534735D01*
X10738522Y3631242D01*
X10738521Y3631243D01*
X10738520Y3631243D01*
X10536351Y3696932D01*
X10536349Y3696933D01*
X10536348Y3696933D01*
X10375065Y3722478D01*
X10326395Y3730186D01*
X10113821Y3730186D01*
X10065150Y3722478D01*
X9903868Y3696933D01*
X9701693Y3631242D01*
X9512287Y3534735D01*
X9340321Y3409796D01*
X9189998Y3259473D01*
X9065057Y3087504D01*
X9060592Y3078740D01*
X9012617Y3027944D01*
X8944796Y3011150D01*
X8878661Y3033688D01*
X8839624Y3078740D01*
X8835158Y3087504D01*
X8710217Y3259473D01*
X8559894Y3409796D01*
X8387928Y3534735D01*
X8198522Y3631242D01*
X8198521Y3631243D01*
X8198520Y3631243D01*
X7996351Y3696932D01*
X7996349Y3696933D01*
X7996348Y3696933D01*
X7835065Y3722478D01*
X7786395Y3730186D01*
X7573821Y3730186D01*
X7525150Y3722478D01*
X7363868Y3696933D01*
X7161693Y3631242D01*
X6972287Y3534735D01*
X6800321Y3409796D01*
X6649998Y3259473D01*
X6525057Y3087504D01*
X6520592Y3078740D01*
X6472617Y3027944D01*
X6404796Y3011150D01*
X6338661Y3033688D01*
X6299624Y3078740D01*
X6295158Y3087504D01*
X6170217Y3259473D01*
X6019894Y3409796D01*
X5847928Y3534735D01*
X5658522Y3631242D01*
X5658521Y3631243D01*
X5658520Y3631243D01*
X5456351Y3696932D01*
X5456349Y3696933D01*
X5456348Y3696933D01*
X5295065Y3722478D01*
X5246395Y3730186D01*
X5033821Y3730186D01*
X4985150Y3722478D01*
X4823868Y3696933D01*
X4621693Y3631242D01*
X4432287Y3534735D01*
X4260321Y3409796D01*
X4109998Y3259473D01*
X3985057Y3087504D01*
X3980592Y3078740D01*
X3932617Y3027944D01*
X3864796Y3011150D01*
X3798661Y3033688D01*
X3759624Y3078740D01*
X3755158Y3087504D01*
X3630217Y3259473D01*
X3479894Y3409796D01*
X3307928Y3534735D01*
X3118522Y3631242D01*
X3118521Y3631243D01*
X3118520Y3631243D01*
X2916351Y3696932D01*
X2916349Y3696933D01*
X2916348Y3696933D01*
X2755065Y3722478D01*
X2706395Y3730186D01*
X2493821Y3730186D01*
X2445150Y3722478D01*
X2283868Y3696933D01*
X2081693Y3631242D01*
X1892287Y3534735D01*
X1720321Y3409796D01*
X1569998Y3259473D01*
X1445059Y3087507D01*
X1348552Y2898101D01*
X1282861Y2695926D01*
X1249608Y2485973D01*
X291306Y2485973D01*
X291380Y2492304D01*
X344247Y6985973D01*
X1249608Y6985973D01*
X1249608Y6773400D01*
X1282861Y6563447D01*
X1348552Y6361272D01*
X1445059Y6171866D01*
X1569998Y5999900D01*
X1720321Y5849577D01*
X1892287Y5724638D01*
X1892289Y5724637D01*
X1892292Y5724635D01*
X2081696Y5628129D01*
X2283865Y5562440D01*
X2493821Y5529186D01*
X2493822Y5529186D01*
X2706394Y5529186D01*
X2706395Y5529186D01*
X2916351Y5562440D01*
X3118520Y5628129D01*
X3307924Y5724635D01*
X3394586Y5787598D01*
X3479894Y5849577D01*
X3479896Y5849580D01*
X3479900Y5849582D01*
X3630212Y5999894D01*
X3630214Y5999898D01*
X3630217Y5999900D01*
X3755156Y6171866D01*
X3755155Y6171866D01*
X3755159Y6171870D01*
X3759622Y6180632D01*
X3807596Y6231427D01*
X3875416Y6248223D01*
X3941552Y6225687D01*
X3980594Y6180630D01*
X3985059Y6171866D01*
X4109998Y5999900D01*
X4260321Y5849577D01*
X4432287Y5724638D01*
X4432289Y5724637D01*
X4432292Y5724635D01*
X4621696Y5628129D01*
X4823865Y5562440D01*
X5033821Y5529186D01*
X5033822Y5529186D01*
X5246394Y5529186D01*
X5246395Y5529186D01*
X5456351Y5562440D01*
X5658520Y5628129D01*
X5847924Y5724635D01*
X5934586Y5787598D01*
X6019894Y5849577D01*
X6019896Y5849580D01*
X6019900Y5849582D01*
X6170212Y5999894D01*
X6170214Y5999898D01*
X6170217Y5999900D01*
X6295156Y6171866D01*
X6295155Y6171866D01*
X6295159Y6171870D01*
X6299622Y6180632D01*
X6347596Y6231427D01*
X6415416Y6248223D01*
X6481552Y6225687D01*
X6520594Y6180630D01*
X6525059Y6171866D01*
X6649998Y5999900D01*
X6800321Y5849577D01*
X6972287Y5724638D01*
X6972289Y5724637D01*
X6972292Y5724635D01*
X7161696Y5628129D01*
X7363865Y5562440D01*
X7573821Y5529186D01*
X7573822Y5529186D01*
X7786394Y5529186D01*
X7786395Y5529186D01*
X7996351Y5562440D01*
X8198520Y5628129D01*
X8387924Y5724635D01*
X8474586Y5787598D01*
X8559894Y5849577D01*
X8559896Y5849580D01*
X8559900Y5849582D01*
X8710212Y5999894D01*
X8710214Y5999898D01*
X8710217Y5999900D01*
X8835156Y6171866D01*
X8835155Y6171866D01*
X8835159Y6171870D01*
X8839622Y6180632D01*
X8887596Y6231427D01*
X8955416Y6248223D01*
X9021552Y6225687D01*
X9060594Y6180630D01*
X9065059Y6171866D01*
X9189998Y5999900D01*
X9340321Y5849577D01*
X9512287Y5724638D01*
X9512289Y5724637D01*
X9512292Y5724635D01*
X9701696Y5628129D01*
X9903865Y5562440D01*
X10113821Y5529186D01*
X10113822Y5529186D01*
X10326394Y5529186D01*
X10326395Y5529186D01*
X10536351Y5562440D01*
X10738520Y5628129D01*
X10927924Y5724635D01*
X11014586Y5787598D01*
X11099892Y5849576D01*
X11099892Y5849577D01*
X11099900Y5849582D01*
X11213825Y5963508D01*
X11275144Y5996990D01*
X11344836Y5992006D01*
X11400770Y5950135D01*
X11417685Y5919158D01*
X11466754Y5787598D01*
X11466757Y5787593D01*
X11552917Y5672499D01*
X11552920Y5672496D01*
X11668014Y5586336D01*
X11668021Y5586332D01*
X11802728Y5536090D01*
X11802735Y5536088D01*
X11862263Y5529687D01*
X11862280Y5529686D01*
X12510108Y5529686D01*
X12510108Y6446674D01*
X12567115Y6413761D01*
X12694282Y6379686D01*
X12825934Y6379686D01*
X12953101Y6413761D01*
X13010108Y6446674D01*
X13010108Y5529686D01*
X13657936Y5529686D01*
X13657952Y5529687D01*
X13717480Y5536088D01*
X13717487Y5536090D01*
X13852194Y5586332D01*
X13852201Y5586336D01*
X13967295Y5672496D01*
X13967298Y5672499D01*
X14053458Y5787593D01*
X14053462Y5787600D01*
X14103704Y5922307D01*
X14103706Y5922314D01*
X14110107Y5981842D01*
X14110108Y5981859D01*
X14110108Y6629686D01*
X13193120Y6629686D01*
X13226033Y6686693D01*
X13260108Y6813860D01*
X13260108Y6945512D01*
X13226033Y7072679D01*
X13193120Y7129686D01*
X14110108Y7129686D01*
X14110108Y7777514D01*
X14110107Y7777531D01*
X14103706Y7837059D01*
X14103704Y7837066D01*
X14053462Y7971773D01*
X14053458Y7971780D01*
X13967298Y8086874D01*
X13967295Y8086877D01*
X13852201Y8173037D01*
X13852194Y8173041D01*
X13717487Y8223283D01*
X13717480Y8223285D01*
X13657952Y8229686D01*
X13010108Y8229686D01*
X13010108Y7312698D01*
X12953101Y7345611D01*
X12825934Y7379686D01*
X12694282Y7379686D01*
X12567115Y7345611D01*
X12510108Y7312698D01*
X12510108Y8229686D01*
X11862263Y8229686D01*
X11802735Y8223285D01*
X11802728Y8223283D01*
X11668021Y8173041D01*
X11668014Y8173037D01*
X11552920Y8086877D01*
X11552917Y8086874D01*
X11466757Y7971780D01*
X11466754Y7971774D01*
X11417685Y7840215D01*
X11375813Y7784282D01*
X11310349Y7759865D01*
X11242076Y7774717D01*
X11213822Y7795868D01*
X11099894Y7909796D01*
X10927928Y8034735D01*
X10738522Y8131242D01*
X10738521Y8131243D01*
X10738520Y8131243D01*
X10536351Y8196932D01*
X10536349Y8196933D01*
X10536348Y8196933D01*
X10375065Y8222478D01*
X10326395Y8230186D01*
X10113821Y8230186D01*
X10065150Y8222478D01*
X9903868Y8196933D01*
X9701693Y8131242D01*
X9512287Y8034735D01*
X9340321Y7909796D01*
X9189998Y7759473D01*
X9065057Y7587504D01*
X9060592Y7578740D01*
X9012617Y7527944D01*
X8944796Y7511150D01*
X8878661Y7533688D01*
X8839624Y7578740D01*
X8835158Y7587504D01*
X8710217Y7759473D01*
X8559894Y7909796D01*
X8387928Y8034735D01*
X8198522Y8131242D01*
X8198521Y8131243D01*
X8198520Y8131243D01*
X7996351Y8196932D01*
X7996349Y8196933D01*
X7996348Y8196933D01*
X7835065Y8222478D01*
X7786395Y8230186D01*
X7573821Y8230186D01*
X7525150Y8222478D01*
X7363868Y8196933D01*
X7161693Y8131242D01*
X6972287Y8034735D01*
X6800321Y7909796D01*
X6649998Y7759473D01*
X6525057Y7587504D01*
X6520592Y7578740D01*
X6472617Y7527944D01*
X6404796Y7511150D01*
X6338661Y7533688D01*
X6299624Y7578740D01*
X6295158Y7587504D01*
X6170217Y7759473D01*
X6019894Y7909796D01*
X5847928Y8034735D01*
X5658522Y8131242D01*
X5658521Y8131243D01*
X5658520Y8131243D01*
X5456351Y8196932D01*
X5456349Y8196933D01*
X5456348Y8196933D01*
X5295065Y8222478D01*
X5246395Y8230186D01*
X5033821Y8230186D01*
X4985150Y8222478D01*
X4823868Y8196933D01*
X4621693Y8131242D01*
X4432287Y8034735D01*
X4260321Y7909796D01*
X4109998Y7759473D01*
X3985057Y7587504D01*
X3980592Y7578740D01*
X3932617Y7527944D01*
X3864796Y7511150D01*
X3798661Y7533688D01*
X3759624Y7578740D01*
X3755158Y7587504D01*
X3630217Y7759473D01*
X3479894Y7909796D01*
X3307928Y8034735D01*
X3118522Y8131242D01*
X3118521Y8131243D01*
X3118520Y8131243D01*
X2916351Y8196932D01*
X2916349Y8196933D01*
X2916348Y8196933D01*
X2755065Y8222478D01*
X2706395Y8230186D01*
X2493821Y8230186D01*
X2445150Y8222478D01*
X2283868Y8196933D01*
X2081693Y8131242D01*
X1892287Y8034735D01*
X1720321Y7909796D01*
X1569998Y7759473D01*
X1445059Y7587507D01*
X1348552Y7398101D01*
X1282861Y7195926D01*
X1249608Y6985973D01*
X344247Y6985973D01*
X344321Y6992304D01*
X387617Y10672499D01*
X403070Y11985973D01*
X1249608Y11985973D01*
X1249608Y11773400D01*
X1282861Y11563447D01*
X1348552Y11361272D01*
X1445059Y11171866D01*
X1569998Y10999900D01*
X1720321Y10849577D01*
X1892287Y10724638D01*
X1892289Y10724637D01*
X1892292Y10724635D01*
X2081696Y10628129D01*
X2283865Y10562440D01*
X2493821Y10529186D01*
X2493822Y10529186D01*
X2706394Y10529186D01*
X2706395Y10529186D01*
X2916351Y10562440D01*
X3118520Y10628129D01*
X3307924Y10724635D01*
X3394586Y10787598D01*
X3479894Y10849577D01*
X3479896Y10849580D01*
X3479900Y10849582D01*
X3630212Y10999894D01*
X3630214Y10999898D01*
X3630217Y10999900D01*
X3755156Y11171866D01*
X3755155Y11171866D01*
X3755159Y11171870D01*
X3759622Y11180632D01*
X3807596Y11231427D01*
X3875416Y11248223D01*
X3941552Y11225687D01*
X3980594Y11180630D01*
X3985059Y11171866D01*
X4109998Y10999900D01*
X4260321Y10849577D01*
X4432287Y10724638D01*
X4432289Y10724637D01*
X4432292Y10724635D01*
X4621696Y10628129D01*
X4823865Y10562440D01*
X5033821Y10529186D01*
X5033822Y10529186D01*
X5246394Y10529186D01*
X5246395Y10529186D01*
X5456351Y10562440D01*
X5658520Y10628129D01*
X5847924Y10724635D01*
X5934586Y10787598D01*
X6019894Y10849577D01*
X6019896Y10849580D01*
X6019900Y10849582D01*
X6170212Y10999894D01*
X6170214Y10999898D01*
X6170217Y10999900D01*
X6295156Y11171866D01*
X6295155Y11171866D01*
X6295159Y11171870D01*
X6299622Y11180632D01*
X6347596Y11231427D01*
X6415416Y11248223D01*
X6481552Y11225687D01*
X6520594Y11180630D01*
X6525059Y11171866D01*
X6649998Y10999900D01*
X6800321Y10849577D01*
X6972287Y10724638D01*
X6972289Y10724637D01*
X6972292Y10724635D01*
X7161696Y10628129D01*
X7363865Y10562440D01*
X7573821Y10529186D01*
X7573822Y10529186D01*
X7786394Y10529186D01*
X7786395Y10529186D01*
X7996351Y10562440D01*
X8198520Y10628129D01*
X8387924Y10724635D01*
X8474586Y10787598D01*
X8559894Y10849577D01*
X8559896Y10849580D01*
X8559900Y10849582D01*
X8710212Y10999894D01*
X8710214Y10999898D01*
X8710217Y10999900D01*
X8835156Y11171866D01*
X8835155Y11171866D01*
X8835159Y11171870D01*
X8839622Y11180632D01*
X8887596Y11231427D01*
X8955416Y11248223D01*
X9021552Y11225687D01*
X9060594Y11180630D01*
X9065059Y11171866D01*
X9189998Y10999900D01*
X9340321Y10849577D01*
X9512287Y10724638D01*
X9512289Y10724637D01*
X9512292Y10724635D01*
X9701696Y10628129D01*
X9903865Y10562440D01*
X10113821Y10529186D01*
X10113822Y10529186D01*
X10326394Y10529186D01*
X10326395Y10529186D01*
X10536351Y10562440D01*
X10738520Y10628129D01*
X10927924Y10724635D01*
X11014586Y10787598D01*
X11099892Y10849576D01*
X11099892Y10849577D01*
X11099900Y10849582D01*
X11213825Y10963508D01*
X11275144Y10996990D01*
X11344836Y10992006D01*
X11400770Y10950135D01*
X11417685Y10919158D01*
X11466754Y10787598D01*
X11466757Y10787593D01*
X11552917Y10672499D01*
X11552920Y10672496D01*
X11668014Y10586336D01*
X11668021Y10586332D01*
X11802728Y10536090D01*
X11802735Y10536088D01*
X11862263Y10529687D01*
X11862280Y10529686D01*
X12510108Y10529686D01*
X12510108Y11446674D01*
X12567115Y11413761D01*
X12694282Y11379686D01*
X12825934Y11379686D01*
X12953101Y11413761D01*
X13010108Y11446674D01*
X13010108Y10529686D01*
X13657936Y10529686D01*
X13657952Y10529687D01*
X13717480Y10536088D01*
X13717487Y10536090D01*
X13852194Y10586332D01*
X13852201Y10586336D01*
X13967295Y10672496D01*
X13967298Y10672499D01*
X14053458Y10787593D01*
X14053462Y10787600D01*
X14103704Y10922307D01*
X14103706Y10922314D01*
X14110107Y10981842D01*
X14110108Y10981859D01*
X14110108Y11629686D01*
X13193120Y11629686D01*
X13226033Y11686693D01*
X13260108Y11813860D01*
X13260108Y11945512D01*
X13226033Y12072679D01*
X13193120Y12129686D01*
X14110108Y12129686D01*
X14110108Y12777514D01*
X14110107Y12777531D01*
X14103706Y12837059D01*
X14103704Y12837066D01*
X14053462Y12971773D01*
X14053458Y12971780D01*
X13967298Y13086874D01*
X13967295Y13086877D01*
X13852201Y13173037D01*
X13852194Y13173041D01*
X13717487Y13223283D01*
X13717480Y13223285D01*
X13657952Y13229686D01*
X13010108Y13229686D01*
X13010108Y12312698D01*
X12953101Y12345611D01*
X12825934Y12379686D01*
X12694282Y12379686D01*
X12567115Y12345611D01*
X12510108Y12312698D01*
X12510108Y13229686D01*
X11862263Y13229686D01*
X11802735Y13223285D01*
X11802728Y13223283D01*
X11668021Y13173041D01*
X11668014Y13173037D01*
X11552920Y13086877D01*
X11552917Y13086874D01*
X11466757Y12971780D01*
X11466754Y12971774D01*
X11417685Y12840215D01*
X11375813Y12784282D01*
X11310349Y12759865D01*
X11242076Y12774717D01*
X11213822Y12795868D01*
X11099894Y12909796D01*
X10927928Y13034735D01*
X10738522Y13131242D01*
X10738521Y13131243D01*
X10738520Y13131243D01*
X10536351Y13196932D01*
X10536349Y13196933D01*
X10536348Y13196933D01*
X10375065Y13222478D01*
X10326395Y13230186D01*
X10113821Y13230186D01*
X10065150Y13222478D01*
X9903868Y13196933D01*
X9701693Y13131242D01*
X9512287Y13034735D01*
X9340321Y12909796D01*
X9189998Y12759473D01*
X9065057Y12587504D01*
X9060592Y12578740D01*
X9012617Y12527944D01*
X8944796Y12511150D01*
X8878661Y12533688D01*
X8839624Y12578740D01*
X8835158Y12587504D01*
X8710217Y12759473D01*
X8559894Y12909796D01*
X8387928Y13034735D01*
X8198522Y13131242D01*
X8198521Y13131243D01*
X8198520Y13131243D01*
X7996351Y13196932D01*
X7996349Y13196933D01*
X7996348Y13196933D01*
X7835065Y13222478D01*
X7786395Y13230186D01*
X7573821Y13230186D01*
X7525150Y13222478D01*
X7363868Y13196933D01*
X7161693Y13131242D01*
X6972287Y13034735D01*
X6800321Y12909796D01*
X6649998Y12759473D01*
X6525057Y12587504D01*
X6520592Y12578740D01*
X6472617Y12527944D01*
X6404796Y12511150D01*
X6338661Y12533688D01*
X6299624Y12578740D01*
X6295158Y12587504D01*
X6170217Y12759473D01*
X6019894Y12909796D01*
X5847928Y13034735D01*
X5658522Y13131242D01*
X5658521Y13131243D01*
X5658520Y13131243D01*
X5456351Y13196932D01*
X5456349Y13196933D01*
X5456348Y13196933D01*
X5295065Y13222478D01*
X5246395Y13230186D01*
X5033821Y13230186D01*
X4985150Y13222478D01*
X4823868Y13196933D01*
X4621693Y13131242D01*
X4432287Y13034735D01*
X4260321Y12909796D01*
X4109998Y12759473D01*
X3985057Y12587504D01*
X3980592Y12578740D01*
X3932617Y12527944D01*
X3864796Y12511150D01*
X3798661Y12533688D01*
X3759624Y12578740D01*
X3755158Y12587504D01*
X3630217Y12759473D01*
X3479894Y12909796D01*
X3307928Y13034735D01*
X3118522Y13131242D01*
X3118521Y13131243D01*
X3118520Y13131243D01*
X2916351Y13196932D01*
X2916349Y13196933D01*
X2916348Y13196933D01*
X2755065Y13222478D01*
X2706395Y13230186D01*
X2493821Y13230186D01*
X2445150Y13222478D01*
X2283868Y13196933D01*
X2081693Y13131242D01*
X1892287Y13034735D01*
X1720321Y12909796D01*
X1569998Y12759473D01*
X1445059Y12587507D01*
X1348552Y12398101D01*
X1282861Y12195926D01*
X1249608Y11985973D01*
X403070Y11985973D01*
X563878Y25654704D01*
X11534608Y25654704D01*
X11534608Y23854669D01*
X11545108Y23751890D01*
X11600293Y23585354D01*
X11600295Y23585349D01*
X11632034Y23533893D01*
X11692396Y23436030D01*
X11816452Y23311974D01*
X11965773Y23219872D01*
X12132310Y23164687D01*
X12235098Y23154186D01*
X12235103Y23154186D01*
X14035113Y23154186D01*
X14035118Y23154186D01*
X14137906Y23164687D01*
X14304443Y23219872D01*
X14453764Y23311974D01*
X14577820Y23436030D01*
X14669922Y23585351D01*
X14725107Y23751888D01*
X14735608Y23854676D01*
X14735608Y24880648D01*
X21694608Y24880648D01*
X21694608Y24628724D01*
X21718012Y24480957D01*
X21734018Y24379901D01*
X21811868Y24140303D01*
X21883102Y24000501D01*
X21912691Y23942428D01*
X21926240Y23915838D01*
X22074309Y23712037D01*
X22074313Y23712032D01*
X22252453Y23533892D01*
X22252458Y23533888D01*
X22430225Y23404734D01*
X22456263Y23385816D01*
X22599292Y23312939D01*
X22680724Y23271447D01*
X22680726Y23271447D01*
X22680729Y23271445D01*
X22920323Y23193596D01*
X23169146Y23154186D01*
X23169147Y23154186D01*
X23421069Y23154186D01*
X23421070Y23154186D01*
X23669893Y23193596D01*
X23909487Y23271445D01*
X24133953Y23385816D01*
X24337764Y23533893D01*
X24515901Y23712030D01*
X24663978Y23915841D01*
X24774530Y24132813D01*
X24822503Y24183607D01*
X24890324Y24200402D01*
X24956459Y24177865D01*
X24999575Y24123968D01*
X25050710Y24000514D01*
X25050717Y24000501D01*
X25138318Y23869398D01*
X25138321Y23869394D01*
X25249815Y23757900D01*
X25249819Y23757897D01*
X25380922Y23670296D01*
X25380935Y23670289D01*
X25526606Y23609951D01*
X25526611Y23609949D01*
X25650258Y23585354D01*
X25681261Y23579187D01*
X25681264Y23579186D01*
X25681266Y23579186D01*
X25838952Y23579186D01*
X25838953Y23579187D01*
X25993605Y23609949D01*
X26139287Y23670292D01*
X26270397Y23757897D01*
X26381897Y23869397D01*
X26469502Y24000507D01*
X26479299Y24024162D01*
X26506177Y24064389D01*
X27400449Y24958661D01*
X27461770Y24992144D01*
X27531462Y24987160D01*
X27587395Y24945288D01*
X27591230Y24939869D01*
X27638318Y24869398D01*
X27638321Y24869394D01*
X27749815Y24757900D01*
X27749819Y24757897D01*
X27880922Y24670296D01*
X27880935Y24670289D01*
X27968338Y24634087D01*
X28026611Y24609949D01*
X28137824Y24587828D01*
X28154578Y24579064D01*
X28173057Y24575044D01*
X28198093Y24556302D01*
X28199731Y24555445D01*
X28201311Y24553893D01*
X28271124Y24484080D01*
X28271153Y24484049D01*
X28361372Y24393830D01*
X28361375Y24393828D01*
X28397939Y24369397D01*
X28463823Y24325374D01*
X28530505Y24297754D01*
X28577656Y24278223D01*
X28638079Y24266205D01*
X28698501Y24254186D01*
X28698502Y24254186D01*
X29510608Y24254186D01*
X29577647Y24234501D01*
X29623402Y24181697D01*
X29634608Y24130186D01*
X29634608Y22922036D01*
X29614923Y22854997D01*
X29613710Y22853145D01*
X29550717Y22758871D01*
X29550710Y22758858D01*
X29490372Y22613188D01*
X29490369Y22613176D01*
X29459608Y22458533D01*
X29459608Y22300840D01*
X29490369Y22146197D01*
X29490372Y22146185D01*
X29550710Y22000514D01*
X29550717Y22000501D01*
X29638318Y21869398D01*
X29638321Y21869394D01*
X29749815Y21757900D01*
X29749819Y21757897D01*
X29880922Y21670296D01*
X29880935Y21670289D01*
X30026606Y21609951D01*
X30026611Y21609949D01*
X30181261Y21579187D01*
X30181264Y21579186D01*
X30311009Y21579186D01*
X30378048Y21559501D01*
X30423803Y21506697D01*
X30433747Y21437539D01*
X30404722Y21373983D01*
X30398690Y21367505D01*
X30384322Y21353138D01*
X30384323Y21353137D01*
X30279586Y21248400D01*
X30229469Y21161592D01*
X30229467Y21161590D01*
X30200533Y21111477D01*
X30200532Y21111476D01*
X30200531Y21111471D01*
X30159607Y20958743D01*
X30159607Y20958741D01*
X30159607Y20790640D01*
X30159608Y20790627D01*
X30159608Y19959452D01*
X30139923Y19892413D01*
X30138710Y19890561D01*
X30050717Y19758872D01*
X30050710Y19758859D01*
X29990372Y19613188D01*
X29990369Y19613176D01*
X29959608Y19458533D01*
X29959608Y19429186D01*
X29939923Y19362147D01*
X29887119Y19316392D01*
X29835608Y19305186D01*
X29781263Y19305186D01*
X29626618Y19274425D01*
X29626606Y19274422D01*
X29480935Y19214084D01*
X29480922Y19214077D01*
X29349819Y19126476D01*
X29349815Y19126473D01*
X29238321Y19014979D01*
X29238318Y19014975D01*
X29150717Y18883872D01*
X29150710Y18883859D01*
X29090372Y18738188D01*
X29090369Y18738176D01*
X29059608Y18583533D01*
X29059608Y18425840D01*
X29090369Y18271197D01*
X29090372Y18271185D01*
X29150710Y18125514D01*
X29150717Y18125501D01*
X29238318Y17994398D01*
X29238321Y17994394D01*
X29349815Y17882900D01*
X29349819Y17882897D01*
X29480922Y17795296D01*
X29480935Y17795289D01*
X29580168Y17754186D01*
X29626611Y17734949D01*
X29781261Y17704187D01*
X29781264Y17704186D01*
X29781266Y17704186D01*
X29938952Y17704186D01*
X29938953Y17704187D01*
X30015260Y17719366D01*
X30093596Y17734947D01*
X30093597Y17734948D01*
X30093605Y17734949D01*
X30117263Y17744749D01*
X30164712Y17754186D01*
X32510608Y17754186D01*
X32577647Y17734501D01*
X32623402Y17681697D01*
X32634608Y17630186D01*
X32634608Y15629186D01*
X32614923Y15562147D01*
X32562119Y15516392D01*
X32510608Y15505186D01*
X28302458Y15505186D01*
X28235419Y15524871D01*
X28233567Y15526084D01*
X28139292Y15589077D01*
X28139280Y15589084D01*
X27993609Y15649422D01*
X27993597Y15649425D01*
X27838953Y15680186D01*
X27838950Y15680186D01*
X27681266Y15680186D01*
X27681263Y15680186D01*
X27526618Y15649425D01*
X27526606Y15649422D01*
X27380935Y15589084D01*
X27380922Y15589077D01*
X27249819Y15501476D01*
X27249815Y15501473D01*
X27138321Y15389979D01*
X27138318Y15389975D01*
X27050717Y15258872D01*
X27050710Y15258859D01*
X26990372Y15113188D01*
X26990369Y15113176D01*
X26959608Y14958533D01*
X26959608Y14800840D01*
X26990369Y14646197D01*
X26990372Y14646185D01*
X27050710Y14500514D01*
X27050717Y14500501D01*
X27138318Y14369398D01*
X27138321Y14369394D01*
X27249815Y14257900D01*
X27249819Y14257897D01*
X27380922Y14170296D01*
X27380935Y14170289D01*
X27526606Y14109951D01*
X27526611Y14109949D01*
X27681261Y14079187D01*
X27681264Y14079186D01*
X27681266Y14079186D01*
X27838952Y14079186D01*
X27838953Y14079187D01*
X27993605Y14109949D01*
X28139287Y14170292D01*
X28233567Y14233288D01*
X28300244Y14254166D01*
X28302458Y14254186D01*
X33321715Y14254186D01*
X33321716Y14254187D01*
X33442560Y14278223D01*
X33556394Y14325375D01*
X33658841Y14393828D01*
X33745966Y14480953D01*
X33814419Y14583400D01*
X33861571Y14697234D01*
X33885608Y14818080D01*
X33885608Y18441292D01*
X33861571Y18562138D01*
X33814419Y18675972D01*
X33814418Y18675973D01*
X33814415Y18675979D01*
X33745966Y18778419D01*
X33745963Y18778423D01*
X33658844Y18865542D01*
X33658840Y18865545D01*
X33556400Y18933994D01*
X33556391Y18933999D01*
X33442562Y18981148D01*
X33442563Y18981148D01*
X33442560Y18981149D01*
X33442556Y18981150D01*
X33442552Y18981151D01*
X33321718Y19005186D01*
X33321714Y19005186D01*
X31652892Y19005186D01*
X31585853Y19024871D01*
X31540098Y19077675D01*
X31530154Y19146833D01*
X31531275Y19153378D01*
X31560608Y19300842D01*
X31560608Y19458531D01*
X31560607Y19458533D01*
X31529846Y19613176D01*
X31529845Y19613183D01*
X31469502Y19758865D01*
X31457016Y19777551D01*
X56409608Y19777551D01*
X56409608Y17981816D01*
X56409609Y17981810D01*
X56416016Y17922203D01*
X56466310Y17787358D01*
X56466314Y17787351D01*
X56552560Y17672142D01*
X56552563Y17672139D01*
X56667772Y17585893D01*
X56667779Y17585889D01*
X56712726Y17569125D01*
X56802625Y17535595D01*
X56862235Y17529186D01*
X56872793Y17529187D01*
X56939831Y17509507D01*
X56960480Y17492868D01*
X57630699Y16822649D01*
X57567115Y16805611D01*
X57453101Y16739785D01*
X57360009Y16646693D01*
X57294183Y16532679D01*
X57277145Y16469095D01*
X56644836Y17101404D01*
X56644835Y17101404D01*
X56605488Y17047247D01*
X56509012Y16857904D01*
X56443350Y16655817D01*
X56443350Y16655814D01*
X56410108Y16445933D01*
X56410108Y16233440D01*
X56443350Y16023559D01*
X56443350Y16023556D01*
X56509012Y15821469D01*
X56605483Y15632136D01*
X56644836Y15577970D01*
X57277144Y16210279D01*
X57294183Y16146693D01*
X57360009Y16032679D01*
X57453101Y15939587D01*
X57567115Y15873761D01*
X57630698Y15856724D01*
X56998390Y15224417D01*
X56998390Y15224416D01*
X57052557Y15185062D01*
X57241890Y15088591D01*
X57443978Y15022929D01*
X57653862Y14989686D01*
X57866354Y14989686D01*
X58076235Y15022929D01*
X58076238Y15022929D01*
X58278325Y15088591D01*
X58467662Y15185064D01*
X58521824Y15224416D01*
X58521825Y15224416D01*
X57889516Y15856724D01*
X57953101Y15873761D01*
X58067115Y15939587D01*
X58160207Y16032679D01*
X58226033Y16146693D01*
X58243070Y16210278D01*
X58875378Y15577969D01*
X58875378Y15577970D01*
X58914730Y15632132D01*
X59011203Y15821469D01*
X59076865Y16023556D01*
X59076865Y16023559D01*
X59110108Y16233440D01*
X59110108Y16445933D01*
X59076865Y16655814D01*
X59076865Y16655817D01*
X59011203Y16857904D01*
X58914732Y17047237D01*
X58875378Y17101404D01*
X58875377Y17101404D01*
X58243070Y16469096D01*
X58226033Y16532679D01*
X58160207Y16646693D01*
X58067115Y16739785D01*
X57953101Y16805611D01*
X57889517Y16822649D01*
X58559735Y17492868D01*
X58621058Y17526353D01*
X58647415Y17529187D01*
X58657980Y17529187D01*
X58717591Y17535595D01*
X58852439Y17585890D01*
X58967654Y17672140D01*
X59053904Y17787355D01*
X59104199Y17922203D01*
X59110608Y17981813D01*
X59110607Y19777558D01*
X59104199Y19837169D01*
X59083594Y19892413D01*
X59053905Y19972015D01*
X59053901Y19972022D01*
X58967655Y20087231D01*
X58967652Y20087234D01*
X58852443Y20173480D01*
X58852436Y20173484D01*
X58717590Y20223778D01*
X58717591Y20223778D01*
X58657991Y20230185D01*
X58657989Y20230186D01*
X58657981Y20230186D01*
X58657972Y20230186D01*
X56862237Y20230186D01*
X56862231Y20230185D01*
X56802624Y20223778D01*
X56667779Y20173484D01*
X56667772Y20173480D01*
X56552563Y20087234D01*
X56552560Y20087231D01*
X56466314Y19972022D01*
X56466310Y19972015D01*
X56416016Y19837169D01*
X56409609Y19777570D01*
X56409609Y19777563D01*
X56409608Y19777551D01*
X31457016Y19777551D01*
X31381897Y19889975D01*
X31381558Y19890314D01*
X31379029Y19894420D01*
X31370407Y19926007D01*
X31360628Y19957239D01*
X31360608Y19959452D01*
X31360608Y20532711D01*
X31380293Y20599750D01*
X31433097Y20645505D01*
X31460416Y20654328D01*
X31479020Y20658028D01*
X31615602Y20714602D01*
X31738524Y20796734D01*
X32843060Y21901271D01*
X32925192Y22024192D01*
X32981767Y22160774D01*
X33010608Y22305769D01*
X33010608Y22453604D01*
X32981767Y22598599D01*
X32925192Y22735181D01*
X32922861Y22740809D01*
X32923722Y22741167D01*
X32910608Y22793527D01*
X32910608Y23755186D01*
X32930293Y23822225D01*
X32983097Y23867980D01*
X33034608Y23879186D01*
X38772865Y23879186D01*
X38831088Y23890768D01*
X38883886Y23901270D01*
X38966158Y23917635D01*
X39019487Y23939725D01*
X39148236Y23993054D01*
X39312104Y24102547D01*
X39451461Y24241904D01*
X39451462Y24241907D01*
X39458528Y24248972D01*
X39458531Y24248976D01*
X40897886Y25688331D01*
X40897890Y25688333D01*
X41037247Y25827690D01*
X41146740Y25991558D01*
X41171626Y26051639D01*
X41210790Y26146188D01*
X41222157Y26173632D01*
X41222159Y26173636D01*
X41250401Y26315617D01*
X41260608Y26366931D01*
X41260608Y26997784D01*
X44179608Y26997784D01*
X44179608Y26761589D01*
X44216554Y26528318D01*
X44289541Y26303690D01*
X44369793Y26146189D01*
X44396765Y26093253D01*
X44535591Y25902176D01*
X44702598Y25735169D01*
X44893675Y25596343D01*
X44993099Y25545684D01*
X45104111Y25489120D01*
X45104113Y25489120D01*
X45104116Y25489118D01*
X45224520Y25449997D01*
X45328739Y25416133D01*
X45562011Y25379186D01*
X45562016Y25379186D01*
X45798205Y25379186D01*
X46031476Y25416133D01*
X46086446Y25433994D01*
X46256100Y25489118D01*
X46466541Y25596343D01*
X46657618Y25735169D01*
X46824625Y25902176D01*
X46963451Y26093253D01*
X47070676Y26303694D01*
X47143661Y26528318D01*
X47157103Y26613188D01*
X47180608Y26761589D01*
X47180608Y26997784D01*
X47143661Y27231055D01*
X47091222Y27392444D01*
X47070676Y27455678D01*
X47070674Y27455681D01*
X47070674Y27455683D01*
X47002697Y27589094D01*
X46963451Y27666119D01*
X46824625Y27857196D01*
X46754270Y27927551D01*
X49259608Y27927551D01*
X49259608Y25831816D01*
X49259609Y25831810D01*
X49266016Y25772203D01*
X49316310Y25637358D01*
X49316314Y25637351D01*
X49402560Y25522142D01*
X49402563Y25522139D01*
X49517772Y25435893D01*
X49517779Y25435889D01*
X49652625Y25385595D01*
X49652624Y25385595D01*
X49659552Y25384851D01*
X49712235Y25379186D01*
X51807980Y25379187D01*
X51867591Y25385595D01*
X52002439Y25435890D01*
X52117654Y25522140D01*
X52203904Y25637355D01*
X52254199Y25772203D01*
X52260608Y25831813D01*
X52260607Y27927558D01*
X52254199Y27987169D01*
X52240386Y28024203D01*
X52203905Y28122015D01*
X52203901Y28122022D01*
X52117655Y28237231D01*
X52117652Y28237234D01*
X52002443Y28323480D01*
X52002436Y28323484D01*
X51867590Y28373778D01*
X51867591Y28373778D01*
X51807991Y28380185D01*
X51807989Y28380186D01*
X51807981Y28380186D01*
X51807972Y28380186D01*
X49712237Y28380186D01*
X49712231Y28380185D01*
X49652624Y28373778D01*
X49517779Y28323484D01*
X49517772Y28323480D01*
X49402563Y28237234D01*
X49402560Y28237231D01*
X49316314Y28122022D01*
X49316310Y28122015D01*
X49266016Y27987169D01*
X49265212Y27979686D01*
X49259609Y27927563D01*
X49259608Y27927551D01*
X46754270Y27927551D01*
X46657618Y28024203D01*
X46466541Y28163029D01*
X46256104Y28270253D01*
X46031476Y28343240D01*
X45798205Y28380186D01*
X45798200Y28380186D01*
X45562016Y28380186D01*
X45562011Y28380186D01*
X45328739Y28343240D01*
X45104111Y28270253D01*
X44893674Y28163029D01*
X44837227Y28122017D01*
X44702598Y28024203D01*
X44702596Y28024201D01*
X44702595Y28024201D01*
X44535593Y27857199D01*
X44535593Y27857198D01*
X44535591Y27857196D01*
X44514357Y27827970D01*
X44396765Y27666120D01*
X44289541Y27455683D01*
X44216554Y27231055D01*
X44179608Y26997784D01*
X41260608Y26997784D01*
X41260608Y27392441D01*
X41260608Y27392444D01*
X41234355Y27524423D01*
X41222159Y27585735D01*
X41220976Y27588591D01*
X41220788Y27589046D01*
X41220767Y27589094D01*
X41215193Y27602550D01*
X41188863Y27666119D01*
X41146740Y27767814D01*
X41054564Y27905766D01*
X41037248Y27931681D01*
X40981759Y27987170D01*
X40897890Y28071039D01*
X40897889Y28071040D01*
X39958530Y29010398D01*
X39958528Y29010401D01*
X39958528Y29010400D01*
X39951461Y29017467D01*
X39951461Y29017468D01*
X39812104Y29156825D01*
X39812103Y29156826D01*
X39812102Y29156827D01*
X39648242Y29266315D01*
X39648233Y29266320D01*
X39575637Y29296390D01*
X39519487Y29319648D01*
X39466158Y29341737D01*
X39466154Y29341738D01*
X39466150Y29341740D01*
X39369510Y29360962D01*
X39272866Y29380186D01*
X39272863Y29380186D01*
X32661567Y29380186D01*
X32661565Y29380186D01*
X32468278Y29341739D01*
X32468268Y29341736D01*
X32286200Y29266322D01*
X32286187Y29266315D01*
X32122326Y29156826D01*
X32122322Y29156823D01*
X31982971Y29017472D01*
X31982968Y29017468D01*
X31873479Y28853607D01*
X31873472Y28853594D01*
X31798058Y28671526D01*
X31798055Y28671516D01*
X31759608Y28478230D01*
X31759608Y28478227D01*
X31759608Y28281145D01*
X31759608Y28281143D01*
X31759607Y28281143D01*
X31798055Y28087857D01*
X31798058Y28087847D01*
X31873472Y27905779D01*
X31873479Y27905766D01*
X31982968Y27741905D01*
X31982971Y27741901D01*
X32122322Y27602550D01*
X32122326Y27602547D01*
X32286187Y27493058D01*
X32286200Y27493051D01*
X32463126Y27419767D01*
X32468273Y27417635D01*
X32468277Y27417635D01*
X32468278Y27417634D01*
X32661564Y27379186D01*
X32661567Y27379186D01*
X35398877Y27379186D01*
X35420123Y27372948D01*
X35442212Y27371367D01*
X35452994Y27363296D01*
X35465916Y27359501D01*
X35480416Y27342768D01*
X35498145Y27329495D01*
X35502851Y27316875D01*
X35511671Y27306697D01*
X35514822Y27284780D01*
X35522561Y27264031D01*
X35519698Y27250872D01*
X35521615Y27237539D01*
X35512414Y27217394D01*
X35507708Y27195758D01*
X35494440Y27178035D01*
X35492590Y27173983D01*
X35486557Y27167504D01*
X35444810Y27125758D01*
X35404588Y27098881D01*
X35380927Y27089080D01*
X35380926Y27089079D01*
X35249823Y27001479D01*
X35249815Y27001473D01*
X35138321Y26889979D01*
X35138318Y26889975D01*
X35050717Y26758872D01*
X35050710Y26758859D01*
X34990372Y26613188D01*
X34990369Y26613176D01*
X34959608Y26458533D01*
X34959608Y26300840D01*
X34990369Y26146197D01*
X34990371Y26146189D01*
X35029535Y26051639D01*
X35037004Y25982169D01*
X35005729Y25919690D01*
X34945640Y25884038D01*
X34914974Y25880186D01*
X32061565Y25880186D01*
X31868278Y25841739D01*
X31868268Y25841736D01*
X31686200Y25766322D01*
X31686187Y25766315D01*
X31522326Y25656826D01*
X31522322Y25656823D01*
X31382971Y25517472D01*
X31382968Y25517468D01*
X31273479Y25353607D01*
X31273472Y25353594D01*
X31198058Y25171526D01*
X31198055Y25171516D01*
X31159608Y24978230D01*
X31159608Y24978227D01*
X31159608Y24781145D01*
X31159608Y24781143D01*
X31159607Y24781143D01*
X31198055Y24587857D01*
X31198058Y24587847D01*
X31273472Y24405779D01*
X31273479Y24405766D01*
X31386353Y24236839D01*
X31384825Y24235819D01*
X31408774Y24179431D01*
X31409608Y24165076D01*
X31409608Y22641917D01*
X31400963Y22612477D01*
X31394440Y22582490D01*
X31390685Y22577475D01*
X31389923Y22574878D01*
X31373289Y22554236D01*
X31260646Y22441593D01*
X31199323Y22408108D01*
X31129631Y22413092D01*
X31073698Y22454964D01*
X31051348Y22505083D01*
X31032746Y22598599D01*
X31029845Y22613183D01*
X30969502Y22758865D01*
X30906505Y22853147D01*
X30885628Y22919823D01*
X30885608Y22922036D01*
X30885608Y24941293D01*
X30885607Y24941297D01*
X30878261Y24978230D01*
X30861571Y25062138D01*
X30814419Y25175972D01*
X30814418Y25175973D01*
X30814415Y25175979D01*
X30745966Y25278419D01*
X30745963Y25278423D01*
X30658844Y25365542D01*
X30658840Y25365545D01*
X30556400Y25433994D01*
X30556391Y25433999D01*
X30442562Y25481148D01*
X30442563Y25481148D01*
X30442560Y25481149D01*
X30442556Y25481150D01*
X30442552Y25481151D01*
X30321718Y25505186D01*
X30321714Y25505186D01*
X29153091Y25505186D01*
X29086052Y25524871D01*
X29040297Y25577675D01*
X29031474Y25604992D01*
X29029845Y25613183D01*
X29001647Y25681260D01*
X28969505Y25758859D01*
X28969498Y25758872D01*
X28934470Y25811295D01*
X28913592Y25877973D01*
X28932077Y25945353D01*
X28984055Y25992043D01*
X29037572Y26004186D01*
X30905504Y26004186D01*
X30952952Y25994749D01*
X30976611Y25984949D01*
X30976616Y25984948D01*
X30976619Y25984947D01*
X31131261Y25954187D01*
X31131264Y25954186D01*
X31131266Y25954186D01*
X31288952Y25954186D01*
X31288953Y25954187D01*
X31443605Y25984949D01*
X31589287Y26045292D01*
X31720397Y26132897D01*
X31831897Y26244397D01*
X31919502Y26375507D01*
X31979845Y26521189D01*
X32010608Y26675844D01*
X32010608Y26833528D01*
X32010608Y26833531D01*
X32010607Y26833533D01*
X31979846Y26988176D01*
X31979845Y26988183D01*
X31942151Y27079186D01*
X31919505Y27133859D01*
X31919498Y27133872D01*
X31831897Y27264975D01*
X31831894Y27264979D01*
X31720400Y27376473D01*
X31720396Y27376476D01*
X31589293Y27464077D01*
X31589280Y27464084D01*
X31443609Y27524422D01*
X31443597Y27524425D01*
X31288953Y27555186D01*
X31288950Y27555186D01*
X31131266Y27555186D01*
X31131263Y27555186D01*
X30976619Y27524426D01*
X30976614Y27524424D01*
X30976612Y27524424D01*
X30976611Y27524423D01*
X30952952Y27514624D01*
X30905504Y27505186D01*
X28061188Y27505186D01*
X27916200Y27476346D01*
X27916190Y27476343D01*
X27779619Y27419774D01*
X27779606Y27419767D01*
X27656692Y27337638D01*
X27656688Y27337635D01*
X25444811Y25125759D01*
X25404588Y25098881D01*
X25380927Y25089080D01*
X25380926Y25089079D01*
X25249823Y25001479D01*
X25249815Y25001473D01*
X25138321Y24889979D01*
X25138316Y24889973D01*
X25116934Y24857972D01*
X25063322Y24813168D01*
X24993997Y24804461D01*
X24930969Y24834616D01*
X24894251Y24894060D01*
X24891360Y24907466D01*
X24886228Y24939869D01*
X24856198Y25129471D01*
X24778349Y25369065D01*
X24778347Y25369068D01*
X24778347Y25369070D01*
X24702734Y25517468D01*
X24663978Y25593531D01*
X24617992Y25656826D01*
X24515906Y25797336D01*
X24515902Y25797341D01*
X24337762Y25975481D01*
X24337757Y25975485D01*
X24133956Y26123554D01*
X24133955Y26123555D01*
X24133953Y26123556D01*
X24063855Y26159273D01*
X23909491Y26237926D01*
X23669893Y26315776D01*
X23421070Y26355186D01*
X23169146Y26355186D01*
X23102846Y26344685D01*
X22920322Y26315776D01*
X22680724Y26237926D01*
X22456259Y26123554D01*
X22252458Y25975485D01*
X22252453Y25975481D01*
X22074313Y25797341D01*
X22074309Y25797336D01*
X21926240Y25593535D01*
X21811868Y25369070D01*
X21734018Y25129472D01*
X21729173Y25098881D01*
X21694608Y24880648D01*
X14735608Y24880648D01*
X14735608Y25654696D01*
X14725107Y25757484D01*
X14669922Y25924021D01*
X14577820Y26073342D01*
X14453764Y26197398D01*
X14304443Y26289500D01*
X14137906Y26344685D01*
X14137904Y26344686D01*
X14035125Y26355186D01*
X14035118Y26355186D01*
X12235098Y26355186D01*
X12235090Y26355186D01*
X12132311Y26344686D01*
X12132310Y26344685D01*
X12049777Y26317337D01*
X11965775Y26289501D01*
X11965770Y26289499D01*
X11816450Y26197397D01*
X11692397Y26073344D01*
X11600295Y25924024D01*
X11600293Y25924019D01*
X11585768Y25880186D01*
X11545109Y25757484D01*
X11545109Y25757483D01*
X11545108Y25757483D01*
X11534608Y25654704D01*
X563878Y25654704D01*
X602996Y28979703D01*
X2306957Y28979703D01*
X2306957Y27779685D01*
X2306958Y27779668D01*
X2317457Y27676890D01*
X2317458Y27676887D01*
X2357786Y27555186D01*
X2372643Y27510352D01*
X2464745Y27361030D01*
X2588801Y27236974D01*
X2738123Y27144872D01*
X2904660Y27089687D01*
X3007448Y27079186D01*
X4207465Y27079187D01*
X4310254Y27089687D01*
X4476791Y27144872D01*
X4626113Y27236974D01*
X4750169Y27361030D01*
X4842271Y27510352D01*
X4897456Y27676889D01*
X4907957Y27779677D01*
X4907956Y28482004D01*
X5807457Y28482004D01*
X5807457Y28277369D01*
X5839466Y28075269D01*
X5902701Y27880655D01*
X5995598Y27698336D01*
X5995604Y27698327D01*
X6027980Y27653765D01*
X6027981Y27653764D01*
X6707457Y28333240D01*
X6707457Y28327025D01*
X6734716Y28225292D01*
X6787377Y28134080D01*
X6861851Y28059606D01*
X6953063Y28006945D01*
X7054796Y27979686D01*
X7061010Y27979686D01*
X6381533Y27300212D01*
X6426107Y27267827D01*
X6608425Y27174931D01*
X6803039Y27111696D01*
X7005140Y27079686D01*
X7209774Y27079686D01*
X7411874Y27111696D01*
X7606488Y27174931D01*
X7788806Y27267827D01*
X7833378Y27300212D01*
X7153904Y27979686D01*
X7160118Y27979686D01*
X7261851Y28006945D01*
X7353063Y28059606D01*
X7427537Y28134080D01*
X7480198Y28225292D01*
X7507457Y28327025D01*
X7507457Y28333239D01*
X8186931Y27653765D01*
X8219316Y27698337D01*
X8285368Y27827970D01*
X8285369Y27827972D01*
X8312211Y27880652D01*
X8375447Y28075269D01*
X8407457Y28277369D01*
X8407457Y28482004D01*
X8375447Y28684104D01*
X8312211Y28878720D01*
X8304166Y28894509D01*
X8304165Y28894510D01*
X8219316Y29061036D01*
X8186931Y29105609D01*
X8186931Y29105610D01*
X7507457Y28426135D01*
X7507457Y28432347D01*
X7480198Y28534080D01*
X7427537Y28625292D01*
X7353063Y28699766D01*
X7261851Y28752427D01*
X7160118Y28779686D01*
X7153903Y28779686D01*
X7833379Y29459162D01*
X7833378Y29459163D01*
X7788816Y29491539D01*
X7788807Y29491545D01*
X7606488Y29584442D01*
X7411874Y29647677D01*
X7209774Y29679686D01*
X7005140Y29679686D01*
X6803039Y29647677D01*
X6608425Y29584442D01*
X6426101Y29491543D01*
X6381534Y29459163D01*
X6381534Y29459162D01*
X7061011Y28779686D01*
X7054796Y28779686D01*
X6953063Y28752427D01*
X6861851Y28699766D01*
X6787377Y28625292D01*
X6734716Y28534080D01*
X6707457Y28432347D01*
X6707457Y28426133D01*
X6027981Y29105609D01*
X6027980Y29105609D01*
X5995600Y29061042D01*
X5902701Y28878718D01*
X5839466Y28684104D01*
X5807457Y28482004D01*
X4907956Y28482004D01*
X4907956Y28979694D01*
X4897456Y29082483D01*
X4842271Y29249020D01*
X4831603Y29266315D01*
X4781957Y29346805D01*
X4781956Y29346806D01*
X4775111Y29357904D01*
X4750169Y29398342D01*
X4626113Y29522398D01*
X4476791Y29614500D01*
X4310254Y29669685D01*
X4310252Y29669686D01*
X4207467Y29680186D01*
X3007455Y29680186D01*
X3007438Y29680185D01*
X2904660Y29669686D01*
X2904657Y29669685D01*
X2738125Y29614501D01*
X2738120Y29614499D01*
X2588799Y29522397D01*
X2464746Y29398344D01*
X2372644Y29249023D01*
X2372643Y29249020D01*
X2317458Y29082483D01*
X2317458Y29082482D01*
X2317457Y29082482D01*
X2306957Y28979703D01*
X602996Y28979703D01*
X641794Y32277551D01*
X19909608Y32277551D01*
X19909608Y30481816D01*
X19909609Y30481810D01*
X19916016Y30422203D01*
X19966310Y30287358D01*
X19966314Y30287351D01*
X20052560Y30172142D01*
X20052563Y30172139D01*
X20167772Y30085893D01*
X20167779Y30085889D01*
X20212726Y30069125D01*
X20302625Y30035595D01*
X20362235Y30029186D01*
X20372793Y30029187D01*
X20439831Y30009507D01*
X20460480Y29992868D01*
X21130699Y29322649D01*
X21067115Y29305611D01*
X20953101Y29239785D01*
X20860009Y29146693D01*
X20794183Y29032679D01*
X20777145Y28969095D01*
X20144836Y29601404D01*
X20144835Y29601404D01*
X20105488Y29547247D01*
X20009012Y29357904D01*
X19943350Y29155817D01*
X19943350Y29155814D01*
X19910108Y28945933D01*
X19910108Y28733440D01*
X19943350Y28523559D01*
X19943350Y28523556D01*
X20009012Y28321469D01*
X20105483Y28132136D01*
X20144836Y28077970D01*
X20777145Y28710278D01*
X20794183Y28646693D01*
X20860009Y28532679D01*
X20953101Y28439587D01*
X21067115Y28373761D01*
X21130698Y28356724D01*
X20498390Y27724417D01*
X20498390Y27724416D01*
X20552557Y27685062D01*
X20741890Y27588591D01*
X20943978Y27522929D01*
X21153862Y27489686D01*
X21366354Y27489686D01*
X21576235Y27522929D01*
X21576238Y27522929D01*
X21778325Y27588591D01*
X21967662Y27685064D01*
X22021824Y27724416D01*
X22021825Y27724416D01*
X21389516Y28356724D01*
X21453101Y28373761D01*
X21567115Y28439587D01*
X21660207Y28532679D01*
X21726033Y28646693D01*
X21743070Y28710277D01*
X22375378Y28077969D01*
X22375378Y28077970D01*
X22414730Y28132132D01*
X22511203Y28321469D01*
X22576865Y28523556D01*
X22576865Y28523559D01*
X22610108Y28733440D01*
X22610108Y28945933D01*
X22576865Y29155814D01*
X22576865Y29155817D01*
X22511203Y29357904D01*
X22414732Y29547237D01*
X22375378Y29601404D01*
X22375377Y29601404D01*
X21743070Y28969096D01*
X21726033Y29032679D01*
X21660207Y29146693D01*
X21567115Y29239785D01*
X21453101Y29305611D01*
X21389517Y29322649D01*
X22059735Y29992868D01*
X22121058Y30026353D01*
X22147415Y30029187D01*
X22157980Y30029187D01*
X22217591Y30035595D01*
X22352439Y30085890D01*
X22467654Y30172140D01*
X22553904Y30287355D01*
X22604199Y30422203D01*
X22610608Y30481813D01*
X22610607Y32277558D01*
X22604199Y32337169D01*
X22553904Y32472017D01*
X22553903Y32472018D01*
X22553901Y32472022D01*
X22467655Y32587231D01*
X22467652Y32587234D01*
X22352443Y32673480D01*
X22352436Y32673484D01*
X22217590Y32723778D01*
X22217591Y32723778D01*
X22157991Y32730185D01*
X22157989Y32730186D01*
X22157981Y32730186D01*
X22157972Y32730186D01*
X20362237Y32730186D01*
X20362231Y32730185D01*
X20302624Y32723778D01*
X20167779Y32673484D01*
X20167772Y32673480D01*
X20052563Y32587234D01*
X20052560Y32587231D01*
X19966314Y32472022D01*
X19966310Y32472015D01*
X19916016Y32337169D01*
X19910122Y32282339D01*
X19909609Y32277563D01*
X19909608Y32277551D01*
X641794Y32277551D01*
X703023Y37482004D01*
X43960108Y37482004D01*
X43960108Y37277369D01*
X43992117Y37075269D01*
X44055352Y36880655D01*
X44148249Y36698336D01*
X44148255Y36698327D01*
X44180631Y36653765D01*
X44180632Y36653764D01*
X44860108Y37333240D01*
X44860108Y37327025D01*
X44887367Y37225292D01*
X44940028Y37134080D01*
X45014502Y37059606D01*
X45105714Y37006945D01*
X45207447Y36979686D01*
X45213661Y36979686D01*
X44534184Y36300212D01*
X44578758Y36267827D01*
X44761076Y36174931D01*
X44955690Y36111696D01*
X45157791Y36079686D01*
X45362425Y36079686D01*
X45564525Y36111696D01*
X45759139Y36174931D01*
X45941457Y36267827D01*
X45986029Y36300212D01*
X45306555Y36979686D01*
X45312769Y36979686D01*
X45414502Y37006945D01*
X45505714Y37059606D01*
X45580188Y37134080D01*
X45632849Y37225292D01*
X45660108Y37327025D01*
X45660108Y37333239D01*
X46339582Y36653765D01*
X46371967Y36698337D01*
X46464863Y36880655D01*
X46528098Y37075269D01*
X46560108Y37277369D01*
X46560108Y37482004D01*
X46528098Y37684104D01*
X46464862Y37878721D01*
X46440489Y37926556D01*
X46440488Y37926557D01*
X46413409Y37979703D01*
X47459608Y37979703D01*
X47459608Y36779685D01*
X47459609Y36779668D01*
X47470108Y36676890D01*
X47470109Y36676887D01*
X47525293Y36510355D01*
X47525294Y36510352D01*
X47617396Y36361030D01*
X47741452Y36236974D01*
X47890774Y36144872D01*
X48057311Y36089687D01*
X48160099Y36079186D01*
X49360116Y36079187D01*
X49462905Y36089687D01*
X49629442Y36144872D01*
X49778764Y36236974D01*
X49902820Y36361030D01*
X49994922Y36510352D01*
X50050107Y36676889D01*
X50060608Y36779677D01*
X50060607Y37979694D01*
X50050107Y38082483D01*
X49994922Y38249020D01*
X49902820Y38398342D01*
X49778764Y38522398D01*
X49629442Y38614500D01*
X49462905Y38669685D01*
X49462903Y38669686D01*
X49360118Y38680186D01*
X48160106Y38680186D01*
X48160089Y38680185D01*
X48057311Y38669686D01*
X48057308Y38669685D01*
X47890776Y38614501D01*
X47890771Y38614499D01*
X47741450Y38522397D01*
X47617397Y38398344D01*
X47525295Y38249023D01*
X47525294Y38249020D01*
X47470109Y38082483D01*
X47470109Y38082482D01*
X47470108Y38082482D01*
X47459608Y37979703D01*
X46413409Y37979703D01*
X46371967Y38061036D01*
X46339582Y38105609D01*
X46339582Y38105610D01*
X45660108Y37426135D01*
X45660108Y37432347D01*
X45632849Y37534080D01*
X45580188Y37625292D01*
X45505714Y37699766D01*
X45414502Y37752427D01*
X45312769Y37779686D01*
X45306554Y37779686D01*
X45986030Y38459162D01*
X45986029Y38459163D01*
X45941467Y38491539D01*
X45941458Y38491545D01*
X45759139Y38584442D01*
X45564525Y38647677D01*
X45362425Y38679686D01*
X45157791Y38679686D01*
X44955690Y38647677D01*
X44761076Y38584442D01*
X44578752Y38491543D01*
X44534185Y38459163D01*
X44534185Y38459162D01*
X45213662Y37779686D01*
X45207447Y37779686D01*
X45105714Y37752427D01*
X45014502Y37699766D01*
X44940028Y37625292D01*
X44887367Y37534080D01*
X44860108Y37432347D01*
X44860108Y37426133D01*
X44180632Y38105609D01*
X44180631Y38105609D01*
X44148251Y38061042D01*
X44055352Y37878718D01*
X43992117Y37684104D01*
X43960108Y37482004D01*
X703023Y37482004D01*
X753313Y41756647D01*
X773784Y41823448D01*
X827123Y41868579D01*
X877304Y41879186D01*
X59635608Y41879186D01*
X59702647Y41859501D01*
G37*
%TD.AperFunction*%
%TD*%
M02*
