%TF.GenerationSoftware,KiCad,Pcbnew,10.0.0*%
%TF.CreationDate,2026-04-15T12:15:48+01:00*%
%TF.ProjectId,LTC1871_Based_Boost_Controller_V2,4c544331-3837-4315-9f42-617365645f42,rev?*%
%TF.SameCoordinates,Original*%
%TF.FileFunction,Copper,L2,Bot*%
%TF.FilePolarity,Positive*%
%FSLAX46Y46*%
G04 Gerber Fmt 4.6, Leading zero omitted, Abs format (unit mm)*
G04 Created by KiCad (PCBNEW 10.0.0) date 2026-04-15 12:15:48*
%MOMM*%
%LPD*%
G01*
G04 APERTURE LIST*
G04 Aperture macros list*
%AMRoundRect*
0 Rectangle with rounded corners*
0 $1 Rounding radius*
0 $2 $3 $4 $5 $6 $7 $8 $9 X,Y pos of 4 corners*
0 Add a 4 corners polygon primitive as box body*
4,1,4,$2,$3,$4,$5,$6,$7,$8,$9,$2,$3,0*
0 Add four circle primitives for the rounded corners*
1,1,$1+$1,$2,$3*
1,1,$1+$1,$4,$5*
1,1,$1+$1,$6,$7*
1,1,$1+$1,$8,$9*
0 Add four rect primitives between the rounded corners*
20,1,$1+$1,$2,$3,$4,$5,0*
20,1,$1+$1,$4,$5,$6,$7,0*
20,1,$1+$1,$6,$7,$8,$9,0*
20,1,$1+$1,$8,$9,$2,$3,0*%
G04 Aperture macros list end*
%TA.AperFunction,ComponentPad*%
%ADD10R,1.700000X1.700000*%
%TD*%
%TA.AperFunction,ComponentPad*%
%ADD11C,1.700000*%
%TD*%
%TA.AperFunction,ComponentPad*%
%ADD12RoundRect,0.250000X-0.550000X-0.550000X0.550000X-0.550000X0.550000X0.550000X-0.550000X0.550000X0*%
%TD*%
%TA.AperFunction,ComponentPad*%
%ADD13C,1.600000*%
%TD*%
%TA.AperFunction,ComponentPad*%
%ADD14R,2.000000X2.000000*%
%TD*%
%TA.AperFunction,ComponentPad*%
%ADD15C,2.000000*%
%TD*%
%TA.AperFunction,ViaPad*%
%ADD16C,0.600000*%
%TD*%
%TA.AperFunction,Conductor*%
%ADD17C,0.250000*%
%TD*%
G04 APERTURE END LIST*
D10*
%TO.P,J5,1,Pin_1_1*%
%TO.N,GND*%
X133000000Y-116000000D03*
D11*
%TO.P,J5,2,Pin_2_2*%
%TO.N,Net-(D1-K)*%
X130460000Y-116000000D03*
%TO.P,J5,3,Pin_3_3*%
%TO.N,unconnected-(J5-Pin_3-Pad3)*%
X127920000Y-116000000D03*
%TO.P,J5,4,Pin_4_4*%
%TO.N,unconnected-(J5-Pin_4-Pad4)*%
X125380000Y-116000000D03*
%TO.P,J5,5,Pin_5_5*%
%TO.N,unconnected-(J5-Pin_5-Pad5)*%
X122840000Y-116000000D03*
%TD*%
D10*
%TO.P,J_VIN1,1,Pin_1_1*%
%TO.N,Net-(J3-Pin_2)*%
X141500000Y-87000000D03*
D11*
%TO.P,J_VIN1,2,Pin_2_2*%
%TO.N,GND*%
X141500000Y-89540000D03*
%TD*%
D10*
%TO.P,J2,1,Pin_1_1*%
%TO.N,Net-(D1-K)*%
X178000000Y-99500000D03*
D11*
%TO.P,J2,2,Pin_2_2*%
%TO.N,GND*%
X178000000Y-102040000D03*
%TD*%
D10*
%TO.P,J4,1,Pin_1_1*%
%TO.N,GND*%
X133000000Y-111500000D03*
D11*
%TO.P,J4,2,Pin_2_2*%
%TO.N,unconnected-(J4-Pin_2-Pad2)*%
X130460000Y-111500000D03*
%TO.P,J4,3,Pin_3_3*%
%TO.N,unconnected-(J4-Pin_3-Pad3)*%
X127920000Y-111500000D03*
%TO.P,J4,4,Pin_4_4*%
%TO.N,unconnected-(J4-Pin_4-Pad4)*%
X125380000Y-111500000D03*
%TO.P,J4,5,Pin_5_5*%
%TO.N,unconnected-(J4-Pin_5-Pad5)*%
X122840000Y-111500000D03*
%TD*%
D10*
%TO.P,J3,1,Pin_1_1*%
%TO.N,GND*%
X133000000Y-106500000D03*
D11*
%TO.P,J3,2,Pin_2_2*%
%TO.N,Net-(J3-Pin_2)*%
X130460000Y-106500000D03*
%TO.P,J3,3,Pin_3_3*%
%TO.N,unconnected-(J3-Pin_3-Pad3)*%
X127920000Y-106500000D03*
%TO.P,J3,4,Pin_4_4*%
%TO.N,unconnected-(J3-Pin_4-Pad4)*%
X125380000Y-106500000D03*
%TO.P,J3,5,Pin_5_5*%
%TO.N,unconnected-(J3-Pin_5-Pad5)*%
X122840000Y-106500000D03*
%TD*%
D12*
%TO.P,C1,1*%
%TO.N,Net-(J3-Pin_2)*%
X123847349Y-90000000D03*
D13*
%TO.P,C1,2*%
%TO.N,GND*%
X127347349Y-90000000D03*
%TD*%
D14*
%TO.P,D1,1,K_1*%
%TO.N,Net-(D1-K)*%
X171000000Y-91500000D03*
D15*
%TO.P,D1,2,A_2*%
%TO.N,Net-(D1-A)*%
X165920000Y-91500000D03*
%TD*%
D16*
%TO.N,Net-(D1-A)*%
X148000000Y-103500000D03*
%TO.N,GND*%
X137500000Y-90000000D03*
X147500000Y-113000000D03*
X148500000Y-93000000D03*
X162500000Y-112500000D03*
X160500000Y-117500000D03*
X167500000Y-112500000D03*
X132000000Y-100000000D03*
X166500000Y-106500000D03*
X172000000Y-98500000D03*
X136500000Y-102500000D03*
X152000000Y-102500000D03*
X143500000Y-102500000D03*
X157000000Y-97500000D03*
X165500000Y-117500000D03*
X149000000Y-116500000D03*
X129000000Y-101500000D03*
X158000000Y-112500000D03*
X148000000Y-97500000D03*
%TO.N,Net-(D1-A)*%
X150100000Y-99875000D03*
%TD*%
%TO.N,Net-(D1-A)*%
D17*
X148000000Y-103500000D02*
X153500000Y-103500000D01*
X150225000Y-100000000D02*
X150100000Y-99875000D01*
X153500000Y-100000000D02*
X150225000Y-100000000D01*
X153500000Y-103500000D02*
X153500000Y-100000000D01*
%TD*%
%TA.AperFunction,Conductor*%
%TO.N,GND*%
G36*
X179942539Y-76520185D02*
G01*
X179988294Y-76572989D01*
X179999500Y-76624500D01*
X179999500Y-117875500D01*
X179979815Y-117942539D01*
X179927011Y-117988294D01*
X179875500Y-117999500D01*
X120631890Y-117999500D01*
X120564851Y-117979815D01*
X120519096Y-117927011D01*
X120507899Y-117874041D01*
X120531198Y-115893713D01*
X121489500Y-115893713D01*
X121489500Y-116106286D01*
X121522753Y-116316239D01*
X121588444Y-116518414D01*
X121684951Y-116707820D01*
X121809890Y-116879786D01*
X121960213Y-117030109D01*
X122132179Y-117155048D01*
X122132181Y-117155049D01*
X122132184Y-117155051D01*
X122321588Y-117251557D01*
X122523757Y-117317246D01*
X122733713Y-117350500D01*
X122733714Y-117350500D01*
X122946286Y-117350500D01*
X122946287Y-117350500D01*
X123156243Y-117317246D01*
X123358412Y-117251557D01*
X123547816Y-117155051D01*
X123634478Y-117092088D01*
X123719786Y-117030109D01*
X123719788Y-117030106D01*
X123719792Y-117030104D01*
X123870104Y-116879792D01*
X123870106Y-116879788D01*
X123870109Y-116879786D01*
X123995048Y-116707820D01*
X123995047Y-116707820D01*
X123995051Y-116707816D01*
X123999514Y-116699054D01*
X124047488Y-116648259D01*
X124115308Y-116631463D01*
X124181444Y-116653999D01*
X124220486Y-116699056D01*
X124224951Y-116707820D01*
X124349890Y-116879786D01*
X124500213Y-117030109D01*
X124672179Y-117155048D01*
X124672181Y-117155049D01*
X124672184Y-117155051D01*
X124861588Y-117251557D01*
X125063757Y-117317246D01*
X125273713Y-117350500D01*
X125273714Y-117350500D01*
X125486286Y-117350500D01*
X125486287Y-117350500D01*
X125696243Y-117317246D01*
X125898412Y-117251557D01*
X126087816Y-117155051D01*
X126174478Y-117092088D01*
X126259786Y-117030109D01*
X126259788Y-117030106D01*
X126259792Y-117030104D01*
X126410104Y-116879792D01*
X126410106Y-116879788D01*
X126410109Y-116879786D01*
X126535048Y-116707820D01*
X126535047Y-116707820D01*
X126535051Y-116707816D01*
X126539514Y-116699054D01*
X126587488Y-116648259D01*
X126655308Y-116631463D01*
X126721444Y-116653999D01*
X126760486Y-116699056D01*
X126764951Y-116707820D01*
X126889890Y-116879786D01*
X127040213Y-117030109D01*
X127212179Y-117155048D01*
X127212181Y-117155049D01*
X127212184Y-117155051D01*
X127401588Y-117251557D01*
X127603757Y-117317246D01*
X127813713Y-117350500D01*
X127813714Y-117350500D01*
X128026286Y-117350500D01*
X128026287Y-117350500D01*
X128236243Y-117317246D01*
X128438412Y-117251557D01*
X128627816Y-117155051D01*
X128714478Y-117092088D01*
X128799786Y-117030109D01*
X128799788Y-117030106D01*
X128799792Y-117030104D01*
X128950104Y-116879792D01*
X128950106Y-116879788D01*
X128950109Y-116879786D01*
X129075048Y-116707820D01*
X129075047Y-116707820D01*
X129075051Y-116707816D01*
X129079514Y-116699054D01*
X129127488Y-116648259D01*
X129195308Y-116631463D01*
X129261444Y-116653999D01*
X129300486Y-116699056D01*
X129304951Y-116707820D01*
X129429890Y-116879786D01*
X129580213Y-117030109D01*
X129752179Y-117155048D01*
X129752181Y-117155049D01*
X129752184Y-117155051D01*
X129941588Y-117251557D01*
X130143757Y-117317246D01*
X130353713Y-117350500D01*
X130353714Y-117350500D01*
X130566286Y-117350500D01*
X130566287Y-117350500D01*
X130776243Y-117317246D01*
X130978412Y-117251557D01*
X131167816Y-117155051D01*
X131254478Y-117092088D01*
X131339784Y-117030110D01*
X131339784Y-117030109D01*
X131339792Y-117030104D01*
X131453717Y-116916178D01*
X131515036Y-116882696D01*
X131584728Y-116887680D01*
X131640662Y-116929551D01*
X131657577Y-116960528D01*
X131706646Y-117092088D01*
X131706649Y-117092093D01*
X131792809Y-117207187D01*
X131792812Y-117207190D01*
X131907906Y-117293350D01*
X131907913Y-117293354D01*
X132042620Y-117343596D01*
X132042627Y-117343598D01*
X132102155Y-117349999D01*
X132102172Y-117350000D01*
X132750000Y-117350000D01*
X132750000Y-116433012D01*
X132807007Y-116465925D01*
X132934174Y-116500000D01*
X133065826Y-116500000D01*
X133192993Y-116465925D01*
X133250000Y-116433012D01*
X133250000Y-117350000D01*
X133897828Y-117350000D01*
X133897844Y-117349999D01*
X133957372Y-117343598D01*
X133957379Y-117343596D01*
X134092086Y-117293354D01*
X134092093Y-117293350D01*
X134207187Y-117207190D01*
X134207190Y-117207187D01*
X134293350Y-117092093D01*
X134293354Y-117092086D01*
X134343596Y-116957379D01*
X134343598Y-116957372D01*
X134349999Y-116897844D01*
X134350000Y-116897827D01*
X134350000Y-116250000D01*
X133433012Y-116250000D01*
X133465925Y-116192993D01*
X133500000Y-116065826D01*
X133500000Y-115934174D01*
X133465925Y-115807007D01*
X133433012Y-115750000D01*
X134350000Y-115750000D01*
X134350000Y-115102172D01*
X134349999Y-115102155D01*
X134343598Y-115042627D01*
X134343596Y-115042620D01*
X134293354Y-114907913D01*
X134293350Y-114907906D01*
X134207190Y-114792812D01*
X134207187Y-114792809D01*
X134092093Y-114706649D01*
X134092086Y-114706645D01*
X133957379Y-114656403D01*
X133957372Y-114656401D01*
X133897844Y-114650000D01*
X133250000Y-114650000D01*
X133250000Y-115566988D01*
X133192993Y-115534075D01*
X133065826Y-115500000D01*
X132934174Y-115500000D01*
X132807007Y-115534075D01*
X132750000Y-115566988D01*
X132750000Y-114650000D01*
X132102155Y-114650000D01*
X132042627Y-114656401D01*
X132042620Y-114656403D01*
X131907913Y-114706645D01*
X131907906Y-114706649D01*
X131792812Y-114792809D01*
X131792809Y-114792812D01*
X131706649Y-114907906D01*
X131706646Y-114907912D01*
X131657577Y-115039471D01*
X131615705Y-115095404D01*
X131550241Y-115119821D01*
X131481968Y-115104969D01*
X131453714Y-115083818D01*
X131339786Y-114969890D01*
X131167820Y-114844951D01*
X130978414Y-114748444D01*
X130978413Y-114748443D01*
X130978412Y-114748443D01*
X130776243Y-114682754D01*
X130776241Y-114682753D01*
X130776240Y-114682753D01*
X130614957Y-114657208D01*
X130566287Y-114649500D01*
X130353713Y-114649500D01*
X130305042Y-114657208D01*
X130143760Y-114682753D01*
X129941585Y-114748444D01*
X129752179Y-114844951D01*
X129580213Y-114969890D01*
X129429890Y-115120213D01*
X129304949Y-115292182D01*
X129300484Y-115300946D01*
X129252509Y-115351742D01*
X129184688Y-115368536D01*
X129118553Y-115345998D01*
X129079516Y-115300946D01*
X129075050Y-115292182D01*
X128950109Y-115120213D01*
X128799786Y-114969890D01*
X128627820Y-114844951D01*
X128438414Y-114748444D01*
X128438413Y-114748443D01*
X128438412Y-114748443D01*
X128236243Y-114682754D01*
X128236241Y-114682753D01*
X128236240Y-114682753D01*
X128074957Y-114657208D01*
X128026287Y-114649500D01*
X127813713Y-114649500D01*
X127765042Y-114657208D01*
X127603760Y-114682753D01*
X127401585Y-114748444D01*
X127212179Y-114844951D01*
X127040213Y-114969890D01*
X126889890Y-115120213D01*
X126764949Y-115292182D01*
X126760484Y-115300946D01*
X126712509Y-115351742D01*
X126644688Y-115368536D01*
X126578553Y-115345998D01*
X126539516Y-115300946D01*
X126535050Y-115292182D01*
X126410109Y-115120213D01*
X126259786Y-114969890D01*
X126087820Y-114844951D01*
X125898414Y-114748444D01*
X125898413Y-114748443D01*
X125898412Y-114748443D01*
X125696243Y-114682754D01*
X125696241Y-114682753D01*
X125696240Y-114682753D01*
X125534957Y-114657208D01*
X125486287Y-114649500D01*
X125273713Y-114649500D01*
X125225042Y-114657208D01*
X125063760Y-114682753D01*
X124861585Y-114748444D01*
X124672179Y-114844951D01*
X124500213Y-114969890D01*
X124349890Y-115120213D01*
X124224949Y-115292182D01*
X124220484Y-115300946D01*
X124172509Y-115351742D01*
X124104688Y-115368536D01*
X124038553Y-115345998D01*
X123999516Y-115300946D01*
X123995050Y-115292182D01*
X123870109Y-115120213D01*
X123719786Y-114969890D01*
X123547820Y-114844951D01*
X123358414Y-114748444D01*
X123358413Y-114748443D01*
X123358412Y-114748443D01*
X123156243Y-114682754D01*
X123156241Y-114682753D01*
X123156240Y-114682753D01*
X122994957Y-114657208D01*
X122946287Y-114649500D01*
X122733713Y-114649500D01*
X122685042Y-114657208D01*
X122523760Y-114682753D01*
X122321585Y-114748444D01*
X122132179Y-114844951D01*
X121960213Y-114969890D01*
X121809890Y-115120213D01*
X121684951Y-115292179D01*
X121588444Y-115481585D01*
X121522753Y-115683760D01*
X121489500Y-115893713D01*
X120531198Y-115893713D01*
X120531272Y-115887382D01*
X120584139Y-111393713D01*
X121489500Y-111393713D01*
X121489500Y-111606286D01*
X121522753Y-111816239D01*
X121588444Y-112018414D01*
X121684951Y-112207820D01*
X121809890Y-112379786D01*
X121960213Y-112530109D01*
X122132179Y-112655048D01*
X122132181Y-112655049D01*
X122132184Y-112655051D01*
X122321588Y-112751557D01*
X122523757Y-112817246D01*
X122733713Y-112850500D01*
X122733714Y-112850500D01*
X122946286Y-112850500D01*
X122946287Y-112850500D01*
X123156243Y-112817246D01*
X123358412Y-112751557D01*
X123547816Y-112655051D01*
X123634478Y-112592088D01*
X123719786Y-112530109D01*
X123719788Y-112530106D01*
X123719792Y-112530104D01*
X123870104Y-112379792D01*
X123870106Y-112379788D01*
X123870109Y-112379786D01*
X123995048Y-112207820D01*
X123995047Y-112207820D01*
X123995051Y-112207816D01*
X123999514Y-112199054D01*
X124047488Y-112148259D01*
X124115308Y-112131463D01*
X124181444Y-112153999D01*
X124220486Y-112199056D01*
X124224951Y-112207820D01*
X124349890Y-112379786D01*
X124500213Y-112530109D01*
X124672179Y-112655048D01*
X124672181Y-112655049D01*
X124672184Y-112655051D01*
X124861588Y-112751557D01*
X125063757Y-112817246D01*
X125273713Y-112850500D01*
X125273714Y-112850500D01*
X125486286Y-112850500D01*
X125486287Y-112850500D01*
X125696243Y-112817246D01*
X125898412Y-112751557D01*
X126087816Y-112655051D01*
X126174478Y-112592088D01*
X126259786Y-112530109D01*
X126259788Y-112530106D01*
X126259792Y-112530104D01*
X126410104Y-112379792D01*
X126410106Y-112379788D01*
X126410109Y-112379786D01*
X126535048Y-112207820D01*
X126535047Y-112207820D01*
X126535051Y-112207816D01*
X126539514Y-112199054D01*
X126587488Y-112148259D01*
X126655308Y-112131463D01*
X126721444Y-112153999D01*
X126760486Y-112199056D01*
X126764951Y-112207820D01*
X126889890Y-112379786D01*
X127040213Y-112530109D01*
X127212179Y-112655048D01*
X127212181Y-112655049D01*
X127212184Y-112655051D01*
X127401588Y-112751557D01*
X127603757Y-112817246D01*
X127813713Y-112850500D01*
X127813714Y-112850500D01*
X128026286Y-112850500D01*
X128026287Y-112850500D01*
X128236243Y-112817246D01*
X128438412Y-112751557D01*
X128627816Y-112655051D01*
X128714478Y-112592088D01*
X128799786Y-112530109D01*
X128799788Y-112530106D01*
X128799792Y-112530104D01*
X128950104Y-112379792D01*
X128950106Y-112379788D01*
X128950109Y-112379786D01*
X129075048Y-112207820D01*
X129075047Y-112207820D01*
X129075051Y-112207816D01*
X129079514Y-112199054D01*
X129127488Y-112148259D01*
X129195308Y-112131463D01*
X129261444Y-112153999D01*
X129300486Y-112199056D01*
X129304951Y-112207820D01*
X129429890Y-112379786D01*
X129580213Y-112530109D01*
X129752179Y-112655048D01*
X129752181Y-112655049D01*
X129752184Y-112655051D01*
X129941588Y-112751557D01*
X130143757Y-112817246D01*
X130353713Y-112850500D01*
X130353714Y-112850500D01*
X130566286Y-112850500D01*
X130566287Y-112850500D01*
X130776243Y-112817246D01*
X130978412Y-112751557D01*
X131167816Y-112655051D01*
X131254478Y-112592088D01*
X131339784Y-112530110D01*
X131339784Y-112530109D01*
X131339792Y-112530104D01*
X131453717Y-112416178D01*
X131515036Y-112382696D01*
X131584728Y-112387680D01*
X131640662Y-112429551D01*
X131657577Y-112460528D01*
X131706646Y-112592088D01*
X131706649Y-112592093D01*
X131792809Y-112707187D01*
X131792812Y-112707190D01*
X131907906Y-112793350D01*
X131907913Y-112793354D01*
X132042620Y-112843596D01*
X132042627Y-112843598D01*
X132102155Y-112849999D01*
X132102172Y-112850000D01*
X132750000Y-112850000D01*
X132750000Y-111933012D01*
X132807007Y-111965925D01*
X132934174Y-112000000D01*
X133065826Y-112000000D01*
X133192993Y-111965925D01*
X133250000Y-111933012D01*
X133250000Y-112850000D01*
X133897828Y-112850000D01*
X133897844Y-112849999D01*
X133957372Y-112843598D01*
X133957379Y-112843596D01*
X134092086Y-112793354D01*
X134092093Y-112793350D01*
X134207187Y-112707190D01*
X134207190Y-112707187D01*
X134293350Y-112592093D01*
X134293354Y-112592086D01*
X134343596Y-112457379D01*
X134343598Y-112457372D01*
X134349999Y-112397844D01*
X134350000Y-112397827D01*
X134350000Y-111750000D01*
X133433012Y-111750000D01*
X133465925Y-111692993D01*
X133500000Y-111565826D01*
X133500000Y-111434174D01*
X133465925Y-111307007D01*
X133433012Y-111250000D01*
X134350000Y-111250000D01*
X134350000Y-110602172D01*
X134349999Y-110602155D01*
X134343598Y-110542627D01*
X134343596Y-110542620D01*
X134293354Y-110407913D01*
X134293350Y-110407906D01*
X134207190Y-110292812D01*
X134207187Y-110292809D01*
X134092093Y-110206649D01*
X134092086Y-110206645D01*
X133957379Y-110156403D01*
X133957372Y-110156401D01*
X133897844Y-110150000D01*
X133250000Y-110150000D01*
X133250000Y-111066988D01*
X133192993Y-111034075D01*
X133065826Y-111000000D01*
X132934174Y-111000000D01*
X132807007Y-111034075D01*
X132750000Y-111066988D01*
X132750000Y-110150000D01*
X132102155Y-110150000D01*
X132042627Y-110156401D01*
X132042620Y-110156403D01*
X131907913Y-110206645D01*
X131907906Y-110206649D01*
X131792812Y-110292809D01*
X131792809Y-110292812D01*
X131706649Y-110407906D01*
X131706646Y-110407912D01*
X131657577Y-110539471D01*
X131615705Y-110595404D01*
X131550241Y-110619821D01*
X131481968Y-110604969D01*
X131453714Y-110583818D01*
X131339786Y-110469890D01*
X131167820Y-110344951D01*
X130978414Y-110248444D01*
X130978413Y-110248443D01*
X130978412Y-110248443D01*
X130776243Y-110182754D01*
X130776241Y-110182753D01*
X130776240Y-110182753D01*
X130614957Y-110157208D01*
X130566287Y-110149500D01*
X130353713Y-110149500D01*
X130305042Y-110157208D01*
X130143760Y-110182753D01*
X129941585Y-110248444D01*
X129752179Y-110344951D01*
X129580213Y-110469890D01*
X129429890Y-110620213D01*
X129304949Y-110792182D01*
X129300484Y-110800946D01*
X129252509Y-110851742D01*
X129184688Y-110868536D01*
X129118553Y-110845998D01*
X129079516Y-110800946D01*
X129075050Y-110792182D01*
X128950109Y-110620213D01*
X128799786Y-110469890D01*
X128627820Y-110344951D01*
X128438414Y-110248444D01*
X128438413Y-110248443D01*
X128438412Y-110248443D01*
X128236243Y-110182754D01*
X128236241Y-110182753D01*
X128236240Y-110182753D01*
X128074957Y-110157208D01*
X128026287Y-110149500D01*
X127813713Y-110149500D01*
X127765042Y-110157208D01*
X127603760Y-110182753D01*
X127401585Y-110248444D01*
X127212179Y-110344951D01*
X127040213Y-110469890D01*
X126889890Y-110620213D01*
X126764949Y-110792182D01*
X126760484Y-110800946D01*
X126712509Y-110851742D01*
X126644688Y-110868536D01*
X126578553Y-110845998D01*
X126539516Y-110800946D01*
X126535050Y-110792182D01*
X126410109Y-110620213D01*
X126259786Y-110469890D01*
X126087820Y-110344951D01*
X125898414Y-110248444D01*
X125898413Y-110248443D01*
X125898412Y-110248443D01*
X125696243Y-110182754D01*
X125696241Y-110182753D01*
X125696240Y-110182753D01*
X125534957Y-110157208D01*
X125486287Y-110149500D01*
X125273713Y-110149500D01*
X125225042Y-110157208D01*
X125063760Y-110182753D01*
X124861585Y-110248444D01*
X124672179Y-110344951D01*
X124500213Y-110469890D01*
X124349890Y-110620213D01*
X124224949Y-110792182D01*
X124220484Y-110800946D01*
X124172509Y-110851742D01*
X124104688Y-110868536D01*
X124038553Y-110845998D01*
X123999516Y-110800946D01*
X123995050Y-110792182D01*
X123870109Y-110620213D01*
X123719786Y-110469890D01*
X123547820Y-110344951D01*
X123358414Y-110248444D01*
X123358413Y-110248443D01*
X123358412Y-110248443D01*
X123156243Y-110182754D01*
X123156241Y-110182753D01*
X123156240Y-110182753D01*
X122994957Y-110157208D01*
X122946287Y-110149500D01*
X122733713Y-110149500D01*
X122685042Y-110157208D01*
X122523760Y-110182753D01*
X122321585Y-110248444D01*
X122132179Y-110344951D01*
X121960213Y-110469890D01*
X121809890Y-110620213D01*
X121684951Y-110792179D01*
X121588444Y-110981585D01*
X121522753Y-111183760D01*
X121489500Y-111393713D01*
X120584139Y-111393713D01*
X120584213Y-111387382D01*
X120627509Y-107707187D01*
X120642962Y-106393713D01*
X121489500Y-106393713D01*
X121489500Y-106606286D01*
X121522753Y-106816239D01*
X121588444Y-107018414D01*
X121684951Y-107207820D01*
X121809890Y-107379786D01*
X121960213Y-107530109D01*
X122132179Y-107655048D01*
X122132181Y-107655049D01*
X122132184Y-107655051D01*
X122321588Y-107751557D01*
X122523757Y-107817246D01*
X122733713Y-107850500D01*
X122733714Y-107850500D01*
X122946286Y-107850500D01*
X122946287Y-107850500D01*
X123156243Y-107817246D01*
X123358412Y-107751557D01*
X123547816Y-107655051D01*
X123634478Y-107592088D01*
X123719786Y-107530109D01*
X123719788Y-107530106D01*
X123719792Y-107530104D01*
X123870104Y-107379792D01*
X123870106Y-107379788D01*
X123870109Y-107379786D01*
X123995048Y-107207820D01*
X123995047Y-107207820D01*
X123995051Y-107207816D01*
X123999514Y-107199054D01*
X124047488Y-107148259D01*
X124115308Y-107131463D01*
X124181444Y-107153999D01*
X124220486Y-107199056D01*
X124224951Y-107207820D01*
X124349890Y-107379786D01*
X124500213Y-107530109D01*
X124672179Y-107655048D01*
X124672181Y-107655049D01*
X124672184Y-107655051D01*
X124861588Y-107751557D01*
X125063757Y-107817246D01*
X125273713Y-107850500D01*
X125273714Y-107850500D01*
X125486286Y-107850500D01*
X125486287Y-107850500D01*
X125696243Y-107817246D01*
X125898412Y-107751557D01*
X126087816Y-107655051D01*
X126174478Y-107592088D01*
X126259786Y-107530109D01*
X126259788Y-107530106D01*
X126259792Y-107530104D01*
X126410104Y-107379792D01*
X126410106Y-107379788D01*
X126410109Y-107379786D01*
X126535048Y-107207820D01*
X126535047Y-107207820D01*
X126535051Y-107207816D01*
X126539514Y-107199054D01*
X126587488Y-107148259D01*
X126655308Y-107131463D01*
X126721444Y-107153999D01*
X126760486Y-107199056D01*
X126764951Y-107207820D01*
X126889890Y-107379786D01*
X127040213Y-107530109D01*
X127212179Y-107655048D01*
X127212181Y-107655049D01*
X127212184Y-107655051D01*
X127401588Y-107751557D01*
X127603757Y-107817246D01*
X127813713Y-107850500D01*
X127813714Y-107850500D01*
X128026286Y-107850500D01*
X128026287Y-107850500D01*
X128236243Y-107817246D01*
X128438412Y-107751557D01*
X128627816Y-107655051D01*
X128714478Y-107592088D01*
X128799786Y-107530109D01*
X128799788Y-107530106D01*
X128799792Y-107530104D01*
X128950104Y-107379792D01*
X128950106Y-107379788D01*
X128950109Y-107379786D01*
X129075048Y-107207820D01*
X129075047Y-107207820D01*
X129075051Y-107207816D01*
X129079514Y-107199054D01*
X129127488Y-107148259D01*
X129195308Y-107131463D01*
X129261444Y-107153999D01*
X129300486Y-107199056D01*
X129304951Y-107207820D01*
X129429890Y-107379786D01*
X129580213Y-107530109D01*
X129752179Y-107655048D01*
X129752181Y-107655049D01*
X129752184Y-107655051D01*
X129941588Y-107751557D01*
X130143757Y-107817246D01*
X130353713Y-107850500D01*
X130353714Y-107850500D01*
X130566286Y-107850500D01*
X130566287Y-107850500D01*
X130776243Y-107817246D01*
X130978412Y-107751557D01*
X131167816Y-107655051D01*
X131254478Y-107592088D01*
X131339784Y-107530110D01*
X131339784Y-107530109D01*
X131339792Y-107530104D01*
X131453717Y-107416178D01*
X131515036Y-107382696D01*
X131584728Y-107387680D01*
X131640662Y-107429551D01*
X131657577Y-107460528D01*
X131706646Y-107592088D01*
X131706649Y-107592093D01*
X131792809Y-107707187D01*
X131792812Y-107707190D01*
X131907906Y-107793350D01*
X131907913Y-107793354D01*
X132042620Y-107843596D01*
X132042627Y-107843598D01*
X132102155Y-107849999D01*
X132102172Y-107850000D01*
X132750000Y-107850000D01*
X132750000Y-106933012D01*
X132807007Y-106965925D01*
X132934174Y-107000000D01*
X133065826Y-107000000D01*
X133192993Y-106965925D01*
X133250000Y-106933012D01*
X133250000Y-107850000D01*
X133897828Y-107850000D01*
X133897844Y-107849999D01*
X133957372Y-107843598D01*
X133957379Y-107843596D01*
X134092086Y-107793354D01*
X134092093Y-107793350D01*
X134207187Y-107707190D01*
X134207190Y-107707187D01*
X134293350Y-107592093D01*
X134293354Y-107592086D01*
X134343596Y-107457379D01*
X134343598Y-107457372D01*
X134349999Y-107397844D01*
X134350000Y-107397827D01*
X134350000Y-106750000D01*
X133433012Y-106750000D01*
X133465925Y-106692993D01*
X133500000Y-106565826D01*
X133500000Y-106434174D01*
X133465925Y-106307007D01*
X133433012Y-106250000D01*
X134350000Y-106250000D01*
X134350000Y-105602172D01*
X134349999Y-105602155D01*
X134343598Y-105542627D01*
X134343596Y-105542620D01*
X134293354Y-105407913D01*
X134293350Y-105407906D01*
X134207190Y-105292812D01*
X134207187Y-105292809D01*
X134092093Y-105206649D01*
X134092086Y-105206645D01*
X133957379Y-105156403D01*
X133957372Y-105156401D01*
X133897844Y-105150000D01*
X133250000Y-105150000D01*
X133250000Y-106066988D01*
X133192993Y-106034075D01*
X133065826Y-106000000D01*
X132934174Y-106000000D01*
X132807007Y-106034075D01*
X132750000Y-106066988D01*
X132750000Y-105150000D01*
X132102155Y-105150000D01*
X132042627Y-105156401D01*
X132042620Y-105156403D01*
X131907913Y-105206645D01*
X131907906Y-105206649D01*
X131792812Y-105292809D01*
X131792809Y-105292812D01*
X131706649Y-105407906D01*
X131706646Y-105407912D01*
X131657577Y-105539471D01*
X131615705Y-105595404D01*
X131550241Y-105619821D01*
X131481968Y-105604969D01*
X131453714Y-105583818D01*
X131339786Y-105469890D01*
X131167820Y-105344951D01*
X130978414Y-105248444D01*
X130978413Y-105248443D01*
X130978412Y-105248443D01*
X130776243Y-105182754D01*
X130776241Y-105182753D01*
X130776240Y-105182753D01*
X130614957Y-105157208D01*
X130566287Y-105149500D01*
X130353713Y-105149500D01*
X130305042Y-105157208D01*
X130143760Y-105182753D01*
X129941585Y-105248444D01*
X129752179Y-105344951D01*
X129580213Y-105469890D01*
X129429890Y-105620213D01*
X129304949Y-105792182D01*
X129300484Y-105800946D01*
X129252509Y-105851742D01*
X129184688Y-105868536D01*
X129118553Y-105845998D01*
X129079516Y-105800946D01*
X129075050Y-105792182D01*
X128950109Y-105620213D01*
X128799786Y-105469890D01*
X128627820Y-105344951D01*
X128438414Y-105248444D01*
X128438413Y-105248443D01*
X128438412Y-105248443D01*
X128236243Y-105182754D01*
X128236241Y-105182753D01*
X128236240Y-105182753D01*
X128074957Y-105157208D01*
X128026287Y-105149500D01*
X127813713Y-105149500D01*
X127765042Y-105157208D01*
X127603760Y-105182753D01*
X127401585Y-105248444D01*
X127212179Y-105344951D01*
X127040213Y-105469890D01*
X126889890Y-105620213D01*
X126764949Y-105792182D01*
X126760484Y-105800946D01*
X126712509Y-105851742D01*
X126644688Y-105868536D01*
X126578553Y-105845998D01*
X126539516Y-105800946D01*
X126535050Y-105792182D01*
X126410109Y-105620213D01*
X126259786Y-105469890D01*
X126087820Y-105344951D01*
X125898414Y-105248444D01*
X125898413Y-105248443D01*
X125898412Y-105248443D01*
X125696243Y-105182754D01*
X125696241Y-105182753D01*
X125696240Y-105182753D01*
X125534957Y-105157208D01*
X125486287Y-105149500D01*
X125273713Y-105149500D01*
X125225042Y-105157208D01*
X125063760Y-105182753D01*
X124861585Y-105248444D01*
X124672179Y-105344951D01*
X124500213Y-105469890D01*
X124349890Y-105620213D01*
X124224949Y-105792182D01*
X124220484Y-105800946D01*
X124172509Y-105851742D01*
X124104688Y-105868536D01*
X124038553Y-105845998D01*
X123999516Y-105800946D01*
X123995050Y-105792182D01*
X123870109Y-105620213D01*
X123719786Y-105469890D01*
X123547820Y-105344951D01*
X123358414Y-105248444D01*
X123358413Y-105248443D01*
X123358412Y-105248443D01*
X123156243Y-105182754D01*
X123156241Y-105182753D01*
X123156240Y-105182753D01*
X122994957Y-105157208D01*
X122946287Y-105149500D01*
X122733713Y-105149500D01*
X122685042Y-105157208D01*
X122523760Y-105182753D01*
X122321585Y-105248444D01*
X122132179Y-105344951D01*
X121960213Y-105469890D01*
X121809890Y-105620213D01*
X121684951Y-105792179D01*
X121588444Y-105981585D01*
X121522753Y-106183760D01*
X121489500Y-106393713D01*
X120642962Y-106393713D01*
X120669929Y-104101463D01*
X120677933Y-103421153D01*
X147199500Y-103421153D01*
X147199500Y-103578846D01*
X147230261Y-103733489D01*
X147230264Y-103733501D01*
X147290602Y-103879172D01*
X147290609Y-103879185D01*
X147378210Y-104010288D01*
X147378213Y-104010292D01*
X147489707Y-104121786D01*
X147489711Y-104121789D01*
X147620814Y-104209390D01*
X147620827Y-104209397D01*
X147766498Y-104269735D01*
X147766503Y-104269737D01*
X147921153Y-104300499D01*
X147921156Y-104300500D01*
X147921158Y-104300500D01*
X148078844Y-104300500D01*
X148078845Y-104300499D01*
X148233497Y-104269737D01*
X148379179Y-104209394D01*
X148473459Y-104146398D01*
X148540136Y-104125520D01*
X148542350Y-104125500D01*
X153561607Y-104125500D01*
X153561608Y-104125499D01*
X153682452Y-104101463D01*
X153796286Y-104054311D01*
X153898733Y-103985858D01*
X153985858Y-103898733D01*
X154054311Y-103796286D01*
X154101463Y-103682452D01*
X154125500Y-103561606D01*
X154125500Y-99938394D01*
X154101463Y-99817548D01*
X154054311Y-99703714D01*
X154054310Y-99703713D01*
X154054307Y-99703707D01*
X153985858Y-99601267D01*
X153985855Y-99601263D01*
X153898736Y-99514144D01*
X153898732Y-99514141D01*
X153796292Y-99445692D01*
X153796283Y-99445687D01*
X153682454Y-99398538D01*
X153682455Y-99398538D01*
X153682452Y-99398537D01*
X153682448Y-99398536D01*
X153682444Y-99398535D01*
X153561610Y-99374500D01*
X153561606Y-99374500D01*
X150782940Y-99374500D01*
X150715901Y-99354815D01*
X150695263Y-99338185D01*
X150610289Y-99253211D01*
X150610288Y-99253210D01*
X150610287Y-99253209D01*
X150479185Y-99165609D01*
X150479172Y-99165602D01*
X150333501Y-99105264D01*
X150333489Y-99105261D01*
X150178845Y-99074500D01*
X150178842Y-99074500D01*
X150021158Y-99074500D01*
X150021155Y-99074500D01*
X149866510Y-99105261D01*
X149866498Y-99105264D01*
X149720827Y-99165602D01*
X149720814Y-99165609D01*
X149589711Y-99253210D01*
X149589707Y-99253213D01*
X149478213Y-99364707D01*
X149478210Y-99364711D01*
X149390609Y-99495814D01*
X149390602Y-99495827D01*
X149330264Y-99641498D01*
X149330261Y-99641510D01*
X149299500Y-99796153D01*
X149299500Y-99953846D01*
X149330261Y-100108489D01*
X149330264Y-100108501D01*
X149390602Y-100254172D01*
X149390609Y-100254185D01*
X149478210Y-100385288D01*
X149478213Y-100385292D01*
X149589707Y-100496786D01*
X149589711Y-100496789D01*
X149720814Y-100584390D01*
X149720827Y-100584397D01*
X149820060Y-100625500D01*
X149866503Y-100644737D01*
X150021153Y-100675499D01*
X150021156Y-100675500D01*
X150021158Y-100675500D01*
X150178844Y-100675500D01*
X150178845Y-100675499D01*
X150255152Y-100660320D01*
X150333488Y-100644739D01*
X150333489Y-100644738D01*
X150333497Y-100644737D01*
X150357155Y-100634937D01*
X150404604Y-100625500D01*
X152750500Y-100625500D01*
X152817539Y-100645185D01*
X152863294Y-100697989D01*
X152874500Y-100749500D01*
X152874500Y-102750500D01*
X152854815Y-102817539D01*
X152802011Y-102863294D01*
X152750500Y-102874500D01*
X148542350Y-102874500D01*
X148475311Y-102854815D01*
X148473459Y-102853602D01*
X148379184Y-102790609D01*
X148379172Y-102790602D01*
X148233501Y-102730264D01*
X148233489Y-102730261D01*
X148078845Y-102699500D01*
X148078842Y-102699500D01*
X147921158Y-102699500D01*
X147921155Y-102699500D01*
X147766510Y-102730261D01*
X147766498Y-102730264D01*
X147620827Y-102790602D01*
X147620814Y-102790609D01*
X147489711Y-102878210D01*
X147489707Y-102878213D01*
X147378213Y-102989707D01*
X147378210Y-102989711D01*
X147290609Y-103120814D01*
X147290602Y-103120827D01*
X147230264Y-103266498D01*
X147230261Y-103266510D01*
X147199500Y-103421153D01*
X120677933Y-103421153D01*
X120678022Y-103413607D01*
X120734628Y-98602135D01*
X176649500Y-98602135D01*
X176649500Y-100397870D01*
X176649501Y-100397876D01*
X176655908Y-100457483D01*
X176706202Y-100592328D01*
X176706206Y-100592335D01*
X176792452Y-100707544D01*
X176792455Y-100707547D01*
X176907664Y-100793793D01*
X176907671Y-100793797D01*
X176952618Y-100810561D01*
X177042517Y-100844091D01*
X177102127Y-100850500D01*
X177112685Y-100850499D01*
X177179723Y-100870179D01*
X177200372Y-100886818D01*
X177870591Y-101557037D01*
X177807007Y-101574075D01*
X177692993Y-101639901D01*
X177599901Y-101732993D01*
X177534075Y-101847007D01*
X177517037Y-101910591D01*
X176884728Y-101278282D01*
X176884727Y-101278282D01*
X176845380Y-101332439D01*
X176748904Y-101521782D01*
X176683242Y-101723869D01*
X176683242Y-101723872D01*
X176650000Y-101933753D01*
X176650000Y-102146246D01*
X176683242Y-102356127D01*
X176683242Y-102356130D01*
X176748904Y-102558217D01*
X176845375Y-102747550D01*
X176884728Y-102801716D01*
X177517036Y-102169407D01*
X177534075Y-102232993D01*
X177599901Y-102347007D01*
X177692993Y-102440099D01*
X177807007Y-102505925D01*
X177870590Y-102522962D01*
X177238282Y-103155269D01*
X177238282Y-103155270D01*
X177292449Y-103194624D01*
X177481782Y-103291095D01*
X177683870Y-103356757D01*
X177893754Y-103390000D01*
X178106246Y-103390000D01*
X178316127Y-103356757D01*
X178316130Y-103356757D01*
X178518217Y-103291095D01*
X178707554Y-103194622D01*
X178761716Y-103155270D01*
X178761717Y-103155270D01*
X178129408Y-102522962D01*
X178192993Y-102505925D01*
X178307007Y-102440099D01*
X178400099Y-102347007D01*
X178465925Y-102232993D01*
X178482962Y-102169408D01*
X179115270Y-102801717D01*
X179115270Y-102801716D01*
X179154622Y-102747554D01*
X179251095Y-102558217D01*
X179316757Y-102356130D01*
X179316757Y-102356127D01*
X179350000Y-102146246D01*
X179350000Y-101933753D01*
X179316757Y-101723872D01*
X179316757Y-101723869D01*
X179251095Y-101521782D01*
X179154624Y-101332449D01*
X179115270Y-101278282D01*
X179115269Y-101278282D01*
X178482962Y-101910590D01*
X178465925Y-101847007D01*
X178400099Y-101732993D01*
X178307007Y-101639901D01*
X178192993Y-101574075D01*
X178129409Y-101557037D01*
X178799627Y-100886818D01*
X178860950Y-100853333D01*
X178887307Y-100850499D01*
X178897872Y-100850499D01*
X178957483Y-100844091D01*
X179092331Y-100793796D01*
X179207546Y-100707546D01*
X179293796Y-100592331D01*
X179344091Y-100457483D01*
X179350500Y-100397873D01*
X179350499Y-98602128D01*
X179344091Y-98542517D01*
X179293796Y-98407669D01*
X179293795Y-98407668D01*
X179293793Y-98407664D01*
X179207547Y-98292455D01*
X179207544Y-98292452D01*
X179092335Y-98206206D01*
X179092328Y-98206202D01*
X178957482Y-98155908D01*
X178957483Y-98155908D01*
X178897883Y-98149501D01*
X178897881Y-98149500D01*
X178897873Y-98149500D01*
X178897864Y-98149500D01*
X177102129Y-98149500D01*
X177102123Y-98149501D01*
X177042516Y-98155908D01*
X176907671Y-98206202D01*
X176907664Y-98206206D01*
X176792455Y-98292452D01*
X176792452Y-98292455D01*
X176706206Y-98407664D01*
X176706202Y-98407671D01*
X176655908Y-98542517D01*
X176650014Y-98597347D01*
X176649501Y-98602123D01*
X176649500Y-98602135D01*
X120734628Y-98602135D01*
X120734684Y-98597347D01*
X120800529Y-93000498D01*
X120819571Y-91381902D01*
X164419500Y-91381902D01*
X164419500Y-91618097D01*
X164456446Y-91851368D01*
X164529433Y-92075996D01*
X164636657Y-92286433D01*
X164775483Y-92477510D01*
X164942490Y-92644517D01*
X165133567Y-92783343D01*
X165232991Y-92834002D01*
X165344003Y-92890566D01*
X165344005Y-92890566D01*
X165344008Y-92890568D01*
X165464412Y-92929689D01*
X165568631Y-92963553D01*
X165801903Y-93000500D01*
X165801908Y-93000500D01*
X166038097Y-93000500D01*
X166271368Y-92963553D01*
X166495992Y-92890568D01*
X166706433Y-92783343D01*
X166897510Y-92644517D01*
X167064517Y-92477510D01*
X167203343Y-92286433D01*
X167310568Y-92075992D01*
X167383553Y-91851368D01*
X167420500Y-91618097D01*
X167420500Y-91381902D01*
X167383553Y-91148631D01*
X167341321Y-91018655D01*
X167310568Y-90924008D01*
X167310566Y-90924005D01*
X167310566Y-90924003D01*
X167209638Y-90725922D01*
X167203343Y-90713567D01*
X167064517Y-90522490D01*
X166994162Y-90452135D01*
X169499500Y-90452135D01*
X169499500Y-92547870D01*
X169499501Y-92547876D01*
X169505908Y-92607483D01*
X169556202Y-92742328D01*
X169556206Y-92742335D01*
X169642452Y-92857544D01*
X169642455Y-92857547D01*
X169757664Y-92943793D01*
X169757671Y-92943797D01*
X169892517Y-92994091D01*
X169892516Y-92994091D01*
X169899444Y-92994835D01*
X169952127Y-93000500D01*
X172047872Y-93000499D01*
X172107483Y-92994091D01*
X172242331Y-92943796D01*
X172357546Y-92857546D01*
X172443796Y-92742331D01*
X172494091Y-92607483D01*
X172500500Y-92547873D01*
X172500499Y-90452128D01*
X172494091Y-90392517D01*
X172480278Y-90355483D01*
X172443797Y-90257671D01*
X172443793Y-90257664D01*
X172357547Y-90142455D01*
X172357544Y-90142452D01*
X172242335Y-90056206D01*
X172242328Y-90056202D01*
X172107482Y-90005908D01*
X172107483Y-90005908D01*
X172047883Y-89999501D01*
X172047881Y-89999500D01*
X172047873Y-89999500D01*
X172047864Y-89999500D01*
X169952129Y-89999500D01*
X169952123Y-89999501D01*
X169892516Y-90005908D01*
X169757671Y-90056202D01*
X169757664Y-90056206D01*
X169642455Y-90142452D01*
X169642452Y-90142455D01*
X169556206Y-90257664D01*
X169556202Y-90257671D01*
X169505908Y-90392517D01*
X169505104Y-90400000D01*
X169499501Y-90452123D01*
X169499500Y-90452135D01*
X166994162Y-90452135D01*
X166897510Y-90355483D01*
X166706433Y-90216657D01*
X166495996Y-90109433D01*
X166271368Y-90036446D01*
X166038097Y-89999500D01*
X166038092Y-89999500D01*
X165801908Y-89999500D01*
X165801903Y-89999500D01*
X165568631Y-90036446D01*
X165344003Y-90109433D01*
X165133566Y-90216657D01*
X165077119Y-90257669D01*
X164942490Y-90355483D01*
X164942488Y-90355485D01*
X164942487Y-90355485D01*
X164775485Y-90522487D01*
X164775485Y-90522488D01*
X164775483Y-90522490D01*
X164754249Y-90551716D01*
X164636657Y-90713566D01*
X164529433Y-90924003D01*
X164456446Y-91148631D01*
X164419500Y-91381902D01*
X120819571Y-91381902D01*
X120842888Y-89399983D01*
X122546849Y-89399983D01*
X122546849Y-90600001D01*
X122546850Y-90600018D01*
X122557349Y-90702796D01*
X122557350Y-90702799D01*
X122586609Y-90791095D01*
X122612535Y-90869334D01*
X122704637Y-91018656D01*
X122828693Y-91142712D01*
X122978015Y-91234814D01*
X123144552Y-91289999D01*
X123247340Y-91300500D01*
X124447357Y-91300499D01*
X124550146Y-91289999D01*
X124716683Y-91234814D01*
X124866005Y-91142712D01*
X124990061Y-91018656D01*
X125082163Y-90869334D01*
X125137348Y-90702797D01*
X125147849Y-90600009D01*
X125147848Y-89897682D01*
X126047349Y-89897682D01*
X126047349Y-90102317D01*
X126079358Y-90304417D01*
X126142593Y-90499031D01*
X126235490Y-90681350D01*
X126235496Y-90681359D01*
X126267872Y-90725921D01*
X126267873Y-90725922D01*
X126947349Y-90046446D01*
X126947349Y-90052661D01*
X126974608Y-90154394D01*
X127027269Y-90245606D01*
X127101743Y-90320080D01*
X127192955Y-90372741D01*
X127294688Y-90400000D01*
X127300902Y-90400000D01*
X126621425Y-91079474D01*
X126665999Y-91111859D01*
X126848317Y-91204755D01*
X127042931Y-91267990D01*
X127245032Y-91300000D01*
X127449666Y-91300000D01*
X127651767Y-91267989D01*
X127651770Y-91267989D01*
X127679111Y-91259105D01*
X127679112Y-91259105D01*
X127846380Y-91204755D01*
X128028698Y-91111859D01*
X128073270Y-91079474D01*
X127393796Y-90400000D01*
X127400010Y-90400000D01*
X127501743Y-90372741D01*
X127592955Y-90320080D01*
X127667429Y-90245606D01*
X127720090Y-90154394D01*
X127747349Y-90052661D01*
X127747349Y-90046447D01*
X128426823Y-90725921D01*
X128459208Y-90681349D01*
X128525260Y-90551716D01*
X128525261Y-90551714D01*
X128552103Y-90499034D01*
X128615339Y-90304417D01*
X128647349Y-90102317D01*
X128647349Y-89897682D01*
X128615339Y-89695582D01*
X128552103Y-89500966D01*
X128544058Y-89485177D01*
X128544057Y-89485176D01*
X128459208Y-89318650D01*
X128426823Y-89274077D01*
X128426823Y-89274076D01*
X127747349Y-89953551D01*
X127747349Y-89947339D01*
X127720090Y-89845606D01*
X127667429Y-89754394D01*
X127592955Y-89679920D01*
X127501743Y-89627259D01*
X127400010Y-89600000D01*
X127393795Y-89600000D01*
X128073271Y-88920524D01*
X128073270Y-88920523D01*
X128028708Y-88888147D01*
X128028699Y-88888141D01*
X127846380Y-88795244D01*
X127651766Y-88732009D01*
X127449666Y-88700000D01*
X127245032Y-88700000D01*
X127042931Y-88732009D01*
X126848317Y-88795244D01*
X126665993Y-88888143D01*
X126621426Y-88920523D01*
X126621426Y-88920524D01*
X127300903Y-89600000D01*
X127294688Y-89600000D01*
X127192955Y-89627259D01*
X127101743Y-89679920D01*
X127027269Y-89754394D01*
X126974608Y-89845606D01*
X126947349Y-89947339D01*
X126947349Y-89953553D01*
X126267873Y-89274077D01*
X126267872Y-89274077D01*
X126235492Y-89318644D01*
X126142593Y-89500968D01*
X126079358Y-89695582D01*
X126047349Y-89897682D01*
X125147848Y-89897682D01*
X125147848Y-89399992D01*
X125137348Y-89297203D01*
X125082163Y-89130666D01*
X124990061Y-88981344D01*
X124866005Y-88857288D01*
X124716683Y-88765186D01*
X124550146Y-88710001D01*
X124550144Y-88710000D01*
X124447359Y-88699500D01*
X123247347Y-88699500D01*
X123247330Y-88699501D01*
X123144552Y-88710000D01*
X123144549Y-88710001D01*
X122978017Y-88765185D01*
X122978012Y-88765187D01*
X122828691Y-88857289D01*
X122704638Y-88981342D01*
X122612536Y-89130663D01*
X122612535Y-89130666D01*
X122557350Y-89297203D01*
X122557350Y-89297204D01*
X122557349Y-89297204D01*
X122546849Y-89399983D01*
X120842888Y-89399983D01*
X120881686Y-86102135D01*
X140149500Y-86102135D01*
X140149500Y-87897870D01*
X140149501Y-87897876D01*
X140155908Y-87957483D01*
X140206202Y-88092328D01*
X140206206Y-88092335D01*
X140292452Y-88207544D01*
X140292455Y-88207547D01*
X140407664Y-88293793D01*
X140407671Y-88293797D01*
X140452618Y-88310561D01*
X140542517Y-88344091D01*
X140602127Y-88350500D01*
X140612685Y-88350499D01*
X140679723Y-88370179D01*
X140700372Y-88386818D01*
X141370591Y-89057037D01*
X141307007Y-89074075D01*
X141192993Y-89139901D01*
X141099901Y-89232993D01*
X141034075Y-89347007D01*
X141017037Y-89410591D01*
X140384728Y-88778282D01*
X140384727Y-88778282D01*
X140345380Y-88832439D01*
X140248904Y-89021782D01*
X140183242Y-89223869D01*
X140183242Y-89223872D01*
X140150000Y-89433753D01*
X140150000Y-89646246D01*
X140183242Y-89856127D01*
X140183242Y-89856130D01*
X140248904Y-90058217D01*
X140345375Y-90247550D01*
X140384728Y-90301716D01*
X141017037Y-89669408D01*
X141034075Y-89732993D01*
X141099901Y-89847007D01*
X141192993Y-89940099D01*
X141307007Y-90005925D01*
X141370590Y-90022962D01*
X140738282Y-90655269D01*
X140738282Y-90655270D01*
X140792449Y-90694624D01*
X140981782Y-90791095D01*
X141183870Y-90856757D01*
X141393754Y-90890000D01*
X141606246Y-90890000D01*
X141816127Y-90856757D01*
X141816130Y-90856757D01*
X142018217Y-90791095D01*
X142207554Y-90694622D01*
X142261716Y-90655270D01*
X142261717Y-90655270D01*
X141629408Y-90022962D01*
X141692993Y-90005925D01*
X141807007Y-89940099D01*
X141900099Y-89847007D01*
X141965925Y-89732993D01*
X141982962Y-89669409D01*
X142615270Y-90301717D01*
X142615270Y-90301716D01*
X142654622Y-90247554D01*
X142751095Y-90058217D01*
X142816757Y-89856130D01*
X142816757Y-89856127D01*
X142850000Y-89646246D01*
X142850000Y-89433753D01*
X142816757Y-89223872D01*
X142816757Y-89223869D01*
X142751095Y-89021782D01*
X142654624Y-88832449D01*
X142615270Y-88778282D01*
X142615269Y-88778282D01*
X141982962Y-89410590D01*
X141965925Y-89347007D01*
X141900099Y-89232993D01*
X141807007Y-89139901D01*
X141692993Y-89074075D01*
X141629409Y-89057037D01*
X142299627Y-88386818D01*
X142360950Y-88353333D01*
X142387307Y-88350499D01*
X142397872Y-88350499D01*
X142457483Y-88344091D01*
X142592331Y-88293796D01*
X142707546Y-88207546D01*
X142793796Y-88092331D01*
X142844091Y-87957483D01*
X142850500Y-87897873D01*
X142850499Y-86102128D01*
X142844091Y-86042517D01*
X142793796Y-85907669D01*
X142793795Y-85907668D01*
X142793793Y-85907664D01*
X142707547Y-85792455D01*
X142707544Y-85792452D01*
X142592335Y-85706206D01*
X142592328Y-85706202D01*
X142457482Y-85655908D01*
X142457483Y-85655908D01*
X142397883Y-85649501D01*
X142397881Y-85649500D01*
X142397873Y-85649500D01*
X142397864Y-85649500D01*
X140602129Y-85649500D01*
X140602123Y-85649501D01*
X140542516Y-85655908D01*
X140407671Y-85706202D01*
X140407664Y-85706206D01*
X140292455Y-85792452D01*
X140292452Y-85792455D01*
X140206206Y-85907664D01*
X140206202Y-85907671D01*
X140155908Y-86042517D01*
X140150014Y-86097347D01*
X140149501Y-86102123D01*
X140149500Y-86102135D01*
X120881686Y-86102135D01*
X120993205Y-76623039D01*
X121013676Y-76556238D01*
X121067015Y-76511107D01*
X121117196Y-76500500D01*
X179875500Y-76500500D01*
X179942539Y-76520185D01*
G37*
%TD.AperFunction*%
%TD*%
M02*
