%TF.GenerationSoftware,KiCad,Pcbnew,10.0.1*%
%TF.CreationDate,2026-04-19T16:32:20+01:00*%
%TF.ProjectId,LTC1871_Based_Boost_Controller_V2,4c544331-3837-4315-9f42-617365645f42,rev?*%
%TF.SameCoordinates,PX72ab714PY70e54a6*%
%TF.FileFunction,Soldermask,Top*%
%TF.FilePolarity,Negative*%
%FSLAX46Y46*%
G04 Gerber Fmt 4.6, Leading zero omitted, Abs format (unit mm)*
G04 Created by KiCad (PCBNEW 10.0.1) date 2026-04-19 16:32:20*
%MOMM*%
%LPD*%
G01*
G04 APERTURE LIST*
G04 Aperture macros list*
%AMRoundRect*
0 Rectangle with rounded corners*
0 $1 Rounding radius*
0 $2 $3 $4 $5 $6 $7 $8 $9 X,Y pos of 4 corners*
0 Add a 4 corners polygon primitive as box body*
4,1,4,$2,$3,$4,$5,$6,$7,$8,$9,$2,$3,0*
0 Add four circle primitives for the rounded corners*
1,1,$1+$1,$2,$3*
1,1,$1+$1,$4,$5*
1,1,$1+$1,$6,$7*
1,1,$1+$1,$8,$9*
0 Add four rect primitives between the rounded corners*
20,1,$1+$1,$2,$3,$4,$5,0*
20,1,$1+$1,$4,$5,$6,$7,0*
20,1,$1+$1,$6,$7,$8,$9,0*
20,1,$1+$1,$8,$9,$2,$3,0*%
G04 Aperture macros list end*
%ADD10RoundRect,0.250000X-0.262500X-0.450000X0.262500X-0.450000X0.262500X0.450000X-0.262500X0.450000X0*%
%ADD11R,1.700000X1.700000*%
%ADD12C,1.700000*%
%ADD13RoundRect,0.250000X-0.475000X0.250000X-0.475000X-0.250000X0.475000X-0.250000X0.475000X0.250000X0*%
%ADD14RoundRect,0.250000X-0.450000X0.262500X-0.450000X-0.262500X0.450000X-0.262500X0.450000X0.262500X0*%
%ADD15RoundRect,0.250000X-0.650000X0.325000X-0.650000X-0.325000X0.650000X-0.325000X0.650000X0.325000X0*%
%ADD16RoundRect,0.250000X0.550000X0.550000X-0.550000X0.550000X-0.550000X-0.550000X0.550000X-0.550000X0*%
%ADD17C,1.600000*%
%ADD18RoundRect,0.250000X-0.250000X-0.475000X0.250000X-0.475000X0.250000X0.475000X-0.250000X0.475000X0*%
%ADD19RoundRect,0.250000X0.450000X-0.262500X0.450000X0.262500X-0.450000X0.262500X-0.450000X-0.262500X0*%
%ADD20RoundRect,0.150000X-0.825000X-0.150000X0.825000X-0.150000X0.825000X0.150000X-0.825000X0.150000X0*%
%ADD21RoundRect,0.087500X-0.662500X-0.087500X0.662500X-0.087500X0.662500X0.087500X-0.662500X0.087500X0*%
%ADD22RoundRect,0.250000X-0.465000X-2.500000X0.465000X-2.500000X0.465000X2.500000X-0.465000X2.500000X0*%
%ADD23RoundRect,0.249999X-0.850001X-0.850001X0.850001X-0.850001X0.850001X0.850001X-0.850001X0.850001X0*%
%ADD24C,2.200000*%
%ADD25RoundRect,0.250000X-0.550000X-0.550000X0.550000X-0.550000X0.550000X0.550000X-0.550000X0.550000X0*%
%ADD26R,2.000000X2.000000*%
%ADD27C,2.000000*%
%ADD28RoundRect,0.150000X0.150000X-0.587500X0.150000X0.587500X-0.150000X0.587500X-0.150000X-0.587500X0*%
G04 APERTURE END LIST*
D10*
%TO.C,R4*%
X9435108Y21379686D03*
X11260108Y21379686D03*
%TD*%
D11*
%TO.C,J5*%
X12760108Y2379686D03*
D12*
X10220108Y2379686D03*
X7680108Y2379686D03*
X5140108Y2379686D03*
X2600108Y2379686D03*
%TD*%
D13*
%TO.C,C3*%
X13760108Y21379686D03*
X13760108Y19479686D03*
%TD*%
D11*
%TO.C,J_VIN1*%
X21260108Y31379686D03*
D12*
X21260108Y28839686D03*
%TD*%
D13*
%TO.C,C1b2*%
X53760108Y21879686D03*
X53760108Y19979686D03*
%TD*%
D11*
%TO.C,J2*%
X57760108Y18879686D03*
D12*
X57760108Y16339686D03*
%TD*%
D14*
%TO.C,R2*%
X47260108Y15379686D03*
X47260108Y13554686D03*
%TD*%
D15*
%TO.C,C1a4*%
X37760108Y4379686D03*
X37760108Y1429686D03*
%TD*%
D14*
%TO.C,R5*%
X27260108Y28379686D03*
X27260108Y26554686D03*
%TD*%
D15*
%TO.C,C1a7*%
X45260108Y9379686D03*
X45260108Y6429686D03*
%TD*%
D16*
%TO.C,C5*%
X48760108Y37379686D03*
D17*
X45260108Y37379686D03*
%TD*%
D15*
%TO.C,C1a3*%
X35260108Y9379686D03*
X35260108Y6429686D03*
%TD*%
D18*
%TO.C,C4*%
X32860108Y19879686D03*
X34760108Y19879686D03*
%TD*%
D13*
%TO.C,C2*%
X6760108Y19379686D03*
X6760108Y17479686D03*
%TD*%
D10*
%TO.C,R7*%
X41332910Y30629686D03*
X43157910Y30629686D03*
%TD*%
D15*
%TO.C,C1a1*%
X30260108Y9379686D03*
X30260108Y6429686D03*
%TD*%
D13*
%TO.C,C1b1*%
X50260108Y21879686D03*
X50260108Y19979686D03*
%TD*%
D19*
%TO.C,R3*%
X47260108Y18054686D03*
X47260108Y19879686D03*
%TD*%
D15*
%TO.C,C7*%
X11760108Y31854686D03*
X11760108Y28904686D03*
%TD*%
%TO.C,C1a6*%
X42760108Y4379686D03*
X42760108Y1429686D03*
%TD*%
D10*
%TO.C,R1*%
X18435108Y15379686D03*
X20260108Y15379686D03*
%TD*%
D11*
%TO.C,J4*%
X12760108Y6879686D03*
D12*
X10220108Y6879686D03*
X7680108Y6879686D03*
X5140108Y6879686D03*
X2600108Y6879686D03*
%TD*%
D20*
%TO.C,Q1*%
X37010108Y16879686D03*
X37010108Y15609686D03*
X37010108Y14339686D03*
X37010108Y13069686D03*
X41960108Y13069686D03*
X41960108Y14339686D03*
X41960108Y15609686D03*
X41960108Y16879686D03*
%TD*%
D21*
%TO.C,U1*%
X25660108Y18379686D03*
X25660108Y17879686D03*
X25660108Y17379686D03*
X25660108Y16879686D03*
X25660108Y16379686D03*
X29860108Y16379686D03*
X29860108Y16879686D03*
X29860108Y17379686D03*
X29860108Y17879686D03*
X29860108Y18379686D03*
%TD*%
D11*
%TO.C,J3*%
X12760108Y11879686D03*
D12*
X10220108Y11879686D03*
X7680108Y11879686D03*
X5140108Y11879686D03*
X2600108Y11879686D03*
%TD*%
D22*
%TO.C,L1*%
X32720108Y35379686D03*
X36760108Y35379686D03*
%TD*%
D15*
%TO.C,C1a5*%
X40260108Y9379686D03*
X40260108Y6429686D03*
%TD*%
D23*
%TO.C,D2*%
X13135108Y24754686D03*
D24*
X23295108Y24754686D03*
%TD*%
D25*
%TO.C,C1*%
X3607457Y28379686D03*
D17*
X7107457Y28379686D03*
%TD*%
D14*
%TO.C,R6*%
X27260108Y24204686D03*
X27260108Y22379686D03*
%TD*%
D26*
%TO.C,D1*%
X50760108Y26879686D03*
D27*
X45680108Y26879686D03*
%TD*%
D15*
%TO.C,C6*%
X15110108Y31854686D03*
X15110108Y28904686D03*
%TD*%
%TO.C,C1a2*%
X32760108Y4379686D03*
X32760108Y1429686D03*
%TD*%
D28*
%TO.C,Q2*%
X30260108Y24879686D03*
X32160108Y24879686D03*
X31210108Y26754686D03*
%TD*%
M02*
