M48
; DRILL file KiCad 10.0.1 date 2026-04-19T16:32:17
; FORMAT={-:-/ absolute / metric / decimal}
; #@! TF.CreationDate,2026-04-19T16:32:17+01:00
; #@! TF.GenerationSoftware,Kicad,Pcbnew,10.0.1
; #@! TF.FileFunction,Plated,1,2,PTH
FMAT,2
METRIC
; #@! TA.AperFunction,Plated,PTH,ViaDrill
T1C0.300
; #@! TA.AperFunction,Plated,PTH,ComponentDrill
T2C0.800
; #@! TA.AperFunction,Plated,PTH,ComponentDrill
T3C1.000
; #@! TA.AperFunction,Plated,PTH,ComponentDrill
T4C1.100
%
G90
G05
T1
X8.76Y16.88
X11.76Y18.38
X16.26Y15.88
X17.26Y28.38
X23.26Y15.88
X25.76Y24.38
X27.26Y5.38
X27.76Y20.88
X27.76Y14.88
X28.26Y25.38
X28.76Y1.88
X29.86Y18.505
X30.26Y22.38
X30.76Y19.38
X31.21Y26.755
X31.76Y15.88
X32.16Y24.88
X32.76Y28.38
X35.76Y26.38
X36.76Y20.88
X37.76Y5.88
X39.26Y26.88
X40.26Y0.88
X42.26Y5.88
X45.26Y30.38
X45.26Y0.88
X46.26Y11.88
X47.26Y5.88
X51.76Y19.88
T2
X3.607Y28.38
X7.107Y28.38
X45.26Y37.38
X48.76Y37.38
T3
X2.6Y11.88
X2.6Y6.88
X2.6Y2.38
X5.14Y11.88
X5.14Y6.88
X5.14Y2.38
X7.68Y11.88
X7.68Y6.88
X7.68Y2.38
X10.22Y11.88
X10.22Y6.88
X10.22Y2.38
X12.76Y11.88
X12.76Y6.88
X12.76Y2.38
X21.26Y31.38
X21.26Y28.84
X57.76Y18.88
X57.76Y16.34
T4
X13.135Y24.755
X23.295Y24.755
X45.68Y26.88
X50.76Y26.88
M30
