%TF.GenerationSoftware,KiCad,Pcbnew,10.0.0*%
%TF.CreationDate,2026-04-15T12:15:49+01:00*%
%TF.ProjectId,LTC1871_Based_Boost_Controller_V2,4c544331-3837-4315-9f42-617365645f42,rev?*%
%TF.SameCoordinates,Original*%
%TF.FileFunction,Legend,Top*%
%TF.FilePolarity,Positive*%
%FSLAX46Y46*%
G04 Gerber Fmt 4.6, Leading zero omitted, Abs format (unit mm)*
G04 Created by KiCad (PCBNEW 10.0.0) date 2026-04-15 12:15:49*
%MOMM*%
%LPD*%
G01*
G04 APERTURE LIST*
%ADD10C,0.250000*%
%ADD11C,0.150000*%
%ADD12C,0.120000*%
G04 APERTURE END LIST*
D10*
X121902568Y-77754675D02*
X121902568Y-76754675D01*
X121902568Y-76754675D02*
X122473996Y-77754675D01*
X122473996Y-77754675D02*
X122473996Y-76754675D01*
X123378758Y-77754675D02*
X123378758Y-77230865D01*
X123378758Y-77230865D02*
X123331139Y-77135627D01*
X123331139Y-77135627D02*
X123235901Y-77088008D01*
X123235901Y-77088008D02*
X123045425Y-77088008D01*
X123045425Y-77088008D02*
X122950187Y-77135627D01*
X123378758Y-77707056D02*
X123283520Y-77754675D01*
X123283520Y-77754675D02*
X123045425Y-77754675D01*
X123045425Y-77754675D02*
X122950187Y-77707056D01*
X122950187Y-77707056D02*
X122902568Y-77611817D01*
X122902568Y-77611817D02*
X122902568Y-77516579D01*
X122902568Y-77516579D02*
X122950187Y-77421341D01*
X122950187Y-77421341D02*
X123045425Y-77373722D01*
X123045425Y-77373722D02*
X123283520Y-77373722D01*
X123283520Y-77373722D02*
X123378758Y-77326103D01*
X123854949Y-77754675D02*
X123854949Y-77088008D01*
X123854949Y-77183246D02*
X123902568Y-77135627D01*
X123902568Y-77135627D02*
X123997806Y-77088008D01*
X123997806Y-77088008D02*
X124140663Y-77088008D01*
X124140663Y-77088008D02*
X124235901Y-77135627D01*
X124235901Y-77135627D02*
X124283520Y-77230865D01*
X124283520Y-77230865D02*
X124283520Y-77754675D01*
X124283520Y-77230865D02*
X124331139Y-77135627D01*
X124331139Y-77135627D02*
X124426377Y-77088008D01*
X124426377Y-77088008D02*
X124569234Y-77088008D01*
X124569234Y-77088008D02*
X124664473Y-77135627D01*
X124664473Y-77135627D02*
X124712092Y-77230865D01*
X124712092Y-77230865D02*
X124712092Y-77754675D01*
X125569234Y-77707056D02*
X125473996Y-77754675D01*
X125473996Y-77754675D02*
X125283520Y-77754675D01*
X125283520Y-77754675D02*
X125188282Y-77707056D01*
X125188282Y-77707056D02*
X125140663Y-77611817D01*
X125140663Y-77611817D02*
X125140663Y-77230865D01*
X125140663Y-77230865D02*
X125188282Y-77135627D01*
X125188282Y-77135627D02*
X125283520Y-77088008D01*
X125283520Y-77088008D02*
X125473996Y-77088008D01*
X125473996Y-77088008D02*
X125569234Y-77135627D01*
X125569234Y-77135627D02*
X125616853Y-77230865D01*
X125616853Y-77230865D02*
X125616853Y-77326103D01*
X125616853Y-77326103D02*
X125140663Y-77421341D01*
X126045425Y-77659436D02*
X126093044Y-77707056D01*
X126093044Y-77707056D02*
X126045425Y-77754675D01*
X126045425Y-77754675D02*
X125997806Y-77707056D01*
X125997806Y-77707056D02*
X126045425Y-77659436D01*
X126045425Y-77659436D02*
X126045425Y-77754675D01*
X126045425Y-77135627D02*
X126093044Y-77183246D01*
X126093044Y-77183246D02*
X126045425Y-77230865D01*
X126045425Y-77230865D02*
X125997806Y-77183246D01*
X125997806Y-77183246D02*
X126045425Y-77135627D01*
X126045425Y-77135627D02*
X126045425Y-77230865D01*
X127616853Y-77230865D02*
X127283520Y-77230865D01*
X127283520Y-77754675D02*
X127283520Y-76754675D01*
X127283520Y-76754675D02*
X127759710Y-76754675D01*
X128283520Y-77754675D02*
X128188282Y-77707056D01*
X128188282Y-77707056D02*
X128140663Y-77659436D01*
X128140663Y-77659436D02*
X128093044Y-77564198D01*
X128093044Y-77564198D02*
X128093044Y-77278484D01*
X128093044Y-77278484D02*
X128140663Y-77183246D01*
X128140663Y-77183246D02*
X128188282Y-77135627D01*
X128188282Y-77135627D02*
X128283520Y-77088008D01*
X128283520Y-77088008D02*
X128426377Y-77088008D01*
X128426377Y-77088008D02*
X128521615Y-77135627D01*
X128521615Y-77135627D02*
X128569234Y-77183246D01*
X128569234Y-77183246D02*
X128616853Y-77278484D01*
X128616853Y-77278484D02*
X128616853Y-77564198D01*
X128616853Y-77564198D02*
X128569234Y-77659436D01*
X128569234Y-77659436D02*
X128521615Y-77707056D01*
X128521615Y-77707056D02*
X128426377Y-77754675D01*
X128426377Y-77754675D02*
X128283520Y-77754675D01*
X129045425Y-77754675D02*
X129045425Y-77088008D01*
X129045425Y-77278484D02*
X129093044Y-77183246D01*
X129093044Y-77183246D02*
X129140663Y-77135627D01*
X129140663Y-77135627D02*
X129235901Y-77088008D01*
X129235901Y-77088008D02*
X129331139Y-77088008D01*
X129521616Y-77088008D02*
X129902568Y-77088008D01*
X129664473Y-76754675D02*
X129664473Y-77611817D01*
X129664473Y-77611817D02*
X129712092Y-77707056D01*
X129712092Y-77707056D02*
X129807330Y-77754675D01*
X129807330Y-77754675D02*
X129902568Y-77754675D01*
X130664473Y-77088008D02*
X130664473Y-77754675D01*
X130235902Y-77088008D02*
X130235902Y-77611817D01*
X130235902Y-77611817D02*
X130283521Y-77707056D01*
X130283521Y-77707056D02*
X130378759Y-77754675D01*
X130378759Y-77754675D02*
X130521616Y-77754675D01*
X130521616Y-77754675D02*
X130616854Y-77707056D01*
X130616854Y-77707056D02*
X130664473Y-77659436D01*
X131140664Y-77088008D02*
X131140664Y-77754675D01*
X131140664Y-77183246D02*
X131188283Y-77135627D01*
X131188283Y-77135627D02*
X131283521Y-77088008D01*
X131283521Y-77088008D02*
X131426378Y-77088008D01*
X131426378Y-77088008D02*
X131521616Y-77135627D01*
X131521616Y-77135627D02*
X131569235Y-77230865D01*
X131569235Y-77230865D02*
X131569235Y-77754675D01*
X132426378Y-77707056D02*
X132331140Y-77754675D01*
X132331140Y-77754675D02*
X132140664Y-77754675D01*
X132140664Y-77754675D02*
X132045426Y-77707056D01*
X132045426Y-77707056D02*
X131997807Y-77611817D01*
X131997807Y-77611817D02*
X131997807Y-77230865D01*
X131997807Y-77230865D02*
X132045426Y-77135627D01*
X132045426Y-77135627D02*
X132140664Y-77088008D01*
X132140664Y-77088008D02*
X132331140Y-77088008D01*
X132331140Y-77088008D02*
X132426378Y-77135627D01*
X132426378Y-77135627D02*
X132473997Y-77230865D01*
X132473997Y-77230865D02*
X132473997Y-77326103D01*
X132473997Y-77326103D02*
X131997807Y-77421341D01*
X133854950Y-76754675D02*
X134045426Y-76754675D01*
X134045426Y-76754675D02*
X134140664Y-76802294D01*
X134140664Y-76802294D02*
X134235902Y-76897532D01*
X134235902Y-76897532D02*
X134283521Y-77088008D01*
X134283521Y-77088008D02*
X134283521Y-77421341D01*
X134283521Y-77421341D02*
X134235902Y-77611817D01*
X134235902Y-77611817D02*
X134140664Y-77707056D01*
X134140664Y-77707056D02*
X134045426Y-77754675D01*
X134045426Y-77754675D02*
X133854950Y-77754675D01*
X133854950Y-77754675D02*
X133759712Y-77707056D01*
X133759712Y-77707056D02*
X133664474Y-77611817D01*
X133664474Y-77611817D02*
X133616855Y-77421341D01*
X133616855Y-77421341D02*
X133616855Y-77088008D01*
X133616855Y-77088008D02*
X133664474Y-76897532D01*
X133664474Y-76897532D02*
X133759712Y-76802294D01*
X133759712Y-76802294D02*
X133854950Y-76754675D01*
X134854950Y-77754675D02*
X134759712Y-77707056D01*
X134759712Y-77707056D02*
X134712093Y-77611817D01*
X134712093Y-77611817D02*
X134712093Y-76754675D01*
X135378760Y-77754675D02*
X135283522Y-77707056D01*
X135283522Y-77707056D02*
X135235903Y-77659436D01*
X135235903Y-77659436D02*
X135188284Y-77564198D01*
X135188284Y-77564198D02*
X135188284Y-77278484D01*
X135188284Y-77278484D02*
X135235903Y-77183246D01*
X135235903Y-77183246D02*
X135283522Y-77135627D01*
X135283522Y-77135627D02*
X135378760Y-77088008D01*
X135378760Y-77088008D02*
X135521617Y-77088008D01*
X135521617Y-77088008D02*
X135616855Y-77135627D01*
X135616855Y-77135627D02*
X135664474Y-77183246D01*
X135664474Y-77183246D02*
X135712093Y-77278484D01*
X135712093Y-77278484D02*
X135712093Y-77564198D01*
X135712093Y-77564198D02*
X135664474Y-77659436D01*
X135664474Y-77659436D02*
X135616855Y-77707056D01*
X135616855Y-77707056D02*
X135521617Y-77754675D01*
X135521617Y-77754675D02*
X135378760Y-77754675D01*
X136093046Y-77707056D02*
X136188284Y-77754675D01*
X136188284Y-77754675D02*
X136378760Y-77754675D01*
X136378760Y-77754675D02*
X136473998Y-77707056D01*
X136473998Y-77707056D02*
X136521617Y-77611817D01*
X136521617Y-77611817D02*
X136521617Y-77564198D01*
X136521617Y-77564198D02*
X136473998Y-77468960D01*
X136473998Y-77468960D02*
X136378760Y-77421341D01*
X136378760Y-77421341D02*
X136235903Y-77421341D01*
X136235903Y-77421341D02*
X136140665Y-77373722D01*
X136140665Y-77373722D02*
X136093046Y-77278484D01*
X136093046Y-77278484D02*
X136093046Y-77230865D01*
X136093046Y-77230865D02*
X136140665Y-77135627D01*
X136140665Y-77135627D02*
X136235903Y-77088008D01*
X136235903Y-77088008D02*
X136378760Y-77088008D01*
X136378760Y-77088008D02*
X136473998Y-77135627D01*
X137331141Y-77707056D02*
X137235903Y-77754675D01*
X137235903Y-77754675D02*
X137045427Y-77754675D01*
X137045427Y-77754675D02*
X136950189Y-77707056D01*
X136950189Y-77707056D02*
X136902570Y-77611817D01*
X136902570Y-77611817D02*
X136902570Y-77230865D01*
X136902570Y-77230865D02*
X136950189Y-77135627D01*
X136950189Y-77135627D02*
X137045427Y-77088008D01*
X137045427Y-77088008D02*
X137235903Y-77088008D01*
X137235903Y-77088008D02*
X137331141Y-77135627D01*
X137331141Y-77135627D02*
X137378760Y-77230865D01*
X137378760Y-77230865D02*
X137378760Y-77326103D01*
X137378760Y-77326103D02*
X136902570Y-77421341D01*
X121902568Y-78840809D02*
X122235901Y-78840809D01*
X122378758Y-79364619D02*
X121902568Y-79364619D01*
X121902568Y-79364619D02*
X121902568Y-78364619D01*
X121902568Y-78364619D02*
X122378758Y-78364619D01*
X122807330Y-78840809D02*
X123140663Y-78840809D01*
X123283520Y-79364619D02*
X122807330Y-79364619D01*
X122807330Y-79364619D02*
X122807330Y-78364619D01*
X122807330Y-78364619D02*
X123283520Y-78364619D01*
X124140663Y-78697952D02*
X124140663Y-79364619D01*
X123902568Y-78317000D02*
X123664473Y-79031285D01*
X123664473Y-79031285D02*
X124283520Y-79031285D01*
X124712092Y-79364619D02*
X124902568Y-79364619D01*
X124902568Y-79364619D02*
X124997806Y-79317000D01*
X124997806Y-79317000D02*
X125045425Y-79269380D01*
X125045425Y-79269380D02*
X125140663Y-79126523D01*
X125140663Y-79126523D02*
X125188282Y-78936047D01*
X125188282Y-78936047D02*
X125188282Y-78555095D01*
X125188282Y-78555095D02*
X125140663Y-78459857D01*
X125140663Y-78459857D02*
X125093044Y-78412238D01*
X125093044Y-78412238D02*
X124997806Y-78364619D01*
X124997806Y-78364619D02*
X124807330Y-78364619D01*
X124807330Y-78364619D02*
X124712092Y-78412238D01*
X124712092Y-78412238D02*
X124664473Y-78459857D01*
X124664473Y-78459857D02*
X124616854Y-78555095D01*
X124616854Y-78555095D02*
X124616854Y-78793190D01*
X124616854Y-78793190D02*
X124664473Y-78888428D01*
X124664473Y-78888428D02*
X124712092Y-78936047D01*
X124712092Y-78936047D02*
X124807330Y-78983666D01*
X124807330Y-78983666D02*
X124997806Y-78983666D01*
X124997806Y-78983666D02*
X125093044Y-78936047D01*
X125093044Y-78936047D02*
X125140663Y-78888428D01*
X125140663Y-78888428D02*
X125188282Y-78793190D01*
X125664473Y-79364619D02*
X125854949Y-79364619D01*
X125854949Y-79364619D02*
X125950187Y-79317000D01*
X125950187Y-79317000D02*
X125997806Y-79269380D01*
X125997806Y-79269380D02*
X126093044Y-79126523D01*
X126093044Y-79126523D02*
X126140663Y-78936047D01*
X126140663Y-78936047D02*
X126140663Y-78555095D01*
X126140663Y-78555095D02*
X126093044Y-78459857D01*
X126093044Y-78459857D02*
X126045425Y-78412238D01*
X126045425Y-78412238D02*
X125950187Y-78364619D01*
X125950187Y-78364619D02*
X125759711Y-78364619D01*
X125759711Y-78364619D02*
X125664473Y-78412238D01*
X125664473Y-78412238D02*
X125616854Y-78459857D01*
X125616854Y-78459857D02*
X125569235Y-78555095D01*
X125569235Y-78555095D02*
X125569235Y-78793190D01*
X125569235Y-78793190D02*
X125616854Y-78888428D01*
X125616854Y-78888428D02*
X125664473Y-78936047D01*
X125664473Y-78936047D02*
X125759711Y-78983666D01*
X125759711Y-78983666D02*
X125950187Y-78983666D01*
X125950187Y-78983666D02*
X126045425Y-78936047D01*
X126045425Y-78936047D02*
X126093044Y-78888428D01*
X126093044Y-78888428D02*
X126140663Y-78793190D01*
X127664473Y-78840809D02*
X127331140Y-78840809D01*
X127331140Y-79364619D02*
X127331140Y-78364619D01*
X127331140Y-78364619D02*
X127807330Y-78364619D01*
X128188283Y-79364619D02*
X128188283Y-78697952D01*
X128188283Y-78364619D02*
X128140664Y-78412238D01*
X128140664Y-78412238D02*
X128188283Y-78459857D01*
X128188283Y-78459857D02*
X128235902Y-78412238D01*
X128235902Y-78412238D02*
X128188283Y-78364619D01*
X128188283Y-78364619D02*
X128188283Y-78459857D01*
X128664473Y-78697952D02*
X128664473Y-79364619D01*
X128664473Y-78793190D02*
X128712092Y-78745571D01*
X128712092Y-78745571D02*
X128807330Y-78697952D01*
X128807330Y-78697952D02*
X128950187Y-78697952D01*
X128950187Y-78697952D02*
X129045425Y-78745571D01*
X129045425Y-78745571D02*
X129093044Y-78840809D01*
X129093044Y-78840809D02*
X129093044Y-79364619D01*
X129997806Y-79364619D02*
X129997806Y-78840809D01*
X129997806Y-78840809D02*
X129950187Y-78745571D01*
X129950187Y-78745571D02*
X129854949Y-78697952D01*
X129854949Y-78697952D02*
X129664473Y-78697952D01*
X129664473Y-78697952D02*
X129569235Y-78745571D01*
X129997806Y-79317000D02*
X129902568Y-79364619D01*
X129902568Y-79364619D02*
X129664473Y-79364619D01*
X129664473Y-79364619D02*
X129569235Y-79317000D01*
X129569235Y-79317000D02*
X129521616Y-79221761D01*
X129521616Y-79221761D02*
X129521616Y-79126523D01*
X129521616Y-79126523D02*
X129569235Y-79031285D01*
X129569235Y-79031285D02*
X129664473Y-78983666D01*
X129664473Y-78983666D02*
X129902568Y-78983666D01*
X129902568Y-78983666D02*
X129997806Y-78936047D01*
X130616854Y-79364619D02*
X130521616Y-79317000D01*
X130521616Y-79317000D02*
X130473997Y-79221761D01*
X130473997Y-79221761D02*
X130473997Y-78364619D01*
X131950188Y-78888428D02*
X131950188Y-79364619D01*
X131616855Y-78364619D02*
X131950188Y-78888428D01*
X131950188Y-78888428D02*
X132283521Y-78364619D01*
X132997807Y-79317000D02*
X132902569Y-79364619D01*
X132902569Y-79364619D02*
X132712093Y-79364619D01*
X132712093Y-79364619D02*
X132616855Y-79317000D01*
X132616855Y-79317000D02*
X132569236Y-79221761D01*
X132569236Y-79221761D02*
X132569236Y-78840809D01*
X132569236Y-78840809D02*
X132616855Y-78745571D01*
X132616855Y-78745571D02*
X132712093Y-78697952D01*
X132712093Y-78697952D02*
X132902569Y-78697952D01*
X132902569Y-78697952D02*
X132997807Y-78745571D01*
X132997807Y-78745571D02*
X133045426Y-78840809D01*
X133045426Y-78840809D02*
X133045426Y-78936047D01*
X133045426Y-78936047D02*
X132569236Y-79031285D01*
X133902569Y-79364619D02*
X133902569Y-78840809D01*
X133902569Y-78840809D02*
X133854950Y-78745571D01*
X133854950Y-78745571D02*
X133759712Y-78697952D01*
X133759712Y-78697952D02*
X133569236Y-78697952D01*
X133569236Y-78697952D02*
X133473998Y-78745571D01*
X133902569Y-79317000D02*
X133807331Y-79364619D01*
X133807331Y-79364619D02*
X133569236Y-79364619D01*
X133569236Y-79364619D02*
X133473998Y-79317000D01*
X133473998Y-79317000D02*
X133426379Y-79221761D01*
X133426379Y-79221761D02*
X133426379Y-79126523D01*
X133426379Y-79126523D02*
X133473998Y-79031285D01*
X133473998Y-79031285D02*
X133569236Y-78983666D01*
X133569236Y-78983666D02*
X133807331Y-78983666D01*
X133807331Y-78983666D02*
X133902569Y-78936047D01*
X134378760Y-79364619D02*
X134378760Y-78697952D01*
X134378760Y-78888428D02*
X134426379Y-78793190D01*
X134426379Y-78793190D02*
X134473998Y-78745571D01*
X134473998Y-78745571D02*
X134569236Y-78697952D01*
X134569236Y-78697952D02*
X134664474Y-78697952D01*
X135759713Y-79364619D02*
X135759713Y-78364619D01*
X135759713Y-78364619D02*
X136140665Y-78364619D01*
X136140665Y-78364619D02*
X136235903Y-78412238D01*
X136235903Y-78412238D02*
X136283522Y-78459857D01*
X136283522Y-78459857D02*
X136331141Y-78555095D01*
X136331141Y-78555095D02*
X136331141Y-78697952D01*
X136331141Y-78697952D02*
X136283522Y-78793190D01*
X136283522Y-78793190D02*
X136235903Y-78840809D01*
X136235903Y-78840809D02*
X136140665Y-78888428D01*
X136140665Y-78888428D02*
X135759713Y-78888428D01*
X136759713Y-79364619D02*
X136759713Y-78697952D01*
X136759713Y-78888428D02*
X136807332Y-78793190D01*
X136807332Y-78793190D02*
X136854951Y-78745571D01*
X136854951Y-78745571D02*
X136950189Y-78697952D01*
X136950189Y-78697952D02*
X137045427Y-78697952D01*
X137521618Y-79364619D02*
X137426380Y-79317000D01*
X137426380Y-79317000D02*
X137378761Y-79269380D01*
X137378761Y-79269380D02*
X137331142Y-79174142D01*
X137331142Y-79174142D02*
X137331142Y-78888428D01*
X137331142Y-78888428D02*
X137378761Y-78793190D01*
X137378761Y-78793190D02*
X137426380Y-78745571D01*
X137426380Y-78745571D02*
X137521618Y-78697952D01*
X137521618Y-78697952D02*
X137664475Y-78697952D01*
X137664475Y-78697952D02*
X137759713Y-78745571D01*
X137759713Y-78745571D02*
X137807332Y-78793190D01*
X137807332Y-78793190D02*
X137854951Y-78888428D01*
X137854951Y-78888428D02*
X137854951Y-79174142D01*
X137854951Y-79174142D02*
X137807332Y-79269380D01*
X137807332Y-79269380D02*
X137759713Y-79317000D01*
X137759713Y-79317000D02*
X137664475Y-79364619D01*
X137664475Y-79364619D02*
X137521618Y-79364619D01*
X138283523Y-78697952D02*
X138283523Y-79555095D01*
X138283523Y-79555095D02*
X138235904Y-79650333D01*
X138235904Y-79650333D02*
X138140666Y-79697952D01*
X138140666Y-79697952D02*
X138093047Y-79697952D01*
X138283523Y-78364619D02*
X138235904Y-78412238D01*
X138235904Y-78412238D02*
X138283523Y-78459857D01*
X138283523Y-78459857D02*
X138331142Y-78412238D01*
X138331142Y-78412238D02*
X138283523Y-78364619D01*
X138283523Y-78364619D02*
X138283523Y-78459857D01*
X139140665Y-79317000D02*
X139045427Y-79364619D01*
X139045427Y-79364619D02*
X138854951Y-79364619D01*
X138854951Y-79364619D02*
X138759713Y-79317000D01*
X138759713Y-79317000D02*
X138712094Y-79221761D01*
X138712094Y-79221761D02*
X138712094Y-78840809D01*
X138712094Y-78840809D02*
X138759713Y-78745571D01*
X138759713Y-78745571D02*
X138854951Y-78697952D01*
X138854951Y-78697952D02*
X139045427Y-78697952D01*
X139045427Y-78697952D02*
X139140665Y-78745571D01*
X139140665Y-78745571D02*
X139188284Y-78840809D01*
X139188284Y-78840809D02*
X139188284Y-78936047D01*
X139188284Y-78936047D02*
X138712094Y-79031285D01*
X140045427Y-79317000D02*
X139950189Y-79364619D01*
X139950189Y-79364619D02*
X139759713Y-79364619D01*
X139759713Y-79364619D02*
X139664475Y-79317000D01*
X139664475Y-79317000D02*
X139616856Y-79269380D01*
X139616856Y-79269380D02*
X139569237Y-79174142D01*
X139569237Y-79174142D02*
X139569237Y-78888428D01*
X139569237Y-78888428D02*
X139616856Y-78793190D01*
X139616856Y-78793190D02*
X139664475Y-78745571D01*
X139664475Y-78745571D02*
X139759713Y-78697952D01*
X139759713Y-78697952D02*
X139950189Y-78697952D01*
X139950189Y-78697952D02*
X140045427Y-78745571D01*
X140331142Y-78697952D02*
X140712094Y-78697952D01*
X140473999Y-78364619D02*
X140473999Y-79221761D01*
X140473999Y-79221761D02*
X140521618Y-79317000D01*
X140521618Y-79317000D02*
X140616856Y-79364619D01*
X140616856Y-79364619D02*
X140712094Y-79364619D01*
X122378758Y-80864619D02*
X121902568Y-80864619D01*
X121902568Y-80864619D02*
X121902568Y-79864619D01*
X122569235Y-79864619D02*
X123140663Y-79864619D01*
X122854949Y-80864619D02*
X122854949Y-79864619D01*
X124045425Y-80769380D02*
X123997806Y-80817000D01*
X123997806Y-80817000D02*
X123854949Y-80864619D01*
X123854949Y-80864619D02*
X123759711Y-80864619D01*
X123759711Y-80864619D02*
X123616854Y-80817000D01*
X123616854Y-80817000D02*
X123521616Y-80721761D01*
X123521616Y-80721761D02*
X123473997Y-80626523D01*
X123473997Y-80626523D02*
X123426378Y-80436047D01*
X123426378Y-80436047D02*
X123426378Y-80293190D01*
X123426378Y-80293190D02*
X123473997Y-80102714D01*
X123473997Y-80102714D02*
X123521616Y-80007476D01*
X123521616Y-80007476D02*
X123616854Y-79912238D01*
X123616854Y-79912238D02*
X123759711Y-79864619D01*
X123759711Y-79864619D02*
X123854949Y-79864619D01*
X123854949Y-79864619D02*
X123997806Y-79912238D01*
X123997806Y-79912238D02*
X124045425Y-79959857D01*
X124997806Y-80864619D02*
X124426378Y-80864619D01*
X124712092Y-80864619D02*
X124712092Y-79864619D01*
X124712092Y-79864619D02*
X124616854Y-80007476D01*
X124616854Y-80007476D02*
X124521616Y-80102714D01*
X124521616Y-80102714D02*
X124426378Y-80150333D01*
X125569235Y-80293190D02*
X125473997Y-80245571D01*
X125473997Y-80245571D02*
X125426378Y-80197952D01*
X125426378Y-80197952D02*
X125378759Y-80102714D01*
X125378759Y-80102714D02*
X125378759Y-80055095D01*
X125378759Y-80055095D02*
X125426378Y-79959857D01*
X125426378Y-79959857D02*
X125473997Y-79912238D01*
X125473997Y-79912238D02*
X125569235Y-79864619D01*
X125569235Y-79864619D02*
X125759711Y-79864619D01*
X125759711Y-79864619D02*
X125854949Y-79912238D01*
X125854949Y-79912238D02*
X125902568Y-79959857D01*
X125902568Y-79959857D02*
X125950187Y-80055095D01*
X125950187Y-80055095D02*
X125950187Y-80102714D01*
X125950187Y-80102714D02*
X125902568Y-80197952D01*
X125902568Y-80197952D02*
X125854949Y-80245571D01*
X125854949Y-80245571D02*
X125759711Y-80293190D01*
X125759711Y-80293190D02*
X125569235Y-80293190D01*
X125569235Y-80293190D02*
X125473997Y-80340809D01*
X125473997Y-80340809D02*
X125426378Y-80388428D01*
X125426378Y-80388428D02*
X125378759Y-80483666D01*
X125378759Y-80483666D02*
X125378759Y-80674142D01*
X125378759Y-80674142D02*
X125426378Y-80769380D01*
X125426378Y-80769380D02*
X125473997Y-80817000D01*
X125473997Y-80817000D02*
X125569235Y-80864619D01*
X125569235Y-80864619D02*
X125759711Y-80864619D01*
X125759711Y-80864619D02*
X125854949Y-80817000D01*
X125854949Y-80817000D02*
X125902568Y-80769380D01*
X125902568Y-80769380D02*
X125950187Y-80674142D01*
X125950187Y-80674142D02*
X125950187Y-80483666D01*
X125950187Y-80483666D02*
X125902568Y-80388428D01*
X125902568Y-80388428D02*
X125854949Y-80340809D01*
X125854949Y-80340809D02*
X125759711Y-80293190D01*
X126283521Y-79864619D02*
X126950187Y-79864619D01*
X126950187Y-79864619D02*
X126521616Y-80864619D01*
X127854949Y-80864619D02*
X127283521Y-80864619D01*
X127569235Y-80864619D02*
X127569235Y-79864619D01*
X127569235Y-79864619D02*
X127473997Y-80007476D01*
X127473997Y-80007476D02*
X127378759Y-80102714D01*
X127378759Y-80102714D02*
X127283521Y-80150333D01*
X129378759Y-80340809D02*
X129521616Y-80388428D01*
X129521616Y-80388428D02*
X129569235Y-80436047D01*
X129569235Y-80436047D02*
X129616854Y-80531285D01*
X129616854Y-80531285D02*
X129616854Y-80674142D01*
X129616854Y-80674142D02*
X129569235Y-80769380D01*
X129569235Y-80769380D02*
X129521616Y-80817000D01*
X129521616Y-80817000D02*
X129426378Y-80864619D01*
X129426378Y-80864619D02*
X129045426Y-80864619D01*
X129045426Y-80864619D02*
X129045426Y-79864619D01*
X129045426Y-79864619D02*
X129378759Y-79864619D01*
X129378759Y-79864619D02*
X129473997Y-79912238D01*
X129473997Y-79912238D02*
X129521616Y-79959857D01*
X129521616Y-79959857D02*
X129569235Y-80055095D01*
X129569235Y-80055095D02*
X129569235Y-80150333D01*
X129569235Y-80150333D02*
X129521616Y-80245571D01*
X129521616Y-80245571D02*
X129473997Y-80293190D01*
X129473997Y-80293190D02*
X129378759Y-80340809D01*
X129378759Y-80340809D02*
X129045426Y-80340809D01*
X130188283Y-80864619D02*
X130093045Y-80817000D01*
X130093045Y-80817000D02*
X130045426Y-80769380D01*
X130045426Y-80769380D02*
X129997807Y-80674142D01*
X129997807Y-80674142D02*
X129997807Y-80388428D01*
X129997807Y-80388428D02*
X130045426Y-80293190D01*
X130045426Y-80293190D02*
X130093045Y-80245571D01*
X130093045Y-80245571D02*
X130188283Y-80197952D01*
X130188283Y-80197952D02*
X130331140Y-80197952D01*
X130331140Y-80197952D02*
X130426378Y-80245571D01*
X130426378Y-80245571D02*
X130473997Y-80293190D01*
X130473997Y-80293190D02*
X130521616Y-80388428D01*
X130521616Y-80388428D02*
X130521616Y-80674142D01*
X130521616Y-80674142D02*
X130473997Y-80769380D01*
X130473997Y-80769380D02*
X130426378Y-80817000D01*
X130426378Y-80817000D02*
X130331140Y-80864619D01*
X130331140Y-80864619D02*
X130188283Y-80864619D01*
X131093045Y-80864619D02*
X130997807Y-80817000D01*
X130997807Y-80817000D02*
X130950188Y-80769380D01*
X130950188Y-80769380D02*
X130902569Y-80674142D01*
X130902569Y-80674142D02*
X130902569Y-80388428D01*
X130902569Y-80388428D02*
X130950188Y-80293190D01*
X130950188Y-80293190D02*
X130997807Y-80245571D01*
X130997807Y-80245571D02*
X131093045Y-80197952D01*
X131093045Y-80197952D02*
X131235902Y-80197952D01*
X131235902Y-80197952D02*
X131331140Y-80245571D01*
X131331140Y-80245571D02*
X131378759Y-80293190D01*
X131378759Y-80293190D02*
X131426378Y-80388428D01*
X131426378Y-80388428D02*
X131426378Y-80674142D01*
X131426378Y-80674142D02*
X131378759Y-80769380D01*
X131378759Y-80769380D02*
X131331140Y-80817000D01*
X131331140Y-80817000D02*
X131235902Y-80864619D01*
X131235902Y-80864619D02*
X131093045Y-80864619D01*
X131807331Y-80817000D02*
X131902569Y-80864619D01*
X131902569Y-80864619D02*
X132093045Y-80864619D01*
X132093045Y-80864619D02*
X132188283Y-80817000D01*
X132188283Y-80817000D02*
X132235902Y-80721761D01*
X132235902Y-80721761D02*
X132235902Y-80674142D01*
X132235902Y-80674142D02*
X132188283Y-80578904D01*
X132188283Y-80578904D02*
X132093045Y-80531285D01*
X132093045Y-80531285D02*
X131950188Y-80531285D01*
X131950188Y-80531285D02*
X131854950Y-80483666D01*
X131854950Y-80483666D02*
X131807331Y-80388428D01*
X131807331Y-80388428D02*
X131807331Y-80340809D01*
X131807331Y-80340809D02*
X131854950Y-80245571D01*
X131854950Y-80245571D02*
X131950188Y-80197952D01*
X131950188Y-80197952D02*
X132093045Y-80197952D01*
X132093045Y-80197952D02*
X132188283Y-80245571D01*
X132521617Y-80197952D02*
X132902569Y-80197952D01*
X132664474Y-79864619D02*
X132664474Y-80721761D01*
X132664474Y-80721761D02*
X132712093Y-80817000D01*
X132712093Y-80817000D02*
X132807331Y-80864619D01*
X132807331Y-80864619D02*
X132902569Y-80864619D01*
X134569236Y-80769380D02*
X134521617Y-80817000D01*
X134521617Y-80817000D02*
X134378760Y-80864619D01*
X134378760Y-80864619D02*
X134283522Y-80864619D01*
X134283522Y-80864619D02*
X134140665Y-80817000D01*
X134140665Y-80817000D02*
X134045427Y-80721761D01*
X134045427Y-80721761D02*
X133997808Y-80626523D01*
X133997808Y-80626523D02*
X133950189Y-80436047D01*
X133950189Y-80436047D02*
X133950189Y-80293190D01*
X133950189Y-80293190D02*
X133997808Y-80102714D01*
X133997808Y-80102714D02*
X134045427Y-80007476D01*
X134045427Y-80007476D02*
X134140665Y-79912238D01*
X134140665Y-79912238D02*
X134283522Y-79864619D01*
X134283522Y-79864619D02*
X134378760Y-79864619D01*
X134378760Y-79864619D02*
X134521617Y-79912238D01*
X134521617Y-79912238D02*
X134569236Y-79959857D01*
X135140665Y-80864619D02*
X135045427Y-80817000D01*
X135045427Y-80817000D02*
X134997808Y-80769380D01*
X134997808Y-80769380D02*
X134950189Y-80674142D01*
X134950189Y-80674142D02*
X134950189Y-80388428D01*
X134950189Y-80388428D02*
X134997808Y-80293190D01*
X134997808Y-80293190D02*
X135045427Y-80245571D01*
X135045427Y-80245571D02*
X135140665Y-80197952D01*
X135140665Y-80197952D02*
X135283522Y-80197952D01*
X135283522Y-80197952D02*
X135378760Y-80245571D01*
X135378760Y-80245571D02*
X135426379Y-80293190D01*
X135426379Y-80293190D02*
X135473998Y-80388428D01*
X135473998Y-80388428D02*
X135473998Y-80674142D01*
X135473998Y-80674142D02*
X135426379Y-80769380D01*
X135426379Y-80769380D02*
X135378760Y-80817000D01*
X135378760Y-80817000D02*
X135283522Y-80864619D01*
X135283522Y-80864619D02*
X135140665Y-80864619D01*
X135902570Y-80197952D02*
X135902570Y-80864619D01*
X135902570Y-80293190D02*
X135950189Y-80245571D01*
X135950189Y-80245571D02*
X136045427Y-80197952D01*
X136045427Y-80197952D02*
X136188284Y-80197952D01*
X136188284Y-80197952D02*
X136283522Y-80245571D01*
X136283522Y-80245571D02*
X136331141Y-80340809D01*
X136331141Y-80340809D02*
X136331141Y-80864619D01*
X136712094Y-80197952D02*
X136950189Y-80864619D01*
X136950189Y-80864619D02*
X137188284Y-80197952D01*
X137950189Y-80817000D02*
X137854951Y-80864619D01*
X137854951Y-80864619D02*
X137664475Y-80864619D01*
X137664475Y-80864619D02*
X137569237Y-80817000D01*
X137569237Y-80817000D02*
X137521618Y-80721761D01*
X137521618Y-80721761D02*
X137521618Y-80340809D01*
X137521618Y-80340809D02*
X137569237Y-80245571D01*
X137569237Y-80245571D02*
X137664475Y-80197952D01*
X137664475Y-80197952D02*
X137854951Y-80197952D01*
X137854951Y-80197952D02*
X137950189Y-80245571D01*
X137950189Y-80245571D02*
X137997808Y-80340809D01*
X137997808Y-80340809D02*
X137997808Y-80436047D01*
X137997808Y-80436047D02*
X137521618Y-80531285D01*
X138426380Y-80864619D02*
X138426380Y-80197952D01*
X138426380Y-80388428D02*
X138473999Y-80293190D01*
X138473999Y-80293190D02*
X138521618Y-80245571D01*
X138521618Y-80245571D02*
X138616856Y-80197952D01*
X138616856Y-80197952D02*
X138712094Y-80197952D01*
X138902571Y-80197952D02*
X139283523Y-80197952D01*
X139045428Y-79864619D02*
X139045428Y-80721761D01*
X139045428Y-80721761D02*
X139093047Y-80817000D01*
X139093047Y-80817000D02*
X139188285Y-80864619D01*
X139188285Y-80864619D02*
X139283523Y-80864619D01*
X139997809Y-80817000D02*
X139902571Y-80864619D01*
X139902571Y-80864619D02*
X139712095Y-80864619D01*
X139712095Y-80864619D02*
X139616857Y-80817000D01*
X139616857Y-80817000D02*
X139569238Y-80721761D01*
X139569238Y-80721761D02*
X139569238Y-80340809D01*
X139569238Y-80340809D02*
X139616857Y-80245571D01*
X139616857Y-80245571D02*
X139712095Y-80197952D01*
X139712095Y-80197952D02*
X139902571Y-80197952D01*
X139902571Y-80197952D02*
X139997809Y-80245571D01*
X139997809Y-80245571D02*
X140045428Y-80340809D01*
X140045428Y-80340809D02*
X140045428Y-80436047D01*
X140045428Y-80436047D02*
X139569238Y-80531285D01*
X140474000Y-80864619D02*
X140474000Y-80197952D01*
X140474000Y-80388428D02*
X140521619Y-80293190D01*
X140521619Y-80293190D02*
X140569238Y-80245571D01*
X140569238Y-80245571D02*
X140664476Y-80197952D01*
X140664476Y-80197952D02*
X140759714Y-80197952D01*
D11*
X130420833Y-95804819D02*
X130087500Y-95328628D01*
X129849405Y-95804819D02*
X129849405Y-94804819D01*
X129849405Y-94804819D02*
X130230357Y-94804819D01*
X130230357Y-94804819D02*
X130325595Y-94852438D01*
X130325595Y-94852438D02*
X130373214Y-94900057D01*
X130373214Y-94900057D02*
X130420833Y-94995295D01*
X130420833Y-94995295D02*
X130420833Y-95138152D01*
X130420833Y-95138152D02*
X130373214Y-95233390D01*
X130373214Y-95233390D02*
X130325595Y-95281009D01*
X130325595Y-95281009D02*
X130230357Y-95328628D01*
X130230357Y-95328628D02*
X129849405Y-95328628D01*
X131277976Y-95138152D02*
X131277976Y-95804819D01*
X131039881Y-94757200D02*
X130801786Y-95471485D01*
X130801786Y-95471485D02*
X131420833Y-95471485D01*
X134834819Y-116333333D02*
X135549104Y-116333333D01*
X135549104Y-116333333D02*
X135691961Y-116380952D01*
X135691961Y-116380952D02*
X135787200Y-116476190D01*
X135787200Y-116476190D02*
X135834819Y-116619047D01*
X135834819Y-116619047D02*
X135834819Y-116714285D01*
X134834819Y-115380952D02*
X134834819Y-115857142D01*
X134834819Y-115857142D02*
X135311009Y-115904761D01*
X135311009Y-115904761D02*
X135263390Y-115857142D01*
X135263390Y-115857142D02*
X135215771Y-115761904D01*
X135215771Y-115761904D02*
X135215771Y-115523809D01*
X135215771Y-115523809D02*
X135263390Y-115428571D01*
X135263390Y-115428571D02*
X135311009Y-115380952D01*
X135311009Y-115380952D02*
X135406247Y-115333333D01*
X135406247Y-115333333D02*
X135644342Y-115333333D01*
X135644342Y-115333333D02*
X135739580Y-115380952D01*
X135739580Y-115380952D02*
X135787200Y-115428571D01*
X135787200Y-115428571D02*
X135834819Y-115523809D01*
X135834819Y-115523809D02*
X135834819Y-115761904D01*
X135834819Y-115761904D02*
X135787200Y-115857142D01*
X135787200Y-115857142D02*
X135739580Y-115904761D01*
X133833333Y-95859580D02*
X133785714Y-95907200D01*
X133785714Y-95907200D02*
X133642857Y-95954819D01*
X133642857Y-95954819D02*
X133547619Y-95954819D01*
X133547619Y-95954819D02*
X133404762Y-95907200D01*
X133404762Y-95907200D02*
X133309524Y-95811961D01*
X133309524Y-95811961D02*
X133261905Y-95716723D01*
X133261905Y-95716723D02*
X133214286Y-95526247D01*
X133214286Y-95526247D02*
X133214286Y-95383390D01*
X133214286Y-95383390D02*
X133261905Y-95192914D01*
X133261905Y-95192914D02*
X133309524Y-95097676D01*
X133309524Y-95097676D02*
X133404762Y-95002438D01*
X133404762Y-95002438D02*
X133547619Y-94954819D01*
X133547619Y-94954819D02*
X133642857Y-94954819D01*
X133642857Y-94954819D02*
X133785714Y-95002438D01*
X133785714Y-95002438D02*
X133833333Y-95050057D01*
X134166667Y-94954819D02*
X134785714Y-94954819D01*
X134785714Y-94954819D02*
X134452381Y-95335771D01*
X134452381Y-95335771D02*
X134595238Y-95335771D01*
X134595238Y-95335771D02*
X134690476Y-95383390D01*
X134690476Y-95383390D02*
X134738095Y-95431009D01*
X134738095Y-95431009D02*
X134785714Y-95526247D01*
X134785714Y-95526247D02*
X134785714Y-95764342D01*
X134785714Y-95764342D02*
X134738095Y-95859580D01*
X134738095Y-95859580D02*
X134690476Y-95907200D01*
X134690476Y-95907200D02*
X134595238Y-95954819D01*
X134595238Y-95954819D02*
X134309524Y-95954819D01*
X134309524Y-95954819D02*
X134214286Y-95907200D01*
X134214286Y-95907200D02*
X134166667Y-95859580D01*
X139595238Y-84074819D02*
X139595238Y-84789104D01*
X139595238Y-84789104D02*
X139547619Y-84931961D01*
X139547619Y-84931961D02*
X139452381Y-85027200D01*
X139452381Y-85027200D02*
X139309524Y-85074819D01*
X139309524Y-85074819D02*
X139214286Y-85074819D01*
X139833334Y-85170057D02*
X140595238Y-85170057D01*
X140690477Y-84074819D02*
X141023810Y-85074819D01*
X141023810Y-85074819D02*
X141357143Y-84074819D01*
X141690477Y-85074819D02*
X141690477Y-84074819D01*
X142166667Y-85074819D02*
X142166667Y-84074819D01*
X142166667Y-84074819D02*
X142738095Y-85074819D01*
X142738095Y-85074819D02*
X142738095Y-84074819D01*
X143738095Y-85074819D02*
X143166667Y-85074819D01*
X143452381Y-85074819D02*
X143452381Y-84074819D01*
X143452381Y-84074819D02*
X143357143Y-84217676D01*
X143357143Y-84217676D02*
X143261905Y-84312914D01*
X143261905Y-84312914D02*
X143166667Y-84360533D01*
X174859580Y-95095238D02*
X174907200Y-95142857D01*
X174907200Y-95142857D02*
X174954819Y-95285714D01*
X174954819Y-95285714D02*
X174954819Y-95380952D01*
X174954819Y-95380952D02*
X174907200Y-95523809D01*
X174907200Y-95523809D02*
X174811961Y-95619047D01*
X174811961Y-95619047D02*
X174716723Y-95666666D01*
X174716723Y-95666666D02*
X174526247Y-95714285D01*
X174526247Y-95714285D02*
X174383390Y-95714285D01*
X174383390Y-95714285D02*
X174192914Y-95666666D01*
X174192914Y-95666666D02*
X174097676Y-95619047D01*
X174097676Y-95619047D02*
X174002438Y-95523809D01*
X174002438Y-95523809D02*
X173954819Y-95380952D01*
X173954819Y-95380952D02*
X173954819Y-95285714D01*
X173954819Y-95285714D02*
X174002438Y-95142857D01*
X174002438Y-95142857D02*
X174050057Y-95095238D01*
X174954819Y-94142857D02*
X174954819Y-94714285D01*
X174954819Y-94428571D02*
X173954819Y-94428571D01*
X173954819Y-94428571D02*
X174097676Y-94523809D01*
X174097676Y-94523809D02*
X174192914Y-94619047D01*
X174192914Y-94619047D02*
X174240533Y-94714285D01*
X174954819Y-93714285D02*
X173954819Y-93714285D01*
X174335771Y-93714285D02*
X174288152Y-93619047D01*
X174288152Y-93619047D02*
X174288152Y-93428571D01*
X174288152Y-93428571D02*
X174335771Y-93333333D01*
X174335771Y-93333333D02*
X174383390Y-93285714D01*
X174383390Y-93285714D02*
X174478628Y-93238095D01*
X174478628Y-93238095D02*
X174764342Y-93238095D01*
X174764342Y-93238095D02*
X174859580Y-93285714D01*
X174859580Y-93285714D02*
X174907200Y-93333333D01*
X174907200Y-93333333D02*
X174954819Y-93428571D01*
X174954819Y-93428571D02*
X174954819Y-93619047D01*
X174954819Y-93619047D02*
X174907200Y-93714285D01*
X174050057Y-92857142D02*
X174002438Y-92809523D01*
X174002438Y-92809523D02*
X173954819Y-92714285D01*
X173954819Y-92714285D02*
X173954819Y-92476190D01*
X173954819Y-92476190D02*
X174002438Y-92380952D01*
X174002438Y-92380952D02*
X174050057Y-92333333D01*
X174050057Y-92333333D02*
X174145295Y-92285714D01*
X174145295Y-92285714D02*
X174240533Y-92285714D01*
X174240533Y-92285714D02*
X174383390Y-92333333D01*
X174383390Y-92333333D02*
X174954819Y-92904761D01*
X174954819Y-92904761D02*
X174954819Y-92285714D01*
X177666666Y-96574819D02*
X177666666Y-97289104D01*
X177666666Y-97289104D02*
X177619047Y-97431961D01*
X177619047Y-97431961D02*
X177523809Y-97527200D01*
X177523809Y-97527200D02*
X177380952Y-97574819D01*
X177380952Y-97574819D02*
X177285714Y-97574819D01*
X178095238Y-96670057D02*
X178142857Y-96622438D01*
X178142857Y-96622438D02*
X178238095Y-96574819D01*
X178238095Y-96574819D02*
X178476190Y-96574819D01*
X178476190Y-96574819D02*
X178571428Y-96622438D01*
X178571428Y-96622438D02*
X178619047Y-96670057D01*
X178619047Y-96670057D02*
X178666666Y-96765295D01*
X178666666Y-96765295D02*
X178666666Y-96860533D01*
X178666666Y-96860533D02*
X178619047Y-97003390D01*
X178619047Y-97003390D02*
X178047619Y-97574819D01*
X178047619Y-97574819D02*
X178666666Y-97574819D01*
X166454819Y-104079166D02*
X165978628Y-104412499D01*
X166454819Y-104650594D02*
X165454819Y-104650594D01*
X165454819Y-104650594D02*
X165454819Y-104269642D01*
X165454819Y-104269642D02*
X165502438Y-104174404D01*
X165502438Y-104174404D02*
X165550057Y-104126785D01*
X165550057Y-104126785D02*
X165645295Y-104079166D01*
X165645295Y-104079166D02*
X165788152Y-104079166D01*
X165788152Y-104079166D02*
X165883390Y-104126785D01*
X165883390Y-104126785D02*
X165931009Y-104174404D01*
X165931009Y-104174404D02*
X165978628Y-104269642D01*
X165978628Y-104269642D02*
X165978628Y-104650594D01*
X165550057Y-103698213D02*
X165502438Y-103650594D01*
X165502438Y-103650594D02*
X165454819Y-103555356D01*
X165454819Y-103555356D02*
X165454819Y-103317261D01*
X165454819Y-103317261D02*
X165502438Y-103222023D01*
X165502438Y-103222023D02*
X165550057Y-103174404D01*
X165550057Y-103174404D02*
X165645295Y-103126785D01*
X165645295Y-103126785D02*
X165740533Y-103126785D01*
X165740533Y-103126785D02*
X165883390Y-103174404D01*
X165883390Y-103174404D02*
X166454819Y-103745832D01*
X166454819Y-103745832D02*
X166454819Y-103126785D01*
X160209580Y-116570238D02*
X160257200Y-116617857D01*
X160257200Y-116617857D02*
X160304819Y-116760714D01*
X160304819Y-116760714D02*
X160304819Y-116855952D01*
X160304819Y-116855952D02*
X160257200Y-116998809D01*
X160257200Y-116998809D02*
X160161961Y-117094047D01*
X160161961Y-117094047D02*
X160066723Y-117141666D01*
X160066723Y-117141666D02*
X159876247Y-117189285D01*
X159876247Y-117189285D02*
X159733390Y-117189285D01*
X159733390Y-117189285D02*
X159542914Y-117141666D01*
X159542914Y-117141666D02*
X159447676Y-117094047D01*
X159447676Y-117094047D02*
X159352438Y-116998809D01*
X159352438Y-116998809D02*
X159304819Y-116855952D01*
X159304819Y-116855952D02*
X159304819Y-116760714D01*
X159304819Y-116760714D02*
X159352438Y-116617857D01*
X159352438Y-116617857D02*
X159400057Y-116570238D01*
X160304819Y-115617857D02*
X160304819Y-116189285D01*
X160304819Y-115903571D02*
X159304819Y-115903571D01*
X159304819Y-115903571D02*
X159447676Y-115998809D01*
X159447676Y-115998809D02*
X159542914Y-116094047D01*
X159542914Y-116094047D02*
X159590533Y-116189285D01*
X160304819Y-114760714D02*
X159781009Y-114760714D01*
X159781009Y-114760714D02*
X159685771Y-114808333D01*
X159685771Y-114808333D02*
X159638152Y-114903571D01*
X159638152Y-114903571D02*
X159638152Y-115094047D01*
X159638152Y-115094047D02*
X159685771Y-115189285D01*
X160257200Y-114760714D02*
X160304819Y-114855952D01*
X160304819Y-114855952D02*
X160304819Y-115094047D01*
X160304819Y-115094047D02*
X160257200Y-115189285D01*
X160257200Y-115189285D02*
X160161961Y-115236904D01*
X160161961Y-115236904D02*
X160066723Y-115236904D01*
X160066723Y-115236904D02*
X159971485Y-115189285D01*
X159971485Y-115189285D02*
X159923866Y-115094047D01*
X159923866Y-115094047D02*
X159923866Y-114855952D01*
X159923866Y-114855952D02*
X159876247Y-114760714D01*
X159638152Y-113855952D02*
X160304819Y-113855952D01*
X159257200Y-114094047D02*
X159971485Y-114332142D01*
X159971485Y-114332142D02*
X159971485Y-113713095D01*
X145954819Y-91079166D02*
X145478628Y-91412499D01*
X145954819Y-91650594D02*
X144954819Y-91650594D01*
X144954819Y-91650594D02*
X144954819Y-91269642D01*
X144954819Y-91269642D02*
X145002438Y-91174404D01*
X145002438Y-91174404D02*
X145050057Y-91126785D01*
X145050057Y-91126785D02*
X145145295Y-91079166D01*
X145145295Y-91079166D02*
X145288152Y-91079166D01*
X145288152Y-91079166D02*
X145383390Y-91126785D01*
X145383390Y-91126785D02*
X145431009Y-91174404D01*
X145431009Y-91174404D02*
X145478628Y-91269642D01*
X145478628Y-91269642D02*
X145478628Y-91650594D01*
X144954819Y-90174404D02*
X144954819Y-90650594D01*
X144954819Y-90650594D02*
X145431009Y-90698213D01*
X145431009Y-90698213D02*
X145383390Y-90650594D01*
X145383390Y-90650594D02*
X145335771Y-90555356D01*
X145335771Y-90555356D02*
X145335771Y-90317261D01*
X145335771Y-90317261D02*
X145383390Y-90222023D01*
X145383390Y-90222023D02*
X145431009Y-90174404D01*
X145431009Y-90174404D02*
X145526247Y-90126785D01*
X145526247Y-90126785D02*
X145764342Y-90126785D01*
X145764342Y-90126785D02*
X145859580Y-90174404D01*
X145859580Y-90174404D02*
X145907200Y-90222023D01*
X145907200Y-90222023D02*
X145954819Y-90317261D01*
X145954819Y-90317261D02*
X145954819Y-90555356D01*
X145954819Y-90555356D02*
X145907200Y-90650594D01*
X145907200Y-90650594D02*
X145859580Y-90698213D01*
X167709580Y-111570238D02*
X167757200Y-111617857D01*
X167757200Y-111617857D02*
X167804819Y-111760714D01*
X167804819Y-111760714D02*
X167804819Y-111855952D01*
X167804819Y-111855952D02*
X167757200Y-111998809D01*
X167757200Y-111998809D02*
X167661961Y-112094047D01*
X167661961Y-112094047D02*
X167566723Y-112141666D01*
X167566723Y-112141666D02*
X167376247Y-112189285D01*
X167376247Y-112189285D02*
X167233390Y-112189285D01*
X167233390Y-112189285D02*
X167042914Y-112141666D01*
X167042914Y-112141666D02*
X166947676Y-112094047D01*
X166947676Y-112094047D02*
X166852438Y-111998809D01*
X166852438Y-111998809D02*
X166804819Y-111855952D01*
X166804819Y-111855952D02*
X166804819Y-111760714D01*
X166804819Y-111760714D02*
X166852438Y-111617857D01*
X166852438Y-111617857D02*
X166900057Y-111570238D01*
X167804819Y-110617857D02*
X167804819Y-111189285D01*
X167804819Y-110903571D02*
X166804819Y-110903571D01*
X166804819Y-110903571D02*
X166947676Y-110998809D01*
X166947676Y-110998809D02*
X167042914Y-111094047D01*
X167042914Y-111094047D02*
X167090533Y-111189285D01*
X167804819Y-109760714D02*
X167281009Y-109760714D01*
X167281009Y-109760714D02*
X167185771Y-109808333D01*
X167185771Y-109808333D02*
X167138152Y-109903571D01*
X167138152Y-109903571D02*
X167138152Y-110094047D01*
X167138152Y-110094047D02*
X167185771Y-110189285D01*
X167757200Y-109760714D02*
X167804819Y-109855952D01*
X167804819Y-109855952D02*
X167804819Y-110094047D01*
X167804819Y-110094047D02*
X167757200Y-110189285D01*
X167757200Y-110189285D02*
X167661961Y-110236904D01*
X167661961Y-110236904D02*
X167566723Y-110236904D01*
X167566723Y-110236904D02*
X167471485Y-110189285D01*
X167471485Y-110189285D02*
X167423866Y-110094047D01*
X167423866Y-110094047D02*
X167423866Y-109855952D01*
X167423866Y-109855952D02*
X167376247Y-109760714D01*
X166804819Y-109379761D02*
X166804819Y-108713095D01*
X166804819Y-108713095D02*
X167804819Y-109141666D01*
X157709580Y-112095238D02*
X157757200Y-112142857D01*
X157757200Y-112142857D02*
X157804819Y-112285714D01*
X157804819Y-112285714D02*
X157804819Y-112380952D01*
X157804819Y-112380952D02*
X157757200Y-112523809D01*
X157757200Y-112523809D02*
X157661961Y-112619047D01*
X157661961Y-112619047D02*
X157566723Y-112666666D01*
X157566723Y-112666666D02*
X157376247Y-112714285D01*
X157376247Y-112714285D02*
X157233390Y-112714285D01*
X157233390Y-112714285D02*
X157042914Y-112666666D01*
X157042914Y-112666666D02*
X156947676Y-112619047D01*
X156947676Y-112619047D02*
X156852438Y-112523809D01*
X156852438Y-112523809D02*
X156804819Y-112380952D01*
X156804819Y-112380952D02*
X156804819Y-112285714D01*
X156804819Y-112285714D02*
X156852438Y-112142857D01*
X156852438Y-112142857D02*
X156900057Y-112095238D01*
X157804819Y-111142857D02*
X157804819Y-111714285D01*
X157804819Y-111428571D02*
X156804819Y-111428571D01*
X156804819Y-111428571D02*
X156947676Y-111523809D01*
X156947676Y-111523809D02*
X157042914Y-111619047D01*
X157042914Y-111619047D02*
X157090533Y-111714285D01*
X157804819Y-110285714D02*
X157281009Y-110285714D01*
X157281009Y-110285714D02*
X157185771Y-110333333D01*
X157185771Y-110333333D02*
X157138152Y-110428571D01*
X157138152Y-110428571D02*
X157138152Y-110619047D01*
X157138152Y-110619047D02*
X157185771Y-110714285D01*
X157757200Y-110285714D02*
X157804819Y-110380952D01*
X157804819Y-110380952D02*
X157804819Y-110619047D01*
X157804819Y-110619047D02*
X157757200Y-110714285D01*
X157757200Y-110714285D02*
X157661961Y-110761904D01*
X157661961Y-110761904D02*
X157566723Y-110761904D01*
X157566723Y-110761904D02*
X157471485Y-110714285D01*
X157471485Y-110714285D02*
X157423866Y-110619047D01*
X157423866Y-110619047D02*
X157423866Y-110380952D01*
X157423866Y-110380952D02*
X157376247Y-110285714D01*
X156804819Y-109904761D02*
X156804819Y-109285714D01*
X156804819Y-109285714D02*
X157185771Y-109619047D01*
X157185771Y-109619047D02*
X157185771Y-109476190D01*
X157185771Y-109476190D02*
X157233390Y-109380952D01*
X157233390Y-109380952D02*
X157281009Y-109333333D01*
X157281009Y-109333333D02*
X157376247Y-109285714D01*
X157376247Y-109285714D02*
X157614342Y-109285714D01*
X157614342Y-109285714D02*
X157709580Y-109333333D01*
X157709580Y-109333333D02*
X157757200Y-109380952D01*
X157757200Y-109380952D02*
X157804819Y-109476190D01*
X157804819Y-109476190D02*
X157804819Y-109761904D01*
X157804819Y-109761904D02*
X157757200Y-109857142D01*
X157757200Y-109857142D02*
X157709580Y-109904761D01*
X153883333Y-97179580D02*
X153835714Y-97227200D01*
X153835714Y-97227200D02*
X153692857Y-97274819D01*
X153692857Y-97274819D02*
X153597619Y-97274819D01*
X153597619Y-97274819D02*
X153454762Y-97227200D01*
X153454762Y-97227200D02*
X153359524Y-97131961D01*
X153359524Y-97131961D02*
X153311905Y-97036723D01*
X153311905Y-97036723D02*
X153264286Y-96846247D01*
X153264286Y-96846247D02*
X153264286Y-96703390D01*
X153264286Y-96703390D02*
X153311905Y-96512914D01*
X153311905Y-96512914D02*
X153359524Y-96417676D01*
X153359524Y-96417676D02*
X153454762Y-96322438D01*
X153454762Y-96322438D02*
X153597619Y-96274819D01*
X153597619Y-96274819D02*
X153692857Y-96274819D01*
X153692857Y-96274819D02*
X153835714Y-96322438D01*
X153835714Y-96322438D02*
X153883333Y-96370057D01*
X154740476Y-96608152D02*
X154740476Y-97274819D01*
X154502381Y-96227200D02*
X154264286Y-96941485D01*
X154264286Y-96941485D02*
X154883333Y-96941485D01*
X126833333Y-97859580D02*
X126785714Y-97907200D01*
X126785714Y-97907200D02*
X126642857Y-97954819D01*
X126642857Y-97954819D02*
X126547619Y-97954819D01*
X126547619Y-97954819D02*
X126404762Y-97907200D01*
X126404762Y-97907200D02*
X126309524Y-97811961D01*
X126309524Y-97811961D02*
X126261905Y-97716723D01*
X126261905Y-97716723D02*
X126214286Y-97526247D01*
X126214286Y-97526247D02*
X126214286Y-97383390D01*
X126214286Y-97383390D02*
X126261905Y-97192914D01*
X126261905Y-97192914D02*
X126309524Y-97097676D01*
X126309524Y-97097676D02*
X126404762Y-97002438D01*
X126404762Y-97002438D02*
X126547619Y-96954819D01*
X126547619Y-96954819D02*
X126642857Y-96954819D01*
X126642857Y-96954819D02*
X126785714Y-97002438D01*
X126785714Y-97002438D02*
X126833333Y-97050057D01*
X127214286Y-97050057D02*
X127261905Y-97002438D01*
X127261905Y-97002438D02*
X127357143Y-96954819D01*
X127357143Y-96954819D02*
X127595238Y-96954819D01*
X127595238Y-96954819D02*
X127690476Y-97002438D01*
X127690476Y-97002438D02*
X127738095Y-97050057D01*
X127738095Y-97050057D02*
X127785714Y-97145295D01*
X127785714Y-97145295D02*
X127785714Y-97240533D01*
X127785714Y-97240533D02*
X127738095Y-97383390D01*
X127738095Y-97383390D02*
X127166667Y-97954819D01*
X127166667Y-97954819D02*
X127785714Y-97954819D01*
X152859580Y-112595238D02*
X152907200Y-112642857D01*
X152907200Y-112642857D02*
X152954819Y-112785714D01*
X152954819Y-112785714D02*
X152954819Y-112880952D01*
X152954819Y-112880952D02*
X152907200Y-113023809D01*
X152907200Y-113023809D02*
X152811961Y-113119047D01*
X152811961Y-113119047D02*
X152716723Y-113166666D01*
X152716723Y-113166666D02*
X152526247Y-113214285D01*
X152526247Y-113214285D02*
X152383390Y-113214285D01*
X152383390Y-113214285D02*
X152192914Y-113166666D01*
X152192914Y-113166666D02*
X152097676Y-113119047D01*
X152097676Y-113119047D02*
X152002438Y-113023809D01*
X152002438Y-113023809D02*
X151954819Y-112880952D01*
X151954819Y-112880952D02*
X151954819Y-112785714D01*
X151954819Y-112785714D02*
X152002438Y-112642857D01*
X152002438Y-112642857D02*
X152050057Y-112595238D01*
X152954819Y-111642857D02*
X152954819Y-112214285D01*
X152954819Y-111928571D02*
X151954819Y-111928571D01*
X151954819Y-111928571D02*
X152097676Y-112023809D01*
X152097676Y-112023809D02*
X152192914Y-112119047D01*
X152192914Y-112119047D02*
X152240533Y-112214285D01*
X152954819Y-110785714D02*
X152431009Y-110785714D01*
X152431009Y-110785714D02*
X152335771Y-110833333D01*
X152335771Y-110833333D02*
X152288152Y-110928571D01*
X152288152Y-110928571D02*
X152288152Y-111119047D01*
X152288152Y-111119047D02*
X152335771Y-111214285D01*
X152907200Y-110785714D02*
X152954819Y-110880952D01*
X152954819Y-110880952D02*
X152954819Y-111119047D01*
X152954819Y-111119047D02*
X152907200Y-111214285D01*
X152907200Y-111214285D02*
X152811961Y-111261904D01*
X152811961Y-111261904D02*
X152716723Y-111261904D01*
X152716723Y-111261904D02*
X152621485Y-111214285D01*
X152621485Y-111214285D02*
X152573866Y-111119047D01*
X152573866Y-111119047D02*
X152573866Y-110880952D01*
X152573866Y-110880952D02*
X152526247Y-110785714D01*
X152954819Y-109785714D02*
X152954819Y-110357142D01*
X152954819Y-110071428D02*
X151954819Y-110071428D01*
X151954819Y-110071428D02*
X152097676Y-110166666D01*
X152097676Y-110166666D02*
X152192914Y-110261904D01*
X152192914Y-110261904D02*
X152240533Y-110357142D01*
X172539580Y-98545238D02*
X172587200Y-98592857D01*
X172587200Y-98592857D02*
X172634819Y-98735714D01*
X172634819Y-98735714D02*
X172634819Y-98830952D01*
X172634819Y-98830952D02*
X172587200Y-98973809D01*
X172587200Y-98973809D02*
X172491961Y-99069047D01*
X172491961Y-99069047D02*
X172396723Y-99116666D01*
X172396723Y-99116666D02*
X172206247Y-99164285D01*
X172206247Y-99164285D02*
X172063390Y-99164285D01*
X172063390Y-99164285D02*
X171872914Y-99116666D01*
X171872914Y-99116666D02*
X171777676Y-99069047D01*
X171777676Y-99069047D02*
X171682438Y-98973809D01*
X171682438Y-98973809D02*
X171634819Y-98830952D01*
X171634819Y-98830952D02*
X171634819Y-98735714D01*
X171634819Y-98735714D02*
X171682438Y-98592857D01*
X171682438Y-98592857D02*
X171730057Y-98545238D01*
X172634819Y-97592857D02*
X172634819Y-98164285D01*
X172634819Y-97878571D02*
X171634819Y-97878571D01*
X171634819Y-97878571D02*
X171777676Y-97973809D01*
X171777676Y-97973809D02*
X171872914Y-98069047D01*
X171872914Y-98069047D02*
X171920533Y-98164285D01*
X172634819Y-97164285D02*
X171634819Y-97164285D01*
X172015771Y-97164285D02*
X171968152Y-97069047D01*
X171968152Y-97069047D02*
X171968152Y-96878571D01*
X171968152Y-96878571D02*
X172015771Y-96783333D01*
X172015771Y-96783333D02*
X172063390Y-96735714D01*
X172063390Y-96735714D02*
X172158628Y-96688095D01*
X172158628Y-96688095D02*
X172444342Y-96688095D01*
X172444342Y-96688095D02*
X172539580Y-96735714D01*
X172539580Y-96735714D02*
X172587200Y-96783333D01*
X172587200Y-96783333D02*
X172634819Y-96878571D01*
X172634819Y-96878571D02*
X172634819Y-97069047D01*
X172634819Y-97069047D02*
X172587200Y-97164285D01*
X172634819Y-95735714D02*
X172634819Y-96307142D01*
X172634819Y-96021428D02*
X171634819Y-96021428D01*
X171634819Y-96021428D02*
X171777676Y-96116666D01*
X171777676Y-96116666D02*
X171872914Y-96211904D01*
X171872914Y-96211904D02*
X171920533Y-96307142D01*
X166304819Y-99579166D02*
X165828628Y-99912499D01*
X166304819Y-100150594D02*
X165304819Y-100150594D01*
X165304819Y-100150594D02*
X165304819Y-99769642D01*
X165304819Y-99769642D02*
X165352438Y-99674404D01*
X165352438Y-99674404D02*
X165400057Y-99626785D01*
X165400057Y-99626785D02*
X165495295Y-99579166D01*
X165495295Y-99579166D02*
X165638152Y-99579166D01*
X165638152Y-99579166D02*
X165733390Y-99626785D01*
X165733390Y-99626785D02*
X165781009Y-99674404D01*
X165781009Y-99674404D02*
X165828628Y-99769642D01*
X165828628Y-99769642D02*
X165828628Y-100150594D01*
X165304819Y-99245832D02*
X165304819Y-98626785D01*
X165304819Y-98626785D02*
X165685771Y-98960118D01*
X165685771Y-98960118D02*
X165685771Y-98817261D01*
X165685771Y-98817261D02*
X165733390Y-98722023D01*
X165733390Y-98722023D02*
X165781009Y-98674404D01*
X165781009Y-98674404D02*
X165876247Y-98626785D01*
X165876247Y-98626785D02*
X166114342Y-98626785D01*
X166114342Y-98626785D02*
X166209580Y-98674404D01*
X166209580Y-98674404D02*
X166257200Y-98722023D01*
X166257200Y-98722023D02*
X166304819Y-98817261D01*
X166304819Y-98817261D02*
X166304819Y-99102975D01*
X166304819Y-99102975D02*
X166257200Y-99198213D01*
X166257200Y-99198213D02*
X166209580Y-99245832D01*
X131858333Y-85259580D02*
X131810714Y-85307200D01*
X131810714Y-85307200D02*
X131667857Y-85354819D01*
X131667857Y-85354819D02*
X131572619Y-85354819D01*
X131572619Y-85354819D02*
X131429762Y-85307200D01*
X131429762Y-85307200D02*
X131334524Y-85211961D01*
X131334524Y-85211961D02*
X131286905Y-85116723D01*
X131286905Y-85116723D02*
X131239286Y-84926247D01*
X131239286Y-84926247D02*
X131239286Y-84783390D01*
X131239286Y-84783390D02*
X131286905Y-84592914D01*
X131286905Y-84592914D02*
X131334524Y-84497676D01*
X131334524Y-84497676D02*
X131429762Y-84402438D01*
X131429762Y-84402438D02*
X131572619Y-84354819D01*
X131572619Y-84354819D02*
X131667857Y-84354819D01*
X131667857Y-84354819D02*
X131810714Y-84402438D01*
X131810714Y-84402438D02*
X131858333Y-84450057D01*
X132191667Y-84354819D02*
X132858333Y-84354819D01*
X132858333Y-84354819D02*
X132429762Y-85354819D01*
X165209580Y-116570238D02*
X165257200Y-116617857D01*
X165257200Y-116617857D02*
X165304819Y-116760714D01*
X165304819Y-116760714D02*
X165304819Y-116855952D01*
X165304819Y-116855952D02*
X165257200Y-116998809D01*
X165257200Y-116998809D02*
X165161961Y-117094047D01*
X165161961Y-117094047D02*
X165066723Y-117141666D01*
X165066723Y-117141666D02*
X164876247Y-117189285D01*
X164876247Y-117189285D02*
X164733390Y-117189285D01*
X164733390Y-117189285D02*
X164542914Y-117141666D01*
X164542914Y-117141666D02*
X164447676Y-117094047D01*
X164447676Y-117094047D02*
X164352438Y-116998809D01*
X164352438Y-116998809D02*
X164304819Y-116855952D01*
X164304819Y-116855952D02*
X164304819Y-116760714D01*
X164304819Y-116760714D02*
X164352438Y-116617857D01*
X164352438Y-116617857D02*
X164400057Y-116570238D01*
X165304819Y-115617857D02*
X165304819Y-116189285D01*
X165304819Y-115903571D02*
X164304819Y-115903571D01*
X164304819Y-115903571D02*
X164447676Y-115998809D01*
X164447676Y-115998809D02*
X164542914Y-116094047D01*
X164542914Y-116094047D02*
X164590533Y-116189285D01*
X165304819Y-114760714D02*
X164781009Y-114760714D01*
X164781009Y-114760714D02*
X164685771Y-114808333D01*
X164685771Y-114808333D02*
X164638152Y-114903571D01*
X164638152Y-114903571D02*
X164638152Y-115094047D01*
X164638152Y-115094047D02*
X164685771Y-115189285D01*
X165257200Y-114760714D02*
X165304819Y-114855952D01*
X165304819Y-114855952D02*
X165304819Y-115094047D01*
X165304819Y-115094047D02*
X165257200Y-115189285D01*
X165257200Y-115189285D02*
X165161961Y-115236904D01*
X165161961Y-115236904D02*
X165066723Y-115236904D01*
X165066723Y-115236904D02*
X164971485Y-115189285D01*
X164971485Y-115189285D02*
X164923866Y-115094047D01*
X164923866Y-115094047D02*
X164923866Y-114855952D01*
X164923866Y-114855952D02*
X164876247Y-114760714D01*
X164304819Y-113855952D02*
X164304819Y-114046428D01*
X164304819Y-114046428D02*
X164352438Y-114141666D01*
X164352438Y-114141666D02*
X164400057Y-114189285D01*
X164400057Y-114189285D02*
X164542914Y-114284523D01*
X164542914Y-114284523D02*
X164733390Y-114332142D01*
X164733390Y-114332142D02*
X165114342Y-114332142D01*
X165114342Y-114332142D02*
X165209580Y-114284523D01*
X165209580Y-114284523D02*
X165257200Y-114236904D01*
X165257200Y-114236904D02*
X165304819Y-114141666D01*
X165304819Y-114141666D02*
X165304819Y-113951190D01*
X165304819Y-113951190D02*
X165257200Y-113855952D01*
X165257200Y-113855952D02*
X165209580Y-113808333D01*
X165209580Y-113808333D02*
X165114342Y-113760714D01*
X165114342Y-113760714D02*
X164876247Y-113760714D01*
X164876247Y-113760714D02*
X164781009Y-113808333D01*
X164781009Y-113808333D02*
X164733390Y-113855952D01*
X164733390Y-113855952D02*
X164685771Y-113951190D01*
X164685771Y-113951190D02*
X164685771Y-114141666D01*
X164685771Y-114141666D02*
X164733390Y-114236904D01*
X164733390Y-114236904D02*
X164781009Y-114284523D01*
X164781009Y-114284523D02*
X164876247Y-114332142D01*
X139420833Y-101804819D02*
X139087500Y-101328628D01*
X138849405Y-101804819D02*
X138849405Y-100804819D01*
X138849405Y-100804819D02*
X139230357Y-100804819D01*
X139230357Y-100804819D02*
X139325595Y-100852438D01*
X139325595Y-100852438D02*
X139373214Y-100900057D01*
X139373214Y-100900057D02*
X139420833Y-100995295D01*
X139420833Y-100995295D02*
X139420833Y-101138152D01*
X139420833Y-101138152D02*
X139373214Y-101233390D01*
X139373214Y-101233390D02*
X139325595Y-101281009D01*
X139325595Y-101281009D02*
X139230357Y-101328628D01*
X139230357Y-101328628D02*
X138849405Y-101328628D01*
X140373214Y-101804819D02*
X139801786Y-101804819D01*
X140087500Y-101804819D02*
X140087500Y-100804819D01*
X140087500Y-100804819D02*
X139992262Y-100947676D01*
X139992262Y-100947676D02*
X139897024Y-101042914D01*
X139897024Y-101042914D02*
X139801786Y-101090533D01*
X134834819Y-111833333D02*
X135549104Y-111833333D01*
X135549104Y-111833333D02*
X135691961Y-111880952D01*
X135691961Y-111880952D02*
X135787200Y-111976190D01*
X135787200Y-111976190D02*
X135834819Y-112119047D01*
X135834819Y-112119047D02*
X135834819Y-112214285D01*
X135168152Y-110928571D02*
X135834819Y-110928571D01*
X134787200Y-111166666D02*
X135501485Y-111404761D01*
X135501485Y-111404761D02*
X135501485Y-110785714D01*
X159629761Y-100555057D02*
X159534523Y-100507438D01*
X159534523Y-100507438D02*
X159439285Y-100412200D01*
X159439285Y-100412200D02*
X159296428Y-100269342D01*
X159296428Y-100269342D02*
X159201190Y-100221723D01*
X159201190Y-100221723D02*
X159105952Y-100221723D01*
X159153571Y-100459819D02*
X159058333Y-100412200D01*
X159058333Y-100412200D02*
X158963095Y-100316961D01*
X158963095Y-100316961D02*
X158915476Y-100126485D01*
X158915476Y-100126485D02*
X158915476Y-99793152D01*
X158915476Y-99793152D02*
X158963095Y-99602676D01*
X158963095Y-99602676D02*
X159058333Y-99507438D01*
X159058333Y-99507438D02*
X159153571Y-99459819D01*
X159153571Y-99459819D02*
X159344047Y-99459819D01*
X159344047Y-99459819D02*
X159439285Y-99507438D01*
X159439285Y-99507438D02*
X159534523Y-99602676D01*
X159534523Y-99602676D02*
X159582142Y-99793152D01*
X159582142Y-99793152D02*
X159582142Y-100126485D01*
X159582142Y-100126485D02*
X159534523Y-100316961D01*
X159534523Y-100316961D02*
X159439285Y-100412200D01*
X159439285Y-100412200D02*
X159344047Y-100459819D01*
X159344047Y-100459819D02*
X159153571Y-100459819D01*
X160534523Y-100459819D02*
X159963095Y-100459819D01*
X160248809Y-100459819D02*
X160248809Y-99459819D01*
X160248809Y-99459819D02*
X160153571Y-99602676D01*
X160153571Y-99602676D02*
X160058333Y-99697914D01*
X160058333Y-99697914D02*
X159963095Y-99745533D01*
X147238095Y-98004819D02*
X147238095Y-98814342D01*
X147238095Y-98814342D02*
X147285714Y-98909580D01*
X147285714Y-98909580D02*
X147333333Y-98957200D01*
X147333333Y-98957200D02*
X147428571Y-99004819D01*
X147428571Y-99004819D02*
X147619047Y-99004819D01*
X147619047Y-99004819D02*
X147714285Y-98957200D01*
X147714285Y-98957200D02*
X147761904Y-98909580D01*
X147761904Y-98909580D02*
X147809523Y-98814342D01*
X147809523Y-98814342D02*
X147809523Y-98004819D01*
X148809523Y-99004819D02*
X148238095Y-99004819D01*
X148523809Y-99004819D02*
X148523809Y-98004819D01*
X148523809Y-98004819D02*
X148428571Y-98147676D01*
X148428571Y-98147676D02*
X148333333Y-98242914D01*
X148333333Y-98242914D02*
X148238095Y-98290533D01*
X134954819Y-106833333D02*
X135669104Y-106833333D01*
X135669104Y-106833333D02*
X135811961Y-106880952D01*
X135811961Y-106880952D02*
X135907200Y-106976190D01*
X135907200Y-106976190D02*
X135954819Y-107119047D01*
X135954819Y-107119047D02*
X135954819Y-107214285D01*
X134954819Y-106452380D02*
X134954819Y-105833333D01*
X134954819Y-105833333D02*
X135335771Y-106166666D01*
X135335771Y-106166666D02*
X135335771Y-106023809D01*
X135335771Y-106023809D02*
X135383390Y-105928571D01*
X135383390Y-105928571D02*
X135431009Y-105880952D01*
X135431009Y-105880952D02*
X135526247Y-105833333D01*
X135526247Y-105833333D02*
X135764342Y-105833333D01*
X135764342Y-105833333D02*
X135859580Y-105880952D01*
X135859580Y-105880952D02*
X135907200Y-105928571D01*
X135907200Y-105928571D02*
X135954819Y-106023809D01*
X135954819Y-106023809D02*
X135954819Y-106309523D01*
X135954819Y-106309523D02*
X135907200Y-106404761D01*
X135907200Y-106404761D02*
X135859580Y-106452380D01*
X154813333Y-79124819D02*
X154337143Y-79124819D01*
X154337143Y-79124819D02*
X154337143Y-78124819D01*
X155670476Y-79124819D02*
X155099048Y-79124819D01*
X155384762Y-79124819D02*
X155384762Y-78124819D01*
X155384762Y-78124819D02*
X155289524Y-78267676D01*
X155289524Y-78267676D02*
X155194286Y-78362914D01*
X155194286Y-78362914D02*
X155099048Y-78410533D01*
X162709580Y-111570238D02*
X162757200Y-111617857D01*
X162757200Y-111617857D02*
X162804819Y-111760714D01*
X162804819Y-111760714D02*
X162804819Y-111855952D01*
X162804819Y-111855952D02*
X162757200Y-111998809D01*
X162757200Y-111998809D02*
X162661961Y-112094047D01*
X162661961Y-112094047D02*
X162566723Y-112141666D01*
X162566723Y-112141666D02*
X162376247Y-112189285D01*
X162376247Y-112189285D02*
X162233390Y-112189285D01*
X162233390Y-112189285D02*
X162042914Y-112141666D01*
X162042914Y-112141666D02*
X161947676Y-112094047D01*
X161947676Y-112094047D02*
X161852438Y-111998809D01*
X161852438Y-111998809D02*
X161804819Y-111855952D01*
X161804819Y-111855952D02*
X161804819Y-111760714D01*
X161804819Y-111760714D02*
X161852438Y-111617857D01*
X161852438Y-111617857D02*
X161900057Y-111570238D01*
X162804819Y-110617857D02*
X162804819Y-111189285D01*
X162804819Y-110903571D02*
X161804819Y-110903571D01*
X161804819Y-110903571D02*
X161947676Y-110998809D01*
X161947676Y-110998809D02*
X162042914Y-111094047D01*
X162042914Y-111094047D02*
X162090533Y-111189285D01*
X162804819Y-109760714D02*
X162281009Y-109760714D01*
X162281009Y-109760714D02*
X162185771Y-109808333D01*
X162185771Y-109808333D02*
X162138152Y-109903571D01*
X162138152Y-109903571D02*
X162138152Y-110094047D01*
X162138152Y-110094047D02*
X162185771Y-110189285D01*
X162757200Y-109760714D02*
X162804819Y-109855952D01*
X162804819Y-109855952D02*
X162804819Y-110094047D01*
X162804819Y-110094047D02*
X162757200Y-110189285D01*
X162757200Y-110189285D02*
X162661961Y-110236904D01*
X162661961Y-110236904D02*
X162566723Y-110236904D01*
X162566723Y-110236904D02*
X162471485Y-110189285D01*
X162471485Y-110189285D02*
X162423866Y-110094047D01*
X162423866Y-110094047D02*
X162423866Y-109855952D01*
X162423866Y-109855952D02*
X162376247Y-109760714D01*
X161804819Y-108808333D02*
X161804819Y-109284523D01*
X161804819Y-109284523D02*
X162281009Y-109332142D01*
X162281009Y-109332142D02*
X162233390Y-109284523D01*
X162233390Y-109284523D02*
X162185771Y-109189285D01*
X162185771Y-109189285D02*
X162185771Y-108951190D01*
X162185771Y-108951190D02*
X162233390Y-108855952D01*
X162233390Y-108855952D02*
X162281009Y-108808333D01*
X162281009Y-108808333D02*
X162376247Y-108760714D01*
X162376247Y-108760714D02*
X162614342Y-108760714D01*
X162614342Y-108760714D02*
X162709580Y-108808333D01*
X162709580Y-108808333D02*
X162757200Y-108855952D01*
X162757200Y-108855952D02*
X162804819Y-108951190D01*
X162804819Y-108951190D02*
X162804819Y-109189285D01*
X162804819Y-109189285D02*
X162757200Y-109284523D01*
X162757200Y-109284523D02*
X162709580Y-109332142D01*
X125430682Y-85109580D02*
X125383063Y-85157200D01*
X125383063Y-85157200D02*
X125240206Y-85204819D01*
X125240206Y-85204819D02*
X125144968Y-85204819D01*
X125144968Y-85204819D02*
X125002111Y-85157200D01*
X125002111Y-85157200D02*
X124906873Y-85061961D01*
X124906873Y-85061961D02*
X124859254Y-84966723D01*
X124859254Y-84966723D02*
X124811635Y-84776247D01*
X124811635Y-84776247D02*
X124811635Y-84633390D01*
X124811635Y-84633390D02*
X124859254Y-84442914D01*
X124859254Y-84442914D02*
X124906873Y-84347676D01*
X124906873Y-84347676D02*
X125002111Y-84252438D01*
X125002111Y-84252438D02*
X125144968Y-84204819D01*
X125144968Y-84204819D02*
X125240206Y-84204819D01*
X125240206Y-84204819D02*
X125383063Y-84252438D01*
X125383063Y-84252438D02*
X125430682Y-84300057D01*
X126383063Y-85204819D02*
X125811635Y-85204819D01*
X126097349Y-85204819D02*
X126097349Y-84204819D01*
X126097349Y-84204819D02*
X126002111Y-84347676D01*
X126002111Y-84347676D02*
X125906873Y-84442914D01*
X125906873Y-84442914D02*
X125811635Y-84490533D01*
X149333333Y-95454819D02*
X149000000Y-94978628D01*
X148761905Y-95454819D02*
X148761905Y-94454819D01*
X148761905Y-94454819D02*
X149142857Y-94454819D01*
X149142857Y-94454819D02*
X149238095Y-94502438D01*
X149238095Y-94502438D02*
X149285714Y-94550057D01*
X149285714Y-94550057D02*
X149333333Y-94645295D01*
X149333333Y-94645295D02*
X149333333Y-94788152D01*
X149333333Y-94788152D02*
X149285714Y-94883390D01*
X149285714Y-94883390D02*
X149238095Y-94931009D01*
X149238095Y-94931009D02*
X149142857Y-94978628D01*
X149142857Y-94978628D02*
X148761905Y-94978628D01*
X150190476Y-94454819D02*
X150000000Y-94454819D01*
X150000000Y-94454819D02*
X149904762Y-94502438D01*
X149904762Y-94502438D02*
X149857143Y-94550057D01*
X149857143Y-94550057D02*
X149761905Y-94692914D01*
X149761905Y-94692914D02*
X149714286Y-94883390D01*
X149714286Y-94883390D02*
X149714286Y-95264342D01*
X149714286Y-95264342D02*
X149761905Y-95359580D01*
X149761905Y-95359580D02*
X149809524Y-95407200D01*
X149809524Y-95407200D02*
X149904762Y-95454819D01*
X149904762Y-95454819D02*
X150095238Y-95454819D01*
X150095238Y-95454819D02*
X150190476Y-95407200D01*
X150190476Y-95407200D02*
X150238095Y-95359580D01*
X150238095Y-95359580D02*
X150285714Y-95264342D01*
X150285714Y-95264342D02*
X150285714Y-95026247D01*
X150285714Y-95026247D02*
X150238095Y-94931009D01*
X150238095Y-94931009D02*
X150190476Y-94883390D01*
X150190476Y-94883390D02*
X150095238Y-94835771D01*
X150095238Y-94835771D02*
X149904762Y-94835771D01*
X149904762Y-94835771D02*
X149809524Y-94883390D01*
X149809524Y-94883390D02*
X149761905Y-94931009D01*
X149761905Y-94931009D02*
X149714286Y-95026247D01*
X167721905Y-96054819D02*
X167721905Y-95054819D01*
X167721905Y-95054819D02*
X167960000Y-95054819D01*
X167960000Y-95054819D02*
X168102857Y-95102438D01*
X168102857Y-95102438D02*
X168198095Y-95197676D01*
X168198095Y-95197676D02*
X168245714Y-95292914D01*
X168245714Y-95292914D02*
X168293333Y-95483390D01*
X168293333Y-95483390D02*
X168293333Y-95626247D01*
X168293333Y-95626247D02*
X168245714Y-95816723D01*
X168245714Y-95816723D02*
X168198095Y-95911961D01*
X168198095Y-95911961D02*
X168102857Y-96007200D01*
X168102857Y-96007200D02*
X167960000Y-96054819D01*
X167960000Y-96054819D02*
X167721905Y-96054819D01*
X169245714Y-96054819D02*
X168674286Y-96054819D01*
X168960000Y-96054819D02*
X168960000Y-95054819D01*
X168960000Y-95054819D02*
X168864762Y-95197676D01*
X168864762Y-95197676D02*
X168769524Y-95292914D01*
X168769524Y-95292914D02*
X168674286Y-95340533D01*
X135358333Y-85259580D02*
X135310714Y-85307200D01*
X135310714Y-85307200D02*
X135167857Y-85354819D01*
X135167857Y-85354819D02*
X135072619Y-85354819D01*
X135072619Y-85354819D02*
X134929762Y-85307200D01*
X134929762Y-85307200D02*
X134834524Y-85211961D01*
X134834524Y-85211961D02*
X134786905Y-85116723D01*
X134786905Y-85116723D02*
X134739286Y-84926247D01*
X134739286Y-84926247D02*
X134739286Y-84783390D01*
X134739286Y-84783390D02*
X134786905Y-84592914D01*
X134786905Y-84592914D02*
X134834524Y-84497676D01*
X134834524Y-84497676D02*
X134929762Y-84402438D01*
X134929762Y-84402438D02*
X135072619Y-84354819D01*
X135072619Y-84354819D02*
X135167857Y-84354819D01*
X135167857Y-84354819D02*
X135310714Y-84402438D01*
X135310714Y-84402438D02*
X135358333Y-84450057D01*
X136215476Y-84354819D02*
X136025000Y-84354819D01*
X136025000Y-84354819D02*
X135929762Y-84402438D01*
X135929762Y-84402438D02*
X135882143Y-84450057D01*
X135882143Y-84450057D02*
X135786905Y-84592914D01*
X135786905Y-84592914D02*
X135739286Y-84783390D01*
X135739286Y-84783390D02*
X135739286Y-85164342D01*
X135739286Y-85164342D02*
X135786905Y-85259580D01*
X135786905Y-85259580D02*
X135834524Y-85307200D01*
X135834524Y-85307200D02*
X135929762Y-85354819D01*
X135929762Y-85354819D02*
X136120238Y-85354819D01*
X136120238Y-85354819D02*
X136215476Y-85307200D01*
X136215476Y-85307200D02*
X136263095Y-85259580D01*
X136263095Y-85259580D02*
X136310714Y-85164342D01*
X136310714Y-85164342D02*
X136310714Y-84926247D01*
X136310714Y-84926247D02*
X136263095Y-84831009D01*
X136263095Y-84831009D02*
X136215476Y-84783390D01*
X136215476Y-84783390D02*
X136120238Y-84735771D01*
X136120238Y-84735771D02*
X135929762Y-84735771D01*
X135929762Y-84735771D02*
X135834524Y-84783390D01*
X135834524Y-84783390D02*
X135786905Y-84831009D01*
X135786905Y-84831009D02*
X135739286Y-84926247D01*
X148904761Y-115834580D02*
X148857142Y-115882200D01*
X148857142Y-115882200D02*
X148714285Y-115929819D01*
X148714285Y-115929819D02*
X148619047Y-115929819D01*
X148619047Y-115929819D02*
X148476190Y-115882200D01*
X148476190Y-115882200D02*
X148380952Y-115786961D01*
X148380952Y-115786961D02*
X148333333Y-115691723D01*
X148333333Y-115691723D02*
X148285714Y-115501247D01*
X148285714Y-115501247D02*
X148285714Y-115358390D01*
X148285714Y-115358390D02*
X148333333Y-115167914D01*
X148333333Y-115167914D02*
X148380952Y-115072676D01*
X148380952Y-115072676D02*
X148476190Y-114977438D01*
X148476190Y-114977438D02*
X148619047Y-114929819D01*
X148619047Y-114929819D02*
X148714285Y-114929819D01*
X148714285Y-114929819D02*
X148857142Y-114977438D01*
X148857142Y-114977438D02*
X148904761Y-115025057D01*
X149857142Y-115929819D02*
X149285714Y-115929819D01*
X149571428Y-115929819D02*
X149571428Y-114929819D01*
X149571428Y-114929819D02*
X149476190Y-115072676D01*
X149476190Y-115072676D02*
X149380952Y-115167914D01*
X149380952Y-115167914D02*
X149285714Y-115215533D01*
X150714285Y-115929819D02*
X150714285Y-115406009D01*
X150714285Y-115406009D02*
X150666666Y-115310771D01*
X150666666Y-115310771D02*
X150571428Y-115263152D01*
X150571428Y-115263152D02*
X150380952Y-115263152D01*
X150380952Y-115263152D02*
X150285714Y-115310771D01*
X150714285Y-115882200D02*
X150619047Y-115929819D01*
X150619047Y-115929819D02*
X150380952Y-115929819D01*
X150380952Y-115929819D02*
X150285714Y-115882200D01*
X150285714Y-115882200D02*
X150238095Y-115786961D01*
X150238095Y-115786961D02*
X150238095Y-115691723D01*
X150238095Y-115691723D02*
X150285714Y-115596485D01*
X150285714Y-115596485D02*
X150380952Y-115548866D01*
X150380952Y-115548866D02*
X150619047Y-115548866D01*
X150619047Y-115548866D02*
X150714285Y-115501247D01*
X151142857Y-115025057D02*
X151190476Y-114977438D01*
X151190476Y-114977438D02*
X151285714Y-114929819D01*
X151285714Y-114929819D02*
X151523809Y-114929819D01*
X151523809Y-114929819D02*
X151619047Y-114977438D01*
X151619047Y-114977438D02*
X151666666Y-115025057D01*
X151666666Y-115025057D02*
X151714285Y-115120295D01*
X151714285Y-115120295D02*
X151714285Y-115215533D01*
X151714285Y-115215533D02*
X151666666Y-115358390D01*
X151666666Y-115358390D02*
X151095238Y-115929819D01*
X151095238Y-115929819D02*
X151714285Y-115929819D01*
X150904761Y-89550057D02*
X150809523Y-89502438D01*
X150809523Y-89502438D02*
X150714285Y-89407200D01*
X150714285Y-89407200D02*
X150571428Y-89264342D01*
X150571428Y-89264342D02*
X150476190Y-89216723D01*
X150476190Y-89216723D02*
X150380952Y-89216723D01*
X150428571Y-89454819D02*
X150333333Y-89407200D01*
X150333333Y-89407200D02*
X150238095Y-89311961D01*
X150238095Y-89311961D02*
X150190476Y-89121485D01*
X150190476Y-89121485D02*
X150190476Y-88788152D01*
X150190476Y-88788152D02*
X150238095Y-88597676D01*
X150238095Y-88597676D02*
X150333333Y-88502438D01*
X150333333Y-88502438D02*
X150428571Y-88454819D01*
X150428571Y-88454819D02*
X150619047Y-88454819D01*
X150619047Y-88454819D02*
X150714285Y-88502438D01*
X150714285Y-88502438D02*
X150809523Y-88597676D01*
X150809523Y-88597676D02*
X150857142Y-88788152D01*
X150857142Y-88788152D02*
X150857142Y-89121485D01*
X150857142Y-89121485D02*
X150809523Y-89311961D01*
X150809523Y-89311961D02*
X150714285Y-89407200D01*
X150714285Y-89407200D02*
X150619047Y-89454819D01*
X150619047Y-89454819D02*
X150428571Y-89454819D01*
X151238095Y-88550057D02*
X151285714Y-88502438D01*
X151285714Y-88502438D02*
X151380952Y-88454819D01*
X151380952Y-88454819D02*
X151619047Y-88454819D01*
X151619047Y-88454819D02*
X151714285Y-88502438D01*
X151714285Y-88502438D02*
X151761904Y-88550057D01*
X151761904Y-88550057D02*
X151809523Y-88645295D01*
X151809523Y-88645295D02*
X151809523Y-88740533D01*
X151809523Y-88740533D02*
X151761904Y-88883390D01*
X151761904Y-88883390D02*
X151190476Y-89454819D01*
X151190476Y-89454819D02*
X151809523Y-89454819D01*
%TO.C,R4*%
D12*
X130360436Y-96265000D02*
X130814564Y-96265000D01*
X130360436Y-97735000D02*
X130814564Y-97735000D01*
%TO.C,J5*%
X121460000Y-114620000D02*
X121460000Y-117380000D01*
X131730000Y-114620000D02*
X121460000Y-114620000D01*
X131730000Y-114620000D02*
X131730000Y-117380000D01*
X131730000Y-117380000D02*
X121460000Y-117380000D01*
X133000000Y-114620000D02*
X134380000Y-114620000D01*
X134380000Y-114620000D02*
X134380000Y-116000000D01*
%TO.C,C3*%
X133265000Y-97688748D02*
X133265000Y-98211252D01*
X134735000Y-97688748D02*
X134735000Y-98211252D01*
%TO.C,J_VIN1*%
X140120000Y-85620000D02*
X141500000Y-85620000D01*
X140120000Y-87000000D02*
X140120000Y-85620000D01*
X140120000Y-88270000D02*
X140120000Y-90920000D01*
X140120000Y-88270000D02*
X142880000Y-88270000D01*
X140120000Y-90920000D02*
X142880000Y-90920000D01*
X142880000Y-88270000D02*
X142880000Y-90920000D01*
%TO.C,C1b2*%
X173265000Y-97188748D02*
X173265000Y-97711252D01*
X174735000Y-97188748D02*
X174735000Y-97711252D01*
%TO.C,J2*%
X176620000Y-98120000D02*
X178000000Y-98120000D01*
X176620000Y-99500000D02*
X176620000Y-98120000D01*
X176620000Y-100770000D02*
X176620000Y-103420000D01*
X176620000Y-100770000D02*
X179380000Y-100770000D01*
X176620000Y-103420000D02*
X179380000Y-103420000D01*
X179380000Y-100770000D02*
X179380000Y-103420000D01*
%TO.C,R2*%
X166765000Y-103685436D02*
X166765000Y-104139564D01*
X168235000Y-103685436D02*
X168235000Y-104139564D01*
%TO.C,C1a4*%
X157090000Y-114763748D02*
X157090000Y-116186252D01*
X158910000Y-114763748D02*
X158910000Y-116186252D01*
%TO.C,R5*%
X146765000Y-90685436D02*
X146765000Y-91139564D01*
X148235000Y-90685436D02*
X148235000Y-91139564D01*
%TO.C,C1a7*%
X164590000Y-109763748D02*
X164590000Y-111186252D01*
X166410000Y-109763748D02*
X166410000Y-111186252D01*
%TO.C,C1a3*%
X154590000Y-109763748D02*
X154590000Y-111186252D01*
X156410000Y-109763748D02*
X156410000Y-111186252D01*
%TO.C,C4*%
X153788748Y-97765000D02*
X154311252Y-97765000D01*
X153788748Y-99235000D02*
X154311252Y-99235000D01*
%TO.C,C2*%
X126265000Y-99688748D02*
X126265000Y-100211252D01*
X127735000Y-99688748D02*
X127735000Y-100211252D01*
%TO.C,C1a1*%
X149590000Y-109763748D02*
X149590000Y-111186252D01*
X151410000Y-109763748D02*
X151410000Y-111186252D01*
%TO.C,C1b1*%
X169765000Y-97188748D02*
X169765000Y-97711252D01*
X171235000Y-97188748D02*
X171235000Y-97711252D01*
%TO.C,R3*%
X166765000Y-99639564D02*
X166765000Y-99185436D01*
X168235000Y-99639564D02*
X168235000Y-99185436D01*
%TO.C,C7*%
X131090000Y-87288748D02*
X131090000Y-88711252D01*
X132910000Y-87288748D02*
X132910000Y-88711252D01*
%TO.C,C1a6*%
X162090000Y-114763748D02*
X162090000Y-116186252D01*
X163910000Y-114763748D02*
X163910000Y-116186252D01*
%TO.C,R1*%
X139360436Y-102265000D02*
X139814564Y-102265000D01*
X139360436Y-103735000D02*
X139814564Y-103735000D01*
%TO.C,J4*%
X121460000Y-110120000D02*
X121460000Y-112880000D01*
X131730000Y-110120000D02*
X121460000Y-110120000D01*
X131730000Y-110120000D02*
X131730000Y-112880000D01*
X131730000Y-112880000D02*
X121460000Y-112880000D01*
X133000000Y-110120000D02*
X134380000Y-110120000D01*
X134380000Y-110120000D02*
X134380000Y-111500000D01*
%TO.C,Q1*%
X157665000Y-100845000D02*
X161785000Y-100845000D01*
X157665000Y-100940000D02*
X157665000Y-100845000D01*
X157665000Y-105965000D02*
X157665000Y-105870000D01*
X161785000Y-100845000D02*
X161785000Y-100940000D01*
X161785000Y-105870000D02*
X161785000Y-105965000D01*
X161785000Y-105965000D02*
X157665000Y-105965000D01*
X157125000Y-100935000D02*
X156885000Y-100605000D01*
X157365000Y-100605000D01*
X157125000Y-100935000D01*
G36*
X157125000Y-100935000D02*
G01*
X156885000Y-100605000D01*
X157365000Y-100605000D01*
X157125000Y-100935000D01*
G37*
%TO.C,U1*%
X146390000Y-99390000D02*
X149610000Y-99390000D01*
X146390000Y-99565000D02*
X146390000Y-99390000D01*
X146390000Y-102610000D02*
X146390000Y-102435000D01*
X149610000Y-99390000D02*
X149610000Y-99565000D01*
X149610000Y-102435000D02*
X149610000Y-102610000D01*
X149610000Y-102610000D02*
X146390000Y-102610000D01*
X145840000Y-99560000D02*
X145600000Y-99230000D01*
X146080000Y-99230000D01*
X145840000Y-99560000D01*
G36*
X145840000Y-99560000D02*
G01*
X145600000Y-99230000D01*
X146080000Y-99230000D01*
X145840000Y-99560000D01*
G37*
%TO.C,J3*%
X121460000Y-105120000D02*
X121460000Y-107880000D01*
X131730000Y-105120000D02*
X121460000Y-105120000D01*
X131730000Y-105120000D02*
X131730000Y-107880000D01*
X131730000Y-107880000D02*
X121460000Y-107880000D01*
X133000000Y-105120000D02*
X134380000Y-105120000D01*
X134380000Y-105120000D02*
X134380000Y-106500000D01*
%TO.C,L1*%
X151590000Y-79510000D02*
X158370000Y-79510000D01*
X151590000Y-86490000D02*
X151590000Y-79510000D01*
X158370000Y-79510000D02*
X158370000Y-86490000D01*
X158370000Y-86490000D02*
X151590000Y-86490000D01*
%TO.C,C1a5*%
X159590000Y-109763748D02*
X159590000Y-111186252D01*
X161410000Y-109763748D02*
X161410000Y-111186252D01*
%TO.C,C1*%
X121187651Y-87685000D02*
X121987651Y-87685000D01*
X121587651Y-87285000D02*
X121587651Y-88085000D01*
X125597349Y-85920000D02*
X125597349Y-94080000D01*
X125637349Y-85920000D02*
X125637349Y-94080000D01*
X125677349Y-85921000D02*
X125677349Y-94079000D01*
X125717349Y-85922000D02*
X125717349Y-94078000D01*
X125757349Y-85923000D02*
X125757349Y-94077000D01*
X125797349Y-85925000D02*
X125797349Y-94075000D01*
X125837349Y-85927000D02*
X125837349Y-94073000D01*
X125877349Y-85930000D02*
X125877349Y-94070000D01*
X125917349Y-85932000D02*
X125917349Y-94068000D01*
X125957349Y-85936000D02*
X125957349Y-94064000D01*
X125997349Y-85939000D02*
X125997349Y-94061000D01*
X126037349Y-85944000D02*
X126037349Y-94056000D01*
X126077349Y-85948000D02*
X126077349Y-94052000D01*
X126117349Y-85953000D02*
X126117349Y-94047000D01*
X126157349Y-85958000D02*
X126157349Y-94042000D01*
X126197349Y-85964000D02*
X126197349Y-94036000D01*
X126237349Y-85970000D02*
X126237349Y-94030000D01*
X126277349Y-85977000D02*
X126277349Y-94023000D01*
X126317349Y-85983000D02*
X126317349Y-88960000D01*
X126317349Y-91040000D02*
X126317349Y-94017000D01*
X126357349Y-85991000D02*
X126357349Y-88960000D01*
X126357349Y-91040000D02*
X126357349Y-94009000D01*
X126397349Y-85998000D02*
X126397349Y-88960000D01*
X126397349Y-91040000D02*
X126397349Y-94002000D01*
X126437349Y-86007000D02*
X126437349Y-88960000D01*
X126437349Y-91040000D02*
X126437349Y-93993000D01*
X126477349Y-86015000D02*
X126477349Y-88960000D01*
X126477349Y-91040000D02*
X126477349Y-93985000D01*
X126517349Y-86024000D02*
X126517349Y-88960000D01*
X126517349Y-91040000D02*
X126517349Y-93976000D01*
X126557349Y-86033000D02*
X126557349Y-88960000D01*
X126557349Y-91040000D02*
X126557349Y-93967000D01*
X126597349Y-86043000D02*
X126597349Y-88960000D01*
X126597349Y-91040000D02*
X126597349Y-93957000D01*
X126637349Y-86053000D02*
X126637349Y-88960000D01*
X126637349Y-91040000D02*
X126637349Y-93947000D01*
X126677349Y-86064000D02*
X126677349Y-88960000D01*
X126677349Y-91040000D02*
X126677349Y-93936000D01*
X126717349Y-86075000D02*
X126717349Y-88960000D01*
X126717349Y-91040000D02*
X126717349Y-93925000D01*
X126757349Y-86087000D02*
X126757349Y-88960000D01*
X126757349Y-91040000D02*
X126757349Y-93913000D01*
X126797349Y-86099000D02*
X126797349Y-88960000D01*
X126797349Y-91040000D02*
X126797349Y-93901000D01*
X126837349Y-86111000D02*
X126837349Y-88960000D01*
X126837349Y-91040000D02*
X126837349Y-93889000D01*
X126877349Y-86124000D02*
X126877349Y-88960000D01*
X126877349Y-91040000D02*
X126877349Y-93876000D01*
X126917349Y-86137000D02*
X126917349Y-88960000D01*
X126917349Y-91040000D02*
X126917349Y-93863000D01*
X126957349Y-86151000D02*
X126957349Y-88960000D01*
X126957349Y-91040000D02*
X126957349Y-93849000D01*
X126997349Y-86165000D02*
X126997349Y-88960000D01*
X126997349Y-91040000D02*
X126997349Y-93835000D01*
X127037349Y-86180000D02*
X127037349Y-88960000D01*
X127037349Y-91040000D02*
X127037349Y-93820000D01*
X127077349Y-86195000D02*
X127077349Y-88960000D01*
X127077349Y-91040000D02*
X127077349Y-93805000D01*
X127117349Y-86211000D02*
X127117349Y-88960000D01*
X127117349Y-91040000D02*
X127117349Y-93789000D01*
X127157349Y-86227000D02*
X127157349Y-88960000D01*
X127157349Y-91040000D02*
X127157349Y-93773000D01*
X127197349Y-86243000D02*
X127197349Y-88960000D01*
X127197349Y-91040000D02*
X127197349Y-93757000D01*
X127237349Y-86260000D02*
X127237349Y-88960000D01*
X127237349Y-91040000D02*
X127237349Y-93740000D01*
X127277349Y-86278000D02*
X127277349Y-88960000D01*
X127277349Y-91040000D02*
X127277349Y-93722000D01*
X127317349Y-86296000D02*
X127317349Y-88960000D01*
X127317349Y-91040000D02*
X127317349Y-93704000D01*
X127357349Y-86315000D02*
X127357349Y-88960000D01*
X127357349Y-91040000D02*
X127357349Y-93685000D01*
X127397349Y-86334000D02*
X127397349Y-88960000D01*
X127397349Y-91040000D02*
X127397349Y-93666000D01*
X127437349Y-86354000D02*
X127437349Y-88960000D01*
X127437349Y-91040000D02*
X127437349Y-93646000D01*
X127477349Y-86374000D02*
X127477349Y-88960000D01*
X127477349Y-91040000D02*
X127477349Y-93626000D01*
X127517349Y-86395000D02*
X127517349Y-88960000D01*
X127517349Y-91040000D02*
X127517349Y-93605000D01*
X127557349Y-86416000D02*
X127557349Y-88960000D01*
X127557349Y-91040000D02*
X127557349Y-93584000D01*
X127597349Y-86438000D02*
X127597349Y-88960000D01*
X127597349Y-91040000D02*
X127597349Y-93562000D01*
X127637349Y-86461000D02*
X127637349Y-88960000D01*
X127637349Y-91040000D02*
X127637349Y-93539000D01*
X127677349Y-86484000D02*
X127677349Y-88960000D01*
X127677349Y-91040000D02*
X127677349Y-93516000D01*
X127717349Y-86507000D02*
X127717349Y-88960000D01*
X127717349Y-91040000D02*
X127717349Y-93493000D01*
X127757349Y-86532000D02*
X127757349Y-88960000D01*
X127757349Y-91040000D02*
X127757349Y-93468000D01*
X127797349Y-86557000D02*
X127797349Y-88960000D01*
X127797349Y-91040000D02*
X127797349Y-93443000D01*
X127837349Y-86582000D02*
X127837349Y-88960000D01*
X127837349Y-91040000D02*
X127837349Y-93418000D01*
X127877349Y-86608000D02*
X127877349Y-88960000D01*
X127877349Y-91040000D02*
X127877349Y-93392000D01*
X127917349Y-86635000D02*
X127917349Y-88960000D01*
X127917349Y-91040000D02*
X127917349Y-93365000D01*
X127957349Y-86663000D02*
X127957349Y-88960000D01*
X127957349Y-91040000D02*
X127957349Y-93337000D01*
X127997349Y-86691000D02*
X127997349Y-88960000D01*
X127997349Y-91040000D02*
X127997349Y-93309000D01*
X128037349Y-86720000D02*
X128037349Y-88960000D01*
X128037349Y-91040000D02*
X128037349Y-93280000D01*
X128077349Y-86750000D02*
X128077349Y-88960000D01*
X128077349Y-91040000D02*
X128077349Y-93250000D01*
X128117349Y-86781000D02*
X128117349Y-88960000D01*
X128117349Y-91040000D02*
X128117349Y-93219000D01*
X128157349Y-86812000D02*
X128157349Y-88960000D01*
X128157349Y-91040000D02*
X128157349Y-93188000D01*
X128197349Y-86844000D02*
X128197349Y-88960000D01*
X128197349Y-91040000D02*
X128197349Y-93156000D01*
X128237349Y-86877000D02*
X128237349Y-88960000D01*
X128237349Y-91040000D02*
X128237349Y-93123000D01*
X128277349Y-86911000D02*
X128277349Y-88960000D01*
X128277349Y-91040000D02*
X128277349Y-93089000D01*
X128317349Y-86945000D02*
X128317349Y-88960000D01*
X128317349Y-91040000D02*
X128317349Y-93055000D01*
X128357349Y-86981000D02*
X128357349Y-88960000D01*
X128357349Y-91040000D02*
X128357349Y-93019000D01*
X128397349Y-87018000D02*
X128397349Y-92982000D01*
X128437349Y-87055000D02*
X128437349Y-92945000D01*
X128477349Y-87094000D02*
X128477349Y-92906000D01*
X128517349Y-87133000D02*
X128517349Y-92867000D01*
X128557349Y-87174000D02*
X128557349Y-92826000D01*
X128597349Y-87216000D02*
X128597349Y-92784000D01*
X128637349Y-87259000D02*
X128637349Y-92741000D01*
X128677349Y-87304000D02*
X128677349Y-92696000D01*
X128717349Y-87349000D02*
X128717349Y-92651000D01*
X128757349Y-87396000D02*
X128757349Y-92604000D01*
X128797349Y-87445000D02*
X128797349Y-92555000D01*
X128837349Y-87495000D02*
X128837349Y-92505000D01*
X128877349Y-87547000D02*
X128877349Y-92453000D01*
X128917349Y-87600000D02*
X128917349Y-92400000D01*
X128957349Y-87656000D02*
X128957349Y-92344000D01*
X128997349Y-87713000D02*
X128997349Y-92287000D01*
X129037349Y-87773000D02*
X129037349Y-92227000D01*
X129077349Y-87835000D02*
X129077349Y-92165000D01*
X129117349Y-87899000D02*
X129117349Y-92101000D01*
X129157349Y-87966000D02*
X129157349Y-92034000D01*
X129197349Y-88036000D02*
X129197349Y-91964000D01*
X129237349Y-88110000D02*
X129237349Y-91890000D01*
X129277349Y-88187000D02*
X129277349Y-91813000D01*
X129317349Y-88269000D02*
X129317349Y-91731000D01*
X129357349Y-88356000D02*
X129357349Y-91644000D01*
X129397349Y-88448000D02*
X129397349Y-91552000D01*
X129437349Y-88547000D02*
X129437349Y-91453000D01*
X129477349Y-88654000D02*
X129477349Y-91346000D01*
X129517349Y-88772000D02*
X129517349Y-91228000D01*
X129557349Y-88903000D02*
X129557349Y-91097000D01*
X129597349Y-89053000D02*
X129597349Y-90947000D01*
X129637349Y-89232000D02*
X129637349Y-90768000D01*
X129677349Y-89467000D02*
X129677349Y-90533000D01*
X129717349Y-90000000D02*
G75*
G02*
X121477349Y-90000000I-4120000J0D01*
G01*
X121477349Y-90000000D02*
G75*
G02*
X129717349Y-90000000I4120000J0D01*
G01*
%TO.C,R6*%
X146765000Y-94860436D02*
X146765000Y-95314564D01*
X148235000Y-94860436D02*
X148235000Y-95314564D01*
%TO.C,D1*%
X163350000Y-90140000D02*
X173570000Y-90140000D01*
X163350000Y-94760000D02*
X163350000Y-90140000D01*
X166610000Y-94760000D02*
X166610000Y-93380000D01*
X170310000Y-94760000D02*
X170310000Y-93380000D01*
X173570000Y-90140000D02*
X173570000Y-94760000D01*
X173570000Y-93380000D02*
X163350000Y-93380000D01*
X173570000Y-94760000D02*
X163350000Y-94760000D01*
%TO.C,C6*%
X134440000Y-87288748D02*
X134440000Y-88711252D01*
X136260000Y-87288748D02*
X136260000Y-88711252D01*
%TO.C,C1a2*%
X152090000Y-114763748D02*
X152090000Y-116186252D01*
X153910000Y-114763748D02*
X153910000Y-116186252D01*
%TO.C,Q2*%
X149890000Y-91802500D02*
X150890000Y-91802500D01*
X149890000Y-93322500D02*
X149890000Y-91802500D01*
X149940000Y-93322500D02*
X149890000Y-93322500D01*
X151840000Y-93322500D02*
X151060000Y-93322500D01*
X152010000Y-91802500D02*
X153010000Y-91802500D01*
X153010000Y-91802500D02*
X153010000Y-93322500D01*
X153010000Y-93322500D02*
X152960000Y-93322500D01*
X151400000Y-94102500D02*
X151070000Y-93862500D01*
X151400000Y-93622500D01*
X151400000Y-94102500D01*
G36*
X151400000Y-94102500D02*
G01*
X151070000Y-93862500D01*
X151400000Y-93622500D01*
X151400000Y-94102500D01*
G37*
%TD*%
M02*
