M48
; DRILL file KiCad 10.0.0 date 2026-04-15T12:15:45
; FORMAT={-:-/ absolute / metric / decimal}
; #@! TF.CreationDate,2026-04-15T12:15:45+01:00
; #@! TF.GenerationSoftware,Kicad,Pcbnew,10.0.0
; #@! TF.FileFunction,Plated,1,2,PTH
FMAT,2
METRIC
; #@! TA.AperFunction,Plated,PTH,ViaDrill
T1C0.300
; #@! TA.AperFunction,Plated,PTH,ComponentDrill
T2C0.800
; #@! TA.AperFunction,Plated,PTH,ComponentDrill
T3C1.000
; #@! TA.AperFunction,Plated,PTH,ComponentDrill
T4C1.100
%
G90
G05
T1
X129.0Y-101.5
X132.0Y-100.0
X136.5Y-102.5
X137.5Y-90.0
X143.5Y-102.5
X147.5Y-113.0
X148.0Y-97.5
X148.0Y-103.5
X148.5Y-93.0
X149.0Y-116.5
X150.1Y-99.875
X152.0Y-102.5
X157.0Y-97.5
X158.0Y-112.5
X160.5Y-117.5
X162.5Y-112.5
X165.5Y-117.5
X166.5Y-106.5
X167.5Y-112.5
X172.0Y-98.5
T2
X123.847Y-90.0
X127.347Y-90.0
T3
X122.84Y-106.5
X122.84Y-111.5
X122.84Y-116.0
X125.38Y-106.5
X125.38Y-111.5
X125.38Y-116.0
X127.92Y-106.5
X127.92Y-111.5
X127.92Y-116.0
X130.46Y-106.5
X130.46Y-111.5
X130.46Y-116.0
X133.0Y-106.5
X133.0Y-111.5
X133.0Y-116.0
X141.5Y-87.0
X141.5Y-89.54
X178.0Y-99.5
X178.0Y-102.04
T4
X165.92Y-91.5
X171.0Y-91.5
M30
