%TF.GenerationSoftware,KiCad,Pcbnew,10.0.1*%
%TF.CreationDate,2026-04-19T16:32:20+01:00*%
%TF.ProjectId,LTC1871_Based_Boost_Controller_V2,4c544331-3837-4315-9f42-617365645f42,rev?*%
%TF.SameCoordinates,PX72ab714PY70e54a6*%
%TF.FileFunction,Legend,Top*%
%TF.FilePolarity,Positive*%
%FSLAX46Y46*%
G04 Gerber Fmt 4.6, Leading zero omitted, Abs format (unit mm)*
G04 Created by KiCad (PCBNEW 10.0.1) date 2026-04-19 16:32:20*
%MOMM*%
%LPD*%
G01*
G04 APERTURE LIST*
G04 Aperture macros list*
%AMRoundRect*
0 Rectangle with rounded corners*
0 $1 Rounding radius*
0 $2 $3 $4 $5 $6 $7 $8 $9 X,Y pos of 4 corners*
0 Add a 4 corners polygon primitive as box body*
4,1,4,$2,$3,$4,$5,$6,$7,$8,$9,$2,$3,0*
0 Add four circle primitives for the rounded corners*
1,1,$1+$1,$2,$3*
1,1,$1+$1,$4,$5*
1,1,$1+$1,$6,$7*
1,1,$1+$1,$8,$9*
0 Add four rect primitives between the rounded corners*
20,1,$1+$1,$2,$3,$4,$5,0*
20,1,$1+$1,$4,$5,$6,$7,0*
20,1,$1+$1,$6,$7,$8,$9,0*
20,1,$1+$1,$8,$9,$2,$3,0*%
G04 Aperture macros list end*
%ADD10C,0.250000*%
%ADD11C,0.150000*%
%ADD12C,0.120000*%
%ADD13RoundRect,0.250000X-0.262500X-0.450000X0.262500X-0.450000X0.262500X0.450000X-0.262500X0.450000X0*%
%ADD14R,1.700000X1.700000*%
%ADD15C,1.700000*%
%ADD16RoundRect,0.250000X-0.475000X0.250000X-0.475000X-0.250000X0.475000X-0.250000X0.475000X0.250000X0*%
%ADD17RoundRect,0.250000X-0.450000X0.262500X-0.450000X-0.262500X0.450000X-0.262500X0.450000X0.262500X0*%
%ADD18RoundRect,0.250000X-0.650000X0.325000X-0.650000X-0.325000X0.650000X-0.325000X0.650000X0.325000X0*%
%ADD19RoundRect,0.250000X0.550000X0.550000X-0.550000X0.550000X-0.550000X-0.550000X0.550000X-0.550000X0*%
%ADD20C,1.600000*%
%ADD21RoundRect,0.250000X-0.250000X-0.475000X0.250000X-0.475000X0.250000X0.475000X-0.250000X0.475000X0*%
%ADD22RoundRect,0.250000X0.450000X-0.262500X0.450000X0.262500X-0.450000X0.262500X-0.450000X-0.262500X0*%
%ADD23RoundRect,0.150000X-0.825000X-0.150000X0.825000X-0.150000X0.825000X0.150000X-0.825000X0.150000X0*%
%ADD24RoundRect,0.087500X-0.662500X-0.087500X0.662500X-0.087500X0.662500X0.087500X-0.662500X0.087500X0*%
%ADD25RoundRect,0.250000X-0.465000X-2.500000X0.465000X-2.500000X0.465000X2.500000X-0.465000X2.500000X0*%
%ADD26RoundRect,0.249999X-0.850001X-0.850001X0.850001X-0.850001X0.850001X0.850001X-0.850001X0.850001X0*%
%ADD27C,2.200000*%
%ADD28RoundRect,0.250000X-0.550000X-0.550000X0.550000X-0.550000X0.550000X0.550000X-0.550000X0.550000X0*%
%ADD29R,2.000000X2.000000*%
%ADD30C,2.000000*%
%ADD31RoundRect,0.150000X0.150000X-0.587500X0.150000X0.587500X-0.150000X0.587500X-0.150000X-0.587500X0*%
G04 APERTURE END LIST*
D10*
X1662676Y40625011D02*
X1662676Y41625011D01*
X1662676Y41625011D02*
X2234104Y40625011D01*
X2234104Y40625011D02*
X2234104Y41625011D01*
X3138866Y40625011D02*
X3138866Y41148821D01*
X3138866Y41148821D02*
X3091247Y41244059D01*
X3091247Y41244059D02*
X2996009Y41291678D01*
X2996009Y41291678D02*
X2805533Y41291678D01*
X2805533Y41291678D02*
X2710295Y41244059D01*
X3138866Y40672630D02*
X3043628Y40625011D01*
X3043628Y40625011D02*
X2805533Y40625011D01*
X2805533Y40625011D02*
X2710295Y40672630D01*
X2710295Y40672630D02*
X2662676Y40767869D01*
X2662676Y40767869D02*
X2662676Y40863107D01*
X2662676Y40863107D02*
X2710295Y40958345D01*
X2710295Y40958345D02*
X2805533Y41005964D01*
X2805533Y41005964D02*
X3043628Y41005964D01*
X3043628Y41005964D02*
X3138866Y41053583D01*
X3615057Y40625011D02*
X3615057Y41291678D01*
X3615057Y41196440D02*
X3662676Y41244059D01*
X3662676Y41244059D02*
X3757914Y41291678D01*
X3757914Y41291678D02*
X3900771Y41291678D01*
X3900771Y41291678D02*
X3996009Y41244059D01*
X3996009Y41244059D02*
X4043628Y41148821D01*
X4043628Y41148821D02*
X4043628Y40625011D01*
X4043628Y41148821D02*
X4091247Y41244059D01*
X4091247Y41244059D02*
X4186485Y41291678D01*
X4186485Y41291678D02*
X4329342Y41291678D01*
X4329342Y41291678D02*
X4424581Y41244059D01*
X4424581Y41244059D02*
X4472200Y41148821D01*
X4472200Y41148821D02*
X4472200Y40625011D01*
X5329342Y40672630D02*
X5234104Y40625011D01*
X5234104Y40625011D02*
X5043628Y40625011D01*
X5043628Y40625011D02*
X4948390Y40672630D01*
X4948390Y40672630D02*
X4900771Y40767869D01*
X4900771Y40767869D02*
X4900771Y41148821D01*
X4900771Y41148821D02*
X4948390Y41244059D01*
X4948390Y41244059D02*
X5043628Y41291678D01*
X5043628Y41291678D02*
X5234104Y41291678D01*
X5234104Y41291678D02*
X5329342Y41244059D01*
X5329342Y41244059D02*
X5376961Y41148821D01*
X5376961Y41148821D02*
X5376961Y41053583D01*
X5376961Y41053583D02*
X4900771Y40958345D01*
X5805533Y40720250D02*
X5853152Y40672630D01*
X5853152Y40672630D02*
X5805533Y40625011D01*
X5805533Y40625011D02*
X5757914Y40672630D01*
X5757914Y40672630D02*
X5805533Y40720250D01*
X5805533Y40720250D02*
X5805533Y40625011D01*
X5805533Y41244059D02*
X5853152Y41196440D01*
X5853152Y41196440D02*
X5805533Y41148821D01*
X5805533Y41148821D02*
X5757914Y41196440D01*
X5757914Y41196440D02*
X5805533Y41244059D01*
X5805533Y41244059D02*
X5805533Y41148821D01*
X7376961Y41148821D02*
X7043628Y41148821D01*
X7043628Y40625011D02*
X7043628Y41625011D01*
X7043628Y41625011D02*
X7519818Y41625011D01*
X8043628Y40625011D02*
X7948390Y40672630D01*
X7948390Y40672630D02*
X7900771Y40720250D01*
X7900771Y40720250D02*
X7853152Y40815488D01*
X7853152Y40815488D02*
X7853152Y41101202D01*
X7853152Y41101202D02*
X7900771Y41196440D01*
X7900771Y41196440D02*
X7948390Y41244059D01*
X7948390Y41244059D02*
X8043628Y41291678D01*
X8043628Y41291678D02*
X8186485Y41291678D01*
X8186485Y41291678D02*
X8281723Y41244059D01*
X8281723Y41244059D02*
X8329342Y41196440D01*
X8329342Y41196440D02*
X8376961Y41101202D01*
X8376961Y41101202D02*
X8376961Y40815488D01*
X8376961Y40815488D02*
X8329342Y40720250D01*
X8329342Y40720250D02*
X8281723Y40672630D01*
X8281723Y40672630D02*
X8186485Y40625011D01*
X8186485Y40625011D02*
X8043628Y40625011D01*
X8805533Y40625011D02*
X8805533Y41291678D01*
X8805533Y41101202D02*
X8853152Y41196440D01*
X8853152Y41196440D02*
X8900771Y41244059D01*
X8900771Y41244059D02*
X8996009Y41291678D01*
X8996009Y41291678D02*
X9091247Y41291678D01*
X9281724Y41291678D02*
X9662676Y41291678D01*
X9424581Y41625011D02*
X9424581Y40767869D01*
X9424581Y40767869D02*
X9472200Y40672630D01*
X9472200Y40672630D02*
X9567438Y40625011D01*
X9567438Y40625011D02*
X9662676Y40625011D01*
X10424581Y41291678D02*
X10424581Y40625011D01*
X9996010Y41291678D02*
X9996010Y40767869D01*
X9996010Y40767869D02*
X10043629Y40672630D01*
X10043629Y40672630D02*
X10138867Y40625011D01*
X10138867Y40625011D02*
X10281724Y40625011D01*
X10281724Y40625011D02*
X10376962Y40672630D01*
X10376962Y40672630D02*
X10424581Y40720250D01*
X10900772Y41291678D02*
X10900772Y40625011D01*
X10900772Y41196440D02*
X10948391Y41244059D01*
X10948391Y41244059D02*
X11043629Y41291678D01*
X11043629Y41291678D02*
X11186486Y41291678D01*
X11186486Y41291678D02*
X11281724Y41244059D01*
X11281724Y41244059D02*
X11329343Y41148821D01*
X11329343Y41148821D02*
X11329343Y40625011D01*
X12186486Y40672630D02*
X12091248Y40625011D01*
X12091248Y40625011D02*
X11900772Y40625011D01*
X11900772Y40625011D02*
X11805534Y40672630D01*
X11805534Y40672630D02*
X11757915Y40767869D01*
X11757915Y40767869D02*
X11757915Y41148821D01*
X11757915Y41148821D02*
X11805534Y41244059D01*
X11805534Y41244059D02*
X11900772Y41291678D01*
X11900772Y41291678D02*
X12091248Y41291678D01*
X12091248Y41291678D02*
X12186486Y41244059D01*
X12186486Y41244059D02*
X12234105Y41148821D01*
X12234105Y41148821D02*
X12234105Y41053583D01*
X12234105Y41053583D02*
X11757915Y40958345D01*
X13615058Y41625011D02*
X13805534Y41625011D01*
X13805534Y41625011D02*
X13900772Y41577392D01*
X13900772Y41577392D02*
X13996010Y41482154D01*
X13996010Y41482154D02*
X14043629Y41291678D01*
X14043629Y41291678D02*
X14043629Y40958345D01*
X14043629Y40958345D02*
X13996010Y40767869D01*
X13996010Y40767869D02*
X13900772Y40672630D01*
X13900772Y40672630D02*
X13805534Y40625011D01*
X13805534Y40625011D02*
X13615058Y40625011D01*
X13615058Y40625011D02*
X13519820Y40672630D01*
X13519820Y40672630D02*
X13424582Y40767869D01*
X13424582Y40767869D02*
X13376963Y40958345D01*
X13376963Y40958345D02*
X13376963Y41291678D01*
X13376963Y41291678D02*
X13424582Y41482154D01*
X13424582Y41482154D02*
X13519820Y41577392D01*
X13519820Y41577392D02*
X13615058Y41625011D01*
X14615058Y40625011D02*
X14519820Y40672630D01*
X14519820Y40672630D02*
X14472201Y40767869D01*
X14472201Y40767869D02*
X14472201Y41625011D01*
X15138868Y40625011D02*
X15043630Y40672630D01*
X15043630Y40672630D02*
X14996011Y40720250D01*
X14996011Y40720250D02*
X14948392Y40815488D01*
X14948392Y40815488D02*
X14948392Y41101202D01*
X14948392Y41101202D02*
X14996011Y41196440D01*
X14996011Y41196440D02*
X15043630Y41244059D01*
X15043630Y41244059D02*
X15138868Y41291678D01*
X15138868Y41291678D02*
X15281725Y41291678D01*
X15281725Y41291678D02*
X15376963Y41244059D01*
X15376963Y41244059D02*
X15424582Y41196440D01*
X15424582Y41196440D02*
X15472201Y41101202D01*
X15472201Y41101202D02*
X15472201Y40815488D01*
X15472201Y40815488D02*
X15424582Y40720250D01*
X15424582Y40720250D02*
X15376963Y40672630D01*
X15376963Y40672630D02*
X15281725Y40625011D01*
X15281725Y40625011D02*
X15138868Y40625011D01*
X15853154Y40672630D02*
X15948392Y40625011D01*
X15948392Y40625011D02*
X16138868Y40625011D01*
X16138868Y40625011D02*
X16234106Y40672630D01*
X16234106Y40672630D02*
X16281725Y40767869D01*
X16281725Y40767869D02*
X16281725Y40815488D01*
X16281725Y40815488D02*
X16234106Y40910726D01*
X16234106Y40910726D02*
X16138868Y40958345D01*
X16138868Y40958345D02*
X15996011Y40958345D01*
X15996011Y40958345D02*
X15900773Y41005964D01*
X15900773Y41005964D02*
X15853154Y41101202D01*
X15853154Y41101202D02*
X15853154Y41148821D01*
X15853154Y41148821D02*
X15900773Y41244059D01*
X15900773Y41244059D02*
X15996011Y41291678D01*
X15996011Y41291678D02*
X16138868Y41291678D01*
X16138868Y41291678D02*
X16234106Y41244059D01*
X17091249Y40672630D02*
X16996011Y40625011D01*
X16996011Y40625011D02*
X16805535Y40625011D01*
X16805535Y40625011D02*
X16710297Y40672630D01*
X16710297Y40672630D02*
X16662678Y40767869D01*
X16662678Y40767869D02*
X16662678Y41148821D01*
X16662678Y41148821D02*
X16710297Y41244059D01*
X16710297Y41244059D02*
X16805535Y41291678D01*
X16805535Y41291678D02*
X16996011Y41291678D01*
X16996011Y41291678D02*
X17091249Y41244059D01*
X17091249Y41244059D02*
X17138868Y41148821D01*
X17138868Y41148821D02*
X17138868Y41053583D01*
X17138868Y41053583D02*
X16662678Y40958345D01*
X1662676Y39538877D02*
X1996009Y39538877D01*
X2138866Y39015067D02*
X1662676Y39015067D01*
X1662676Y39015067D02*
X1662676Y40015067D01*
X1662676Y40015067D02*
X2138866Y40015067D01*
X2567438Y39538877D02*
X2900771Y39538877D01*
X3043628Y39015067D02*
X2567438Y39015067D01*
X2567438Y39015067D02*
X2567438Y40015067D01*
X2567438Y40015067D02*
X3043628Y40015067D01*
X3900771Y39681734D02*
X3900771Y39015067D01*
X3662676Y40062686D02*
X3424581Y39348401D01*
X3424581Y39348401D02*
X4043628Y39348401D01*
X4472200Y39015067D02*
X4662676Y39015067D01*
X4662676Y39015067D02*
X4757914Y39062686D01*
X4757914Y39062686D02*
X4805533Y39110306D01*
X4805533Y39110306D02*
X4900771Y39253163D01*
X4900771Y39253163D02*
X4948390Y39443639D01*
X4948390Y39443639D02*
X4948390Y39824591D01*
X4948390Y39824591D02*
X4900771Y39919829D01*
X4900771Y39919829D02*
X4853152Y39967448D01*
X4853152Y39967448D02*
X4757914Y40015067D01*
X4757914Y40015067D02*
X4567438Y40015067D01*
X4567438Y40015067D02*
X4472200Y39967448D01*
X4472200Y39967448D02*
X4424581Y39919829D01*
X4424581Y39919829D02*
X4376962Y39824591D01*
X4376962Y39824591D02*
X4376962Y39586496D01*
X4376962Y39586496D02*
X4424581Y39491258D01*
X4424581Y39491258D02*
X4472200Y39443639D01*
X4472200Y39443639D02*
X4567438Y39396020D01*
X4567438Y39396020D02*
X4757914Y39396020D01*
X4757914Y39396020D02*
X4853152Y39443639D01*
X4853152Y39443639D02*
X4900771Y39491258D01*
X4900771Y39491258D02*
X4948390Y39586496D01*
X5424581Y39015067D02*
X5615057Y39015067D01*
X5615057Y39015067D02*
X5710295Y39062686D01*
X5710295Y39062686D02*
X5757914Y39110306D01*
X5757914Y39110306D02*
X5853152Y39253163D01*
X5853152Y39253163D02*
X5900771Y39443639D01*
X5900771Y39443639D02*
X5900771Y39824591D01*
X5900771Y39824591D02*
X5853152Y39919829D01*
X5853152Y39919829D02*
X5805533Y39967448D01*
X5805533Y39967448D02*
X5710295Y40015067D01*
X5710295Y40015067D02*
X5519819Y40015067D01*
X5519819Y40015067D02*
X5424581Y39967448D01*
X5424581Y39967448D02*
X5376962Y39919829D01*
X5376962Y39919829D02*
X5329343Y39824591D01*
X5329343Y39824591D02*
X5329343Y39586496D01*
X5329343Y39586496D02*
X5376962Y39491258D01*
X5376962Y39491258D02*
X5424581Y39443639D01*
X5424581Y39443639D02*
X5519819Y39396020D01*
X5519819Y39396020D02*
X5710295Y39396020D01*
X5710295Y39396020D02*
X5805533Y39443639D01*
X5805533Y39443639D02*
X5853152Y39491258D01*
X5853152Y39491258D02*
X5900771Y39586496D01*
X7424581Y39538877D02*
X7091248Y39538877D01*
X7091248Y39015067D02*
X7091248Y40015067D01*
X7091248Y40015067D02*
X7567438Y40015067D01*
X7948391Y39015067D02*
X7948391Y39681734D01*
X7948391Y40015067D02*
X7900772Y39967448D01*
X7900772Y39967448D02*
X7948391Y39919829D01*
X7948391Y39919829D02*
X7996010Y39967448D01*
X7996010Y39967448D02*
X7948391Y40015067D01*
X7948391Y40015067D02*
X7948391Y39919829D01*
X8424581Y39681734D02*
X8424581Y39015067D01*
X8424581Y39586496D02*
X8472200Y39634115D01*
X8472200Y39634115D02*
X8567438Y39681734D01*
X8567438Y39681734D02*
X8710295Y39681734D01*
X8710295Y39681734D02*
X8805533Y39634115D01*
X8805533Y39634115D02*
X8853152Y39538877D01*
X8853152Y39538877D02*
X8853152Y39015067D01*
X9757914Y39015067D02*
X9757914Y39538877D01*
X9757914Y39538877D02*
X9710295Y39634115D01*
X9710295Y39634115D02*
X9615057Y39681734D01*
X9615057Y39681734D02*
X9424581Y39681734D01*
X9424581Y39681734D02*
X9329343Y39634115D01*
X9757914Y39062686D02*
X9662676Y39015067D01*
X9662676Y39015067D02*
X9424581Y39015067D01*
X9424581Y39015067D02*
X9329343Y39062686D01*
X9329343Y39062686D02*
X9281724Y39157925D01*
X9281724Y39157925D02*
X9281724Y39253163D01*
X9281724Y39253163D02*
X9329343Y39348401D01*
X9329343Y39348401D02*
X9424581Y39396020D01*
X9424581Y39396020D02*
X9662676Y39396020D01*
X9662676Y39396020D02*
X9757914Y39443639D01*
X10376962Y39015067D02*
X10281724Y39062686D01*
X10281724Y39062686D02*
X10234105Y39157925D01*
X10234105Y39157925D02*
X10234105Y40015067D01*
X11710296Y39491258D02*
X11710296Y39015067D01*
X11376963Y40015067D02*
X11710296Y39491258D01*
X11710296Y39491258D02*
X12043629Y40015067D01*
X12757915Y39062686D02*
X12662677Y39015067D01*
X12662677Y39015067D02*
X12472201Y39015067D01*
X12472201Y39015067D02*
X12376963Y39062686D01*
X12376963Y39062686D02*
X12329344Y39157925D01*
X12329344Y39157925D02*
X12329344Y39538877D01*
X12329344Y39538877D02*
X12376963Y39634115D01*
X12376963Y39634115D02*
X12472201Y39681734D01*
X12472201Y39681734D02*
X12662677Y39681734D01*
X12662677Y39681734D02*
X12757915Y39634115D01*
X12757915Y39634115D02*
X12805534Y39538877D01*
X12805534Y39538877D02*
X12805534Y39443639D01*
X12805534Y39443639D02*
X12329344Y39348401D01*
X13662677Y39015067D02*
X13662677Y39538877D01*
X13662677Y39538877D02*
X13615058Y39634115D01*
X13615058Y39634115D02*
X13519820Y39681734D01*
X13519820Y39681734D02*
X13329344Y39681734D01*
X13329344Y39681734D02*
X13234106Y39634115D01*
X13662677Y39062686D02*
X13567439Y39015067D01*
X13567439Y39015067D02*
X13329344Y39015067D01*
X13329344Y39015067D02*
X13234106Y39062686D01*
X13234106Y39062686D02*
X13186487Y39157925D01*
X13186487Y39157925D02*
X13186487Y39253163D01*
X13186487Y39253163D02*
X13234106Y39348401D01*
X13234106Y39348401D02*
X13329344Y39396020D01*
X13329344Y39396020D02*
X13567439Y39396020D01*
X13567439Y39396020D02*
X13662677Y39443639D01*
X14138868Y39015067D02*
X14138868Y39681734D01*
X14138868Y39491258D02*
X14186487Y39586496D01*
X14186487Y39586496D02*
X14234106Y39634115D01*
X14234106Y39634115D02*
X14329344Y39681734D01*
X14329344Y39681734D02*
X14424582Y39681734D01*
X15519821Y39015067D02*
X15519821Y40015067D01*
X15519821Y40015067D02*
X15900773Y40015067D01*
X15900773Y40015067D02*
X15996011Y39967448D01*
X15996011Y39967448D02*
X16043630Y39919829D01*
X16043630Y39919829D02*
X16091249Y39824591D01*
X16091249Y39824591D02*
X16091249Y39681734D01*
X16091249Y39681734D02*
X16043630Y39586496D01*
X16043630Y39586496D02*
X15996011Y39538877D01*
X15996011Y39538877D02*
X15900773Y39491258D01*
X15900773Y39491258D02*
X15519821Y39491258D01*
X16519821Y39015067D02*
X16519821Y39681734D01*
X16519821Y39491258D02*
X16567440Y39586496D01*
X16567440Y39586496D02*
X16615059Y39634115D01*
X16615059Y39634115D02*
X16710297Y39681734D01*
X16710297Y39681734D02*
X16805535Y39681734D01*
X17281726Y39015067D02*
X17186488Y39062686D01*
X17186488Y39062686D02*
X17138869Y39110306D01*
X17138869Y39110306D02*
X17091250Y39205544D01*
X17091250Y39205544D02*
X17091250Y39491258D01*
X17091250Y39491258D02*
X17138869Y39586496D01*
X17138869Y39586496D02*
X17186488Y39634115D01*
X17186488Y39634115D02*
X17281726Y39681734D01*
X17281726Y39681734D02*
X17424583Y39681734D01*
X17424583Y39681734D02*
X17519821Y39634115D01*
X17519821Y39634115D02*
X17567440Y39586496D01*
X17567440Y39586496D02*
X17615059Y39491258D01*
X17615059Y39491258D02*
X17615059Y39205544D01*
X17615059Y39205544D02*
X17567440Y39110306D01*
X17567440Y39110306D02*
X17519821Y39062686D01*
X17519821Y39062686D02*
X17424583Y39015067D01*
X17424583Y39015067D02*
X17281726Y39015067D01*
X18043631Y39681734D02*
X18043631Y38824591D01*
X18043631Y38824591D02*
X17996012Y38729353D01*
X17996012Y38729353D02*
X17900774Y38681734D01*
X17900774Y38681734D02*
X17853155Y38681734D01*
X18043631Y40015067D02*
X17996012Y39967448D01*
X17996012Y39967448D02*
X18043631Y39919829D01*
X18043631Y39919829D02*
X18091250Y39967448D01*
X18091250Y39967448D02*
X18043631Y40015067D01*
X18043631Y40015067D02*
X18043631Y39919829D01*
X18900773Y39062686D02*
X18805535Y39015067D01*
X18805535Y39015067D02*
X18615059Y39015067D01*
X18615059Y39015067D02*
X18519821Y39062686D01*
X18519821Y39062686D02*
X18472202Y39157925D01*
X18472202Y39157925D02*
X18472202Y39538877D01*
X18472202Y39538877D02*
X18519821Y39634115D01*
X18519821Y39634115D02*
X18615059Y39681734D01*
X18615059Y39681734D02*
X18805535Y39681734D01*
X18805535Y39681734D02*
X18900773Y39634115D01*
X18900773Y39634115D02*
X18948392Y39538877D01*
X18948392Y39538877D02*
X18948392Y39443639D01*
X18948392Y39443639D02*
X18472202Y39348401D01*
X19805535Y39062686D02*
X19710297Y39015067D01*
X19710297Y39015067D02*
X19519821Y39015067D01*
X19519821Y39015067D02*
X19424583Y39062686D01*
X19424583Y39062686D02*
X19376964Y39110306D01*
X19376964Y39110306D02*
X19329345Y39205544D01*
X19329345Y39205544D02*
X19329345Y39491258D01*
X19329345Y39491258D02*
X19376964Y39586496D01*
X19376964Y39586496D02*
X19424583Y39634115D01*
X19424583Y39634115D02*
X19519821Y39681734D01*
X19519821Y39681734D02*
X19710297Y39681734D01*
X19710297Y39681734D02*
X19805535Y39634115D01*
X20091250Y39681734D02*
X20472202Y39681734D01*
X20234107Y40015067D02*
X20234107Y39157925D01*
X20234107Y39157925D02*
X20281726Y39062686D01*
X20281726Y39062686D02*
X20376964Y39015067D01*
X20376964Y39015067D02*
X20472202Y39015067D01*
X2138866Y37515067D02*
X1662676Y37515067D01*
X1662676Y37515067D02*
X1662676Y38515067D01*
X2329343Y38515067D02*
X2900771Y38515067D01*
X2615057Y37515067D02*
X2615057Y38515067D01*
X3805533Y37610306D02*
X3757914Y37562686D01*
X3757914Y37562686D02*
X3615057Y37515067D01*
X3615057Y37515067D02*
X3519819Y37515067D01*
X3519819Y37515067D02*
X3376962Y37562686D01*
X3376962Y37562686D02*
X3281724Y37657925D01*
X3281724Y37657925D02*
X3234105Y37753163D01*
X3234105Y37753163D02*
X3186486Y37943639D01*
X3186486Y37943639D02*
X3186486Y38086496D01*
X3186486Y38086496D02*
X3234105Y38276972D01*
X3234105Y38276972D02*
X3281724Y38372210D01*
X3281724Y38372210D02*
X3376962Y38467448D01*
X3376962Y38467448D02*
X3519819Y38515067D01*
X3519819Y38515067D02*
X3615057Y38515067D01*
X3615057Y38515067D02*
X3757914Y38467448D01*
X3757914Y38467448D02*
X3805533Y38419829D01*
X4757914Y37515067D02*
X4186486Y37515067D01*
X4472200Y37515067D02*
X4472200Y38515067D01*
X4472200Y38515067D02*
X4376962Y38372210D01*
X4376962Y38372210D02*
X4281724Y38276972D01*
X4281724Y38276972D02*
X4186486Y38229353D01*
X5329343Y38086496D02*
X5234105Y38134115D01*
X5234105Y38134115D02*
X5186486Y38181734D01*
X5186486Y38181734D02*
X5138867Y38276972D01*
X5138867Y38276972D02*
X5138867Y38324591D01*
X5138867Y38324591D02*
X5186486Y38419829D01*
X5186486Y38419829D02*
X5234105Y38467448D01*
X5234105Y38467448D02*
X5329343Y38515067D01*
X5329343Y38515067D02*
X5519819Y38515067D01*
X5519819Y38515067D02*
X5615057Y38467448D01*
X5615057Y38467448D02*
X5662676Y38419829D01*
X5662676Y38419829D02*
X5710295Y38324591D01*
X5710295Y38324591D02*
X5710295Y38276972D01*
X5710295Y38276972D02*
X5662676Y38181734D01*
X5662676Y38181734D02*
X5615057Y38134115D01*
X5615057Y38134115D02*
X5519819Y38086496D01*
X5519819Y38086496D02*
X5329343Y38086496D01*
X5329343Y38086496D02*
X5234105Y38038877D01*
X5234105Y38038877D02*
X5186486Y37991258D01*
X5186486Y37991258D02*
X5138867Y37896020D01*
X5138867Y37896020D02*
X5138867Y37705544D01*
X5138867Y37705544D02*
X5186486Y37610306D01*
X5186486Y37610306D02*
X5234105Y37562686D01*
X5234105Y37562686D02*
X5329343Y37515067D01*
X5329343Y37515067D02*
X5519819Y37515067D01*
X5519819Y37515067D02*
X5615057Y37562686D01*
X5615057Y37562686D02*
X5662676Y37610306D01*
X5662676Y37610306D02*
X5710295Y37705544D01*
X5710295Y37705544D02*
X5710295Y37896020D01*
X5710295Y37896020D02*
X5662676Y37991258D01*
X5662676Y37991258D02*
X5615057Y38038877D01*
X5615057Y38038877D02*
X5519819Y38086496D01*
X6043629Y38515067D02*
X6710295Y38515067D01*
X6710295Y38515067D02*
X6281724Y37515067D01*
X7615057Y37515067D02*
X7043629Y37515067D01*
X7329343Y37515067D02*
X7329343Y38515067D01*
X7329343Y38515067D02*
X7234105Y38372210D01*
X7234105Y38372210D02*
X7138867Y38276972D01*
X7138867Y38276972D02*
X7043629Y38229353D01*
X9138867Y38038877D02*
X9281724Y37991258D01*
X9281724Y37991258D02*
X9329343Y37943639D01*
X9329343Y37943639D02*
X9376962Y37848401D01*
X9376962Y37848401D02*
X9376962Y37705544D01*
X9376962Y37705544D02*
X9329343Y37610306D01*
X9329343Y37610306D02*
X9281724Y37562686D01*
X9281724Y37562686D02*
X9186486Y37515067D01*
X9186486Y37515067D02*
X8805534Y37515067D01*
X8805534Y37515067D02*
X8805534Y38515067D01*
X8805534Y38515067D02*
X9138867Y38515067D01*
X9138867Y38515067D02*
X9234105Y38467448D01*
X9234105Y38467448D02*
X9281724Y38419829D01*
X9281724Y38419829D02*
X9329343Y38324591D01*
X9329343Y38324591D02*
X9329343Y38229353D01*
X9329343Y38229353D02*
X9281724Y38134115D01*
X9281724Y38134115D02*
X9234105Y38086496D01*
X9234105Y38086496D02*
X9138867Y38038877D01*
X9138867Y38038877D02*
X8805534Y38038877D01*
X9948391Y37515067D02*
X9853153Y37562686D01*
X9853153Y37562686D02*
X9805534Y37610306D01*
X9805534Y37610306D02*
X9757915Y37705544D01*
X9757915Y37705544D02*
X9757915Y37991258D01*
X9757915Y37991258D02*
X9805534Y38086496D01*
X9805534Y38086496D02*
X9853153Y38134115D01*
X9853153Y38134115D02*
X9948391Y38181734D01*
X9948391Y38181734D02*
X10091248Y38181734D01*
X10091248Y38181734D02*
X10186486Y38134115D01*
X10186486Y38134115D02*
X10234105Y38086496D01*
X10234105Y38086496D02*
X10281724Y37991258D01*
X10281724Y37991258D02*
X10281724Y37705544D01*
X10281724Y37705544D02*
X10234105Y37610306D01*
X10234105Y37610306D02*
X10186486Y37562686D01*
X10186486Y37562686D02*
X10091248Y37515067D01*
X10091248Y37515067D02*
X9948391Y37515067D01*
X10853153Y37515067D02*
X10757915Y37562686D01*
X10757915Y37562686D02*
X10710296Y37610306D01*
X10710296Y37610306D02*
X10662677Y37705544D01*
X10662677Y37705544D02*
X10662677Y37991258D01*
X10662677Y37991258D02*
X10710296Y38086496D01*
X10710296Y38086496D02*
X10757915Y38134115D01*
X10757915Y38134115D02*
X10853153Y38181734D01*
X10853153Y38181734D02*
X10996010Y38181734D01*
X10996010Y38181734D02*
X11091248Y38134115D01*
X11091248Y38134115D02*
X11138867Y38086496D01*
X11138867Y38086496D02*
X11186486Y37991258D01*
X11186486Y37991258D02*
X11186486Y37705544D01*
X11186486Y37705544D02*
X11138867Y37610306D01*
X11138867Y37610306D02*
X11091248Y37562686D01*
X11091248Y37562686D02*
X10996010Y37515067D01*
X10996010Y37515067D02*
X10853153Y37515067D01*
X11567439Y37562686D02*
X11662677Y37515067D01*
X11662677Y37515067D02*
X11853153Y37515067D01*
X11853153Y37515067D02*
X11948391Y37562686D01*
X11948391Y37562686D02*
X11996010Y37657925D01*
X11996010Y37657925D02*
X11996010Y37705544D01*
X11996010Y37705544D02*
X11948391Y37800782D01*
X11948391Y37800782D02*
X11853153Y37848401D01*
X11853153Y37848401D02*
X11710296Y37848401D01*
X11710296Y37848401D02*
X11615058Y37896020D01*
X11615058Y37896020D02*
X11567439Y37991258D01*
X11567439Y37991258D02*
X11567439Y38038877D01*
X11567439Y38038877D02*
X11615058Y38134115D01*
X11615058Y38134115D02*
X11710296Y38181734D01*
X11710296Y38181734D02*
X11853153Y38181734D01*
X11853153Y38181734D02*
X11948391Y38134115D01*
X12281725Y38181734D02*
X12662677Y38181734D01*
X12424582Y38515067D02*
X12424582Y37657925D01*
X12424582Y37657925D02*
X12472201Y37562686D01*
X12472201Y37562686D02*
X12567439Y37515067D01*
X12567439Y37515067D02*
X12662677Y37515067D01*
X14329344Y37610306D02*
X14281725Y37562686D01*
X14281725Y37562686D02*
X14138868Y37515067D01*
X14138868Y37515067D02*
X14043630Y37515067D01*
X14043630Y37515067D02*
X13900773Y37562686D01*
X13900773Y37562686D02*
X13805535Y37657925D01*
X13805535Y37657925D02*
X13757916Y37753163D01*
X13757916Y37753163D02*
X13710297Y37943639D01*
X13710297Y37943639D02*
X13710297Y38086496D01*
X13710297Y38086496D02*
X13757916Y38276972D01*
X13757916Y38276972D02*
X13805535Y38372210D01*
X13805535Y38372210D02*
X13900773Y38467448D01*
X13900773Y38467448D02*
X14043630Y38515067D01*
X14043630Y38515067D02*
X14138868Y38515067D01*
X14138868Y38515067D02*
X14281725Y38467448D01*
X14281725Y38467448D02*
X14329344Y38419829D01*
X14900773Y37515067D02*
X14805535Y37562686D01*
X14805535Y37562686D02*
X14757916Y37610306D01*
X14757916Y37610306D02*
X14710297Y37705544D01*
X14710297Y37705544D02*
X14710297Y37991258D01*
X14710297Y37991258D02*
X14757916Y38086496D01*
X14757916Y38086496D02*
X14805535Y38134115D01*
X14805535Y38134115D02*
X14900773Y38181734D01*
X14900773Y38181734D02*
X15043630Y38181734D01*
X15043630Y38181734D02*
X15138868Y38134115D01*
X15138868Y38134115D02*
X15186487Y38086496D01*
X15186487Y38086496D02*
X15234106Y37991258D01*
X15234106Y37991258D02*
X15234106Y37705544D01*
X15234106Y37705544D02*
X15186487Y37610306D01*
X15186487Y37610306D02*
X15138868Y37562686D01*
X15138868Y37562686D02*
X15043630Y37515067D01*
X15043630Y37515067D02*
X14900773Y37515067D01*
X15662678Y38181734D02*
X15662678Y37515067D01*
X15662678Y38086496D02*
X15710297Y38134115D01*
X15710297Y38134115D02*
X15805535Y38181734D01*
X15805535Y38181734D02*
X15948392Y38181734D01*
X15948392Y38181734D02*
X16043630Y38134115D01*
X16043630Y38134115D02*
X16091249Y38038877D01*
X16091249Y38038877D02*
X16091249Y37515067D01*
X16472202Y38181734D02*
X16710297Y37515067D01*
X16710297Y37515067D02*
X16948392Y38181734D01*
X17710297Y37562686D02*
X17615059Y37515067D01*
X17615059Y37515067D02*
X17424583Y37515067D01*
X17424583Y37515067D02*
X17329345Y37562686D01*
X17329345Y37562686D02*
X17281726Y37657925D01*
X17281726Y37657925D02*
X17281726Y38038877D01*
X17281726Y38038877D02*
X17329345Y38134115D01*
X17329345Y38134115D02*
X17424583Y38181734D01*
X17424583Y38181734D02*
X17615059Y38181734D01*
X17615059Y38181734D02*
X17710297Y38134115D01*
X17710297Y38134115D02*
X17757916Y38038877D01*
X17757916Y38038877D02*
X17757916Y37943639D01*
X17757916Y37943639D02*
X17281726Y37848401D01*
X18186488Y37515067D02*
X18186488Y38181734D01*
X18186488Y37991258D02*
X18234107Y38086496D01*
X18234107Y38086496D02*
X18281726Y38134115D01*
X18281726Y38134115D02*
X18376964Y38181734D01*
X18376964Y38181734D02*
X18472202Y38181734D01*
X18662679Y38181734D02*
X19043631Y38181734D01*
X18805536Y38515067D02*
X18805536Y37657925D01*
X18805536Y37657925D02*
X18853155Y37562686D01*
X18853155Y37562686D02*
X18948393Y37515067D01*
X18948393Y37515067D02*
X19043631Y37515067D01*
X19757917Y37562686D02*
X19662679Y37515067D01*
X19662679Y37515067D02*
X19472203Y37515067D01*
X19472203Y37515067D02*
X19376965Y37562686D01*
X19376965Y37562686D02*
X19329346Y37657925D01*
X19329346Y37657925D02*
X19329346Y38038877D01*
X19329346Y38038877D02*
X19376965Y38134115D01*
X19376965Y38134115D02*
X19472203Y38181734D01*
X19472203Y38181734D02*
X19662679Y38181734D01*
X19662679Y38181734D02*
X19757917Y38134115D01*
X19757917Y38134115D02*
X19805536Y38038877D01*
X19805536Y38038877D02*
X19805536Y37943639D01*
X19805536Y37943639D02*
X19329346Y37848401D01*
X20234108Y37515067D02*
X20234108Y38181734D01*
X20234108Y37991258D02*
X20281727Y38086496D01*
X20281727Y38086496D02*
X20329346Y38134115D01*
X20329346Y38134115D02*
X20424584Y38181734D01*
X20424584Y38181734D02*
X20519822Y38181734D01*
D11*
X10180941Y22574867D02*
X9847608Y23051058D01*
X9609513Y22574867D02*
X9609513Y23574867D01*
X9609513Y23574867D02*
X9990465Y23574867D01*
X9990465Y23574867D02*
X10085703Y23527248D01*
X10085703Y23527248D02*
X10133322Y23479629D01*
X10133322Y23479629D02*
X10180941Y23384391D01*
X10180941Y23384391D02*
X10180941Y23241534D01*
X10180941Y23241534D02*
X10133322Y23146296D01*
X10133322Y23146296D02*
X10085703Y23098677D01*
X10085703Y23098677D02*
X9990465Y23051058D01*
X9990465Y23051058D02*
X9609513Y23051058D01*
X11038084Y23241534D02*
X11038084Y22574867D01*
X10799989Y23622486D02*
X10561894Y22908201D01*
X10561894Y22908201D02*
X11180941Y22908201D01*
X14594927Y2046353D02*
X15309212Y2046353D01*
X15309212Y2046353D02*
X15452069Y1998734D01*
X15452069Y1998734D02*
X15547308Y1903496D01*
X15547308Y1903496D02*
X15594927Y1760639D01*
X15594927Y1760639D02*
X15594927Y1665401D01*
X14594927Y2998734D02*
X14594927Y2522544D01*
X14594927Y2522544D02*
X15071117Y2474925D01*
X15071117Y2474925D02*
X15023498Y2522544D01*
X15023498Y2522544D02*
X14975879Y2617782D01*
X14975879Y2617782D02*
X14975879Y2855877D01*
X14975879Y2855877D02*
X15023498Y2951115D01*
X15023498Y2951115D02*
X15071117Y2998734D01*
X15071117Y2998734D02*
X15166355Y3046353D01*
X15166355Y3046353D02*
X15404450Y3046353D01*
X15404450Y3046353D02*
X15499688Y2998734D01*
X15499688Y2998734D02*
X15547308Y2951115D01*
X15547308Y2951115D02*
X15594927Y2855877D01*
X15594927Y2855877D02*
X15594927Y2617782D01*
X15594927Y2617782D02*
X15547308Y2522544D01*
X15547308Y2522544D02*
X15499688Y2474925D01*
X13593441Y22520106D02*
X13545822Y22472486D01*
X13545822Y22472486D02*
X13402965Y22424867D01*
X13402965Y22424867D02*
X13307727Y22424867D01*
X13307727Y22424867D02*
X13164870Y22472486D01*
X13164870Y22472486D02*
X13069632Y22567725D01*
X13069632Y22567725D02*
X13022013Y22662963D01*
X13022013Y22662963D02*
X12974394Y22853439D01*
X12974394Y22853439D02*
X12974394Y22996296D01*
X12974394Y22996296D02*
X13022013Y23186772D01*
X13022013Y23186772D02*
X13069632Y23282010D01*
X13069632Y23282010D02*
X13164870Y23377248D01*
X13164870Y23377248D02*
X13307727Y23424867D01*
X13307727Y23424867D02*
X13402965Y23424867D01*
X13402965Y23424867D02*
X13545822Y23377248D01*
X13545822Y23377248D02*
X13593441Y23329629D01*
X13926775Y23424867D02*
X14545822Y23424867D01*
X14545822Y23424867D02*
X14212489Y23043915D01*
X14212489Y23043915D02*
X14355346Y23043915D01*
X14355346Y23043915D02*
X14450584Y22996296D01*
X14450584Y22996296D02*
X14498203Y22948677D01*
X14498203Y22948677D02*
X14545822Y22853439D01*
X14545822Y22853439D02*
X14545822Y22615344D01*
X14545822Y22615344D02*
X14498203Y22520106D01*
X14498203Y22520106D02*
X14450584Y22472486D01*
X14450584Y22472486D02*
X14355346Y22424867D01*
X14355346Y22424867D02*
X14069632Y22424867D01*
X14069632Y22424867D02*
X13974394Y22472486D01*
X13974394Y22472486D02*
X13926775Y22520106D01*
X19355346Y34304867D02*
X19355346Y33590582D01*
X19355346Y33590582D02*
X19307727Y33447725D01*
X19307727Y33447725D02*
X19212489Y33352486D01*
X19212489Y33352486D02*
X19069632Y33304867D01*
X19069632Y33304867D02*
X18974394Y33304867D01*
X19593442Y33209629D02*
X20355346Y33209629D01*
X20450585Y34304867D02*
X20783918Y33304867D01*
X20783918Y33304867D02*
X21117251Y34304867D01*
X21450585Y33304867D02*
X21450585Y34304867D01*
X21926775Y33304867D02*
X21926775Y34304867D01*
X21926775Y34304867D02*
X22498203Y33304867D01*
X22498203Y33304867D02*
X22498203Y34304867D01*
X23498203Y33304867D02*
X22926775Y33304867D01*
X23212489Y33304867D02*
X23212489Y34304867D01*
X23212489Y34304867D02*
X23117251Y34162010D01*
X23117251Y34162010D02*
X23022013Y34066772D01*
X23022013Y34066772D02*
X22926775Y34019153D01*
X54619688Y23284448D02*
X54667308Y23236829D01*
X54667308Y23236829D02*
X54714927Y23093972D01*
X54714927Y23093972D02*
X54714927Y22998734D01*
X54714927Y22998734D02*
X54667308Y22855877D01*
X54667308Y22855877D02*
X54572069Y22760639D01*
X54572069Y22760639D02*
X54476831Y22713020D01*
X54476831Y22713020D02*
X54286355Y22665401D01*
X54286355Y22665401D02*
X54143498Y22665401D01*
X54143498Y22665401D02*
X53953022Y22713020D01*
X53953022Y22713020D02*
X53857784Y22760639D01*
X53857784Y22760639D02*
X53762546Y22855877D01*
X53762546Y22855877D02*
X53714927Y22998734D01*
X53714927Y22998734D02*
X53714927Y23093972D01*
X53714927Y23093972D02*
X53762546Y23236829D01*
X53762546Y23236829D02*
X53810165Y23284448D01*
X54714927Y24236829D02*
X54714927Y23665401D01*
X54714927Y23951115D02*
X53714927Y23951115D01*
X53714927Y23951115D02*
X53857784Y23855877D01*
X53857784Y23855877D02*
X53953022Y23760639D01*
X53953022Y23760639D02*
X54000641Y23665401D01*
X54714927Y24665401D02*
X53714927Y24665401D01*
X54095879Y24665401D02*
X54048260Y24760639D01*
X54048260Y24760639D02*
X54048260Y24951115D01*
X54048260Y24951115D02*
X54095879Y25046353D01*
X54095879Y25046353D02*
X54143498Y25093972D01*
X54143498Y25093972D02*
X54238736Y25141591D01*
X54238736Y25141591D02*
X54524450Y25141591D01*
X54524450Y25141591D02*
X54619688Y25093972D01*
X54619688Y25093972D02*
X54667308Y25046353D01*
X54667308Y25046353D02*
X54714927Y24951115D01*
X54714927Y24951115D02*
X54714927Y24760639D01*
X54714927Y24760639D02*
X54667308Y24665401D01*
X53810165Y25522544D02*
X53762546Y25570163D01*
X53762546Y25570163D02*
X53714927Y25665401D01*
X53714927Y25665401D02*
X53714927Y25903496D01*
X53714927Y25903496D02*
X53762546Y25998734D01*
X53762546Y25998734D02*
X53810165Y26046353D01*
X53810165Y26046353D02*
X53905403Y26093972D01*
X53905403Y26093972D02*
X54000641Y26093972D01*
X54000641Y26093972D02*
X54143498Y26046353D01*
X54143498Y26046353D02*
X54714927Y25474925D01*
X54714927Y25474925D02*
X54714927Y26093972D01*
X57426774Y21804867D02*
X57426774Y21090582D01*
X57426774Y21090582D02*
X57379155Y20947725D01*
X57379155Y20947725D02*
X57283917Y20852486D01*
X57283917Y20852486D02*
X57141060Y20804867D01*
X57141060Y20804867D02*
X57045822Y20804867D01*
X57855346Y21709629D02*
X57902965Y21757248D01*
X57902965Y21757248D02*
X57998203Y21804867D01*
X57998203Y21804867D02*
X58236298Y21804867D01*
X58236298Y21804867D02*
X58331536Y21757248D01*
X58331536Y21757248D02*
X58379155Y21709629D01*
X58379155Y21709629D02*
X58426774Y21614391D01*
X58426774Y21614391D02*
X58426774Y21519153D01*
X58426774Y21519153D02*
X58379155Y21376296D01*
X58379155Y21376296D02*
X57807727Y20804867D01*
X57807727Y20804867D02*
X58426774Y20804867D01*
X46214927Y14300520D02*
X45738736Y13967187D01*
X46214927Y13729092D02*
X45214927Y13729092D01*
X45214927Y13729092D02*
X45214927Y14110044D01*
X45214927Y14110044D02*
X45262546Y14205282D01*
X45262546Y14205282D02*
X45310165Y14252901D01*
X45310165Y14252901D02*
X45405403Y14300520D01*
X45405403Y14300520D02*
X45548260Y14300520D01*
X45548260Y14300520D02*
X45643498Y14252901D01*
X45643498Y14252901D02*
X45691117Y14205282D01*
X45691117Y14205282D02*
X45738736Y14110044D01*
X45738736Y14110044D02*
X45738736Y13729092D01*
X45310165Y14681473D02*
X45262546Y14729092D01*
X45262546Y14729092D02*
X45214927Y14824330D01*
X45214927Y14824330D02*
X45214927Y15062425D01*
X45214927Y15062425D02*
X45262546Y15157663D01*
X45262546Y15157663D02*
X45310165Y15205282D01*
X45310165Y15205282D02*
X45405403Y15252901D01*
X45405403Y15252901D02*
X45500641Y15252901D01*
X45500641Y15252901D02*
X45643498Y15205282D01*
X45643498Y15205282D02*
X46214927Y14633854D01*
X46214927Y14633854D02*
X46214927Y15252901D01*
X39969688Y1809448D02*
X40017308Y1761829D01*
X40017308Y1761829D02*
X40064927Y1618972D01*
X40064927Y1618972D02*
X40064927Y1523734D01*
X40064927Y1523734D02*
X40017308Y1380877D01*
X40017308Y1380877D02*
X39922069Y1285639D01*
X39922069Y1285639D02*
X39826831Y1238020D01*
X39826831Y1238020D02*
X39636355Y1190401D01*
X39636355Y1190401D02*
X39493498Y1190401D01*
X39493498Y1190401D02*
X39303022Y1238020D01*
X39303022Y1238020D02*
X39207784Y1285639D01*
X39207784Y1285639D02*
X39112546Y1380877D01*
X39112546Y1380877D02*
X39064927Y1523734D01*
X39064927Y1523734D02*
X39064927Y1618972D01*
X39064927Y1618972D02*
X39112546Y1761829D01*
X39112546Y1761829D02*
X39160165Y1809448D01*
X40064927Y2761829D02*
X40064927Y2190401D01*
X40064927Y2476115D02*
X39064927Y2476115D01*
X39064927Y2476115D02*
X39207784Y2380877D01*
X39207784Y2380877D02*
X39303022Y2285639D01*
X39303022Y2285639D02*
X39350641Y2190401D01*
X40064927Y3618972D02*
X39541117Y3618972D01*
X39541117Y3618972D02*
X39445879Y3571353D01*
X39445879Y3571353D02*
X39398260Y3476115D01*
X39398260Y3476115D02*
X39398260Y3285639D01*
X39398260Y3285639D02*
X39445879Y3190401D01*
X40017308Y3618972D02*
X40064927Y3523734D01*
X40064927Y3523734D02*
X40064927Y3285639D01*
X40064927Y3285639D02*
X40017308Y3190401D01*
X40017308Y3190401D02*
X39922069Y3142782D01*
X39922069Y3142782D02*
X39826831Y3142782D01*
X39826831Y3142782D02*
X39731593Y3190401D01*
X39731593Y3190401D02*
X39683974Y3285639D01*
X39683974Y3285639D02*
X39683974Y3523734D01*
X39683974Y3523734D02*
X39636355Y3618972D01*
X39398260Y4523734D02*
X40064927Y4523734D01*
X39017308Y4285639D02*
X39731593Y4047544D01*
X39731593Y4047544D02*
X39731593Y4666591D01*
X25714927Y27300520D02*
X25238736Y26967187D01*
X25714927Y26729092D02*
X24714927Y26729092D01*
X24714927Y26729092D02*
X24714927Y27110044D01*
X24714927Y27110044D02*
X24762546Y27205282D01*
X24762546Y27205282D02*
X24810165Y27252901D01*
X24810165Y27252901D02*
X24905403Y27300520D01*
X24905403Y27300520D02*
X25048260Y27300520D01*
X25048260Y27300520D02*
X25143498Y27252901D01*
X25143498Y27252901D02*
X25191117Y27205282D01*
X25191117Y27205282D02*
X25238736Y27110044D01*
X25238736Y27110044D02*
X25238736Y26729092D01*
X24714927Y28205282D02*
X24714927Y27729092D01*
X24714927Y27729092D02*
X25191117Y27681473D01*
X25191117Y27681473D02*
X25143498Y27729092D01*
X25143498Y27729092D02*
X25095879Y27824330D01*
X25095879Y27824330D02*
X25095879Y28062425D01*
X25095879Y28062425D02*
X25143498Y28157663D01*
X25143498Y28157663D02*
X25191117Y28205282D01*
X25191117Y28205282D02*
X25286355Y28252901D01*
X25286355Y28252901D02*
X25524450Y28252901D01*
X25524450Y28252901D02*
X25619688Y28205282D01*
X25619688Y28205282D02*
X25667308Y28157663D01*
X25667308Y28157663D02*
X25714927Y28062425D01*
X25714927Y28062425D02*
X25714927Y27824330D01*
X25714927Y27824330D02*
X25667308Y27729092D01*
X25667308Y27729092D02*
X25619688Y27681473D01*
X47469688Y6809448D02*
X47517308Y6761829D01*
X47517308Y6761829D02*
X47564927Y6618972D01*
X47564927Y6618972D02*
X47564927Y6523734D01*
X47564927Y6523734D02*
X47517308Y6380877D01*
X47517308Y6380877D02*
X47422069Y6285639D01*
X47422069Y6285639D02*
X47326831Y6238020D01*
X47326831Y6238020D02*
X47136355Y6190401D01*
X47136355Y6190401D02*
X46993498Y6190401D01*
X46993498Y6190401D02*
X46803022Y6238020D01*
X46803022Y6238020D02*
X46707784Y6285639D01*
X46707784Y6285639D02*
X46612546Y6380877D01*
X46612546Y6380877D02*
X46564927Y6523734D01*
X46564927Y6523734D02*
X46564927Y6618972D01*
X46564927Y6618972D02*
X46612546Y6761829D01*
X46612546Y6761829D02*
X46660165Y6809448D01*
X47564927Y7761829D02*
X47564927Y7190401D01*
X47564927Y7476115D02*
X46564927Y7476115D01*
X46564927Y7476115D02*
X46707784Y7380877D01*
X46707784Y7380877D02*
X46803022Y7285639D01*
X46803022Y7285639D02*
X46850641Y7190401D01*
X47564927Y8618972D02*
X47041117Y8618972D01*
X47041117Y8618972D02*
X46945879Y8571353D01*
X46945879Y8571353D02*
X46898260Y8476115D01*
X46898260Y8476115D02*
X46898260Y8285639D01*
X46898260Y8285639D02*
X46945879Y8190401D01*
X47517308Y8618972D02*
X47564927Y8523734D01*
X47564927Y8523734D02*
X47564927Y8285639D01*
X47564927Y8285639D02*
X47517308Y8190401D01*
X47517308Y8190401D02*
X47422069Y8142782D01*
X47422069Y8142782D02*
X47326831Y8142782D01*
X47326831Y8142782D02*
X47231593Y8190401D01*
X47231593Y8190401D02*
X47183974Y8285639D01*
X47183974Y8285639D02*
X47183974Y8523734D01*
X47183974Y8523734D02*
X47136355Y8618972D01*
X46564927Y8999925D02*
X46564927Y9666591D01*
X46564927Y9666591D02*
X47564927Y9238020D01*
X46843441Y31770106D02*
X46795822Y31722486D01*
X46795822Y31722486D02*
X46652965Y31674867D01*
X46652965Y31674867D02*
X46557727Y31674867D01*
X46557727Y31674867D02*
X46414870Y31722486D01*
X46414870Y31722486D02*
X46319632Y31817725D01*
X46319632Y31817725D02*
X46272013Y31912963D01*
X46272013Y31912963D02*
X46224394Y32103439D01*
X46224394Y32103439D02*
X46224394Y32246296D01*
X46224394Y32246296D02*
X46272013Y32436772D01*
X46272013Y32436772D02*
X46319632Y32532010D01*
X46319632Y32532010D02*
X46414870Y32627248D01*
X46414870Y32627248D02*
X46557727Y32674867D01*
X46557727Y32674867D02*
X46652965Y32674867D01*
X46652965Y32674867D02*
X46795822Y32627248D01*
X46795822Y32627248D02*
X46843441Y32579629D01*
X47748203Y32674867D02*
X47272013Y32674867D01*
X47272013Y32674867D02*
X47224394Y32198677D01*
X47224394Y32198677D02*
X47272013Y32246296D01*
X47272013Y32246296D02*
X47367251Y32293915D01*
X47367251Y32293915D02*
X47605346Y32293915D01*
X47605346Y32293915D02*
X47700584Y32246296D01*
X47700584Y32246296D02*
X47748203Y32198677D01*
X47748203Y32198677D02*
X47795822Y32103439D01*
X47795822Y32103439D02*
X47795822Y31865344D01*
X47795822Y31865344D02*
X47748203Y31770106D01*
X47748203Y31770106D02*
X47700584Y31722486D01*
X47700584Y31722486D02*
X47605346Y31674867D01*
X47605346Y31674867D02*
X47367251Y31674867D01*
X47367251Y31674867D02*
X47272013Y31722486D01*
X47272013Y31722486D02*
X47224394Y31770106D01*
X37469688Y6284448D02*
X37517308Y6236829D01*
X37517308Y6236829D02*
X37564927Y6093972D01*
X37564927Y6093972D02*
X37564927Y5998734D01*
X37564927Y5998734D02*
X37517308Y5855877D01*
X37517308Y5855877D02*
X37422069Y5760639D01*
X37422069Y5760639D02*
X37326831Y5713020D01*
X37326831Y5713020D02*
X37136355Y5665401D01*
X37136355Y5665401D02*
X36993498Y5665401D01*
X36993498Y5665401D02*
X36803022Y5713020D01*
X36803022Y5713020D02*
X36707784Y5760639D01*
X36707784Y5760639D02*
X36612546Y5855877D01*
X36612546Y5855877D02*
X36564927Y5998734D01*
X36564927Y5998734D02*
X36564927Y6093972D01*
X36564927Y6093972D02*
X36612546Y6236829D01*
X36612546Y6236829D02*
X36660165Y6284448D01*
X37564927Y7236829D02*
X37564927Y6665401D01*
X37564927Y6951115D02*
X36564927Y6951115D01*
X36564927Y6951115D02*
X36707784Y6855877D01*
X36707784Y6855877D02*
X36803022Y6760639D01*
X36803022Y6760639D02*
X36850641Y6665401D01*
X37564927Y8093972D02*
X37041117Y8093972D01*
X37041117Y8093972D02*
X36945879Y8046353D01*
X36945879Y8046353D02*
X36898260Y7951115D01*
X36898260Y7951115D02*
X36898260Y7760639D01*
X36898260Y7760639D02*
X36945879Y7665401D01*
X37517308Y8093972D02*
X37564927Y7998734D01*
X37564927Y7998734D02*
X37564927Y7760639D01*
X37564927Y7760639D02*
X37517308Y7665401D01*
X37517308Y7665401D02*
X37422069Y7617782D01*
X37422069Y7617782D02*
X37326831Y7617782D01*
X37326831Y7617782D02*
X37231593Y7665401D01*
X37231593Y7665401D02*
X37183974Y7760639D01*
X37183974Y7760639D02*
X37183974Y7998734D01*
X37183974Y7998734D02*
X37136355Y8093972D01*
X36564927Y8474925D02*
X36564927Y9093972D01*
X36564927Y9093972D02*
X36945879Y8760639D01*
X36945879Y8760639D02*
X36945879Y8903496D01*
X36945879Y8903496D02*
X36993498Y8998734D01*
X36993498Y8998734D02*
X37041117Y9046353D01*
X37041117Y9046353D02*
X37136355Y9093972D01*
X37136355Y9093972D02*
X37374450Y9093972D01*
X37374450Y9093972D02*
X37469688Y9046353D01*
X37469688Y9046353D02*
X37517308Y8998734D01*
X37517308Y8998734D02*
X37564927Y8903496D01*
X37564927Y8903496D02*
X37564927Y8617782D01*
X37564927Y8617782D02*
X37517308Y8522544D01*
X37517308Y8522544D02*
X37469688Y8474925D01*
X33643441Y21200106D02*
X33595822Y21152486D01*
X33595822Y21152486D02*
X33452965Y21104867D01*
X33452965Y21104867D02*
X33357727Y21104867D01*
X33357727Y21104867D02*
X33214870Y21152486D01*
X33214870Y21152486D02*
X33119632Y21247725D01*
X33119632Y21247725D02*
X33072013Y21342963D01*
X33072013Y21342963D02*
X33024394Y21533439D01*
X33024394Y21533439D02*
X33024394Y21676296D01*
X33024394Y21676296D02*
X33072013Y21866772D01*
X33072013Y21866772D02*
X33119632Y21962010D01*
X33119632Y21962010D02*
X33214870Y22057248D01*
X33214870Y22057248D02*
X33357727Y22104867D01*
X33357727Y22104867D02*
X33452965Y22104867D01*
X33452965Y22104867D02*
X33595822Y22057248D01*
X33595822Y22057248D02*
X33643441Y22009629D01*
X34500584Y21771534D02*
X34500584Y21104867D01*
X34262489Y22152486D02*
X34024394Y21438201D01*
X34024394Y21438201D02*
X34643441Y21438201D01*
X6593441Y20520106D02*
X6545822Y20472486D01*
X6545822Y20472486D02*
X6402965Y20424867D01*
X6402965Y20424867D02*
X6307727Y20424867D01*
X6307727Y20424867D02*
X6164870Y20472486D01*
X6164870Y20472486D02*
X6069632Y20567725D01*
X6069632Y20567725D02*
X6022013Y20662963D01*
X6022013Y20662963D02*
X5974394Y20853439D01*
X5974394Y20853439D02*
X5974394Y20996296D01*
X5974394Y20996296D02*
X6022013Y21186772D01*
X6022013Y21186772D02*
X6069632Y21282010D01*
X6069632Y21282010D02*
X6164870Y21377248D01*
X6164870Y21377248D02*
X6307727Y21424867D01*
X6307727Y21424867D02*
X6402965Y21424867D01*
X6402965Y21424867D02*
X6545822Y21377248D01*
X6545822Y21377248D02*
X6593441Y21329629D01*
X6974394Y21329629D02*
X7022013Y21377248D01*
X7022013Y21377248D02*
X7117251Y21424867D01*
X7117251Y21424867D02*
X7355346Y21424867D01*
X7355346Y21424867D02*
X7450584Y21377248D01*
X7450584Y21377248D02*
X7498203Y21329629D01*
X7498203Y21329629D02*
X7545822Y21234391D01*
X7545822Y21234391D02*
X7545822Y21139153D01*
X7545822Y21139153D02*
X7498203Y20996296D01*
X7498203Y20996296D02*
X6926775Y20424867D01*
X6926775Y20424867D02*
X7545822Y20424867D01*
X42078743Y31824867D02*
X41745410Y32301058D01*
X41507315Y31824867D02*
X41507315Y32824867D01*
X41507315Y32824867D02*
X41888267Y32824867D01*
X41888267Y32824867D02*
X41983505Y32777248D01*
X41983505Y32777248D02*
X42031124Y32729629D01*
X42031124Y32729629D02*
X42078743Y32634391D01*
X42078743Y32634391D02*
X42078743Y32491534D01*
X42078743Y32491534D02*
X42031124Y32396296D01*
X42031124Y32396296D02*
X41983505Y32348677D01*
X41983505Y32348677D02*
X41888267Y32301058D01*
X41888267Y32301058D02*
X41507315Y32301058D01*
X42412077Y32824867D02*
X43078743Y32824867D01*
X43078743Y32824867D02*
X42650172Y31824867D01*
X32619688Y5784448D02*
X32667308Y5736829D01*
X32667308Y5736829D02*
X32714927Y5593972D01*
X32714927Y5593972D02*
X32714927Y5498734D01*
X32714927Y5498734D02*
X32667308Y5355877D01*
X32667308Y5355877D02*
X32572069Y5260639D01*
X32572069Y5260639D02*
X32476831Y5213020D01*
X32476831Y5213020D02*
X32286355Y5165401D01*
X32286355Y5165401D02*
X32143498Y5165401D01*
X32143498Y5165401D02*
X31953022Y5213020D01*
X31953022Y5213020D02*
X31857784Y5260639D01*
X31857784Y5260639D02*
X31762546Y5355877D01*
X31762546Y5355877D02*
X31714927Y5498734D01*
X31714927Y5498734D02*
X31714927Y5593972D01*
X31714927Y5593972D02*
X31762546Y5736829D01*
X31762546Y5736829D02*
X31810165Y5784448D01*
X32714927Y6736829D02*
X32714927Y6165401D01*
X32714927Y6451115D02*
X31714927Y6451115D01*
X31714927Y6451115D02*
X31857784Y6355877D01*
X31857784Y6355877D02*
X31953022Y6260639D01*
X31953022Y6260639D02*
X32000641Y6165401D01*
X32714927Y7593972D02*
X32191117Y7593972D01*
X32191117Y7593972D02*
X32095879Y7546353D01*
X32095879Y7546353D02*
X32048260Y7451115D01*
X32048260Y7451115D02*
X32048260Y7260639D01*
X32048260Y7260639D02*
X32095879Y7165401D01*
X32667308Y7593972D02*
X32714927Y7498734D01*
X32714927Y7498734D02*
X32714927Y7260639D01*
X32714927Y7260639D02*
X32667308Y7165401D01*
X32667308Y7165401D02*
X32572069Y7117782D01*
X32572069Y7117782D02*
X32476831Y7117782D01*
X32476831Y7117782D02*
X32381593Y7165401D01*
X32381593Y7165401D02*
X32333974Y7260639D01*
X32333974Y7260639D02*
X32333974Y7498734D01*
X32333974Y7498734D02*
X32286355Y7593972D01*
X32714927Y8593972D02*
X32714927Y8022544D01*
X32714927Y8308258D02*
X31714927Y8308258D01*
X31714927Y8308258D02*
X31857784Y8213020D01*
X31857784Y8213020D02*
X31953022Y8117782D01*
X31953022Y8117782D02*
X32000641Y8022544D01*
X52299688Y19834448D02*
X52347308Y19786829D01*
X52347308Y19786829D02*
X52394927Y19643972D01*
X52394927Y19643972D02*
X52394927Y19548734D01*
X52394927Y19548734D02*
X52347308Y19405877D01*
X52347308Y19405877D02*
X52252069Y19310639D01*
X52252069Y19310639D02*
X52156831Y19263020D01*
X52156831Y19263020D02*
X51966355Y19215401D01*
X51966355Y19215401D02*
X51823498Y19215401D01*
X51823498Y19215401D02*
X51633022Y19263020D01*
X51633022Y19263020D02*
X51537784Y19310639D01*
X51537784Y19310639D02*
X51442546Y19405877D01*
X51442546Y19405877D02*
X51394927Y19548734D01*
X51394927Y19548734D02*
X51394927Y19643972D01*
X51394927Y19643972D02*
X51442546Y19786829D01*
X51442546Y19786829D02*
X51490165Y19834448D01*
X52394927Y20786829D02*
X52394927Y20215401D01*
X52394927Y20501115D02*
X51394927Y20501115D01*
X51394927Y20501115D02*
X51537784Y20405877D01*
X51537784Y20405877D02*
X51633022Y20310639D01*
X51633022Y20310639D02*
X51680641Y20215401D01*
X52394927Y21215401D02*
X51394927Y21215401D01*
X51775879Y21215401D02*
X51728260Y21310639D01*
X51728260Y21310639D02*
X51728260Y21501115D01*
X51728260Y21501115D02*
X51775879Y21596353D01*
X51775879Y21596353D02*
X51823498Y21643972D01*
X51823498Y21643972D02*
X51918736Y21691591D01*
X51918736Y21691591D02*
X52204450Y21691591D01*
X52204450Y21691591D02*
X52299688Y21643972D01*
X52299688Y21643972D02*
X52347308Y21596353D01*
X52347308Y21596353D02*
X52394927Y21501115D01*
X52394927Y21501115D02*
X52394927Y21310639D01*
X52394927Y21310639D02*
X52347308Y21215401D01*
X52394927Y22643972D02*
X52394927Y22072544D01*
X52394927Y22358258D02*
X51394927Y22358258D01*
X51394927Y22358258D02*
X51537784Y22263020D01*
X51537784Y22263020D02*
X51633022Y22167782D01*
X51633022Y22167782D02*
X51680641Y22072544D01*
X46064927Y18800520D02*
X45588736Y18467187D01*
X46064927Y18229092D02*
X45064927Y18229092D01*
X45064927Y18229092D02*
X45064927Y18610044D01*
X45064927Y18610044D02*
X45112546Y18705282D01*
X45112546Y18705282D02*
X45160165Y18752901D01*
X45160165Y18752901D02*
X45255403Y18800520D01*
X45255403Y18800520D02*
X45398260Y18800520D01*
X45398260Y18800520D02*
X45493498Y18752901D01*
X45493498Y18752901D02*
X45541117Y18705282D01*
X45541117Y18705282D02*
X45588736Y18610044D01*
X45588736Y18610044D02*
X45588736Y18229092D01*
X45064927Y19133854D02*
X45064927Y19752901D01*
X45064927Y19752901D02*
X45445879Y19419568D01*
X45445879Y19419568D02*
X45445879Y19562425D01*
X45445879Y19562425D02*
X45493498Y19657663D01*
X45493498Y19657663D02*
X45541117Y19705282D01*
X45541117Y19705282D02*
X45636355Y19752901D01*
X45636355Y19752901D02*
X45874450Y19752901D01*
X45874450Y19752901D02*
X45969688Y19705282D01*
X45969688Y19705282D02*
X46017308Y19657663D01*
X46017308Y19657663D02*
X46064927Y19562425D01*
X46064927Y19562425D02*
X46064927Y19276711D01*
X46064927Y19276711D02*
X46017308Y19181473D01*
X46017308Y19181473D02*
X45969688Y19133854D01*
X11618441Y33120106D02*
X11570822Y33072486D01*
X11570822Y33072486D02*
X11427965Y33024867D01*
X11427965Y33024867D02*
X11332727Y33024867D01*
X11332727Y33024867D02*
X11189870Y33072486D01*
X11189870Y33072486D02*
X11094632Y33167725D01*
X11094632Y33167725D02*
X11047013Y33262963D01*
X11047013Y33262963D02*
X10999394Y33453439D01*
X10999394Y33453439D02*
X10999394Y33596296D01*
X10999394Y33596296D02*
X11047013Y33786772D01*
X11047013Y33786772D02*
X11094632Y33882010D01*
X11094632Y33882010D02*
X11189870Y33977248D01*
X11189870Y33977248D02*
X11332727Y34024867D01*
X11332727Y34024867D02*
X11427965Y34024867D01*
X11427965Y34024867D02*
X11570822Y33977248D01*
X11570822Y33977248D02*
X11618441Y33929629D01*
X11951775Y34024867D02*
X12618441Y34024867D01*
X12618441Y34024867D02*
X12189870Y33024867D01*
X44969688Y1809448D02*
X45017308Y1761829D01*
X45017308Y1761829D02*
X45064927Y1618972D01*
X45064927Y1618972D02*
X45064927Y1523734D01*
X45064927Y1523734D02*
X45017308Y1380877D01*
X45017308Y1380877D02*
X44922069Y1285639D01*
X44922069Y1285639D02*
X44826831Y1238020D01*
X44826831Y1238020D02*
X44636355Y1190401D01*
X44636355Y1190401D02*
X44493498Y1190401D01*
X44493498Y1190401D02*
X44303022Y1238020D01*
X44303022Y1238020D02*
X44207784Y1285639D01*
X44207784Y1285639D02*
X44112546Y1380877D01*
X44112546Y1380877D02*
X44064927Y1523734D01*
X44064927Y1523734D02*
X44064927Y1618972D01*
X44064927Y1618972D02*
X44112546Y1761829D01*
X44112546Y1761829D02*
X44160165Y1809448D01*
X45064927Y2761829D02*
X45064927Y2190401D01*
X45064927Y2476115D02*
X44064927Y2476115D01*
X44064927Y2476115D02*
X44207784Y2380877D01*
X44207784Y2380877D02*
X44303022Y2285639D01*
X44303022Y2285639D02*
X44350641Y2190401D01*
X45064927Y3618972D02*
X44541117Y3618972D01*
X44541117Y3618972D02*
X44445879Y3571353D01*
X44445879Y3571353D02*
X44398260Y3476115D01*
X44398260Y3476115D02*
X44398260Y3285639D01*
X44398260Y3285639D02*
X44445879Y3190401D01*
X45017308Y3618972D02*
X45064927Y3523734D01*
X45064927Y3523734D02*
X45064927Y3285639D01*
X45064927Y3285639D02*
X45017308Y3190401D01*
X45017308Y3190401D02*
X44922069Y3142782D01*
X44922069Y3142782D02*
X44826831Y3142782D01*
X44826831Y3142782D02*
X44731593Y3190401D01*
X44731593Y3190401D02*
X44683974Y3285639D01*
X44683974Y3285639D02*
X44683974Y3523734D01*
X44683974Y3523734D02*
X44636355Y3618972D01*
X44064927Y4523734D02*
X44064927Y4333258D01*
X44064927Y4333258D02*
X44112546Y4238020D01*
X44112546Y4238020D02*
X44160165Y4190401D01*
X44160165Y4190401D02*
X44303022Y4095163D01*
X44303022Y4095163D02*
X44493498Y4047544D01*
X44493498Y4047544D02*
X44874450Y4047544D01*
X44874450Y4047544D02*
X44969688Y4095163D01*
X44969688Y4095163D02*
X45017308Y4142782D01*
X45017308Y4142782D02*
X45064927Y4238020D01*
X45064927Y4238020D02*
X45064927Y4428496D01*
X45064927Y4428496D02*
X45017308Y4523734D01*
X45017308Y4523734D02*
X44969688Y4571353D01*
X44969688Y4571353D02*
X44874450Y4618972D01*
X44874450Y4618972D02*
X44636355Y4618972D01*
X44636355Y4618972D02*
X44541117Y4571353D01*
X44541117Y4571353D02*
X44493498Y4523734D01*
X44493498Y4523734D02*
X44445879Y4428496D01*
X44445879Y4428496D02*
X44445879Y4238020D01*
X44445879Y4238020D02*
X44493498Y4142782D01*
X44493498Y4142782D02*
X44541117Y4095163D01*
X44541117Y4095163D02*
X44636355Y4047544D01*
X19180941Y16574867D02*
X18847608Y17051058D01*
X18609513Y16574867D02*
X18609513Y17574867D01*
X18609513Y17574867D02*
X18990465Y17574867D01*
X18990465Y17574867D02*
X19085703Y17527248D01*
X19085703Y17527248D02*
X19133322Y17479629D01*
X19133322Y17479629D02*
X19180941Y17384391D01*
X19180941Y17384391D02*
X19180941Y17241534D01*
X19180941Y17241534D02*
X19133322Y17146296D01*
X19133322Y17146296D02*
X19085703Y17098677D01*
X19085703Y17098677D02*
X18990465Y17051058D01*
X18990465Y17051058D02*
X18609513Y17051058D01*
X20133322Y16574867D02*
X19561894Y16574867D01*
X19847608Y16574867D02*
X19847608Y17574867D01*
X19847608Y17574867D02*
X19752370Y17432010D01*
X19752370Y17432010D02*
X19657132Y17336772D01*
X19657132Y17336772D02*
X19561894Y17289153D01*
X14594927Y6546353D02*
X15309212Y6546353D01*
X15309212Y6546353D02*
X15452069Y6498734D01*
X15452069Y6498734D02*
X15547308Y6403496D01*
X15547308Y6403496D02*
X15594927Y6260639D01*
X15594927Y6260639D02*
X15594927Y6165401D01*
X14928260Y7451115D02*
X15594927Y7451115D01*
X14547308Y7213020D02*
X15261593Y6974925D01*
X15261593Y6974925D02*
X15261593Y7593972D01*
X39389869Y17824629D02*
X39294631Y17872248D01*
X39294631Y17872248D02*
X39199393Y17967486D01*
X39199393Y17967486D02*
X39056536Y18110344D01*
X39056536Y18110344D02*
X38961298Y18157963D01*
X38961298Y18157963D02*
X38866060Y18157963D01*
X38913679Y17919867D02*
X38818441Y17967486D01*
X38818441Y17967486D02*
X38723203Y18062725D01*
X38723203Y18062725D02*
X38675584Y18253201D01*
X38675584Y18253201D02*
X38675584Y18586534D01*
X38675584Y18586534D02*
X38723203Y18777010D01*
X38723203Y18777010D02*
X38818441Y18872248D01*
X38818441Y18872248D02*
X38913679Y18919867D01*
X38913679Y18919867D02*
X39104155Y18919867D01*
X39104155Y18919867D02*
X39199393Y18872248D01*
X39199393Y18872248D02*
X39294631Y18777010D01*
X39294631Y18777010D02*
X39342250Y18586534D01*
X39342250Y18586534D02*
X39342250Y18253201D01*
X39342250Y18253201D02*
X39294631Y18062725D01*
X39294631Y18062725D02*
X39199393Y17967486D01*
X39199393Y17967486D02*
X39104155Y17919867D01*
X39104155Y17919867D02*
X38913679Y17919867D01*
X40294631Y17919867D02*
X39723203Y17919867D01*
X40008917Y17919867D02*
X40008917Y18919867D01*
X40008917Y18919867D02*
X39913679Y18777010D01*
X39913679Y18777010D02*
X39818441Y18681772D01*
X39818441Y18681772D02*
X39723203Y18634153D01*
X26998203Y20374867D02*
X26998203Y19565344D01*
X26998203Y19565344D02*
X27045822Y19470106D01*
X27045822Y19470106D02*
X27093441Y19422486D01*
X27093441Y19422486D02*
X27188679Y19374867D01*
X27188679Y19374867D02*
X27379155Y19374867D01*
X27379155Y19374867D02*
X27474393Y19422486D01*
X27474393Y19422486D02*
X27522012Y19470106D01*
X27522012Y19470106D02*
X27569631Y19565344D01*
X27569631Y19565344D02*
X27569631Y20374867D01*
X28569631Y19374867D02*
X27998203Y19374867D01*
X28283917Y19374867D02*
X28283917Y20374867D01*
X28283917Y20374867D02*
X28188679Y20232010D01*
X28188679Y20232010D02*
X28093441Y20136772D01*
X28093441Y20136772D02*
X27998203Y20089153D01*
X14714927Y11546353D02*
X15429212Y11546353D01*
X15429212Y11546353D02*
X15572069Y11498734D01*
X15572069Y11498734D02*
X15667308Y11403496D01*
X15667308Y11403496D02*
X15714927Y11260639D01*
X15714927Y11260639D02*
X15714927Y11165401D01*
X14714927Y11927306D02*
X14714927Y12546353D01*
X14714927Y12546353D02*
X15095879Y12213020D01*
X15095879Y12213020D02*
X15095879Y12355877D01*
X15095879Y12355877D02*
X15143498Y12451115D01*
X15143498Y12451115D02*
X15191117Y12498734D01*
X15191117Y12498734D02*
X15286355Y12546353D01*
X15286355Y12546353D02*
X15524450Y12546353D01*
X15524450Y12546353D02*
X15619688Y12498734D01*
X15619688Y12498734D02*
X15667308Y12451115D01*
X15667308Y12451115D02*
X15714927Y12355877D01*
X15714927Y12355877D02*
X15714927Y12070163D01*
X15714927Y12070163D02*
X15667308Y11974925D01*
X15667308Y11974925D02*
X15619688Y11927306D01*
X34573441Y39254867D02*
X34097251Y39254867D01*
X34097251Y39254867D02*
X34097251Y40254867D01*
X35430584Y39254867D02*
X34859156Y39254867D01*
X35144870Y39254867D02*
X35144870Y40254867D01*
X35144870Y40254867D02*
X35049632Y40112010D01*
X35049632Y40112010D02*
X34954394Y40016772D01*
X34954394Y40016772D02*
X34859156Y39969153D01*
X42469688Y6809448D02*
X42517308Y6761829D01*
X42517308Y6761829D02*
X42564927Y6618972D01*
X42564927Y6618972D02*
X42564927Y6523734D01*
X42564927Y6523734D02*
X42517308Y6380877D01*
X42517308Y6380877D02*
X42422069Y6285639D01*
X42422069Y6285639D02*
X42326831Y6238020D01*
X42326831Y6238020D02*
X42136355Y6190401D01*
X42136355Y6190401D02*
X41993498Y6190401D01*
X41993498Y6190401D02*
X41803022Y6238020D01*
X41803022Y6238020D02*
X41707784Y6285639D01*
X41707784Y6285639D02*
X41612546Y6380877D01*
X41612546Y6380877D02*
X41564927Y6523734D01*
X41564927Y6523734D02*
X41564927Y6618972D01*
X41564927Y6618972D02*
X41612546Y6761829D01*
X41612546Y6761829D02*
X41660165Y6809448D01*
X42564927Y7761829D02*
X42564927Y7190401D01*
X42564927Y7476115D02*
X41564927Y7476115D01*
X41564927Y7476115D02*
X41707784Y7380877D01*
X41707784Y7380877D02*
X41803022Y7285639D01*
X41803022Y7285639D02*
X41850641Y7190401D01*
X42564927Y8618972D02*
X42041117Y8618972D01*
X42041117Y8618972D02*
X41945879Y8571353D01*
X41945879Y8571353D02*
X41898260Y8476115D01*
X41898260Y8476115D02*
X41898260Y8285639D01*
X41898260Y8285639D02*
X41945879Y8190401D01*
X42517308Y8618972D02*
X42564927Y8523734D01*
X42564927Y8523734D02*
X42564927Y8285639D01*
X42564927Y8285639D02*
X42517308Y8190401D01*
X42517308Y8190401D02*
X42422069Y8142782D01*
X42422069Y8142782D02*
X42326831Y8142782D01*
X42326831Y8142782D02*
X42231593Y8190401D01*
X42231593Y8190401D02*
X42183974Y8285639D01*
X42183974Y8285639D02*
X42183974Y8523734D01*
X42183974Y8523734D02*
X42136355Y8618972D01*
X41564927Y9571353D02*
X41564927Y9095163D01*
X41564927Y9095163D02*
X42041117Y9047544D01*
X42041117Y9047544D02*
X41993498Y9095163D01*
X41993498Y9095163D02*
X41945879Y9190401D01*
X41945879Y9190401D02*
X41945879Y9428496D01*
X41945879Y9428496D02*
X41993498Y9523734D01*
X41993498Y9523734D02*
X42041117Y9571353D01*
X42041117Y9571353D02*
X42136355Y9618972D01*
X42136355Y9618972D02*
X42374450Y9618972D01*
X42374450Y9618972D02*
X42469688Y9571353D01*
X42469688Y9571353D02*
X42517308Y9523734D01*
X42517308Y9523734D02*
X42564927Y9428496D01*
X42564927Y9428496D02*
X42564927Y9190401D01*
X42564927Y9190401D02*
X42517308Y9095163D01*
X42517308Y9095163D02*
X42469688Y9047544D01*
X17477013Y26769867D02*
X17477013Y27769867D01*
X17477013Y27769867D02*
X17715108Y27769867D01*
X17715108Y27769867D02*
X17857965Y27722248D01*
X17857965Y27722248D02*
X17953203Y27627010D01*
X17953203Y27627010D02*
X18000822Y27531772D01*
X18000822Y27531772D02*
X18048441Y27341296D01*
X18048441Y27341296D02*
X18048441Y27198439D01*
X18048441Y27198439D02*
X18000822Y27007963D01*
X18000822Y27007963D02*
X17953203Y26912725D01*
X17953203Y26912725D02*
X17857965Y26817486D01*
X17857965Y26817486D02*
X17715108Y26769867D01*
X17715108Y26769867D02*
X17477013Y26769867D01*
X18429394Y27674629D02*
X18477013Y27722248D01*
X18477013Y27722248D02*
X18572251Y27769867D01*
X18572251Y27769867D02*
X18810346Y27769867D01*
X18810346Y27769867D02*
X18905584Y27722248D01*
X18905584Y27722248D02*
X18953203Y27674629D01*
X18953203Y27674629D02*
X19000822Y27579391D01*
X19000822Y27579391D02*
X19000822Y27484153D01*
X19000822Y27484153D02*
X18953203Y27341296D01*
X18953203Y27341296D02*
X18381775Y26769867D01*
X18381775Y26769867D02*
X19000822Y26769867D01*
X12873203Y26399867D02*
X12873203Y27399867D01*
X13444631Y26399867D02*
X13016060Y26971296D01*
X13444631Y27399867D02*
X12873203Y26828439D01*
X5190790Y33270106D02*
X5143171Y33222486D01*
X5143171Y33222486D02*
X5000314Y33174867D01*
X5000314Y33174867D02*
X4905076Y33174867D01*
X4905076Y33174867D02*
X4762219Y33222486D01*
X4762219Y33222486D02*
X4666981Y33317725D01*
X4666981Y33317725D02*
X4619362Y33412963D01*
X4619362Y33412963D02*
X4571743Y33603439D01*
X4571743Y33603439D02*
X4571743Y33746296D01*
X4571743Y33746296D02*
X4619362Y33936772D01*
X4619362Y33936772D02*
X4666981Y34032010D01*
X4666981Y34032010D02*
X4762219Y34127248D01*
X4762219Y34127248D02*
X4905076Y34174867D01*
X4905076Y34174867D02*
X5000314Y34174867D01*
X5000314Y34174867D02*
X5143171Y34127248D01*
X5143171Y34127248D02*
X5190790Y34079629D01*
X6143171Y33174867D02*
X5571743Y33174867D01*
X5857457Y33174867D02*
X5857457Y34174867D01*
X5857457Y34174867D02*
X5762219Y34032010D01*
X5762219Y34032010D02*
X5666981Y33936772D01*
X5666981Y33936772D02*
X5571743Y33889153D01*
X29093441Y22924867D02*
X28760108Y23401058D01*
X28522013Y22924867D02*
X28522013Y23924867D01*
X28522013Y23924867D02*
X28902965Y23924867D01*
X28902965Y23924867D02*
X28998203Y23877248D01*
X28998203Y23877248D02*
X29045822Y23829629D01*
X29045822Y23829629D02*
X29093441Y23734391D01*
X29093441Y23734391D02*
X29093441Y23591534D01*
X29093441Y23591534D02*
X29045822Y23496296D01*
X29045822Y23496296D02*
X28998203Y23448677D01*
X28998203Y23448677D02*
X28902965Y23401058D01*
X28902965Y23401058D02*
X28522013Y23401058D01*
X29950584Y23924867D02*
X29760108Y23924867D01*
X29760108Y23924867D02*
X29664870Y23877248D01*
X29664870Y23877248D02*
X29617251Y23829629D01*
X29617251Y23829629D02*
X29522013Y23686772D01*
X29522013Y23686772D02*
X29474394Y23496296D01*
X29474394Y23496296D02*
X29474394Y23115344D01*
X29474394Y23115344D02*
X29522013Y23020106D01*
X29522013Y23020106D02*
X29569632Y22972486D01*
X29569632Y22972486D02*
X29664870Y22924867D01*
X29664870Y22924867D02*
X29855346Y22924867D01*
X29855346Y22924867D02*
X29950584Y22972486D01*
X29950584Y22972486D02*
X29998203Y23020106D01*
X29998203Y23020106D02*
X30045822Y23115344D01*
X30045822Y23115344D02*
X30045822Y23353439D01*
X30045822Y23353439D02*
X29998203Y23448677D01*
X29998203Y23448677D02*
X29950584Y23496296D01*
X29950584Y23496296D02*
X29855346Y23543915D01*
X29855346Y23543915D02*
X29664870Y23543915D01*
X29664870Y23543915D02*
X29569632Y23496296D01*
X29569632Y23496296D02*
X29522013Y23448677D01*
X29522013Y23448677D02*
X29474394Y23353439D01*
X47482013Y22324867D02*
X47482013Y23324867D01*
X47482013Y23324867D02*
X47720108Y23324867D01*
X47720108Y23324867D02*
X47862965Y23277248D01*
X47862965Y23277248D02*
X47958203Y23182010D01*
X47958203Y23182010D02*
X48005822Y23086772D01*
X48005822Y23086772D02*
X48053441Y22896296D01*
X48053441Y22896296D02*
X48053441Y22753439D01*
X48053441Y22753439D02*
X48005822Y22562963D01*
X48005822Y22562963D02*
X47958203Y22467725D01*
X47958203Y22467725D02*
X47862965Y22372486D01*
X47862965Y22372486D02*
X47720108Y22324867D01*
X47720108Y22324867D02*
X47482013Y22324867D01*
X49005822Y22324867D02*
X48434394Y22324867D01*
X48720108Y22324867D02*
X48720108Y23324867D01*
X48720108Y23324867D02*
X48624870Y23182010D01*
X48624870Y23182010D02*
X48529632Y23086772D01*
X48529632Y23086772D02*
X48434394Y23039153D01*
X15118441Y33120106D02*
X15070822Y33072486D01*
X15070822Y33072486D02*
X14927965Y33024867D01*
X14927965Y33024867D02*
X14832727Y33024867D01*
X14832727Y33024867D02*
X14689870Y33072486D01*
X14689870Y33072486D02*
X14594632Y33167725D01*
X14594632Y33167725D02*
X14547013Y33262963D01*
X14547013Y33262963D02*
X14499394Y33453439D01*
X14499394Y33453439D02*
X14499394Y33596296D01*
X14499394Y33596296D02*
X14547013Y33786772D01*
X14547013Y33786772D02*
X14594632Y33882010D01*
X14594632Y33882010D02*
X14689870Y33977248D01*
X14689870Y33977248D02*
X14832727Y34024867D01*
X14832727Y34024867D02*
X14927965Y34024867D01*
X14927965Y34024867D02*
X15070822Y33977248D01*
X15070822Y33977248D02*
X15118441Y33929629D01*
X15975584Y34024867D02*
X15785108Y34024867D01*
X15785108Y34024867D02*
X15689870Y33977248D01*
X15689870Y33977248D02*
X15642251Y33929629D01*
X15642251Y33929629D02*
X15547013Y33786772D01*
X15547013Y33786772D02*
X15499394Y33596296D01*
X15499394Y33596296D02*
X15499394Y33215344D01*
X15499394Y33215344D02*
X15547013Y33120106D01*
X15547013Y33120106D02*
X15594632Y33072486D01*
X15594632Y33072486D02*
X15689870Y33024867D01*
X15689870Y33024867D02*
X15880346Y33024867D01*
X15880346Y33024867D02*
X15975584Y33072486D01*
X15975584Y33072486D02*
X16023203Y33120106D01*
X16023203Y33120106D02*
X16070822Y33215344D01*
X16070822Y33215344D02*
X16070822Y33453439D01*
X16070822Y33453439D02*
X16023203Y33548677D01*
X16023203Y33548677D02*
X15975584Y33596296D01*
X15975584Y33596296D02*
X15880346Y33643915D01*
X15880346Y33643915D02*
X15689870Y33643915D01*
X15689870Y33643915D02*
X15594632Y33596296D01*
X15594632Y33596296D02*
X15547013Y33548677D01*
X15547013Y33548677D02*
X15499394Y33453439D01*
X28664869Y2545106D02*
X28617250Y2497486D01*
X28617250Y2497486D02*
X28474393Y2449867D01*
X28474393Y2449867D02*
X28379155Y2449867D01*
X28379155Y2449867D02*
X28236298Y2497486D01*
X28236298Y2497486D02*
X28141060Y2592725D01*
X28141060Y2592725D02*
X28093441Y2687963D01*
X28093441Y2687963D02*
X28045822Y2878439D01*
X28045822Y2878439D02*
X28045822Y3021296D01*
X28045822Y3021296D02*
X28093441Y3211772D01*
X28093441Y3211772D02*
X28141060Y3307010D01*
X28141060Y3307010D02*
X28236298Y3402248D01*
X28236298Y3402248D02*
X28379155Y3449867D01*
X28379155Y3449867D02*
X28474393Y3449867D01*
X28474393Y3449867D02*
X28617250Y3402248D01*
X28617250Y3402248D02*
X28664869Y3354629D01*
X29617250Y2449867D02*
X29045822Y2449867D01*
X29331536Y2449867D02*
X29331536Y3449867D01*
X29331536Y3449867D02*
X29236298Y3307010D01*
X29236298Y3307010D02*
X29141060Y3211772D01*
X29141060Y3211772D02*
X29045822Y3164153D01*
X30474393Y2449867D02*
X30474393Y2973677D01*
X30474393Y2973677D02*
X30426774Y3068915D01*
X30426774Y3068915D02*
X30331536Y3116534D01*
X30331536Y3116534D02*
X30141060Y3116534D01*
X30141060Y3116534D02*
X30045822Y3068915D01*
X30474393Y2497486D02*
X30379155Y2449867D01*
X30379155Y2449867D02*
X30141060Y2449867D01*
X30141060Y2449867D02*
X30045822Y2497486D01*
X30045822Y2497486D02*
X29998203Y2592725D01*
X29998203Y2592725D02*
X29998203Y2687963D01*
X29998203Y2687963D02*
X30045822Y2783201D01*
X30045822Y2783201D02*
X30141060Y2830820D01*
X30141060Y2830820D02*
X30379155Y2830820D01*
X30379155Y2830820D02*
X30474393Y2878439D01*
X30902965Y3354629D02*
X30950584Y3402248D01*
X30950584Y3402248D02*
X31045822Y3449867D01*
X31045822Y3449867D02*
X31283917Y3449867D01*
X31283917Y3449867D02*
X31379155Y3402248D01*
X31379155Y3402248D02*
X31426774Y3354629D01*
X31426774Y3354629D02*
X31474393Y3259391D01*
X31474393Y3259391D02*
X31474393Y3164153D01*
X31474393Y3164153D02*
X31426774Y3021296D01*
X31426774Y3021296D02*
X30855346Y2449867D01*
X30855346Y2449867D02*
X31474393Y2449867D01*
X33664869Y26329629D02*
X33569631Y26377248D01*
X33569631Y26377248D02*
X33474393Y26472486D01*
X33474393Y26472486D02*
X33331536Y26615344D01*
X33331536Y26615344D02*
X33236298Y26662963D01*
X33236298Y26662963D02*
X33141060Y26662963D01*
X33188679Y26424867D02*
X33093441Y26472486D01*
X33093441Y26472486D02*
X32998203Y26567725D01*
X32998203Y26567725D02*
X32950584Y26758201D01*
X32950584Y26758201D02*
X32950584Y27091534D01*
X32950584Y27091534D02*
X32998203Y27282010D01*
X32998203Y27282010D02*
X33093441Y27377248D01*
X33093441Y27377248D02*
X33188679Y27424867D01*
X33188679Y27424867D02*
X33379155Y27424867D01*
X33379155Y27424867D02*
X33474393Y27377248D01*
X33474393Y27377248D02*
X33569631Y27282010D01*
X33569631Y27282010D02*
X33617250Y27091534D01*
X33617250Y27091534D02*
X33617250Y26758201D01*
X33617250Y26758201D02*
X33569631Y26567725D01*
X33569631Y26567725D02*
X33474393Y26472486D01*
X33474393Y26472486D02*
X33379155Y26424867D01*
X33379155Y26424867D02*
X33188679Y26424867D01*
X33998203Y27329629D02*
X34045822Y27377248D01*
X34045822Y27377248D02*
X34141060Y27424867D01*
X34141060Y27424867D02*
X34379155Y27424867D01*
X34379155Y27424867D02*
X34474393Y27377248D01*
X34474393Y27377248D02*
X34522012Y27329629D01*
X34522012Y27329629D02*
X34569631Y27234391D01*
X34569631Y27234391D02*
X34569631Y27139153D01*
X34569631Y27139153D02*
X34522012Y26996296D01*
X34522012Y26996296D02*
X33950584Y26424867D01*
X33950584Y26424867D02*
X34569631Y26424867D01*
%TO.C,R4*%
D12*
X10120544Y22114686D02*
X10574672Y22114686D01*
X10120544Y20644686D02*
X10574672Y20644686D01*
%TO.C,J5*%
X1220108Y3759686D02*
X1220108Y999686D01*
X11490108Y3759686D02*
X1220108Y3759686D01*
X11490108Y3759686D02*
X11490108Y999686D01*
X11490108Y999686D02*
X1220108Y999686D01*
X12760108Y3759686D02*
X14140108Y3759686D01*
X14140108Y3759686D02*
X14140108Y2379686D01*
%TO.C,C3*%
X13025108Y20690938D02*
X13025108Y20168434D01*
X14495108Y20690938D02*
X14495108Y20168434D01*
%TO.C,J_VIN1*%
X19880108Y32759686D02*
X21260108Y32759686D01*
X19880108Y31379686D02*
X19880108Y32759686D01*
X19880108Y30109686D02*
X19880108Y27459686D01*
X19880108Y30109686D02*
X22640108Y30109686D01*
X19880108Y27459686D02*
X22640108Y27459686D01*
X22640108Y30109686D02*
X22640108Y27459686D01*
%TO.C,C1b2*%
X53025108Y21190938D02*
X53025108Y20668434D01*
X54495108Y21190938D02*
X54495108Y20668434D01*
%TO.C,J2*%
X56380108Y20259686D02*
X57760108Y20259686D01*
X56380108Y18879686D02*
X56380108Y20259686D01*
X56380108Y17609686D02*
X56380108Y14959686D01*
X56380108Y17609686D02*
X59140108Y17609686D01*
X56380108Y14959686D02*
X59140108Y14959686D01*
X59140108Y17609686D02*
X59140108Y14959686D01*
%TO.C,R2*%
X46525108Y14694250D02*
X46525108Y14240122D01*
X47995108Y14694250D02*
X47995108Y14240122D01*
%TO.C,C1a4*%
X36850108Y3615938D02*
X36850108Y2193434D01*
X38670108Y3615938D02*
X38670108Y2193434D01*
%TO.C,R5*%
X26525108Y27694250D02*
X26525108Y27240122D01*
X27995108Y27694250D02*
X27995108Y27240122D01*
%TO.C,C1a7*%
X44350108Y8615938D02*
X44350108Y7193434D01*
X46170108Y8615938D02*
X46170108Y7193434D01*
%TO.C,C5*%
X42930108Y36846686D02*
X42930108Y37912686D01*
X42970108Y36611686D02*
X42970108Y38147686D01*
X43010108Y36432686D02*
X43010108Y38326686D01*
X43050108Y36282686D02*
X43050108Y38476686D01*
X43090108Y36151686D02*
X43090108Y38607686D01*
X43130108Y36033686D02*
X43130108Y38725686D01*
X43170108Y35926686D02*
X43170108Y38832686D01*
X43210108Y35827686D02*
X43210108Y38931686D01*
X43250108Y35735686D02*
X43250108Y39023686D01*
X43290108Y35648686D02*
X43290108Y39110686D01*
X43330108Y35566686D02*
X43330108Y39192686D01*
X43370108Y35489686D02*
X43370108Y39269686D01*
X43410108Y35415686D02*
X43410108Y39343686D01*
X43450108Y35345686D02*
X43450108Y39413686D01*
X43490108Y35278686D02*
X43490108Y39480686D01*
X43530108Y35214686D02*
X43530108Y39544686D01*
X43570108Y35152686D02*
X43570108Y39606686D01*
X43610108Y35092686D02*
X43610108Y39666686D01*
X43650108Y35035686D02*
X43650108Y39723686D01*
X43690108Y34979686D02*
X43690108Y39779686D01*
X43730108Y34926686D02*
X43730108Y39832686D01*
X43770108Y34874686D02*
X43770108Y39884686D01*
X43810108Y34824686D02*
X43810108Y39934686D01*
X43850108Y34775686D02*
X43850108Y39983686D01*
X43890108Y34728686D02*
X43890108Y40030686D01*
X43930108Y34683686D02*
X43930108Y40075686D01*
X43970108Y34638686D02*
X43970108Y40120686D01*
X44010108Y34595686D02*
X44010108Y40163686D01*
X44050108Y34553686D02*
X44050108Y40205686D01*
X44090108Y34512686D02*
X44090108Y40246686D01*
X44130108Y34473686D02*
X44130108Y40285686D01*
X44170108Y34434686D02*
X44170108Y40324686D01*
X44210108Y34397686D02*
X44210108Y40361686D01*
X44250108Y38419686D02*
X44250108Y40398686D01*
X44250108Y34360686D02*
X44250108Y36339686D01*
X44290108Y38419686D02*
X44290108Y40434686D01*
X44290108Y34324686D02*
X44290108Y36339686D01*
X44330108Y38419686D02*
X44330108Y40468686D01*
X44330108Y34290686D02*
X44330108Y36339686D01*
X44370108Y38419686D02*
X44370108Y40502686D01*
X44370108Y34256686D02*
X44370108Y36339686D01*
X44410108Y38419686D02*
X44410108Y40535686D01*
X44410108Y34223686D02*
X44410108Y36339686D01*
X44450108Y38419686D02*
X44450108Y40567686D01*
X44450108Y34191686D02*
X44450108Y36339686D01*
X44490108Y38419686D02*
X44490108Y40598686D01*
X44490108Y34160686D02*
X44490108Y36339686D01*
X44530108Y38419686D02*
X44530108Y40629686D01*
X44530108Y34129686D02*
X44530108Y36339686D01*
X44570108Y38419686D02*
X44570108Y40659686D01*
X44570108Y34099686D02*
X44570108Y36339686D01*
X44610108Y38419686D02*
X44610108Y40688686D01*
X44610108Y34070686D02*
X44610108Y36339686D01*
X44650108Y38419686D02*
X44650108Y40716686D01*
X44650108Y34042686D02*
X44650108Y36339686D01*
X44690108Y38419686D02*
X44690108Y40744686D01*
X44690108Y34014686D02*
X44690108Y36339686D01*
X44730108Y38419686D02*
X44730108Y40771686D01*
X44730108Y33987686D02*
X44730108Y36339686D01*
X44770108Y38419686D02*
X44770108Y40797686D01*
X44770108Y33961686D02*
X44770108Y36339686D01*
X44810108Y38419686D02*
X44810108Y40822686D01*
X44810108Y33936686D02*
X44810108Y36339686D01*
X44850108Y38419686D02*
X44850108Y40847686D01*
X44850108Y33911686D02*
X44850108Y36339686D01*
X44890108Y38419686D02*
X44890108Y40872686D01*
X44890108Y33886686D02*
X44890108Y36339686D01*
X44930108Y38419686D02*
X44930108Y40895686D01*
X44930108Y33863686D02*
X44930108Y36339686D01*
X44970108Y38419686D02*
X44970108Y40918686D01*
X44970108Y33840686D02*
X44970108Y36339686D01*
X45010108Y38419686D02*
X45010108Y40941686D01*
X45010108Y33817686D02*
X45010108Y36339686D01*
X45050108Y38419686D02*
X45050108Y40963686D01*
X45050108Y33795686D02*
X45050108Y36339686D01*
X45090108Y38419686D02*
X45090108Y40984686D01*
X45090108Y33774686D02*
X45090108Y36339686D01*
X45130108Y38419686D02*
X45130108Y41005686D01*
X45130108Y33753686D02*
X45130108Y36339686D01*
X45170108Y38419686D02*
X45170108Y41025686D01*
X45170108Y33733686D02*
X45170108Y36339686D01*
X45210108Y38419686D02*
X45210108Y41045686D01*
X45210108Y33713686D02*
X45210108Y36339686D01*
X45250108Y38419686D02*
X45250108Y41064686D01*
X45250108Y33694686D02*
X45250108Y36339686D01*
X45290108Y38419686D02*
X45290108Y41083686D01*
X45290108Y33675686D02*
X45290108Y36339686D01*
X45330108Y38419686D02*
X45330108Y41101686D01*
X45330108Y33657686D02*
X45330108Y36339686D01*
X45370108Y38419686D02*
X45370108Y41119686D01*
X45370108Y33639686D02*
X45370108Y36339686D01*
X45410108Y38419686D02*
X45410108Y41136686D01*
X45410108Y33622686D02*
X45410108Y36339686D01*
X45450108Y38419686D02*
X45450108Y41152686D01*
X45450108Y33606686D02*
X45450108Y36339686D01*
X45490108Y38419686D02*
X45490108Y41168686D01*
X45490108Y33590686D02*
X45490108Y36339686D01*
X45530108Y38419686D02*
X45530108Y41184686D01*
X45530108Y33574686D02*
X45530108Y36339686D01*
X45570108Y38419686D02*
X45570108Y41199686D01*
X45570108Y33559686D02*
X45570108Y36339686D01*
X45610108Y38419686D02*
X45610108Y41214686D01*
X45610108Y33544686D02*
X45610108Y36339686D01*
X45650108Y38419686D02*
X45650108Y41228686D01*
X45650108Y33530686D02*
X45650108Y36339686D01*
X45690108Y38419686D02*
X45690108Y41242686D01*
X45690108Y33516686D02*
X45690108Y36339686D01*
X45730108Y38419686D02*
X45730108Y41255686D01*
X45730108Y33503686D02*
X45730108Y36339686D01*
X45770108Y38419686D02*
X45770108Y41268686D01*
X45770108Y33490686D02*
X45770108Y36339686D01*
X45810108Y38419686D02*
X45810108Y41280686D01*
X45810108Y33478686D02*
X45810108Y36339686D01*
X45850108Y38419686D02*
X45850108Y41292686D01*
X45850108Y33466686D02*
X45850108Y36339686D01*
X45890108Y38419686D02*
X45890108Y41304686D01*
X45890108Y33454686D02*
X45890108Y36339686D01*
X45930108Y38419686D02*
X45930108Y41315686D01*
X45930108Y33443686D02*
X45930108Y36339686D01*
X45970108Y38419686D02*
X45970108Y41326686D01*
X45970108Y33432686D02*
X45970108Y36339686D01*
X46010108Y38419686D02*
X46010108Y41336686D01*
X46010108Y33422686D02*
X46010108Y36339686D01*
X46050108Y38419686D02*
X46050108Y41346686D01*
X46050108Y33412686D02*
X46050108Y36339686D01*
X46090108Y38419686D02*
X46090108Y41355686D01*
X46090108Y33403686D02*
X46090108Y36339686D01*
X46130108Y38419686D02*
X46130108Y41364686D01*
X46130108Y33394686D02*
X46130108Y36339686D01*
X46170108Y38419686D02*
X46170108Y41372686D01*
X46170108Y33386686D02*
X46170108Y36339686D01*
X46210108Y38419686D02*
X46210108Y41381686D01*
X46210108Y33377686D02*
X46210108Y36339686D01*
X46250108Y38419686D02*
X46250108Y41388686D01*
X46250108Y33370686D02*
X46250108Y36339686D01*
X46290108Y38419686D02*
X46290108Y41396686D01*
X46290108Y33362686D02*
X46290108Y36339686D01*
X46330108Y33356686D02*
X46330108Y41402686D01*
X46370108Y33349686D02*
X46370108Y41409686D01*
X46410108Y33343686D02*
X46410108Y41415686D01*
X46450108Y33337686D02*
X46450108Y41421686D01*
X46490108Y33332686D02*
X46490108Y41426686D01*
X46530108Y33327686D02*
X46530108Y41431686D01*
X46570108Y33323686D02*
X46570108Y41435686D01*
X46610108Y33318686D02*
X46610108Y41440686D01*
X46650108Y33315686D02*
X46650108Y41443686D01*
X46690108Y33311686D02*
X46690108Y41447686D01*
X46730108Y33309686D02*
X46730108Y41449686D01*
X46770108Y33306686D02*
X46770108Y41452686D01*
X46810108Y33304686D02*
X46810108Y41454686D01*
X46850108Y33302686D02*
X46850108Y41456686D01*
X46890108Y33301686D02*
X46890108Y41457686D01*
X46930108Y33300686D02*
X46930108Y41458686D01*
X46970108Y33299686D02*
X46970108Y41459686D01*
X47010108Y33299686D02*
X47010108Y41459686D01*
X51019806Y34664686D02*
X51019806Y35464686D01*
X51419806Y35064686D02*
X50619806Y35064686D01*
X51130108Y37379686D02*
G75*
G02*
X42890108Y37379686I-4120000J0D01*
G01*
X42890108Y37379686D02*
G75*
G02*
X51130108Y37379686I4120000J0D01*
G01*
%TO.C,C1a3*%
X34350108Y8615938D02*
X34350108Y7193434D01*
X36170108Y8615938D02*
X36170108Y7193434D01*
%TO.C,C4*%
X33548856Y20614686D02*
X34071360Y20614686D01*
X33548856Y19144686D02*
X34071360Y19144686D01*
%TO.C,C2*%
X6025108Y18690938D02*
X6025108Y18168434D01*
X7495108Y18690938D02*
X7495108Y18168434D01*
%TO.C,R7*%
X42018346Y31364686D02*
X42472474Y31364686D01*
X42018346Y29894686D02*
X42472474Y29894686D01*
%TO.C,C1a1*%
X29350108Y8615938D02*
X29350108Y7193434D01*
X31170108Y8615938D02*
X31170108Y7193434D01*
%TO.C,C1b1*%
X49525108Y21190938D02*
X49525108Y20668434D01*
X50995108Y21190938D02*
X50995108Y20668434D01*
%TO.C,R3*%
X46525108Y18740122D02*
X46525108Y19194250D01*
X47995108Y18740122D02*
X47995108Y19194250D01*
%TO.C,C7*%
X10850108Y31090938D02*
X10850108Y29668434D01*
X12670108Y31090938D02*
X12670108Y29668434D01*
%TO.C,C1a6*%
X41850108Y3615938D02*
X41850108Y2193434D01*
X43670108Y3615938D02*
X43670108Y2193434D01*
%TO.C,R1*%
X19120544Y16114686D02*
X19574672Y16114686D01*
X19120544Y14644686D02*
X19574672Y14644686D01*
%TO.C,J4*%
X1220108Y8259686D02*
X1220108Y5499686D01*
X11490108Y8259686D02*
X1220108Y8259686D01*
X11490108Y8259686D02*
X11490108Y5499686D01*
X11490108Y5499686D02*
X1220108Y5499686D01*
X12760108Y8259686D02*
X14140108Y8259686D01*
X14140108Y8259686D02*
X14140108Y6879686D01*
%TO.C,Q1*%
X37425108Y17534686D02*
X41545108Y17534686D01*
X37425108Y17439686D02*
X37425108Y17534686D01*
X37425108Y12414686D02*
X37425108Y12509686D01*
X41545108Y17534686D02*
X41545108Y17439686D01*
X41545108Y12509686D02*
X41545108Y12414686D01*
X41545108Y12414686D02*
X37425108Y12414686D01*
X36885108Y17444686D02*
X36645108Y17774686D01*
X37125108Y17774686D01*
X36885108Y17444686D01*
G36*
X36885108Y17444686D02*
G01*
X36645108Y17774686D01*
X37125108Y17774686D01*
X36885108Y17444686D01*
G37*
%TO.C,U1*%
X26150108Y18989686D02*
X29370108Y18989686D01*
X26150108Y18814686D02*
X26150108Y18989686D01*
X26150108Y15769686D02*
X26150108Y15944686D01*
X29370108Y18989686D02*
X29370108Y18814686D01*
X29370108Y15944686D02*
X29370108Y15769686D01*
X29370108Y15769686D02*
X26150108Y15769686D01*
X25600108Y18819686D02*
X25360108Y19149686D01*
X25840108Y19149686D01*
X25600108Y18819686D01*
G36*
X25600108Y18819686D02*
G01*
X25360108Y19149686D01*
X25840108Y19149686D01*
X25600108Y18819686D01*
G37*
%TO.C,J3*%
X1220108Y13259686D02*
X1220108Y10499686D01*
X11490108Y13259686D02*
X1220108Y13259686D01*
X11490108Y13259686D02*
X11490108Y10499686D01*
X11490108Y10499686D02*
X1220108Y10499686D01*
X12760108Y13259686D02*
X14140108Y13259686D01*
X14140108Y13259686D02*
X14140108Y11879686D01*
%TO.C,L1*%
X31350108Y38869686D02*
X38130108Y38869686D01*
X31350108Y31889686D02*
X31350108Y38869686D01*
X38130108Y38869686D02*
X38130108Y31889686D01*
X38130108Y31889686D02*
X31350108Y31889686D01*
%TO.C,C1a5*%
X39350108Y8615938D02*
X39350108Y7193434D01*
X41170108Y8615938D02*
X41170108Y7193434D01*
%TO.C,D2*%
X14475108Y24754686D02*
X15495108Y24754686D01*
X16275108Y26224686D02*
X16275108Y23284686D01*
X16395108Y26224686D02*
X16395108Y23284686D01*
X16515108Y26224686D02*
X16515108Y23284686D01*
X21955108Y24754686D02*
X20935108Y24754686D01*
X15495108Y26224686D02*
X20935108Y26224686D01*
X20935108Y23284686D01*
X15495108Y23284686D01*
X15495108Y26224686D01*
%TO.C,C1*%
X947759Y30694686D02*
X1747759Y30694686D01*
X1347759Y31094686D02*
X1347759Y30294686D01*
X5357457Y32459686D02*
X5357457Y24299686D01*
X5397457Y32459686D02*
X5397457Y24299686D01*
X5437457Y32458686D02*
X5437457Y24300686D01*
X5477457Y32457686D02*
X5477457Y24301686D01*
X5517457Y32456686D02*
X5517457Y24302686D01*
X5557457Y32454686D02*
X5557457Y24304686D01*
X5597457Y32452686D02*
X5597457Y24306686D01*
X5637457Y32449686D02*
X5637457Y24309686D01*
X5677457Y32447686D02*
X5677457Y24311686D01*
X5717457Y32443686D02*
X5717457Y24315686D01*
X5757457Y32440686D02*
X5757457Y24318686D01*
X5797457Y32435686D02*
X5797457Y24323686D01*
X5837457Y32431686D02*
X5837457Y24327686D01*
X5877457Y32426686D02*
X5877457Y24332686D01*
X5917457Y32421686D02*
X5917457Y24337686D01*
X5957457Y32415686D02*
X5957457Y24343686D01*
X5997457Y32409686D02*
X5997457Y24349686D01*
X6037457Y32402686D02*
X6037457Y24356686D01*
X6077457Y32396686D02*
X6077457Y29419686D01*
X6077457Y27339686D02*
X6077457Y24362686D01*
X6117457Y32388686D02*
X6117457Y29419686D01*
X6117457Y27339686D02*
X6117457Y24370686D01*
X6157457Y32381686D02*
X6157457Y29419686D01*
X6157457Y27339686D02*
X6157457Y24377686D01*
X6197457Y32372686D02*
X6197457Y29419686D01*
X6197457Y27339686D02*
X6197457Y24386686D01*
X6237457Y32364686D02*
X6237457Y29419686D01*
X6237457Y27339686D02*
X6237457Y24394686D01*
X6277457Y32355686D02*
X6277457Y29419686D01*
X6277457Y27339686D02*
X6277457Y24403686D01*
X6317457Y32346686D02*
X6317457Y29419686D01*
X6317457Y27339686D02*
X6317457Y24412686D01*
X6357457Y32336686D02*
X6357457Y29419686D01*
X6357457Y27339686D02*
X6357457Y24422686D01*
X6397457Y32326686D02*
X6397457Y29419686D01*
X6397457Y27339686D02*
X6397457Y24432686D01*
X6437457Y32315686D02*
X6437457Y29419686D01*
X6437457Y27339686D02*
X6437457Y24443686D01*
X6477457Y32304686D02*
X6477457Y29419686D01*
X6477457Y27339686D02*
X6477457Y24454686D01*
X6517457Y32292686D02*
X6517457Y29419686D01*
X6517457Y27339686D02*
X6517457Y24466686D01*
X6557457Y32280686D02*
X6557457Y29419686D01*
X6557457Y27339686D02*
X6557457Y24478686D01*
X6597457Y32268686D02*
X6597457Y29419686D01*
X6597457Y27339686D02*
X6597457Y24490686D01*
X6637457Y32255686D02*
X6637457Y29419686D01*
X6637457Y27339686D02*
X6637457Y24503686D01*
X6677457Y32242686D02*
X6677457Y29419686D01*
X6677457Y27339686D02*
X6677457Y24516686D01*
X6717457Y32228686D02*
X6717457Y29419686D01*
X6717457Y27339686D02*
X6717457Y24530686D01*
X6757457Y32214686D02*
X6757457Y29419686D01*
X6757457Y27339686D02*
X6757457Y24544686D01*
X6797457Y32199686D02*
X6797457Y29419686D01*
X6797457Y27339686D02*
X6797457Y24559686D01*
X6837457Y32184686D02*
X6837457Y29419686D01*
X6837457Y27339686D02*
X6837457Y24574686D01*
X6877457Y32168686D02*
X6877457Y29419686D01*
X6877457Y27339686D02*
X6877457Y24590686D01*
X6917457Y32152686D02*
X6917457Y29419686D01*
X6917457Y27339686D02*
X6917457Y24606686D01*
X6957457Y32136686D02*
X6957457Y29419686D01*
X6957457Y27339686D02*
X6957457Y24622686D01*
X6997457Y32119686D02*
X6997457Y29419686D01*
X6997457Y27339686D02*
X6997457Y24639686D01*
X7037457Y32101686D02*
X7037457Y29419686D01*
X7037457Y27339686D02*
X7037457Y24657686D01*
X7077457Y32083686D02*
X7077457Y29419686D01*
X7077457Y27339686D02*
X7077457Y24675686D01*
X7117457Y32064686D02*
X7117457Y29419686D01*
X7117457Y27339686D02*
X7117457Y24694686D01*
X7157457Y32045686D02*
X7157457Y29419686D01*
X7157457Y27339686D02*
X7157457Y24713686D01*
X7197457Y32025686D02*
X7197457Y29419686D01*
X7197457Y27339686D02*
X7197457Y24733686D01*
X7237457Y32005686D02*
X7237457Y29419686D01*
X7237457Y27339686D02*
X7237457Y24753686D01*
X7277457Y31984686D02*
X7277457Y29419686D01*
X7277457Y27339686D02*
X7277457Y24774686D01*
X7317457Y31963686D02*
X7317457Y29419686D01*
X7317457Y27339686D02*
X7317457Y24795686D01*
X7357457Y31941686D02*
X7357457Y29419686D01*
X7357457Y27339686D02*
X7357457Y24817686D01*
X7397457Y31918686D02*
X7397457Y29419686D01*
X7397457Y27339686D02*
X7397457Y24840686D01*
X7437457Y31895686D02*
X7437457Y29419686D01*
X7437457Y27339686D02*
X7437457Y24863686D01*
X7477457Y31872686D02*
X7477457Y29419686D01*
X7477457Y27339686D02*
X7477457Y24886686D01*
X7517457Y31847686D02*
X7517457Y29419686D01*
X7517457Y27339686D02*
X7517457Y24911686D01*
X7557457Y31822686D02*
X7557457Y29419686D01*
X7557457Y27339686D02*
X7557457Y24936686D01*
X7597457Y31797686D02*
X7597457Y29419686D01*
X7597457Y27339686D02*
X7597457Y24961686D01*
X7637457Y31771686D02*
X7637457Y29419686D01*
X7637457Y27339686D02*
X7637457Y24987686D01*
X7677457Y31744686D02*
X7677457Y29419686D01*
X7677457Y27339686D02*
X7677457Y25014686D01*
X7717457Y31716686D02*
X7717457Y29419686D01*
X7717457Y27339686D02*
X7717457Y25042686D01*
X7757457Y31688686D02*
X7757457Y29419686D01*
X7757457Y27339686D02*
X7757457Y25070686D01*
X7797457Y31659686D02*
X7797457Y29419686D01*
X7797457Y27339686D02*
X7797457Y25099686D01*
X7837457Y31629686D02*
X7837457Y29419686D01*
X7837457Y27339686D02*
X7837457Y25129686D01*
X7877457Y31598686D02*
X7877457Y29419686D01*
X7877457Y27339686D02*
X7877457Y25160686D01*
X7917457Y31567686D02*
X7917457Y29419686D01*
X7917457Y27339686D02*
X7917457Y25191686D01*
X7957457Y31535686D02*
X7957457Y29419686D01*
X7957457Y27339686D02*
X7957457Y25223686D01*
X7997457Y31502686D02*
X7997457Y29419686D01*
X7997457Y27339686D02*
X7997457Y25256686D01*
X8037457Y31468686D02*
X8037457Y29419686D01*
X8037457Y27339686D02*
X8037457Y25290686D01*
X8077457Y31434686D02*
X8077457Y29419686D01*
X8077457Y27339686D02*
X8077457Y25324686D01*
X8117457Y31398686D02*
X8117457Y29419686D01*
X8117457Y27339686D02*
X8117457Y25360686D01*
X8157457Y31361686D02*
X8157457Y25397686D01*
X8197457Y31324686D02*
X8197457Y25434686D01*
X8237457Y31285686D02*
X8237457Y25473686D01*
X8277457Y31246686D02*
X8277457Y25512686D01*
X8317457Y31205686D02*
X8317457Y25553686D01*
X8357457Y31163686D02*
X8357457Y25595686D01*
X8397457Y31120686D02*
X8397457Y25638686D01*
X8437457Y31075686D02*
X8437457Y25683686D01*
X8477457Y31030686D02*
X8477457Y25728686D01*
X8517457Y30983686D02*
X8517457Y25775686D01*
X8557457Y30934686D02*
X8557457Y25824686D01*
X8597457Y30884686D02*
X8597457Y25874686D01*
X8637457Y30832686D02*
X8637457Y25926686D01*
X8677457Y30779686D02*
X8677457Y25979686D01*
X8717457Y30723686D02*
X8717457Y26035686D01*
X8757457Y30666686D02*
X8757457Y26092686D01*
X8797457Y30606686D02*
X8797457Y26152686D01*
X8837457Y30544686D02*
X8837457Y26214686D01*
X8877457Y30480686D02*
X8877457Y26278686D01*
X8917457Y30413686D02*
X8917457Y26345686D01*
X8957457Y30343686D02*
X8957457Y26415686D01*
X8997457Y30269686D02*
X8997457Y26489686D01*
X9037457Y30192686D02*
X9037457Y26566686D01*
X9077457Y30110686D02*
X9077457Y26648686D01*
X9117457Y30023686D02*
X9117457Y26735686D01*
X9157457Y29931686D02*
X9157457Y26827686D01*
X9197457Y29832686D02*
X9197457Y26926686D01*
X9237457Y29725686D02*
X9237457Y27033686D01*
X9277457Y29607686D02*
X9277457Y27151686D01*
X9317457Y29476686D02*
X9317457Y27282686D01*
X9357457Y29326686D02*
X9357457Y27432686D01*
X9397457Y29147686D02*
X9397457Y27611686D01*
X9437457Y28912686D02*
X9437457Y27846686D01*
X9477457Y28379686D02*
G75*
G02*
X1237457Y28379686I-4120000J0D01*
G01*
X1237457Y28379686D02*
G75*
G02*
X9477457Y28379686I4120000J0D01*
G01*
%TO.C,R6*%
X26525108Y23519250D02*
X26525108Y23065122D01*
X27995108Y23519250D02*
X27995108Y23065122D01*
%TO.C,D1*%
X43110108Y28239686D02*
X53330108Y28239686D01*
X43110108Y23619686D02*
X43110108Y28239686D01*
X46370108Y23619686D02*
X46370108Y24999686D01*
X50070108Y23619686D02*
X50070108Y24999686D01*
X53330108Y28239686D02*
X53330108Y23619686D01*
X53330108Y24999686D02*
X43110108Y24999686D01*
X53330108Y23619686D02*
X43110108Y23619686D01*
%TO.C,C6*%
X14200108Y31090938D02*
X14200108Y29668434D01*
X16020108Y31090938D02*
X16020108Y29668434D01*
%TO.C,C1a2*%
X31850108Y3615938D02*
X31850108Y2193434D01*
X33670108Y3615938D02*
X33670108Y2193434D01*
%TO.C,Q2*%
X29650108Y26577186D02*
X30650108Y26577186D01*
X29650108Y25057186D02*
X29650108Y26577186D01*
X29700108Y25057186D02*
X29650108Y25057186D01*
X31600108Y25057186D02*
X30820108Y25057186D01*
X31770108Y26577186D02*
X32770108Y26577186D01*
X32770108Y26577186D02*
X32770108Y25057186D01*
X32770108Y25057186D02*
X32720108Y25057186D01*
X31160108Y24277186D02*
X30830108Y24517186D01*
X31160108Y24757186D01*
X31160108Y24277186D01*
G36*
X31160108Y24277186D02*
G01*
X30830108Y24517186D01*
X31160108Y24757186D01*
X31160108Y24277186D01*
G37*
%TD*%
%LPC*%
D13*
%TO.C,R4*%
X9435108Y21379686D03*
X11260108Y21379686D03*
%TD*%
D14*
%TO.C,J5*%
X12760108Y2379686D03*
D15*
X10220108Y2379686D03*
X7680108Y2379686D03*
X5140108Y2379686D03*
X2600108Y2379686D03*
%TD*%
D16*
%TO.C,C3*%
X13760108Y21379686D03*
X13760108Y19479686D03*
%TD*%
D14*
%TO.C,J_VIN1*%
X21260108Y31379686D03*
D15*
X21260108Y28839686D03*
%TD*%
D16*
%TO.C,C1b2*%
X53760108Y21879686D03*
X53760108Y19979686D03*
%TD*%
D14*
%TO.C,J2*%
X57760108Y18879686D03*
D15*
X57760108Y16339686D03*
%TD*%
D17*
%TO.C,R2*%
X47260108Y15379686D03*
X47260108Y13554686D03*
%TD*%
D18*
%TO.C,C1a4*%
X37760108Y4379686D03*
X37760108Y1429686D03*
%TD*%
D17*
%TO.C,R5*%
X27260108Y28379686D03*
X27260108Y26554686D03*
%TD*%
D18*
%TO.C,C1a7*%
X45260108Y9379686D03*
X45260108Y6429686D03*
%TD*%
D19*
%TO.C,C5*%
X48760108Y37379686D03*
D20*
X45260108Y37379686D03*
%TD*%
D18*
%TO.C,C1a3*%
X35260108Y9379686D03*
X35260108Y6429686D03*
%TD*%
D21*
%TO.C,C4*%
X32860108Y19879686D03*
X34760108Y19879686D03*
%TD*%
D16*
%TO.C,C2*%
X6760108Y19379686D03*
X6760108Y17479686D03*
%TD*%
D13*
%TO.C,R7*%
X41332910Y30629686D03*
X43157910Y30629686D03*
%TD*%
D18*
%TO.C,C1a1*%
X30260108Y9379686D03*
X30260108Y6429686D03*
%TD*%
D16*
%TO.C,C1b1*%
X50260108Y21879686D03*
X50260108Y19979686D03*
%TD*%
D22*
%TO.C,R3*%
X47260108Y18054686D03*
X47260108Y19879686D03*
%TD*%
D18*
%TO.C,C7*%
X11760108Y31854686D03*
X11760108Y28904686D03*
%TD*%
%TO.C,C1a6*%
X42760108Y4379686D03*
X42760108Y1429686D03*
%TD*%
D13*
%TO.C,R1*%
X18435108Y15379686D03*
X20260108Y15379686D03*
%TD*%
D14*
%TO.C,J4*%
X12760108Y6879686D03*
D15*
X10220108Y6879686D03*
X7680108Y6879686D03*
X5140108Y6879686D03*
X2600108Y6879686D03*
%TD*%
D23*
%TO.C,Q1*%
X37010108Y16879686D03*
X37010108Y15609686D03*
X37010108Y14339686D03*
X37010108Y13069686D03*
X41960108Y13069686D03*
X41960108Y14339686D03*
X41960108Y15609686D03*
X41960108Y16879686D03*
%TD*%
D24*
%TO.C,U1*%
X25660108Y18379686D03*
X25660108Y17879686D03*
X25660108Y17379686D03*
X25660108Y16879686D03*
X25660108Y16379686D03*
X29860108Y16379686D03*
X29860108Y16879686D03*
X29860108Y17379686D03*
X29860108Y17879686D03*
X29860108Y18379686D03*
%TD*%
D14*
%TO.C,J3*%
X12760108Y11879686D03*
D15*
X10220108Y11879686D03*
X7680108Y11879686D03*
X5140108Y11879686D03*
X2600108Y11879686D03*
%TD*%
D25*
%TO.C,L1*%
X32720108Y35379686D03*
X36760108Y35379686D03*
%TD*%
D18*
%TO.C,C1a5*%
X40260108Y9379686D03*
X40260108Y6429686D03*
%TD*%
D26*
%TO.C,D2*%
X13135108Y24754686D03*
D27*
X23295108Y24754686D03*
%TD*%
D28*
%TO.C,C1*%
X3607457Y28379686D03*
D20*
X7107457Y28379686D03*
%TD*%
D17*
%TO.C,R6*%
X27260108Y24204686D03*
X27260108Y22379686D03*
%TD*%
D29*
%TO.C,D1*%
X50760108Y26879686D03*
D30*
X45680108Y26879686D03*
%TD*%
D18*
%TO.C,C6*%
X15110108Y31854686D03*
X15110108Y28904686D03*
%TD*%
%TO.C,C1a2*%
X32760108Y4379686D03*
X32760108Y1429686D03*
%TD*%
D31*
%TO.C,Q2*%
X30260108Y24879686D03*
X32160108Y24879686D03*
X31210108Y26754686D03*
%TD*%
%LPD*%
M02*
