%TF.GenerationSoftware,KiCad,Pcbnew,10.0.0*%
%TF.CreationDate,2026-04-15T12:15:48+01:00*%
%TF.ProjectId,LTC1871_Based_Boost_Controller_V2,4c544331-3837-4315-9f42-617365645f42,rev?*%
%TF.SameCoordinates,Original*%
%TF.FileFunction,Copper,L1,Top*%
%TF.FilePolarity,Positive*%
%FSLAX46Y46*%
G04 Gerber Fmt 4.6, Leading zero omitted, Abs format (unit mm)*
G04 Created by KiCad (PCBNEW 10.0.0) date 2026-04-15 12:15:48*
%MOMM*%
%LPD*%
G01*
G04 APERTURE LIST*
G04 Aperture macros list*
%AMRoundRect*
0 Rectangle with rounded corners*
0 $1 Rounding radius*
0 $2 $3 $4 $5 $6 $7 $8 $9 X,Y pos of 4 corners*
0 Add a 4 corners polygon primitive as box body*
4,1,4,$2,$3,$4,$5,$6,$7,$8,$9,$2,$3,0*
0 Add four circle primitives for the rounded corners*
1,1,$1+$1,$2,$3*
1,1,$1+$1,$4,$5*
1,1,$1+$1,$6,$7*
1,1,$1+$1,$8,$9*
0 Add four rect primitives between the rounded corners*
20,1,$1+$1,$2,$3,$4,$5,0*
20,1,$1+$1,$4,$5,$6,$7,0*
20,1,$1+$1,$6,$7,$8,$9,0*
20,1,$1+$1,$8,$9,$2,$3,0*%
G04 Aperture macros list end*
%TA.AperFunction,SMDPad,CuDef*%
%ADD10RoundRect,0.250000X-0.262500X-0.450000X0.262500X-0.450000X0.262500X0.450000X-0.262500X0.450000X0*%
%TD*%
%TA.AperFunction,ComponentPad*%
%ADD11R,1.700000X1.700000*%
%TD*%
%TA.AperFunction,ComponentPad*%
%ADD12C,1.700000*%
%TD*%
%TA.AperFunction,SMDPad,CuDef*%
%ADD13RoundRect,0.250000X-0.475000X0.250000X-0.475000X-0.250000X0.475000X-0.250000X0.475000X0.250000X0*%
%TD*%
%TA.AperFunction,SMDPad,CuDef*%
%ADD14RoundRect,0.250000X-0.450000X0.262500X-0.450000X-0.262500X0.450000X-0.262500X0.450000X0.262500X0*%
%TD*%
%TA.AperFunction,SMDPad,CuDef*%
%ADD15RoundRect,0.250000X-0.650000X0.325000X-0.650000X-0.325000X0.650000X-0.325000X0.650000X0.325000X0*%
%TD*%
%TA.AperFunction,SMDPad,CuDef*%
%ADD16RoundRect,0.250000X-0.250000X-0.475000X0.250000X-0.475000X0.250000X0.475000X-0.250000X0.475000X0*%
%TD*%
%TA.AperFunction,SMDPad,CuDef*%
%ADD17RoundRect,0.250000X0.450000X-0.262500X0.450000X0.262500X-0.450000X0.262500X-0.450000X-0.262500X0*%
%TD*%
%TA.AperFunction,SMDPad,CuDef*%
%ADD18RoundRect,0.150000X-0.825000X-0.150000X0.825000X-0.150000X0.825000X0.150000X-0.825000X0.150000X0*%
%TD*%
%TA.AperFunction,SMDPad,CuDef*%
%ADD19RoundRect,0.087500X-0.662500X-0.087500X0.662500X-0.087500X0.662500X0.087500X-0.662500X0.087500X0*%
%TD*%
%TA.AperFunction,SMDPad,CuDef*%
%ADD20RoundRect,0.250000X-0.465000X-2.500000X0.465000X-2.500000X0.465000X2.500000X-0.465000X2.500000X0*%
%TD*%
%TA.AperFunction,ComponentPad*%
%ADD21RoundRect,0.250000X-0.550000X-0.550000X0.550000X-0.550000X0.550000X0.550000X-0.550000X0.550000X0*%
%TD*%
%TA.AperFunction,ComponentPad*%
%ADD22C,1.600000*%
%TD*%
%TA.AperFunction,ComponentPad*%
%ADD23R,2.000000X2.000000*%
%TD*%
%TA.AperFunction,ComponentPad*%
%ADD24C,2.000000*%
%TD*%
%TA.AperFunction,SMDPad,CuDef*%
%ADD25RoundRect,0.150000X0.150000X-0.587500X0.150000X0.587500X-0.150000X0.587500X-0.150000X-0.587500X0*%
%TD*%
%TA.AperFunction,ViaPad*%
%ADD26C,0.600000*%
%TD*%
%TA.AperFunction,Conductor*%
%ADD27C,0.500000*%
%TD*%
%TA.AperFunction,Conductor*%
%ADD28C,1.000000*%
%TD*%
%TA.AperFunction,Conductor*%
%ADD29C,0.250000*%
%TD*%
%TA.AperFunction,Conductor*%
%ADD30C,0.200000*%
%TD*%
G04 APERTURE END LIST*
D10*
%TO.P,R4,1*%
%TO.N,Net-(C2-Pad1)*%
X129675000Y-97000000D03*
%TO.P,R4,2*%
%TO.N,Net-(U1-ITH)*%
X131500000Y-97000000D03*
%TD*%
D11*
%TO.P,J5,1,Pin_1_1*%
%TO.N,GND*%
X133000000Y-116000000D03*
D12*
%TO.P,J5,2,Pin_2_2*%
%TO.N,Net-(D1-K)*%
X130460000Y-116000000D03*
%TO.P,J5,3,Pin_3_3*%
%TO.N,unconnected-(J5-Pin_3-Pad3)*%
X127920000Y-116000000D03*
%TO.P,J5,4,Pin_4_4*%
%TO.N,unconnected-(J5-Pin_4-Pad4)*%
X125380000Y-116000000D03*
%TO.P,J5,5,Pin_5_5*%
%TO.N,unconnected-(J5-Pin_5-Pad5)*%
X122840000Y-116000000D03*
%TD*%
D13*
%TO.P,C3,1*%
%TO.N,Net-(U1-ITH)*%
X134000000Y-97000000D03*
%TO.P,C3,2*%
%TO.N,GND*%
X134000000Y-98900000D03*
%TD*%
D11*
%TO.P,J_VIN1,1,Pin_1_1*%
%TO.N,Net-(J3-Pin_2)*%
X141500000Y-87000000D03*
D12*
%TO.P,J_VIN1,2,Pin_2_2*%
%TO.N,GND*%
X141500000Y-89540000D03*
%TD*%
D13*
%TO.P,C1b2,1*%
%TO.N,Net-(D1-K)*%
X174000000Y-96500000D03*
%TO.P,C1b2,2*%
%TO.N,GND*%
X174000000Y-98400000D03*
%TD*%
D11*
%TO.P,J2,1,Pin_1_1*%
%TO.N,Net-(D1-K)*%
X178000000Y-99500000D03*
D12*
%TO.P,J2,2,Pin_2_2*%
%TO.N,GND*%
X178000000Y-102040000D03*
%TD*%
D14*
%TO.P,R2,1*%
%TO.N,Net-(U1-FB)*%
X167500000Y-103000000D03*
%TO.P,R2,2*%
%TO.N,GND*%
X167500000Y-104825000D03*
%TD*%
D15*
%TO.P,C1a4,1*%
%TO.N,Net-(D1-K)*%
X158000000Y-114000000D03*
%TO.P,C1a4,2*%
%TO.N,GND*%
X158000000Y-116950000D03*
%TD*%
D14*
%TO.P,R5,1*%
%TO.N,Net-(J3-Pin_2)*%
X147500000Y-90000000D03*
%TO.P,R5,2*%
%TO.N,Net-(U1-RUN)*%
X147500000Y-91825000D03*
%TD*%
D15*
%TO.P,C1a7,1*%
%TO.N,Net-(D1-K)*%
X165500000Y-109000000D03*
%TO.P,C1a7,2*%
%TO.N,GND*%
X165500000Y-111950000D03*
%TD*%
%TO.P,C1a3,1*%
%TO.N,Net-(D1-K)*%
X155500000Y-109000000D03*
%TO.P,C1a3,2*%
%TO.N,GND*%
X155500000Y-111950000D03*
%TD*%
D16*
%TO.P,C4,1*%
%TO.N,Net-(U1-INTVCC)*%
X153100000Y-98500000D03*
%TO.P,C4,2*%
%TO.N,GND*%
X155000000Y-98500000D03*
%TD*%
D13*
%TO.P,C2,1*%
%TO.N,Net-(C2-Pad1)*%
X127000000Y-99000000D03*
%TO.P,C2,2*%
%TO.N,GND*%
X127000000Y-100900000D03*
%TD*%
D15*
%TO.P,C1a1,1*%
%TO.N,Net-(D1-K)*%
X150500000Y-109000000D03*
%TO.P,C1a1,2*%
%TO.N,GND*%
X150500000Y-111950000D03*
%TD*%
D13*
%TO.P,C1b1,1*%
%TO.N,Net-(D1-K)*%
X170500000Y-96500000D03*
%TO.P,C1b1,2*%
%TO.N,GND*%
X170500000Y-98400000D03*
%TD*%
D17*
%TO.P,R3,1*%
%TO.N,Net-(D1-K)*%
X167500000Y-100325000D03*
%TO.P,R3,2*%
%TO.N,Net-(U1-FB)*%
X167500000Y-98500000D03*
%TD*%
D15*
%TO.P,C7,1*%
%TO.N,Net-(J3-Pin_2)*%
X132000000Y-86525000D03*
%TO.P,C7,2*%
%TO.N,GND*%
X132000000Y-89475000D03*
%TD*%
%TO.P,C1a6,1*%
%TO.N,Net-(D1-K)*%
X163000000Y-114000000D03*
%TO.P,C1a6,2*%
%TO.N,GND*%
X163000000Y-116950000D03*
%TD*%
D10*
%TO.P,R1,1*%
%TO.N,GND*%
X138675000Y-103000000D03*
%TO.P,R1,2*%
%TO.N,Net-(U1-FREQ)*%
X140500000Y-103000000D03*
%TD*%
D11*
%TO.P,J4,1,Pin_1_1*%
%TO.N,GND*%
X133000000Y-111500000D03*
D12*
%TO.P,J4,2,Pin_2_2*%
%TO.N,unconnected-(J4-Pin_2-Pad2)*%
X130460000Y-111500000D03*
%TO.P,J4,3,Pin_3_3*%
%TO.N,unconnected-(J4-Pin_3-Pad3)*%
X127920000Y-111500000D03*
%TO.P,J4,4,Pin_4_4*%
%TO.N,unconnected-(J4-Pin_4-Pad4)*%
X125380000Y-111500000D03*
%TO.P,J4,5,Pin_5_5*%
%TO.N,unconnected-(J4-Pin_5-Pad5)*%
X122840000Y-111500000D03*
%TD*%
D18*
%TO.P,Q1,1,S_1*%
%TO.N,GND*%
X157250000Y-101500000D03*
%TO.P,Q1,2,Source_2*%
X157250000Y-102770000D03*
%TO.P,Q1,3,G_3*%
%TO.N,Net-(Q1-G)*%
X157250000Y-104040000D03*
%TO.P,Q1,4,Source_4*%
%TO.N,GND*%
X157250000Y-105310000D03*
%TO.P,Q1,5,D_5*%
%TO.N,Net-(D1-A)*%
X162200000Y-105310000D03*
%TO.P,Q1,6,Drain_6*%
X162200000Y-104040000D03*
%TO.P,Q1,7,Drain_7*%
X162200000Y-102770000D03*
%TO.P,Q1,8,Drain_8*%
X162200000Y-101500000D03*
%TD*%
D19*
%TO.P,U1,1,RUN_1*%
%TO.N,Net-(U1-RUN)*%
X145900000Y-100000000D03*
%TO.P,U1,2,ITH_2*%
%TO.N,Net-(U1-ITH)*%
X145900000Y-100500000D03*
%TO.P,U1,3,FB_3*%
%TO.N,Net-(U1-FB)*%
X145900000Y-101000000D03*
%TO.P,U1,4,FREQ_4*%
%TO.N,Net-(U1-FREQ)*%
X145900000Y-101500000D03*
%TO.P,U1,5,MODE/SYNC_5*%
%TO.N,GND*%
X145900000Y-102000000D03*
%TO.P,U1,6,GND_6*%
X150100000Y-102000000D03*
%TO.P,U1,7,GATE_7*%
%TO.N,Net-(Q1-G)*%
X150100000Y-101500000D03*
%TO.P,U1,8,INTVCC_8*%
%TO.N,Net-(U1-INTVCC)*%
X150100000Y-101000000D03*
%TO.P,U1,9,VIN_9*%
%TO.N,Net-(J3-Pin_2)*%
X150100000Y-100500000D03*
%TO.P,U1,10,SENSE_10*%
%TO.N,Net-(D1-A)*%
X150100000Y-100000000D03*
%TD*%
D11*
%TO.P,J3,1,Pin_1_1*%
%TO.N,GND*%
X133000000Y-106500000D03*
D12*
%TO.P,J3,2,Pin_2_2*%
%TO.N,Net-(J3-Pin_2)*%
X130460000Y-106500000D03*
%TO.P,J3,3,Pin_3_3*%
%TO.N,unconnected-(J3-Pin_3-Pad3)*%
X127920000Y-106500000D03*
%TO.P,J3,4,Pin_4_4*%
%TO.N,unconnected-(J3-Pin_4-Pad4)*%
X125380000Y-106500000D03*
%TO.P,J3,5,Pin_5_5*%
%TO.N,unconnected-(J3-Pin_5-Pad5)*%
X122840000Y-106500000D03*
%TD*%
D20*
%TO.P,L1,1,1_1*%
%TO.N,Net-(J3-Pin_2)*%
X152960000Y-83000000D03*
%TO.P,L1,2,2_2*%
%TO.N,Net-(D1-A)*%
X157000000Y-83000000D03*
%TD*%
D15*
%TO.P,C1a5,1*%
%TO.N,Net-(D1-K)*%
X160500000Y-109000000D03*
%TO.P,C1a5,2*%
%TO.N,GND*%
X160500000Y-111950000D03*
%TD*%
D21*
%TO.P,C1,1*%
%TO.N,Net-(J3-Pin_2)*%
X123847349Y-90000000D03*
D22*
%TO.P,C1,2*%
%TO.N,GND*%
X127347349Y-90000000D03*
%TD*%
D14*
%TO.P,R6,1*%
%TO.N,Net-(U1-RUN)*%
X147500000Y-94175000D03*
%TO.P,R6,2*%
%TO.N,GND*%
X147500000Y-96000000D03*
%TD*%
D23*
%TO.P,D1,1,K_1*%
%TO.N,Net-(D1-K)*%
X171000000Y-91500000D03*
D24*
%TO.P,D1,2,A_2*%
%TO.N,Net-(D1-A)*%
X165920000Y-91500000D03*
%TD*%
D15*
%TO.P,C6,1*%
%TO.N,Net-(J3-Pin_2)*%
X135350000Y-86525000D03*
%TO.P,C6,2*%
%TO.N,GND*%
X135350000Y-89475000D03*
%TD*%
%TO.P,C1a2,1*%
%TO.N,Net-(D1-K)*%
X153000000Y-114000000D03*
%TO.P,C1a2,2*%
%TO.N,GND*%
X153000000Y-116950000D03*
%TD*%
D25*
%TO.P,Q2,1,G_1*%
%TO.N,GND*%
X150500000Y-93500000D03*
%TO.P,Q2,2,S_2*%
%TO.N,Net-(J3-Pin_2)*%
X152400000Y-93500000D03*
%TO.P,Q2,3,D_3*%
X151450000Y-91625000D03*
%TD*%
D26*
%TO.N,Net-(D1-A)*%
X148000000Y-103500000D03*
%TO.N,GND*%
X137500000Y-90000000D03*
X147500000Y-113000000D03*
X148500000Y-93000000D03*
X162500000Y-112500000D03*
X160500000Y-117500000D03*
X167500000Y-112500000D03*
X132000000Y-100000000D03*
X166500000Y-106500000D03*
X172000000Y-98500000D03*
X136500000Y-102500000D03*
X152000000Y-102500000D03*
X143500000Y-102500000D03*
X157000000Y-97500000D03*
X165500000Y-117500000D03*
X149000000Y-116500000D03*
X129000000Y-101500000D03*
X158000000Y-112500000D03*
X148000000Y-97500000D03*
%TO.N,Net-(D1-A)*%
X150100000Y-99875000D03*
%TD*%
%TO.N,Net-(D1-A)*%
D27*
X148000000Y-106500000D02*
X148000000Y-103500000D01*
D28*
X162580000Y-94000000D02*
X163000000Y-94420000D01*
X157000000Y-94000000D02*
X162580000Y-94000000D01*
X157000000Y-83000000D02*
X157000000Y-94000000D01*
%TO.N,Net-(Q1-G)*%
D27*
X155420000Y-104000000D02*
X155460000Y-104040000D01*
X154500000Y-104000000D02*
X155420000Y-104000000D01*
X154500000Y-101500000D02*
X154500000Y-104000000D01*
%TO.N,Net-(C2-Pad1)*%
X127000000Y-99000000D02*
X129500000Y-99000000D01*
X129675000Y-98825000D02*
X129675000Y-97000000D01*
X129500000Y-99000000D02*
X129675000Y-98825000D01*
%TO.N,Net-(U1-ITH)*%
D29*
X145900000Y-100500000D02*
X145000000Y-100500000D01*
X141500000Y-97000000D02*
X140500000Y-97000000D01*
D27*
X140500000Y-97000000D02*
X131500000Y-97000000D01*
D29*
X145000000Y-100500000D02*
X141500000Y-97000000D01*
%TO.N,GND*%
D27*
X163000000Y-116950000D02*
X164950000Y-116950000D01*
X159270000Y-102770000D02*
X157250000Y-102770000D01*
X161950000Y-111950000D02*
X162500000Y-112500000D01*
X128400000Y-100900000D02*
X129000000Y-101500000D01*
X164950000Y-116950000D02*
X165500000Y-117500000D01*
X158000000Y-116950000D02*
X159950000Y-116950000D01*
X138675000Y-103000000D02*
X137000000Y-103000000D01*
X172100000Y-98400000D02*
X172000000Y-98500000D01*
X159500000Y-105000000D02*
X159500000Y-103000000D01*
X160500000Y-111950000D02*
X161950000Y-111950000D01*
D30*
X132000000Y-89475000D02*
X132000000Y-89500000D01*
D27*
X148550000Y-111950000D02*
X147500000Y-113000000D01*
X149000000Y-93500000D02*
X148500000Y-93000000D01*
X132000000Y-89475000D02*
X135350000Y-89475000D01*
X157250000Y-101500000D02*
X157250000Y-97750000D01*
X157450000Y-111950000D02*
X158000000Y-112500000D01*
X157250000Y-97750000D02*
X157000000Y-97500000D01*
X159190000Y-105310000D02*
X159500000Y-105000000D01*
X155500000Y-111950000D02*
X157450000Y-111950000D01*
X155000000Y-98500000D02*
X156000000Y-98500000D01*
X153000000Y-116950000D02*
X149450000Y-116950000D01*
D29*
X151500000Y-102000000D02*
X152000000Y-102500000D01*
D27*
X147500000Y-97000000D02*
X148000000Y-97500000D01*
D29*
X150100000Y-102000000D02*
X151500000Y-102000000D01*
D27*
X165500000Y-111950000D02*
X166950000Y-111950000D01*
X137000000Y-103000000D02*
X136500000Y-102500000D01*
X159500000Y-103000000D02*
X159270000Y-102770000D01*
X150500000Y-111950000D02*
X148550000Y-111950000D01*
D29*
X145900000Y-102000000D02*
X144000000Y-102000000D01*
D27*
X171900000Y-98400000D02*
X172000000Y-98500000D01*
X127000000Y-100900000D02*
X128400000Y-100900000D01*
X174000000Y-98400000D02*
X172100000Y-98400000D01*
X167500000Y-104825000D02*
X167500000Y-105500000D01*
X135350000Y-89475000D02*
X136975000Y-89475000D01*
X149450000Y-116950000D02*
X149000000Y-116500000D01*
X150500000Y-93500000D02*
X149000000Y-93500000D01*
X134000000Y-98900000D02*
X133100000Y-98900000D01*
X157250000Y-105310000D02*
X159190000Y-105310000D01*
X166950000Y-111950000D02*
X167500000Y-112500000D01*
X157250000Y-102770000D02*
X157250000Y-101500000D01*
X159950000Y-116950000D02*
X160500000Y-117500000D01*
X156000000Y-98500000D02*
X157000000Y-97500000D01*
X170500000Y-98400000D02*
X171900000Y-98400000D01*
X136975000Y-89475000D02*
X137500000Y-90000000D01*
X133100000Y-98900000D02*
X132000000Y-100000000D01*
X147500000Y-96000000D02*
X147500000Y-97000000D01*
X167500000Y-105500000D02*
X166500000Y-106500000D01*
D29*
X144000000Y-102000000D02*
X143500000Y-102500000D01*
D30*
X167500000Y-104825000D02*
X167500000Y-105000000D01*
%TO.N,Net-(D1-K)*%
D28*
X174500000Y-100000000D02*
X175000000Y-99500000D01*
X176500000Y-85500000D02*
X178000000Y-87000000D01*
X167500000Y-100325000D02*
X171000000Y-103825000D01*
X167000000Y-114000000D02*
X167500000Y-114500000D01*
X174000000Y-96500000D02*
X176000000Y-96500000D01*
X155500000Y-109000000D02*
X150500000Y-109000000D01*
X150500000Y-109000000D02*
X147500000Y-109000000D01*
X173000000Y-110000000D02*
X171500000Y-110000000D01*
X148000000Y-114000000D02*
X153000000Y-114000000D01*
X145500000Y-111000000D02*
X145500000Y-114000000D01*
X153000000Y-114000000D02*
X163000000Y-114000000D01*
X165500000Y-109000000D02*
X155500000Y-109000000D01*
X171000000Y-103825000D02*
X171000000Y-109500000D01*
X173000000Y-114000000D02*
X173000000Y-110000000D01*
X170500000Y-110000000D02*
X166500000Y-110000000D01*
X170500000Y-96500000D02*
X174000000Y-96500000D01*
X130460000Y-116000000D02*
X130500000Y-115960000D01*
X171500000Y-110000000D02*
X171000000Y-109500000D01*
X167825000Y-100000000D02*
X174500000Y-100000000D01*
X167500000Y-114500000D02*
X172500000Y-114500000D01*
X145500000Y-114000000D02*
X148000000Y-114000000D01*
X175000000Y-99500000D02*
X178000000Y-99500000D01*
X147500000Y-109000000D02*
X145500000Y-111000000D01*
X178000000Y-98500000D02*
X178000000Y-99500000D01*
X166500000Y-110000000D02*
X165500000Y-109000000D01*
X130500000Y-115960000D02*
X130500000Y-114000000D01*
X171000000Y-91500000D02*
X171000000Y-85500000D01*
X163000000Y-114000000D02*
X167000000Y-114000000D01*
X176000000Y-96500000D02*
X178000000Y-98500000D01*
X176500000Y-85500000D02*
X171000000Y-85500000D01*
X167500000Y-100325000D02*
X167825000Y-100000000D01*
X172500000Y-114500000D02*
X173000000Y-114000000D01*
X178000000Y-87000000D02*
X178000000Y-99500000D01*
X130500000Y-114000000D02*
X145500000Y-114000000D01*
X171000000Y-109500000D02*
X170500000Y-110000000D01*
%TO.N,Net-(J3-Pin_2)*%
X141025000Y-86525000D02*
X141500000Y-87000000D01*
D30*
X150100000Y-100500000D02*
X150829722Y-100500000D01*
D28*
X147500000Y-88460000D02*
X152960000Y-83000000D01*
D27*
X152960000Y-90115000D02*
X152960000Y-91960000D01*
D28*
X123847349Y-90000000D02*
X123847349Y-93347349D01*
D27*
X151000000Y-99000000D02*
X151000000Y-94900000D01*
D28*
X141500000Y-87000000D02*
X144500000Y-87000000D01*
X130475000Y-85000000D02*
X132000000Y-86525000D01*
X130500000Y-104000000D02*
X130460000Y-104040000D01*
X121500000Y-95694698D02*
X121500000Y-104000000D01*
D27*
X153000000Y-92000000D02*
X152400000Y-92600000D01*
D28*
X123847349Y-93347349D02*
X121500000Y-95694698D01*
X132000000Y-86525000D02*
X141025000Y-86525000D01*
X144500000Y-87000000D02*
X147500000Y-90000000D01*
D30*
X150829722Y-100500000D02*
X151100000Y-100229722D01*
D28*
X121500000Y-104000000D02*
X130500000Y-104000000D01*
D27*
X151450000Y-91625000D02*
X151450000Y-90510000D01*
D30*
X151100000Y-100229722D02*
X151100000Y-99100000D01*
D28*
X128847349Y-85000000D02*
X130475000Y-85000000D01*
X132000000Y-86525000D02*
X135350000Y-86525000D01*
D27*
X151450000Y-90510000D02*
X152960000Y-89000000D01*
X152400000Y-92600000D02*
X152400000Y-93500000D01*
X151000000Y-94900000D02*
X152400000Y-93500000D01*
D28*
X123847349Y-90000000D02*
X128847349Y-85000000D01*
X147500000Y-90000000D02*
X147500000Y-88460000D01*
D30*
X151100000Y-99100000D02*
X151000000Y-99000000D01*
D28*
X130460000Y-104040000D02*
X130460000Y-106500000D01*
D27*
X152960000Y-91960000D02*
X153000000Y-92000000D01*
D28*
X152960000Y-89000000D02*
X152960000Y-90115000D01*
X152960000Y-83000000D02*
X152960000Y-89000000D01*
%TO.N,Net-(U1-FB)*%
D29*
X136000000Y-101000000D02*
X135750000Y-101250000D01*
X165500000Y-101000000D02*
X165500000Y-100500000D01*
X165000000Y-107500000D02*
X165000000Y-103000000D01*
X167500000Y-103000000D02*
X165500000Y-101000000D01*
X165500000Y-100500000D02*
X167500000Y-98500000D01*
X165000000Y-103000000D02*
X167500000Y-103000000D01*
X135750000Y-101250000D02*
X135750000Y-107500000D01*
X135750000Y-107500000D02*
X165000000Y-107500000D01*
X145900000Y-101000000D02*
X136000000Y-101000000D01*
%TO.N,Net-(U1-RUN)*%
X145900000Y-100000000D02*
X145900000Y-95775000D01*
X147500000Y-94175000D02*
X147500000Y-91825000D01*
X145900000Y-95775000D02*
X147500000Y-94175000D01*
%TO.N,Net-(U1-INTVCC)*%
X151325000Y-101000000D02*
X153100000Y-99225000D01*
X153100000Y-99225000D02*
X153100000Y-98500000D01*
X150100000Y-101000000D02*
X151325000Y-101000000D01*
%TO.N,Net-(U1-FREQ)*%
X145900000Y-101500000D02*
X142000000Y-101500000D01*
X142000000Y-101500000D02*
X140500000Y-103000000D01*
%TO.N,Net-(Q1-G)*%
X150100000Y-101500000D02*
X154500000Y-101500000D01*
D27*
X155460000Y-104040000D02*
X157250000Y-104040000D01*
%TO.N,Net-(D1-A)*%
X162500000Y-106500000D02*
X162500000Y-105610000D01*
X162500000Y-105610000D02*
X162200000Y-105310000D01*
D28*
X163000000Y-98740000D02*
X163000000Y-100950000D01*
X163000000Y-94420000D02*
X163000000Y-98740000D01*
X165920000Y-91500000D02*
X163000000Y-94420000D01*
X163000000Y-100950000D02*
X162450000Y-101500000D01*
X162450000Y-101500000D02*
X162450000Y-105310000D01*
D27*
X148000000Y-106500000D02*
X162500000Y-106500000D01*
%TD*%
M02*
