M48
; DRILL file KiCad 10.0.0 date 2026-05-06T20:09:22
; FORMAT={-:-/ absolute / inch / decimal}
; #@! TF.CreationDate,2026-05-06T20:09:22+01:00
; #@! TF.GenerationSoftware,Kicad,Pcbnew,10.0.0
; #@! TF.FileFunction,Plated,1,2,PTH
FMAT,2
INCH
; #@! TA.AperFunction,Plated,PTH,ViaDrill
T1C0.0118
; #@! TA.AperFunction,Plated,PTH,ComponentDrill
T2C0.0315
; #@! TA.AperFunction,Plated,PTH,ComponentDrill
T3C0.0394
; #@! TA.AperFunction,Plated,PTH,ComponentDrill
T4C0.0433
%
G90
G05
T1
X0.3449Y0.6646
X0.463Y0.7236
X0.6402Y0.6252
X0.6795Y1.1173
X0.7976Y1.452
X0.8567Y1.3929
X0.8961Y1.2945
X0.9158Y0.6252
X0.9748Y1.3338
X1.0142Y0.9598
X1.0339Y1.5898
X1.0656Y1.0531
X1.0732Y0.2118
X1.0929Y0.822
X1.0929Y0.5858
X1.0933Y1.511
X1.1126Y0.9992
X1.1323Y0.074
X1.152Y1.3535
X1.1544Y1.1783
X1.1756Y0.7285
X1.1913Y0.8811
X1.211Y0.763
X1.2287Y1.0533
X1.2504Y0.6252
X1.2661Y0.9795
X1.2898Y1.1173
X1.4079Y1.0386
X1.4472Y0.822
X1.4866Y0.2315
X1.5457Y1.0583
X1.585Y0.0346
X1.6638Y0.2315
X1.7819Y1.1961
X1.7819Y0.0346
X1.8213Y0.4677
X1.8606Y0.2315
X2.0378Y0.7827
T2
X0.142Y1.1173
X0.2798Y1.1173
X1.7819Y1.4716
X1.9197Y1.4716
T3
X0.1024Y0.4677
X0.1024Y0.2709
X0.1024Y0.0937
X0.2024Y0.4677
X0.2024Y0.2709
X0.2024Y0.0937
X0.3024Y0.4677
X0.3024Y0.2709
X0.3024Y0.0937
X0.4024Y0.4677
X0.4024Y0.2709
X0.4024Y0.0937
X0.5024Y0.4677
X0.5024Y0.2709
X0.5024Y0.0937
X0.837Y1.2354
X0.837Y1.1354
X2.274Y0.7433
X2.274Y0.6433
T4
X1.7984Y1.0583
X1.9984Y1.0583
M30
